G04*
G04 #@! TF.GenerationSoftware,Altium Limited,Altium Designer,18.1.7 (191)*
G04*
G04 Layer_Color=32896*
%FSLAX44Y44*%
%MOMM*%
G71*
G01*
G75*
%ADD10C,0.2540*%
%ADD12C,0.2000*%
%ADD76C,0.6000*%
%ADD77C,0.2500*%
D10*
X702206Y825269D02*
X727606D01*
X702206Y799870D02*
Y825269D01*
Y799870D02*
X727606D01*
X707286Y804949D02*
X709826D01*
X727606Y799870D02*
X803806D01*
Y825269D01*
X702206Y799870D02*
Y825269D01*
X727606D02*
X803806D01*
X1243970Y676470D02*
X1388970D01*
X1243970Y583650D02*
Y624290D01*
Y531470D02*
X1388970D01*
Y567720D01*
Y640220D02*
Y676470D01*
X756920Y708660D02*
Y713740D01*
X750570Y708660D02*
X756920D01*
Y728980D02*
Y734060D01*
X750570D02*
X756920D01*
X577850Y647700D02*
Y660400D01*
X471576Y435490D02*
Y448190D01*
X556260Y682230D02*
X568960D01*
X564223Y736600D02*
X576923D01*
X664360Y574933D02*
Y587633D01*
X667156Y434610D02*
Y447310D01*
X621702Y434610D02*
Y447310D01*
X569366Y435490D02*
Y448190D01*
X521244Y435490D02*
Y448190D01*
X518298Y574933D02*
Y587633D01*
X518744Y375920D02*
Y388620D01*
X422379Y377070D02*
Y389770D01*
X518298Y516847D02*
Y529548D01*
X468546Y515967D02*
Y528667D01*
X420704Y516847D02*
Y529548D01*
X568398Y375540D02*
Y388240D01*
X664360Y515620D02*
Y528320D01*
X618756Y515620D02*
Y528320D01*
X701040Y759460D02*
X713740D01*
X655480Y651702D02*
Y664402D01*
X569222Y515620D02*
Y528320D01*
X420370Y481710D02*
X426720D01*
Y476630D02*
Y481710D01*
X420370Y456310D02*
X426720D01*
Y461390D01*
X420370Y622000D02*
X426720D01*
Y616920D02*
Y622000D01*
X420370Y596600D02*
X426720D01*
Y601680D01*
X570682Y480016D02*
X577033D01*
Y474936D02*
Y480016D01*
X570682Y454616D02*
X577033D01*
Y459696D01*
X567952Y620470D02*
X574302D01*
Y615390D02*
Y620470D01*
X567952Y595070D02*
X574302D01*
Y600150D01*
X618830Y574933D02*
Y587633D01*
X471452Y481980D02*
X477802D01*
Y476900D02*
Y481980D01*
X471452Y456580D02*
X477802D01*
Y461660D01*
X469776Y621120D02*
X476126D01*
Y616040D02*
Y621120D01*
X469776Y595720D02*
X476126D01*
Y600800D01*
X620432Y481330D02*
X626782D01*
Y476250D02*
Y481330D01*
X620432Y455930D02*
X626782D01*
Y461010D01*
X618756Y620470D02*
X625106D01*
Y615390D02*
Y620470D01*
X618756Y595070D02*
X625106D01*
Y600150D01*
X668020Y620470D02*
X674370D01*
Y615390D02*
Y620470D01*
X668020Y595070D02*
X674370D01*
Y600150D01*
X422379Y434610D02*
Y447310D01*
X569222Y574933D02*
Y587633D01*
X468630Y574933D02*
Y587633D01*
X470222Y376190D02*
Y388890D01*
X667156Y375540D02*
Y388240D01*
X619202Y375540D02*
Y388240D01*
X423609Y426383D02*
X429959D01*
Y421303D02*
Y426383D01*
X423609Y400983D02*
X429959D01*
Y406063D01*
X419915Y563880D02*
X426265D01*
Y558800D02*
Y563880D01*
X419915Y538480D02*
X426265D01*
Y543560D01*
X570636Y424853D02*
X576986D01*
Y419773D02*
Y424853D01*
X570636Y399453D02*
X576986D01*
Y404533D01*
X567952Y562145D02*
X574302D01*
Y557065D02*
Y562145D01*
X567952Y536744D02*
X574302D01*
Y541824D01*
X471452Y425503D02*
X477802D01*
Y420423D02*
Y425503D01*
X471452Y400103D02*
X477802D01*
Y405183D01*
X469263Y562794D02*
X475613D01*
Y557714D02*
Y562794D01*
X469263Y537394D02*
X475613D01*
Y542474D01*
X620432Y424853D02*
X626782D01*
Y419773D02*
Y424853D01*
X620432Y399453D02*
X626782D01*
Y404533D01*
X619760Y562145D02*
X626110D01*
Y557065D02*
Y562145D01*
X619760Y536744D02*
X626110D01*
Y541824D01*
X519974Y481710D02*
X526324D01*
Y476630D02*
Y481710D01*
X519974Y456310D02*
X526324D01*
Y461390D01*
X518298Y620850D02*
X524648D01*
Y615770D02*
Y620850D01*
X518298Y595450D02*
X524648D01*
Y600530D01*
X519974Y425233D02*
X526324D01*
Y420153D02*
Y425233D01*
X519974Y399833D02*
X526324D01*
Y404913D01*
X667156Y481330D02*
X673506D01*
Y476250D02*
Y481330D01*
X667156Y455930D02*
X673506D01*
Y461010D01*
X519428Y562610D02*
X525778D01*
Y557530D02*
Y562610D01*
X519428Y537210D02*
X525778D01*
Y542290D01*
X668386Y424853D02*
X674736D01*
Y419773D02*
Y424853D01*
X668386Y399453D02*
X674736D01*
Y404533D01*
X665440Y563414D02*
X671790D01*
Y558335D02*
Y563414D01*
X665440Y538014D02*
X671790D01*
Y543094D01*
X421934Y574933D02*
Y587633D01*
X618971Y649162D02*
Y661862D01*
X1128290Y373000D02*
X1203690Y373500D01*
Y627500D01*
X1128290D02*
X1203690D01*
X1127490Y373000D02*
X1128290Y627500D01*
X765302Y622300D02*
X840702Y622800D01*
X765302Y368300D02*
Y622300D01*
Y368300D02*
X840702D01*
X841502Y622800D01*
X1273240Y397540D02*
X1364370D01*
X1254370Y416410D02*
X1273240Y397540D01*
X1254370Y465160D02*
Y481670D01*
X1273240Y500540D01*
X1364370D01*
X1254370Y416410D02*
Y432920D01*
X1364370Y465160D02*
Y500540D01*
Y397540D02*
Y432920D01*
X802520Y730245D02*
X792363D01*
X797442D01*
Y715010D01*
X787285Y727706D02*
X784746Y730245D01*
X779668D01*
X777128Y727706D01*
Y725167D01*
X779668Y722627D01*
X782207D01*
X779668D01*
X777128Y720088D01*
Y717549D01*
X779668Y715010D01*
X784746D01*
X787285Y717549D01*
X840232Y632460D02*
Y647695D01*
X832615D01*
X830075Y645156D01*
Y640078D01*
X832615Y637538D01*
X840232D01*
X824997Y647695D02*
X814840D01*
Y645156D01*
X824997Y634999D01*
Y632460D01*
X1221766Y637660D02*
Y652895D01*
X1214149D01*
X1211609Y650356D01*
Y645278D01*
X1214149Y642738D01*
X1221766D01*
X1196374Y652895D02*
X1201453Y650356D01*
X1206531Y645278D01*
Y640199D01*
X1203992Y637660D01*
X1198914D01*
X1196374Y640199D01*
Y642738D01*
X1198914Y645278D01*
X1206531D01*
X1414640Y641345D02*
Y626110D01*
X1404483D01*
X1399405D02*
X1394327D01*
X1396866D01*
Y641345D01*
X1399405Y638806D01*
X657540Y730245D02*
X652462D01*
X655001D01*
Y715010D01*
X657540D01*
X652462D01*
X634687Y727706D02*
X637227Y730245D01*
X642305D01*
X644844Y727706D01*
Y717549D01*
X642305Y715010D01*
X637227D01*
X634687Y717549D01*
X629609Y727706D02*
X627070Y730245D01*
X621992D01*
X619452Y727706D01*
Y725167D01*
X621992Y722627D01*
X624531D01*
X621992D01*
X619452Y720088D01*
Y717549D01*
X621992Y715010D01*
X627070D01*
X629609Y717549D01*
X698091Y816375D02*
X700630Y818915D01*
X705708D01*
X708248Y816375D01*
Y813836D01*
X705708Y811297D01*
X700630D01*
X698091Y808758D01*
Y806219D01*
X700630Y803680D01*
X705708D01*
X708248Y806219D01*
X693012Y818915D02*
X682856D01*
X687934D01*
Y803680D01*
X677777D02*
Y818915D01*
X672699Y813836D01*
X667621Y818915D01*
Y803680D01*
X652386Y818915D02*
X662542D01*
Y811297D01*
X657464D01*
X662542D01*
Y803680D01*
X647307Y816375D02*
X644768Y818915D01*
X639690D01*
X637151Y816375D01*
Y806219D01*
X639690Y803680D01*
X644768D01*
X647307Y806219D01*
Y816375D01*
X1090334Y693363D02*
X1087795Y695902D01*
Y700981D01*
X1090334Y703520D01*
X1100491D01*
X1103030Y700981D01*
Y695902D01*
X1100491Y693363D01*
X1090334Y678128D02*
X1087795Y680667D01*
Y685746D01*
X1090334Y688285D01*
X1100491D01*
X1103030Y685746D01*
Y680667D01*
X1100491Y678128D01*
X1103030Y673050D02*
Y667972D01*
Y670511D01*
X1087795D01*
X1090334Y673050D01*
X1103030Y650197D02*
Y660354D01*
X1092873Y650197D01*
X1090334D01*
X1087795Y652737D01*
Y657815D01*
X1090334Y660354D01*
X1090334Y758693D02*
X1087795Y761233D01*
Y766311D01*
X1090334Y768850D01*
X1100491D01*
X1103030Y766311D01*
Y761233D01*
X1100491Y758693D01*
X1090334Y743458D02*
X1087795Y745997D01*
Y751076D01*
X1090334Y753615D01*
X1100491D01*
X1103030Y751076D01*
Y745997D01*
X1100491Y743458D01*
X1103030Y738380D02*
Y733301D01*
Y735841D01*
X1087795D01*
X1090334Y738380D01*
X1103030Y725684D02*
Y720606D01*
Y723145D01*
X1087795D01*
X1090334Y725684D01*
X1091604Y828483D02*
X1089065Y831022D01*
Y836101D01*
X1091604Y838640D01*
X1101761D01*
X1104300Y836101D01*
Y831022D01*
X1101761Y828483D01*
X1091604Y813248D02*
X1089065Y815787D01*
Y820866D01*
X1091604Y823405D01*
X1101761D01*
X1104300Y820866D01*
Y815787D01*
X1101761Y813248D01*
X1104300Y808170D02*
Y803092D01*
Y805631D01*
X1089065D01*
X1091604Y808170D01*
Y795474D02*
X1089065Y792935D01*
Y787857D01*
X1091604Y785317D01*
X1101761D01*
X1104300Y787857D01*
Y792935D01*
X1101761Y795474D01*
X1091604D01*
X945554Y818323D02*
X943015Y820863D01*
Y825941D01*
X945554Y828480D01*
X955711D01*
X958250Y825941D01*
Y820863D01*
X955711Y818323D01*
X945554Y803088D02*
X943015Y805627D01*
Y810706D01*
X945554Y813245D01*
X955711D01*
X958250Y810706D01*
Y805627D01*
X955711Y803088D01*
Y798010D02*
X958250Y795471D01*
Y790392D01*
X955711Y787853D01*
X945554D01*
X943015Y790392D01*
Y795471D01*
X945554Y798010D01*
X948093D01*
X950632Y795471D01*
Y787853D01*
X946824Y749793D02*
X944285Y752333D01*
Y757411D01*
X946824Y759950D01*
X956981D01*
X959520Y757411D01*
Y752333D01*
X956981Y749793D01*
X946824Y734558D02*
X944285Y737097D01*
Y742176D01*
X946824Y744715D01*
X956981D01*
X959520Y742176D01*
Y737097D01*
X956981Y734558D01*
X946824Y729480D02*
X944285Y726941D01*
Y721862D01*
X946824Y719323D01*
X949363D01*
X951902Y721862D01*
X954442Y719323D01*
X956981D01*
X959520Y721862D01*
Y726941D01*
X956981Y729480D01*
X954442D01*
X951902Y726941D01*
X949363Y729480D01*
X946824D01*
X951902Y726941D02*
Y721862D01*
X944284Y682433D02*
X941745Y684973D01*
Y690051D01*
X944284Y692590D01*
X954441D01*
X956980Y690051D01*
Y684973D01*
X954441Y682433D01*
X944284Y667198D02*
X941745Y669737D01*
Y674816D01*
X944284Y677355D01*
X954441D01*
X956980Y674816D01*
Y669737D01*
X954441Y667198D01*
X941745Y662120D02*
Y651963D01*
X944284D01*
X954441Y662120D01*
X956980D01*
X1017034Y681933D02*
X1014495Y684473D01*
Y689551D01*
X1017034Y692090D01*
X1027190D01*
X1029730Y689551D01*
Y684473D01*
X1027190Y681933D01*
X1017034Y666698D02*
X1014495Y669237D01*
Y674316D01*
X1017034Y676855D01*
X1027190D01*
X1029730Y674316D01*
Y669237D01*
X1027190Y666698D01*
X1014495Y651463D02*
X1017034Y656542D01*
X1022112Y661620D01*
X1027190D01*
X1029730Y659081D01*
Y654002D01*
X1027190Y651463D01*
X1024651D01*
X1022112Y654002D01*
Y661620D01*
X1018064Y748533D02*
X1015525Y751072D01*
Y756151D01*
X1018064Y758690D01*
X1028221D01*
X1030760Y756151D01*
Y751072D01*
X1028221Y748533D01*
X1018064Y733298D02*
X1015525Y735837D01*
Y740916D01*
X1018064Y743455D01*
X1028221D01*
X1030760Y740916D01*
Y735837D01*
X1028221Y733298D01*
X1015525Y718063D02*
Y728220D01*
X1023142D01*
X1020603Y723141D01*
Y720602D01*
X1023142Y718063D01*
X1028221D01*
X1030760Y720602D01*
Y725681D01*
X1028221Y728220D01*
X1017914Y817113D02*
X1015375Y819652D01*
Y824731D01*
X1017914Y827270D01*
X1028070D01*
X1030610Y824731D01*
Y819652D01*
X1028070Y817113D01*
X1017914Y801878D02*
X1015375Y804417D01*
Y809496D01*
X1017914Y812035D01*
X1028070D01*
X1030610Y809496D01*
Y804417D01*
X1028070Y801878D01*
X1030610Y789182D02*
X1015375D01*
X1022992Y796800D01*
Y786643D01*
X867638Y820863D02*
X865099Y823402D01*
Y828481D01*
X867638Y831020D01*
X877795D01*
X880334Y828481D01*
Y823402D01*
X877795Y820863D01*
X867638Y805628D02*
X865099Y808167D01*
Y813246D01*
X867638Y815785D01*
X877795D01*
X880334Y813246D01*
Y808167D01*
X877795Y805628D01*
X867638Y800550D02*
X865099Y798011D01*
Y792932D01*
X867638Y790393D01*
X870177D01*
X872717Y792932D01*
Y795471D01*
Y792932D01*
X875256Y790393D01*
X877795D01*
X880334Y792932D01*
Y798011D01*
X877795Y800550D01*
X864274Y756153D02*
X861735Y758692D01*
Y763771D01*
X864274Y766310D01*
X874431D01*
X876970Y763771D01*
Y758692D01*
X874431Y756153D01*
X864274Y740918D02*
X861735Y743457D01*
Y748536D01*
X864274Y751075D01*
X874431D01*
X876970Y748536D01*
Y743457D01*
X874431Y740918D01*
X876970Y725683D02*
Y735840D01*
X866813Y725683D01*
X864274D01*
X861735Y728222D01*
Y733301D01*
X864274Y735840D01*
X866814Y685803D02*
X864275Y688343D01*
Y693421D01*
X866814Y695960D01*
X876971D01*
X879510Y693421D01*
Y688343D01*
X876971Y685803D01*
X866814Y670568D02*
X864275Y673107D01*
Y678186D01*
X866814Y680725D01*
X876971D01*
X879510Y678186D01*
Y673107D01*
X876971Y670568D01*
X879510Y665490D02*
Y660412D01*
Y662951D01*
X864275D01*
X866814Y665490D01*
X1373889Y522188D02*
X1376429Y524727D01*
X1381507D01*
X1384046Y522188D01*
Y512031D01*
X1381507Y509492D01*
X1376429D01*
X1373889Y512031D01*
X1368811Y509492D02*
X1363733D01*
X1366272D01*
Y524727D01*
X1368811Y522188D01*
X1356115Y512031D02*
X1353576Y509492D01*
X1348497D01*
X1345958Y512031D01*
Y522188D01*
X1348497Y524727D01*
X1353576D01*
X1356115Y522188D01*
Y519649D01*
X1353576Y517110D01*
X1345958D01*
D12*
X609040Y749860D02*
X666040D01*
X609040Y692860D02*
X666040D01*
Y749860D01*
X609040Y692860D02*
Y749860D01*
X1034310Y688535D02*
X1044310D01*
X1034310Y662535D02*
Y688535D01*
X1070310D02*
X1080310D01*
Y662535D02*
Y688535D01*
X1034310Y757675D02*
X1044310D01*
X1034310Y731675D02*
Y757675D01*
X1070310D02*
X1080310D01*
Y731675D02*
Y757675D01*
X1034310Y823655D02*
X1044310D01*
X1034310Y797655D02*
Y823655D01*
X1070310D02*
X1080310D01*
Y797655D02*
Y823655D01*
X889530D02*
X899530D01*
X889530Y797655D02*
Y823655D01*
X925530D02*
X935530D01*
Y797655D02*
Y823655D01*
X889530Y757675D02*
X899530D01*
X889530Y731675D02*
Y757675D01*
X925530D02*
X935530D01*
Y731675D02*
Y757675D01*
X889530Y689035D02*
X899530D01*
X889530Y663035D02*
Y689035D01*
X925530D02*
X935530D01*
Y663035D02*
Y689035D01*
X963550Y688535D02*
X973550D01*
X963550Y662535D02*
Y688535D01*
X999550D02*
X1009550D01*
Y662535D02*
Y688535D01*
X963310Y757675D02*
X973310D01*
X963310Y731675D02*
Y757675D01*
X999310D02*
X1009310D01*
Y731675D02*
Y757675D01*
X963550Y823655D02*
X973550D01*
X963550Y797655D02*
Y823655D01*
X999550D02*
X1009550D01*
Y797655D02*
Y823655D01*
X811614Y823655D02*
X821614D01*
X811614Y797655D02*
Y823655D01*
X847614D02*
X857614D01*
Y797655D02*
Y823655D01*
X811614Y756519D02*
X821614D01*
X811614Y730519D02*
Y756519D01*
X847614D02*
X857614D01*
Y730519D02*
Y756519D01*
X811614Y688535D02*
X821614D01*
X811614Y662535D02*
Y688535D01*
X847614D02*
X857614D01*
Y662535D02*
Y688535D01*
D76*
X622040Y702860D02*
G03*
X622040Y702860I-3000J0D01*
G01*
D77*
X596290Y685110D02*
G03*
X596290Y685110I-1250J0D01*
G01*
X1081560Y656035D02*
G03*
X1081560Y656035I-1250J0D01*
G01*
X1081560Y725175D02*
G03*
X1081560Y725175I-1250J0D01*
G01*
X1081560Y791155D02*
G03*
X1081560Y791155I-1250J0D01*
G01*
X936780D02*
G03*
X936780Y791155I-1250J0D01*
G01*
Y725175D02*
G03*
X936780Y725175I-1250J0D01*
G01*
Y656535D02*
G03*
X936780Y656535I-1250J0D01*
G01*
X1010800Y656035D02*
G03*
X1010800Y656035I-1250J0D01*
G01*
X1010560Y725175D02*
G03*
X1010560Y725175I-1250J0D01*
G01*
X1010800Y791155D02*
G03*
X1010800Y791155I-1250J0D01*
G01*
X858864Y791155D02*
G03*
X858864Y791155I-1250J0D01*
G01*
Y724019D02*
G03*
X858864Y724019I-1250J0D01*
G01*
X858864Y656035D02*
G03*
X858864Y656035I-1250J0D01*
G01*
M02*
