G04*
G04 #@! TF.GenerationSoftware,Altium Limited,Altium Designer,18.1.7 (191)*
G04*
G04 Layer_Color=2752767*
%FSLAX44Y44*%
%MOMM*%
G71*
G01*
G75*
%ADD78C,0.0508*%
D78*
X538988Y536448D02*
Y540512D01*
X543052D01*
Y536448D01*
X538988D01*
X652791Y557878D02*
Y561942D01*
X656855D01*
Y557878D01*
X652791D01*
X634539Y559308D02*
Y563372D01*
X638603D01*
Y559308D01*
X634539D01*
X717198Y620305D02*
Y624369D01*
X721262D01*
Y620305D01*
X717198D01*
X640613Y701548D02*
Y705612D01*
X644677D01*
Y701548D01*
X640613D01*
X486376Y427102D02*
Y431166D01*
X490440D01*
Y427102D01*
X486376D01*
X539196Y427421D02*
Y431485D01*
X543260D01*
Y427421D01*
X539196D01*
X937158Y849708D02*
Y853772D01*
X941222D01*
Y849708D01*
X937158D01*
X776478Y699707D02*
Y703772D01*
X780542D01*
Y699707D01*
X776478D01*
X457450Y616036D02*
Y620100D01*
X461514D01*
Y616036D01*
X457450D01*
X776478Y711708D02*
Y715772D01*
X780542D01*
Y711708D01*
X776478D01*
X723189Y569468D02*
Y573532D01*
X727253D01*
Y569468D01*
X723189D01*
X657421Y615358D02*
Y619422D01*
X661485D01*
Y615358D01*
X657421D01*
X875004Y456115D02*
Y460179D01*
X879068D01*
Y456115D01*
X875004D01*
X596028Y572751D02*
Y576815D01*
X600092D01*
Y572751D01*
X596028D01*
X723189Y542748D02*
Y546812D01*
X727253D01*
Y542748D01*
X723189D01*
Y592078D02*
Y596142D01*
X727253D01*
Y592078D01*
X723189D01*
X550178Y626794D02*
Y630858D01*
X554242D01*
Y626794D01*
X550178D01*
X618209Y567221D02*
Y571285D01*
X622273D01*
Y567221D01*
X618209D01*
X621994Y595388D02*
Y599452D01*
X626058D01*
Y595388D01*
X621994D01*
X830843Y457748D02*
Y461812D01*
X834907D01*
Y457748D01*
X830843D01*
X608670Y474828D02*
Y478892D01*
X612733D01*
Y474828D01*
X608670D01*
X498348Y663288D02*
Y667352D01*
X502412D01*
Y663288D01*
X498348D01*
X449410Y639318D02*
Y643382D01*
X453474D01*
Y639318D01*
X449410D01*
X429768Y593598D02*
Y597662D01*
X433832D01*
Y593598D01*
X429768D01*
X399068Y613918D02*
Y617982D01*
X403132D01*
Y613918D01*
X399068D01*
X505968Y610698D02*
Y614762D01*
X510032D01*
Y610698D01*
X505968D01*
X568541Y744568D02*
Y748632D01*
X572605D01*
Y744568D01*
X568541D01*
X621728Y532638D02*
Y536702D01*
X625792D01*
Y532638D01*
X621728D01*
X584554Y674971D02*
Y679035D01*
X588618D01*
Y674971D01*
X584554D01*
X677418Y767058D02*
Y771122D01*
X681482D01*
Y767058D01*
X677418D01*
X705358Y767428D02*
Y771492D01*
X709422D01*
Y767428D01*
X705358D01*
X1055278Y706502D02*
Y710566D01*
X1059342D01*
Y706502D01*
X1055278D01*
X801878Y826008D02*
Y830072D01*
X805942D01*
Y826008D01*
X801878D01*
X1241298Y533538D02*
Y537602D01*
X1245362D01*
Y533538D01*
X1241298D01*
X1312418Y462481D02*
Y466545D01*
X1316482D01*
Y462481D01*
X1312418D01*
X887645Y777748D02*
Y781812D01*
X891709D01*
Y777748D01*
X887645D01*
X1273048Y715358D02*
Y719422D01*
X1277112D01*
Y715358D01*
X1273048D01*
X1308608D02*
Y719422D01*
X1312672D01*
Y715358D01*
X1308608D01*
X1412608Y450298D02*
Y454362D01*
X1416672D01*
Y450298D01*
X1412608D01*
X1123732Y704898D02*
Y708962D01*
X1127796D01*
Y704898D01*
X1123732D01*
X1139548Y328168D02*
Y332232D01*
X1143612D01*
Y328168D01*
X1139548D01*
X1086945Y487358D02*
Y491422D01*
X1091009D01*
Y487358D01*
X1086945D01*
X1045718Y555498D02*
Y559562D01*
X1049782D01*
Y555498D01*
X1045718D01*
X1035663Y555437D02*
Y559501D01*
X1039727D01*
Y555437D01*
X1035663D01*
X1217251Y626618D02*
Y630682D01*
X1221315D01*
Y626618D01*
X1217251D01*
X1117648Y526479D02*
Y530542D01*
X1121712D01*
Y526479D01*
X1117648D01*
X1108189Y536618D02*
Y540682D01*
X1112253D01*
Y536618D01*
X1108189D01*
X1097588Y627888D02*
Y631952D01*
X1101652D01*
Y627888D01*
X1097588D01*
Y615825D02*
Y619889D01*
X1101652D01*
Y615825D01*
X1097588D01*
Y603758D02*
Y607822D01*
X1101652D01*
Y603758D01*
X1097588D01*
Y592128D02*
Y596192D01*
X1101652D01*
Y592128D01*
X1097588D01*
X1081278Y667258D02*
Y671322D01*
X1085342D01*
Y667258D01*
X1081278D01*
X1137694Y676148D02*
Y680212D01*
X1141758D01*
Y676148D01*
X1137694D01*
X1149643D02*
Y680212D01*
X1153707D01*
Y676148D01*
X1149643D01*
X1030699Y521641D02*
Y525705D01*
X1034763D01*
Y521641D01*
X1030699D01*
X1044645Y519791D02*
Y523855D01*
X1048709D01*
Y519791D01*
X1044645D01*
X1161876Y704898D02*
Y708962D01*
X1165940D01*
Y704898D01*
X1161876D01*
X1048869Y529838D02*
Y533902D01*
X1052933D01*
Y529838D01*
X1048869D01*
X1018622Y549148D02*
Y553212D01*
X1022686D01*
Y549148D01*
X1018622D01*
Y560431D02*
Y564495D01*
X1022686D01*
Y560431D01*
X1018622D01*
Y571589D02*
Y575653D01*
X1022686D01*
Y571589D01*
X1018622D01*
Y582824D02*
Y586888D01*
X1022686D01*
Y582824D01*
X1018622D01*
X990469Y572128D02*
Y576192D01*
X994533D01*
Y572128D01*
X990469D01*
X928050Y528535D02*
Y532599D01*
X932114D01*
Y528535D01*
X928050D01*
X990469Y561848D02*
Y565912D01*
X994533D01*
Y561848D01*
X990469D01*
Y582824D02*
Y586888D01*
X994533D01*
Y582824D01*
X990469D01*
Y593571D02*
Y597635D01*
X994533D01*
Y593571D01*
X990469D01*
X1064751Y543590D02*
Y547654D01*
X1068815D01*
Y543590D01*
X1064751D01*
X1109980Y511795D02*
Y515858D01*
X1114044D01*
Y511795D01*
X1109980D01*
X934296Y626063D02*
Y630127D01*
X938360D01*
Y626063D01*
X934296D01*
X923798Y626134D02*
Y630198D01*
X927862D01*
Y626134D01*
X923798D01*
X992525Y607128D02*
Y611192D01*
X996589D01*
Y607128D01*
X992525D01*
X1149643Y704898D02*
Y708962D01*
X1153707D01*
Y704898D01*
X1149643D01*
X1137694D02*
Y708962D01*
X1141758D01*
Y704898D01*
X1137694D01*
X982218Y607128D02*
Y611192D01*
X986282D01*
Y607128D01*
X982218D01*
X971448D02*
Y611192D01*
X975512D01*
Y607128D01*
X971448D01*
X960309D02*
Y611192D01*
X964373D01*
Y607128D01*
X960309D01*
X960628Y626134D02*
Y630198D01*
X964692D01*
Y626134D01*
X960628D01*
X1004388Y652644D02*
Y656708D01*
X1008452D01*
Y652644D01*
X1004388D01*
X944884Y626063D02*
Y630127D01*
X948948D01*
Y626063D01*
X944884D01*
X1030478Y652258D02*
Y656322D01*
X1034542D01*
Y652258D01*
X1030478D01*
X1056482Y506456D02*
Y510520D01*
X1060546D01*
Y506456D01*
X1056482D01*
X1001855Y521333D02*
Y525396D01*
X1005919D01*
Y521333D01*
X1001855D01*
X1040760Y506456D02*
Y510520D01*
X1044824D01*
Y506456D01*
X1040760D01*
X1012340Y521333D02*
Y525396D01*
X1016404D01*
Y521333D01*
X1012340D01*
X886613Y467868D02*
Y471932D01*
X890677D01*
Y467868D01*
X886613D01*
X831088Y446278D02*
Y450342D01*
X835152D01*
Y446278D01*
X831088D01*
X733298Y349758D02*
Y353822D01*
X737362D01*
Y349758D01*
X733298D01*
X1107948Y779018D02*
Y783082D01*
X1112012D01*
Y779018D01*
X1107948D01*
X856488Y620268D02*
Y624332D01*
X860552D01*
Y620268D01*
X856488D01*
X875004Y701537D02*
Y705602D01*
X879068D01*
Y701537D01*
X875004D01*
X957720Y678688D02*
Y682752D01*
X961784D01*
Y678688D01*
X957720D01*
X859028Y446278D02*
Y450342D01*
X863092D01*
Y446278D01*
X859028D01*
X585978Y561848D02*
Y565912D01*
X590042D01*
Y561848D01*
X585978D01*
X618310Y699898D02*
Y703962D01*
X622374D01*
Y699898D01*
X618310D01*
X627430Y695908D02*
Y699972D01*
X631494D01*
Y695908D01*
X627430D01*
X650748Y697738D02*
Y701802D01*
X654812D01*
Y697738D01*
X650748D01*
X638048Y743458D02*
Y747522D01*
X642112D01*
Y743458D01*
X638048D01*
X652018Y742188D02*
Y746252D01*
X656082D01*
Y742188D01*
X652018D01*
X627888Y743458D02*
Y747522D01*
X631952D01*
Y743458D01*
X627888D01*
X662178Y742188D02*
Y746252D01*
X666242D01*
Y742188D01*
X662178D01*
X864992Y836168D02*
Y840232D01*
X869056D01*
Y836168D01*
X864992D01*
X519790Y594117D02*
Y598181D01*
X523854D01*
Y594117D01*
X519790D01*
X458978Y659714D02*
Y663778D01*
X463042D01*
Y659714D01*
X458978D01*
X803148Y502808D02*
Y506872D01*
X807212D01*
Y502808D01*
X803148D01*
X420037Y630270D02*
Y634334D01*
X424101D01*
Y630270D01*
X420037D01*
X509778Y677418D02*
Y681482D01*
X513842D01*
Y677418D01*
X509778D01*
X494817Y705987D02*
Y710051D01*
X498881D01*
Y705987D01*
X494817D01*
X486918Y699008D02*
Y703072D01*
X490982D01*
Y699008D01*
X486918D01*
X480373Y691527D02*
Y695591D01*
X484437D01*
Y691527D01*
X480373D01*
X472948Y685038D02*
Y689102D01*
X477012D01*
Y685038D01*
X472948D01*
X564388Y719817D02*
Y723880D01*
X568452D01*
Y719817D01*
X564388D01*
X485648Y662178D02*
Y666242D01*
X489712D01*
Y662178D01*
X485648D01*
Y652018D02*
Y656082D01*
X489712D01*
Y652018D01*
X485648D01*
X795528Y762508D02*
Y766572D01*
X799592D01*
Y762508D01*
X795528D01*
X441198Y575818D02*
Y579882D01*
X445262D01*
Y575818D01*
X441198D01*
X627285Y378691D02*
Y382755D01*
X631349D01*
Y378691D01*
X627285D01*
X1081278Y690028D02*
Y694092D01*
X1085342D01*
Y690028D01*
X1081278D01*
Y678688D02*
Y682752D01*
X1085342D01*
Y678688D01*
X1081278D01*
X530098Y564896D02*
Y568960D01*
X534162D01*
Y564896D01*
X530098D01*
X1083926Y525018D02*
Y529082D01*
X1087990D01*
Y525018D01*
X1083926D01*
X1096518Y424688D02*
Y428752D01*
X1100582D01*
Y424688D01*
X1096518D01*
X1124328Y423548D02*
Y427612D01*
X1128392D01*
Y423548D01*
X1124328D01*
X1292128Y376458D02*
Y380522D01*
X1296192D01*
Y376458D01*
X1292128D01*
X933958Y644548D02*
Y648612D01*
X938022D01*
Y644548D01*
X933958D01*
X1080008Y439928D02*
Y443992D01*
X1084072D01*
Y439928D01*
X1080008D01*
X795806Y752856D02*
Y756920D01*
X799870D01*
Y752856D01*
X795806D01*
X522478Y681228D02*
Y685292D01*
X526542D01*
Y681228D01*
X522478D01*
X566928Y338328D02*
Y342392D01*
X570992D01*
Y338328D01*
X566928D01*
X428498Y519938D02*
Y524002D01*
X432562D01*
Y519938D01*
X428498D01*
X726948Y620268D02*
Y624332D01*
X731012D01*
Y620268D01*
X726948D01*
X737108D02*
Y624332D01*
X741172D01*
Y620268D01*
X737108D01*
X747268D02*
Y624332D01*
X751332D01*
Y620268D01*
X747268D01*
X735838Y589788D02*
Y593852D01*
X739902D01*
Y589788D01*
X735838D01*
X1435608Y450298D02*
Y454362D01*
X1439672D01*
Y450298D01*
X1435608D01*
X526694Y378968D02*
Y383032D01*
X530758D01*
Y378968D01*
X526694D01*
X478434D02*
Y383032D01*
X482498D01*
Y378968D01*
X478434D01*
X431444D02*
Y383032D01*
X435508D01*
Y378968D01*
X431444D01*
X576224D02*
Y383032D01*
X580288D01*
Y378968D01*
X576224D01*
X606994Y349758D02*
Y353822D01*
X611058D01*
Y349758D01*
X606994D01*
X675284Y378968D02*
Y383032D01*
X679348D01*
Y378968D01*
X675284D01*
X733298Y404368D02*
Y408432D01*
X737362D01*
Y404368D01*
X733298D01*
X951738Y654080D02*
Y658144D01*
X955802D01*
Y654080D01*
X951738D01*
X803148Y517398D02*
Y521462D01*
X807212D01*
Y517398D01*
X803148D01*
X330708Y338328D02*
Y342392D01*
X334772D01*
Y338328D01*
X330708D01*
X1202600Y767588D02*
Y771652D01*
X1206664D01*
Y767588D01*
X1202600D01*
X1243008Y557128D02*
Y561192D01*
X1247072D01*
Y557128D01*
X1243008D01*
X758698Y620268D02*
Y624332D01*
X762762D01*
Y620268D01*
X758698D01*
X768858D02*
Y624332D01*
X772922D01*
Y620268D01*
X768858D01*
M02*
