M48
;Layer_Color=9474304
;FILE_FORMAT=4:4
METRIC,LZ
;TYPE=PLATED
T1F00S00C0.5000
%
T01
X0033274Y0034036
X00433476Y00381
X00480466
X00528726
X00578256
X0056896Y0034036
X00609026Y0035179
X00629317Y00380723
X00677316Y00381
X0073533Y0035179
X0114158Y003302
X0129416Y0037849
X0131445Y00464513
X0141464Y0045233
X0143764
X0124333Y0053557
X0124504Y0055916
X01219283Y0062865
X0127508Y0071739
X0131064
X01204632Y0076962
X01163908Y0070693
X01151675
X01139726
X01125764
X01139726Y0067818
X01151675
X0108331Y0068072
Y0069206
Y0066929
X0109962Y0062992
Y00617857
Y0060579
Y0059416
X01110221Y0053865
X0111968Y00528511
X01112012Y00513826
X01085958Y0052705
X01066783Y00545622
X01050901Y0053187
X01046677Y00521823
X01032731Y00523673
X01014372Y00523364
X01003887
X01020654Y0055118
Y00562463
Y00573621
Y00584856
X00992501
Y0057416
Y0056388
Y00595603
X00994557Y0060916
X0098425
X0097348
X00962341
X0096266Y00628166
X00946916Y00628095
X00936328
X0092583Y00628166
X0093599Y0064658
X0095377Y00656112
X00959752Y0068072
X0100642Y00654676
X0103251Y0065429
X0105731Y00708534
X0110998Y0078105
X00889677Y0077978
X00877036Y00703569
X0085852Y006223
X0080518Y0051943
Y0050484
X00832875Y0045978
X0083312Y0044831
X0086106
X00877036Y00458147
X00888645Y004699
X00930082Y00530567
X01037695Y00557469
X0104775Y0055753
X01042792Y00508488
X01058514
X01088977Y0048939
X0108204Y0044196
X0109855Y0042672
X0112636Y0042558
X00797838Y00754888
X0079756Y0076454
X0077851Y0071374
Y0070174
X0077089Y006223
X0076073
X007493
X0073914
X0072898
X0071923Y00622337
X00725221Y0059411
X0073787Y0059182
X00725221Y005715
Y0054478
X00654823Y0055991
X00636571Y0056134
X00620242Y00569253
X0059806Y00574783
X0058801Y0056388
X0053213Y00566928
X0054102Y0053848
X00521822Y00596149
X00508Y0061273
X00459482Y00618068
X00451442Y0064135
X0046101Y00661746
X0048768Y0066421
Y0065405
X0050038Y0066532
X0051181Y0067945
X0052451Y0068326
X00482405Y00693559
X0047498Y0068707
X0048895Y0070104
X00496849Y00708019
X0056642Y00721849
X00570573Y007466
X0062992Y0074549
X0064008
X0065405Y0074422
X0066421
X0067945Y0076909
X0070739Y0076946
X0065278Y0069977
X00642645Y0070358
X00629462Y0069794
X00620342Y0070193
X00586586Y00677003
X0055221Y00628826
X00624026Y0059742
X00659453Y0061739
X0062376Y0053467
X00610701Y0047686
X00541228Y00429453
X00488408Y00429134
X0043053Y0052197
X0044323Y0057785
X004318Y0059563
X00422069Y00632302
X004011Y0061595
X0073533Y004064
X0080391Y0082804
X00867024Y008382
X0093919Y0085174
M30
