G04*
G04 #@! TF.GenerationSoftware,Altium Limited,Altium Designer,18.1.7 (191)*
G04*
G04 Layer_Color=128*
%FSLAX44Y44*%
%MOMM*%
G71*
G01*
G75*
%ADD16R,1.0200X3.5000*%
%ADD19R,1.4000X1.1000*%
%ADD26R,1.1000X1.4000*%
%ADD28R,4.5000X1.3000*%
%ADD29R,3.9000X1.8000*%
%ADD30R,1.4000X1.0000*%
%ADD37R,2.0000X7.8740*%
%ADD64R,3.5000X3.0000*%
%ADD65R,0.5500X2.0000*%
%ADD66R,2.0000X0.5500*%
%ADD67R,0.5000X1.2000*%
%ADD68R,0.5000X1.6000*%
%ADD69R,5.0800X1.9000*%
G36*
X921530Y825930D02*
Y808930D01*
X915030Y802430D01*
X910030D01*
X903530Y808930D01*
Y825930D01*
X910030Y832430D01*
X915030D01*
X921530Y825930D01*
D02*
G37*
G36*
X843614Y825930D02*
Y808930D01*
X837114Y802430D01*
X832114D01*
X825614Y808930D01*
Y825930D01*
X832114Y832430D01*
X837114D01*
X843614Y825930D01*
D02*
G37*
G36*
X921530Y759950D02*
Y742950D01*
X915030Y736450D01*
X910030D01*
X903530Y742950D01*
Y759950D01*
X910030Y766450D01*
X915030D01*
X921530Y759950D01*
D02*
G37*
G36*
X843614Y758794D02*
Y741794D01*
X837114Y735294D01*
X832114D01*
X825614Y741794D01*
Y758794D01*
X832114Y765294D01*
X837114D01*
X843614Y758794D01*
D02*
G37*
G36*
X921530Y691310D02*
Y674310D01*
X915030Y667810D01*
X910030D01*
X903530Y674310D01*
Y691310D01*
X910030Y697810D01*
X915030D01*
X921530Y691310D01*
D02*
G37*
G36*
X843614Y690810D02*
Y673810D01*
X837114Y667310D01*
X832114D01*
X825614Y673810D01*
Y690810D01*
X832114Y697310D01*
X837114D01*
X843614Y690810D01*
D02*
G37*
G36*
X1066310Y825930D02*
Y808930D01*
X1059810Y802430D01*
X1054810D01*
X1048310Y808930D01*
Y825930D01*
X1054810Y832430D01*
X1059810D01*
X1066310Y825930D01*
D02*
G37*
G36*
X995550D02*
Y808930D01*
X989050Y802430D01*
X984050D01*
X977550Y808930D01*
Y825930D01*
X984050Y832430D01*
X989050D01*
X995550Y825930D01*
D02*
G37*
G36*
X1066310Y759950D02*
Y742950D01*
X1059810Y736450D01*
X1054810D01*
X1048310Y742950D01*
Y759950D01*
X1054810Y766450D01*
X1059810D01*
X1066310Y759950D01*
D02*
G37*
G36*
X995310D02*
Y742950D01*
X988810Y736450D01*
X983810D01*
X977310Y742950D01*
Y759950D01*
X983810Y766450D01*
X988810D01*
X995310Y759950D01*
D02*
G37*
G36*
X1066310Y690810D02*
Y673810D01*
X1059810Y667310D01*
X1054810D01*
X1048310Y673810D01*
Y690810D01*
X1054810Y697310D01*
X1059810D01*
X1066310Y690810D01*
D02*
G37*
G36*
X995550Y690810D02*
Y673810D01*
X989050Y667310D01*
X984050D01*
X977550Y673810D01*
Y690810D01*
X984050Y697310D01*
X989050D01*
X995550Y690810D01*
D02*
G37*
D16*
X714906Y830070D02*
D03*
X740306Y795070D02*
D03*
X765706Y830070D02*
D03*
X791106Y795070D02*
D03*
D19*
X562610Y692230D02*
D03*
Y672230D02*
D03*
X570573Y726600D02*
D03*
Y746600D02*
D03*
X707390Y749460D02*
D03*
Y769460D02*
D03*
D26*
X567850Y654050D02*
D03*
X587850D02*
D03*
X461576Y441840D02*
D03*
X481576D02*
D03*
X674360Y581283D02*
D03*
X654360D02*
D03*
X657156Y440960D02*
D03*
X677156D02*
D03*
X611702Y440960D02*
D03*
X631702D02*
D03*
X559366Y441840D02*
D03*
X579366D02*
D03*
X511244D02*
D03*
X531244D02*
D03*
X508298Y581283D02*
D03*
X528298D02*
D03*
X508744Y382270D02*
D03*
X528744D02*
D03*
X412379Y383420D02*
D03*
X432379D02*
D03*
X508298Y523197D02*
D03*
X528298D02*
D03*
X458546Y522317D02*
D03*
X478546D02*
D03*
X410704Y523197D02*
D03*
X430704D02*
D03*
X558398Y381890D02*
D03*
X578398D02*
D03*
X654360Y521970D02*
D03*
X674360D02*
D03*
X608756D02*
D03*
X628756D02*
D03*
X645480Y658052D02*
D03*
X665480D02*
D03*
X559222Y521970D02*
D03*
X579222D02*
D03*
X628830Y581283D02*
D03*
X608830D02*
D03*
X412379Y440960D02*
D03*
X432379D02*
D03*
X559222Y581283D02*
D03*
X579222D02*
D03*
X458630D02*
D03*
X478630D02*
D03*
X460222Y382540D02*
D03*
X480222D02*
D03*
X657156Y381890D02*
D03*
X677156D02*
D03*
X609202Y381890D02*
D03*
X629202D02*
D03*
X411934Y581283D02*
D03*
X431934D02*
D03*
X608971Y655512D02*
D03*
X628971D02*
D03*
D28*
X1200790Y488000D02*
D03*
Y463000D02*
D03*
Y438000D02*
D03*
Y413000D02*
D03*
Y513000D02*
D03*
Y538000D02*
D03*
Y563000D02*
D03*
Y588000D02*
D03*
X768202Y507800D02*
D03*
Y532800D02*
D03*
Y557800D02*
D03*
Y582800D02*
D03*
Y482800D02*
D03*
Y457800D02*
D03*
Y432800D02*
D03*
Y407800D02*
D03*
D29*
X1147790Y620000D02*
D03*
Y381000D02*
D03*
X821202Y375800D02*
D03*
Y614800D02*
D03*
D30*
X740840Y711860D02*
D03*
Y730860D02*
D03*
X762840Y721360D02*
D03*
X432640Y469010D02*
D03*
X410640Y478510D02*
D03*
Y459510D02*
D03*
X432640Y609300D02*
D03*
X410640Y618800D02*
D03*
Y599800D02*
D03*
X582952Y467316D02*
D03*
X560952Y476816D02*
D03*
Y457816D02*
D03*
X580223Y607770D02*
D03*
X558223Y617270D02*
D03*
Y598270D02*
D03*
X483722Y469280D02*
D03*
X461722Y478780D02*
D03*
Y459780D02*
D03*
X482046Y608420D02*
D03*
X460046Y617920D02*
D03*
Y598920D02*
D03*
X632701Y468630D02*
D03*
X610701Y478130D02*
D03*
Y459130D02*
D03*
X631026Y607770D02*
D03*
X609026Y617270D02*
D03*
Y598270D02*
D03*
X680290Y607770D02*
D03*
X658290Y617270D02*
D03*
Y598270D02*
D03*
X435879Y413683D02*
D03*
X413879Y423183D02*
D03*
Y404183D02*
D03*
X432185Y551180D02*
D03*
X410185Y560680D02*
D03*
Y541680D02*
D03*
X582906Y412153D02*
D03*
X560906Y421653D02*
D03*
Y402653D02*
D03*
X580223Y549445D02*
D03*
X558223Y558945D02*
D03*
Y539944D02*
D03*
X483722Y412803D02*
D03*
X461722Y422303D02*
D03*
Y403303D02*
D03*
X481533Y550094D02*
D03*
X459533Y559594D02*
D03*
Y540594D02*
D03*
X632701Y412153D02*
D03*
X610701Y421653D02*
D03*
Y402653D02*
D03*
X632030Y549445D02*
D03*
X610030Y558945D02*
D03*
Y539944D02*
D03*
X532244Y469010D02*
D03*
X510244Y478510D02*
D03*
Y459510D02*
D03*
X530568Y608150D02*
D03*
X508568Y617650D02*
D03*
Y598650D02*
D03*
X532244Y412533D02*
D03*
X510244Y422033D02*
D03*
Y403033D02*
D03*
X679426Y468630D02*
D03*
X657426Y478130D02*
D03*
Y459130D02*
D03*
X531698Y549910D02*
D03*
X509698Y559410D02*
D03*
Y540410D02*
D03*
X680656Y412153D02*
D03*
X658656Y421653D02*
D03*
Y402653D02*
D03*
X677710Y550714D02*
D03*
X655710Y560215D02*
D03*
Y541214D02*
D03*
D37*
X821960Y293370D02*
D03*
X782560D02*
D03*
X743160D02*
D03*
X703760D02*
D03*
X664360D02*
D03*
X624960D02*
D03*
X585560D02*
D03*
X546160D02*
D03*
X506760D02*
D03*
X467360D02*
D03*
X1338580D02*
D03*
X1299180D02*
D03*
X1259780D02*
D03*
X1220380D02*
D03*
X1180980D02*
D03*
X1141580D02*
D03*
D64*
X1380720Y603970D02*
D03*
X1252220Y558970D02*
D03*
Y648970D02*
D03*
D65*
X609540Y678860D02*
D03*
X617540D02*
D03*
X625540D02*
D03*
X633540D02*
D03*
X641540D02*
D03*
X649540D02*
D03*
X657540D02*
D03*
X665540D02*
D03*
X665540Y763860D02*
D03*
X657540D02*
D03*
X649540D02*
D03*
X641540D02*
D03*
X633540D02*
D03*
X625540D02*
D03*
X617540D02*
D03*
X609540D02*
D03*
D66*
X680040Y693360D02*
D03*
Y701360D02*
D03*
Y709360D02*
D03*
Y717360D02*
D03*
Y725360D02*
D03*
Y733360D02*
D03*
Y741360D02*
D03*
Y749360D02*
D03*
X595040Y749360D02*
D03*
Y741360D02*
D03*
Y733360D02*
D03*
Y725360D02*
D03*
Y717360D02*
D03*
Y709360D02*
D03*
Y701360D02*
D03*
Y693360D02*
D03*
D67*
X1042310Y657310D02*
D03*
X1072310D02*
D03*
X1042310Y726450D02*
D03*
X1072310D02*
D03*
X1042310Y792430D02*
D03*
X1072310D02*
D03*
X897530D02*
D03*
X927530D02*
D03*
X897530Y726450D02*
D03*
X927530D02*
D03*
X897530Y657810D02*
D03*
X927530D02*
D03*
X971550Y657310D02*
D03*
X1001550D02*
D03*
X971310Y726450D02*
D03*
X1001310D02*
D03*
X971550Y792430D02*
D03*
X1001550D02*
D03*
X819614Y792430D02*
D03*
X849614D02*
D03*
X819614Y725294D02*
D03*
X849614D02*
D03*
X819614Y657310D02*
D03*
X849614D02*
D03*
D68*
X1057310Y659310D02*
D03*
X1057310Y728450D02*
D03*
X1057310Y794430D02*
D03*
X912530D02*
D03*
Y728450D02*
D03*
Y659810D02*
D03*
X986550Y659310D02*
D03*
X986310Y728450D02*
D03*
X986550Y794430D02*
D03*
X834614Y794430D02*
D03*
Y727294D02*
D03*
X834614Y659310D02*
D03*
D69*
X1360170Y449040D02*
D03*
X1258570D02*
D03*
M02*
