G04*
G04 #@! TF.GenerationSoftware,Altium Limited,Altium Designer,18.1.7 (191)*
G04*
G04 Layer_Color=128*
%FSLAX44Y44*%
%MOMM*%
G71*
G01*
G75*
%ADD78C,0.0508*%
D78*
X538520Y538480D02*
X543520D01*
X541020Y535980D02*
Y540980D01*
X652323Y559910D02*
X657323D01*
X654823Y557410D02*
Y562410D01*
X634071Y561340D02*
X639071D01*
X636571Y558840D02*
Y563840D01*
X716730Y622337D02*
X721730D01*
X719230Y619837D02*
Y624837D01*
X640145Y703580D02*
X645145D01*
X642645Y701080D02*
Y706080D01*
X485908Y429134D02*
X490908D01*
X488408Y426634D02*
Y431634D01*
X538728Y429453D02*
X543728D01*
X541228Y426953D02*
Y431953D01*
X936690Y851740D02*
X941690D01*
X939190Y849240D02*
Y854240D01*
X776010Y701740D02*
X781010D01*
X778510Y699240D02*
Y704240D01*
X456982Y618068D02*
X461982D01*
X459482Y615568D02*
Y620568D01*
X776010Y713740D02*
X781010D01*
X778510Y711240D02*
Y716240D01*
X722721Y571500D02*
X727721D01*
X725221Y569000D02*
Y574000D01*
X656953Y617390D02*
X661953D01*
X659453Y614890D02*
Y619890D01*
X874536Y458147D02*
X879536D01*
X877036Y455647D02*
Y460647D01*
X595560Y574783D02*
X600560D01*
X598060Y572283D02*
Y577283D01*
X722721Y544780D02*
X727721D01*
X725221Y542280D02*
Y547280D01*
X722721Y594110D02*
X727721D01*
X725221Y591610D02*
Y596610D01*
X549710Y628826D02*
X554710D01*
X552210Y626326D02*
Y631326D01*
X617742Y569253D02*
X622742D01*
X620242Y566753D02*
Y571753D01*
X621526Y597420D02*
X626526D01*
X624026Y594920D02*
Y599920D01*
X830375Y459780D02*
X835375D01*
X832875Y457280D02*
Y462280D01*
X608201Y476860D02*
X613201D01*
X610701Y474360D02*
Y479360D01*
X497880Y665320D02*
X502880D01*
X500380Y662820D02*
Y667820D01*
X448942Y641350D02*
X453942D01*
X451442Y638850D02*
Y643850D01*
X429300Y595630D02*
X434300D01*
X431800Y593130D02*
Y598130D01*
X398600Y615950D02*
X403600D01*
X401100Y613450D02*
Y618450D01*
X505500Y612730D02*
X510500D01*
X508000Y610230D02*
Y615230D01*
X568073Y746600D02*
X573073D01*
X570573Y744100D02*
Y749100D01*
X621260Y534670D02*
X626260D01*
X623760Y532170D02*
Y537170D01*
X584086Y677003D02*
X589086D01*
X586586Y674503D02*
Y679503D01*
X676950Y769090D02*
X681950D01*
X679450Y766590D02*
Y771590D01*
X704890Y769460D02*
X709890D01*
X707390Y766960D02*
Y771960D01*
X1054810Y708534D02*
X1059810D01*
X1057310Y706034D02*
Y711034D01*
X801410Y828040D02*
X806410D01*
X803910Y825540D02*
Y830540D01*
X1240830Y535570D02*
X1245830D01*
X1243330Y533070D02*
Y538070D01*
X1311950Y464513D02*
X1316950D01*
X1314450Y462013D02*
Y467013D01*
X887177Y779780D02*
X892177D01*
X889677Y777280D02*
Y782280D01*
X1272580Y717390D02*
X1277580D01*
X1275080Y714890D02*
Y719890D01*
X1308140Y717390D02*
X1313140D01*
X1310640Y714890D02*
Y719890D01*
X1412140Y452330D02*
X1417140D01*
X1414640Y449830D02*
Y454830D01*
X1123264Y706930D02*
X1128264D01*
X1125764Y704430D02*
Y709430D01*
X1139080Y330200D02*
X1144080D01*
X1141580Y327700D02*
Y332700D01*
X1086477Y489390D02*
X1091477D01*
X1088977Y486890D02*
Y491890D01*
X1045250Y557530D02*
X1050250D01*
X1047750Y555030D02*
Y560030D01*
X1035195Y557469D02*
X1040195D01*
X1037695Y554969D02*
Y559969D01*
X1216783Y628650D02*
X1221783D01*
X1219283Y626150D02*
Y631150D01*
X1117180Y528511D02*
X1122180D01*
X1119680Y526011D02*
Y531011D01*
X1107721Y538650D02*
X1112721D01*
X1110221Y536150D02*
Y541150D01*
X1097120Y629920D02*
X1102120D01*
X1099620Y627420D02*
Y632420D01*
X1097120Y617857D02*
X1102120D01*
X1099620Y615357D02*
Y620357D01*
X1097120Y605790D02*
X1102120D01*
X1099620Y603290D02*
Y608290D01*
X1097120Y594160D02*
X1102120D01*
X1099620Y591660D02*
Y596660D01*
X1080810Y669290D02*
X1085810D01*
X1083310Y666790D02*
Y671790D01*
X1137226Y678180D02*
X1142226D01*
X1139726Y675680D02*
Y680680D01*
X1149175Y678180D02*
X1154175D01*
X1151675Y675680D02*
Y680680D01*
X1030231Y523673D02*
X1035231D01*
X1032731Y521173D02*
Y526173D01*
X1044177Y521823D02*
X1049177D01*
X1046677Y519323D02*
Y524323D01*
X1161408Y706930D02*
X1166408D01*
X1163908Y704430D02*
Y709430D01*
X1048401Y531870D02*
X1053401D01*
X1050901Y529370D02*
Y534370D01*
X1018154Y551180D02*
X1023154D01*
X1020654Y548680D02*
Y553680D01*
X1018154Y562463D02*
X1023154D01*
X1020654Y559963D02*
Y564963D01*
X1018154Y573621D02*
X1023154D01*
X1020654Y571121D02*
Y576121D01*
X1018154Y584856D02*
X1023154D01*
X1020654Y582356D02*
Y587356D01*
X990001Y574160D02*
X995001D01*
X992501Y571660D02*
Y576660D01*
X927582Y530567D02*
X932582D01*
X930082Y528067D02*
Y533067D01*
X990001Y563880D02*
X995001D01*
X992501Y561380D02*
Y566380D01*
X990001Y584856D02*
X995001D01*
X992501Y582356D02*
Y587356D01*
X990001Y595603D02*
X995001D01*
X992501Y593103D02*
Y598103D01*
X1064283Y545622D02*
X1069283D01*
X1066783Y543122D02*
Y548122D01*
X1109512Y513826D02*
X1114512D01*
X1112012Y511326D02*
Y516326D01*
X933828Y628095D02*
X938828D01*
X936328Y625595D02*
Y630595D01*
X923330Y628166D02*
X928330D01*
X925830Y625666D02*
Y630666D01*
X992057Y609160D02*
X997057D01*
X994557Y606660D02*
Y611660D01*
X1149175Y706930D02*
X1154175D01*
X1151675Y704430D02*
Y709430D01*
X1137226Y706930D02*
X1142226D01*
X1139726Y704430D02*
Y709430D01*
X981750Y609160D02*
X986750D01*
X984250Y606660D02*
Y611660D01*
X970980Y609160D02*
X975980D01*
X973480Y606660D02*
Y611660D01*
X959841Y609160D02*
X964841D01*
X962341Y606660D02*
Y611660D01*
X960160Y628166D02*
X965160D01*
X962660Y625666D02*
Y630666D01*
X1003920Y654676D02*
X1008920D01*
X1006420Y652176D02*
Y657176D01*
X944416Y628095D02*
X949416D01*
X946916Y625595D02*
Y630595D01*
X1030010Y654290D02*
X1035010D01*
X1032510Y651790D02*
Y656790D01*
X1056014Y508488D02*
X1061014D01*
X1058514Y505988D02*
Y510988D01*
X1001387Y523364D02*
X1006387D01*
X1003887Y520864D02*
Y525864D01*
X1040292Y508488D02*
X1045292D01*
X1042792Y505988D02*
Y510988D01*
X1011872Y523364D02*
X1016872D01*
X1014372Y520864D02*
Y525864D01*
X886145Y469900D02*
X891145D01*
X888645Y467400D02*
Y472400D01*
X830620Y448310D02*
X835620D01*
X833120Y445810D02*
Y450810D01*
X732830Y351790D02*
X737830D01*
X735330Y349290D02*
Y354290D01*
X1107480Y781050D02*
X1112480D01*
X1109980Y778550D02*
Y783550D01*
X856020Y622300D02*
X861020D01*
X858520Y619800D02*
Y624800D01*
X874536Y703569D02*
X879536D01*
X877036Y701069D02*
Y706069D01*
X957252Y680720D02*
X962252D01*
X959752Y678220D02*
Y683220D01*
X858560Y448310D02*
X863560D01*
X861060Y445810D02*
Y450810D01*
X585510Y563880D02*
X590510D01*
X588010Y561380D02*
Y566380D01*
X617842Y701930D02*
X622842D01*
X620342Y699430D02*
Y704430D01*
X626962Y697940D02*
X631962D01*
X629462Y695440D02*
Y700440D01*
X650280Y699770D02*
X655280D01*
X652780Y697270D02*
Y702270D01*
X637580Y745490D02*
X642580D01*
X640080Y742990D02*
Y747990D01*
X651550Y744220D02*
X656550D01*
X654050Y741720D02*
Y746720D01*
X627420Y745490D02*
X632420D01*
X629920Y742990D02*
Y747990D01*
X661710Y744220D02*
X666710D01*
X664210Y741720D02*
Y746720D01*
X864524Y838200D02*
X869524D01*
X867024Y835700D02*
Y840700D01*
X519322Y596149D02*
X524322D01*
X521822Y593649D02*
Y598649D01*
X458510Y661746D02*
X463510D01*
X461010Y659246D02*
Y664246D01*
X802680Y504840D02*
X807680D01*
X805180Y502340D02*
Y507340D01*
X419569Y632302D02*
X424569D01*
X422069Y629802D02*
Y634802D01*
X509310Y679450D02*
X514310D01*
X511810Y676950D02*
Y681950D01*
X494349Y708019D02*
X499349D01*
X496849Y705519D02*
Y710519D01*
X486450Y701040D02*
X491450D01*
X488950Y698540D02*
Y703540D01*
X479905Y693559D02*
X484905D01*
X482405Y691059D02*
Y696059D01*
X472480Y687070D02*
X477480D01*
X474980Y684570D02*
Y689570D01*
X563920Y721849D02*
X568920D01*
X566420Y719349D02*
Y724349D01*
X485180Y664210D02*
X490180D01*
X487680Y661710D02*
Y666710D01*
X485180Y654050D02*
X490180D01*
X487680Y651550D02*
Y656550D01*
X795060Y764540D02*
X800060D01*
X797560Y762040D02*
Y767040D01*
X440730Y577850D02*
X445730D01*
X443230Y575350D02*
Y580350D01*
X626817Y380723D02*
X631817D01*
X629317Y378223D02*
Y383223D01*
X1080810Y692060D02*
X1085810D01*
X1083310Y689560D02*
Y694560D01*
X1080810Y680720D02*
X1085810D01*
X1083310Y678220D02*
Y683220D01*
X529630Y566928D02*
X534630D01*
X532130Y564428D02*
Y569428D01*
X1083458Y527050D02*
X1088458D01*
X1085958Y524550D02*
Y529550D01*
X1096050Y426720D02*
X1101050D01*
X1098550Y424220D02*
Y429220D01*
X1123860Y425580D02*
X1128860D01*
X1126360Y423080D02*
Y428080D01*
X1291660Y378490D02*
X1296660D01*
X1294160Y375990D02*
Y380990D01*
X933490Y646580D02*
X938490D01*
X935990Y644080D02*
Y649080D01*
X1079540Y441960D02*
X1084540D01*
X1082040Y439460D02*
Y444460D01*
X795338Y754888D02*
X800338D01*
X797838Y752388D02*
Y757388D01*
X522010Y683260D02*
X527010D01*
X524510Y680760D02*
Y685760D01*
X566460Y340360D02*
X571460D01*
X568960Y337860D02*
Y342860D01*
X428030Y521970D02*
X433030D01*
X430530Y519470D02*
Y524470D01*
X726480Y622300D02*
X731480D01*
X728980Y619800D02*
Y624800D01*
X736640Y622300D02*
X741640D01*
X739140Y619800D02*
Y624800D01*
X746800Y622300D02*
X751800D01*
X749300Y619800D02*
Y624800D01*
X735370Y591820D02*
X740370D01*
X737870Y589320D02*
Y594320D01*
X1435140Y452330D02*
X1440140D01*
X1437640Y449830D02*
Y454830D01*
X526226Y381000D02*
X531226D01*
X528726Y378500D02*
Y383500D01*
X477966Y381000D02*
X482966D01*
X480466Y378500D02*
Y383500D01*
X430976Y381000D02*
X435976D01*
X433476Y378500D02*
Y383500D01*
X575756Y381000D02*
X580756D01*
X578256Y378500D02*
Y383500D01*
X606526Y351790D02*
X611526D01*
X609026Y349290D02*
Y354290D01*
X674816Y381000D02*
X679816D01*
X677316Y378500D02*
Y383500D01*
X732830Y406400D02*
X737830D01*
X735330Y403900D02*
Y408900D01*
X951270Y656112D02*
X956270D01*
X953770Y653612D02*
Y658612D01*
X802680Y519430D02*
X807680D01*
X805180Y516930D02*
Y521930D01*
X330240Y340360D02*
X335240D01*
X332740Y337860D02*
Y342860D01*
X1202132Y769620D02*
X1207132D01*
X1204632Y767120D02*
Y772120D01*
X1242540Y559160D02*
X1247540D01*
X1245040Y556660D02*
Y561660D01*
X758230Y622300D02*
X763230D01*
X760730Y619800D02*
Y624800D01*
X768390Y622300D02*
X773390D01*
X770890Y619800D02*
Y624800D01*
M02*
