G04*
G04 #@! TF.GenerationSoftware,Altium Limited,Altium Designer,18.1.7 (191)*
G04*
G04 Layer_Color=8388736*
%FSLAX44Y44*%
%MOMM*%
G71*
G01*
G75*
%ADD11C,0.0254*%
%ADD38R,1.5032X4.7032*%
%ADD39R,2.0032X4.1032*%
%ADD40R,1.2232X3.7032*%
%ADD41R,1.2032X2.6032*%
%ADD42R,3.5032X2.6032*%
%ADD43R,1.6032X1.3032*%
%ADD44R,1.2032X1.6032*%
%ADD45R,0.6232X1.9832*%
%ADD46R,4.4032X3.2032*%
%ADD47R,1.7032X0.6032*%
%ADD48R,1.4032X0.5032*%
%ADD49R,0.5032X1.4032*%
%ADD50R,1.3032X1.6032*%
%ADD51R,1.4032X1.6032*%
%ADD52R,4.7032X1.5032*%
%ADD53R,4.1032X2.0032*%
%ADD54R,1.6032X1.2032*%
%ADD55R,3.5532X4.9032*%
%ADD56R,1.6532X1.0532*%
%ADD57R,0.7032X0.8032*%
%ADD58R,2.7032X1.6032*%
%ADD59R,2.0066X2.2098*%
%ADD60R,2.3622X1.4732*%
%ADD61R,2.2032X8.0772*%
D11*
X349250Y379984D02*
X349504D01*
X349250Y379730D02*
X349504D01*
X349250Y379476D02*
X349504D01*
X349250Y379222D02*
X349504D01*
X349250Y378968D02*
X349504D01*
X349250Y378714D02*
X349504D01*
X349250Y378460D02*
X349504D01*
X349250Y378206D02*
X349758D01*
X349250Y377952D02*
X349758D01*
X349250Y377698D02*
X349758D01*
X349250Y377444D02*
X349758D01*
X349250Y377190D02*
X349758D01*
X349250Y376936D02*
X350012D01*
X349250Y376682D02*
X350012D01*
X349250Y376428D02*
X350012D01*
X349250Y376174D02*
X350012D01*
X349250Y375920D02*
X350266D01*
X349250Y375666D02*
X350266D01*
X349250Y375412D02*
X350266D01*
X349250Y375158D02*
X350266D01*
X349250Y374904D02*
X350520D01*
X349250Y374650D02*
X350520D01*
X349250Y374396D02*
X350520D01*
X349250Y374142D02*
X350774D01*
X349250Y373888D02*
X350774D01*
X349250Y373634D02*
X351028D01*
X349250Y373380D02*
X351028D01*
X349250Y373126D02*
X351028D01*
X349250Y372872D02*
X351282D01*
X349250Y372618D02*
X351282D01*
X349250Y372364D02*
X351536D01*
X349250Y372110D02*
X351536D01*
X349250Y371856D02*
X351536D01*
X349250Y371602D02*
X351790D01*
X349250Y371348D02*
X351790D01*
X349250Y371094D02*
X352044D01*
X349250Y370840D02*
X352044D01*
X349250Y370586D02*
X352298D01*
X349250Y370332D02*
X352552D01*
X349250Y370078D02*
X352552D01*
X349250Y369824D02*
X352806D01*
X349250Y369570D02*
X352806D01*
X349250Y369316D02*
X353060D01*
X349250Y369062D02*
X353314D01*
X349250Y368808D02*
X353314D01*
X349250Y368554D02*
X353568D01*
X349250Y368300D02*
X353568D01*
X349250Y368046D02*
X353822D01*
X349250Y367792D02*
X354076D01*
X349250Y397510D02*
X354076D01*
X349250Y397256D02*
X353822D01*
X349250Y397002D02*
X353568D01*
X349250Y396748D02*
X353568D01*
X349250Y396494D02*
X353314D01*
X349250Y396240D02*
X353314D01*
X349250Y395986D02*
X353060D01*
X349250Y395732D02*
X352806D01*
X349250Y395478D02*
X352806D01*
X349250Y395224D02*
X352552D01*
X349250Y394970D02*
X352552D01*
X349250Y394716D02*
X352298D01*
X349250Y394462D02*
X352044D01*
X349250Y394208D02*
X352044D01*
X349250Y393954D02*
X351790D01*
X349250Y393700D02*
X351790D01*
X349250Y393446D02*
X351536D01*
X349250Y393192D02*
X351536D01*
X349250Y392938D02*
X351536D01*
X349250Y392684D02*
X351282D01*
X349250Y392430D02*
X351282D01*
X349250Y392176D02*
X351028D01*
X349250Y391922D02*
X351028D01*
X349250Y391668D02*
X351028D01*
X349250Y391414D02*
X350774D01*
X349250Y391160D02*
X350774D01*
X349250Y390906D02*
X350520D01*
X349250Y390652D02*
X350520D01*
X349250Y390398D02*
X350520D01*
X349250Y390144D02*
X350266D01*
X349250Y389890D02*
X350266D01*
X349250Y389636D02*
X350266D01*
X349250Y389382D02*
X350266D01*
X349250Y389128D02*
X350012D01*
X349250Y388874D02*
X350012D01*
X349250Y388620D02*
X350012D01*
X349250Y388366D02*
X350012D01*
X349250Y388112D02*
X349758D01*
X349250Y387858D02*
X349758D01*
X349250Y387604D02*
X349758D01*
X349250Y387350D02*
X349758D01*
X349250Y387096D02*
X349758D01*
X349250Y386842D02*
X349504D01*
X349250Y386588D02*
X349504D01*
X349250Y386334D02*
X349504D01*
X349250Y386080D02*
X349504D01*
X349250Y385826D02*
X349504D01*
X349250Y385572D02*
X349504D01*
X349250Y385318D02*
X349504D01*
X363474Y382016D02*
X367792D01*
X363220Y381762D02*
X367538D01*
X363220Y381508D02*
X367030D01*
X362966Y381254D02*
X366522D01*
X363220Y381000D02*
X366014D01*
X363220Y380746D02*
X365506D01*
X363474Y380492D02*
X364998D01*
X373126D02*
X373888D01*
X367792Y380238D02*
X368554D01*
X367538Y379984D02*
X368808D01*
X367538Y379730D02*
X369062D01*
X367538Y379222D02*
X370332D01*
X371094D02*
X373380D01*
X367538Y378968D02*
X369570D01*
X367538Y378714D02*
X369062D01*
X367538Y378460D02*
X368300D01*
X371856Y377952D02*
X372872D01*
X370586Y377698D02*
X374142D01*
X369316Y376936D02*
X372872D01*
X369316Y376682D02*
X369824D01*
X371602Y375158D02*
X372618D01*
X368046Y374142D02*
X374396D01*
X368554Y373888D02*
X373888D01*
X366268Y373634D02*
X366776D01*
X369824D02*
X372618D01*
X366268Y373380D02*
X367030D01*
X371094D02*
X371602D01*
X366268Y373126D02*
X367538D01*
X366268Y372872D02*
X367792D01*
X366268Y372618D02*
X368046D01*
X366268Y372364D02*
X368300D01*
X366014Y372110D02*
X368554D01*
X368300Y368808D02*
X373634D01*
X369316Y368554D02*
X372110D01*
X372872Y395224D02*
X373126D01*
X372618Y394970D02*
X373380D01*
X372618Y394716D02*
X373380D01*
X372364Y394462D02*
X373380D01*
X372364Y394208D02*
X373380D01*
X370840Y393700D02*
X371602D01*
X370586Y393446D02*
X371856D01*
X369824Y393192D02*
X371856D01*
X369570Y392938D02*
X372110D01*
X369316Y392684D02*
X372110D01*
X371348Y390144D02*
X374142D01*
X371856Y389890D02*
X373634D01*
X367030Y388874D02*
X369062D01*
X366522Y388620D02*
X369316D01*
X366268Y388366D02*
X369570D01*
X366268Y388112D02*
X369570D01*
X366014Y387858D02*
X369062D01*
X366014Y387604D02*
X367792D01*
X372364D02*
X372872D01*
X366014Y387350D02*
X366522D01*
X372110D02*
X373126D01*
X372110Y387096D02*
X373126D01*
X360172Y386842D02*
X360680D01*
X372110D02*
X373126D01*
X360172Y386588D02*
X360934D01*
X371602D02*
X373126D01*
X359918Y386334D02*
X360934D01*
X371602D02*
X373380D01*
X359918Y386080D02*
X361188D01*
X369824D02*
X370332D01*
X371348D02*
X373380D01*
X359918Y385826D02*
X361188D01*
X369570D02*
X370332D01*
X371094D02*
X373380D01*
X359918Y385572D02*
X361188D01*
X369570D02*
X370332D01*
X371094D02*
X373634D01*
X359918Y385318D02*
X361188D01*
X362204D02*
X362712D01*
X369316D02*
X370332D01*
X370840D02*
X373634D01*
X360172Y385064D02*
X361188D01*
X362204D02*
X362712D01*
X364998D02*
X365760D01*
X369062D02*
X370078D01*
X370840D02*
X373888D01*
X360172Y384810D02*
X361188D01*
X362204D02*
X362966D01*
X364744D02*
X366014D01*
X368554D02*
X370078D01*
X370586D02*
X373888D01*
X360172Y384556D02*
X361188D01*
X362204D02*
X362966D01*
X364744D02*
X374142D01*
X360172Y384302D02*
X361442D01*
X362204D02*
X363220D01*
X364490D02*
X374396D01*
X360172Y384048D02*
X361442D01*
X362204D02*
X363220D01*
X360172Y383794D02*
X361442D01*
X362458D02*
X363220D01*
X360426Y383540D02*
X361442D01*
X362458D02*
X363220D01*
X364490D02*
X368300D01*
X360426Y383286D02*
X361188D01*
X362712D02*
X363220D01*
X364744D02*
X366014D01*
X368808D02*
X370332D01*
X370586D02*
X372364D01*
X360934Y383032D02*
X361188D01*
X368554D02*
X369824D01*
X367284Y382778D02*
X369316D01*
X365252Y382524D02*
X369062D01*
X378714Y382016D02*
X385572D01*
X379222Y381762D02*
X385318D01*
X376428Y381508D02*
X377444D01*
X379730D02*
X385064D01*
X376174Y381254D02*
X377698D01*
X380238D02*
X384556D01*
X375920Y381000D02*
X377952D01*
X380492D02*
X384048D01*
X375666Y380746D02*
X377952D01*
X381000D02*
X382778D01*
X375412Y380492D02*
X377952D01*
X375158Y380238D02*
X377952D01*
X384810Y379476D02*
X386080D01*
X384556Y379222D02*
X386080D01*
X375412Y378968D02*
X377190D01*
X384810D02*
X386334D01*
X385318Y378714D02*
X386334D01*
X385572Y378460D02*
X386334D01*
X385572Y378206D02*
X386588D01*
X385826Y377952D02*
X386334D01*
X385826Y377698D02*
X386334D01*
X374904Y376936D02*
X375412D01*
X384556D02*
X384810D01*
X383794Y376682D02*
X384810D01*
X383540Y376428D02*
X384302D01*
X383286Y376174D02*
X383794D01*
X382778Y375158D02*
X383032D01*
X382524Y374904D02*
X383286D01*
X382524Y374650D02*
X383286D01*
X378460Y374396D02*
X379476D01*
X389382D02*
X389636D01*
X378206Y374142D02*
X379476D01*
X389382D02*
X389890D01*
X377698Y373888D02*
X379476D01*
X382016D02*
X382270D01*
X377444Y373634D02*
X379476D01*
X380238D02*
X380492D01*
X381762D02*
X382270D01*
X377444Y373380D02*
X379476D01*
X379730D02*
X380492D01*
X381508D02*
X382270D01*
X377190Y373126D02*
X380492D01*
X381508D02*
X382270D01*
X376682Y372872D02*
X380492D01*
X381254D02*
X382270D01*
X375666Y372618D02*
X380492D01*
X381254D02*
X382270D01*
X379984Y391922D02*
X381762D01*
X381000Y391668D02*
X382016D01*
X381254Y391414D02*
X382016D01*
X377190Y390144D02*
X380492D01*
X376682Y389890D02*
X381254D01*
X376174Y389636D02*
X381762D01*
X376174Y389382D02*
X382016D01*
X375920Y389128D02*
X382016D01*
X376174Y388874D02*
X382016D01*
X376428Y388620D02*
X382016D01*
X380746Y388366D02*
X382016D01*
X383286D02*
X383794D01*
X381508Y388112D02*
X381762D01*
X383286D02*
X384048D01*
X383032Y387858D02*
X384556D01*
X383286Y387604D02*
X384556D01*
X383286Y387350D02*
X384556D01*
X383286Y387096D02*
X384556D01*
X383286Y386842D02*
X384810D01*
X383032Y386588D02*
X384810D01*
X383032Y386334D02*
X385064D01*
X382778Y386080D02*
X384810D01*
X382524Y385826D02*
X384810D01*
X380492Y385572D02*
X381000D01*
X382270D02*
X384810D01*
X374904Y385318D02*
X379222D01*
X379730D02*
X381000D01*
X382016D02*
X384810D01*
X374904Y385064D02*
X381000D01*
X381762D02*
X385064D01*
X375158Y384810D02*
X380746D01*
X381508D02*
X385064D01*
X375412Y384556D02*
X380238D01*
X381254D02*
X385064D01*
X375920Y384302D02*
X379222D01*
X380746D02*
X385318D01*
X380238Y384048D02*
X385318D01*
X379476Y383794D02*
X385572D01*
X378206Y383540D02*
X385572D01*
X377698Y383286D02*
X385572D01*
X377698Y383032D02*
X385572D01*
X377698Y382778D02*
X385826D01*
X377952Y382524D02*
X385572D01*
X399796Y379984D02*
X400050D01*
X399796Y379730D02*
X400050D01*
X399796Y379476D02*
X400050D01*
X399796Y379222D02*
X400050D01*
X399796Y378968D02*
X400050D01*
X399796Y378714D02*
X400050D01*
X399796Y378460D02*
X400050D01*
X399542Y378206D02*
X400050D01*
X399542Y377952D02*
X400050D01*
X399542Y377698D02*
X400050D01*
X399542Y377444D02*
X400050D01*
X399542Y377190D02*
X400050D01*
X399288Y376936D02*
X400050D01*
X399288Y376682D02*
X400050D01*
X399288Y376428D02*
X400050D01*
X399288Y376174D02*
X400050D01*
X399034Y375920D02*
X400050D01*
X399034Y375666D02*
X400050D01*
X399034Y375412D02*
X400050D01*
X399034Y375158D02*
X400050D01*
X398780Y374904D02*
X400050D01*
X398780Y374650D02*
X400050D01*
X398780Y374396D02*
X400050D01*
X398526Y374142D02*
X400050D01*
X398526Y373888D02*
X400050D01*
X398272Y373634D02*
X400050D01*
X398272Y373380D02*
X400050D01*
X398272Y373126D02*
X400050D01*
X398018Y372872D02*
X400050D01*
X398018Y372618D02*
X400050D01*
X397764Y372364D02*
X400050D01*
X397764Y372110D02*
X400050D01*
X397764Y371856D02*
X400050D01*
X397510Y371602D02*
X400050D01*
X397510Y371348D02*
X400050D01*
X397256Y371094D02*
X400050D01*
X397256Y370840D02*
X400050D01*
X397002Y370586D02*
X400050D01*
X396748Y370332D02*
X400050D01*
X396748Y370078D02*
X400050D01*
X396494Y369824D02*
X400050D01*
X396494Y369570D02*
X400050D01*
X396240Y369316D02*
X400050D01*
X395986Y369062D02*
X400050D01*
X395986Y368808D02*
X400050D01*
X395732Y368554D02*
X400050D01*
X395732Y368300D02*
X400050D01*
X395478Y368046D02*
X400050D01*
X395224Y367792D02*
X400050D01*
X395224Y397510D02*
X400050D01*
X395478Y397256D02*
X400050D01*
X395732Y397002D02*
X400050D01*
X395732Y396748D02*
X400050D01*
X395986Y396494D02*
X400050D01*
X395986Y396240D02*
X400050D01*
X396240Y395986D02*
X400050D01*
X396494Y395732D02*
X400050D01*
X396494Y395478D02*
X400050D01*
X396748Y395224D02*
X400050D01*
X396748Y394970D02*
X400050D01*
X397002Y394716D02*
X400050D01*
X397256Y394462D02*
X400050D01*
X397256Y394208D02*
X400050D01*
X397510Y393954D02*
X400050D01*
X397510Y393700D02*
X400050D01*
X397764Y393446D02*
X400050D01*
X397764Y393192D02*
X400050D01*
X397764Y392938D02*
X400050D01*
X398018Y392684D02*
X400050D01*
X398018Y392430D02*
X400050D01*
X398272Y392176D02*
X400050D01*
X398272Y391922D02*
X400050D01*
X398272Y391668D02*
X400050D01*
X398526Y391414D02*
X400050D01*
X398526Y391160D02*
X400050D01*
X398780Y390906D02*
X400050D01*
X398780Y390652D02*
X400050D01*
X398780Y390398D02*
X400050D01*
X399034Y390144D02*
X400050D01*
X399034Y389890D02*
X400050D01*
X399034Y389636D02*
X400050D01*
X399034Y389382D02*
X400050D01*
X399288Y389128D02*
X400050D01*
X399288Y388874D02*
X400050D01*
X399288Y388620D02*
X400050D01*
X399288Y388366D02*
X400050D01*
X399542Y388112D02*
X400050D01*
X399542Y387858D02*
X400050D01*
X399542Y387604D02*
X400050D01*
X399542Y387350D02*
X400050D01*
X399542Y387096D02*
X400050D01*
X399796Y386842D02*
X400050D01*
X399796Y386588D02*
X400050D01*
X399796Y386334D02*
X400050D01*
X399796Y386080D02*
X400050D01*
X399796Y385826D02*
X400050D01*
X399796Y385572D02*
X400050D01*
X399796Y385318D02*
X400050D01*
X364236Y382270D02*
X368554D01*
X378460D02*
X385572D01*
X349250Y361696D02*
X360172D01*
X389128D02*
X400050D01*
X349250Y361442D02*
X360680D01*
X388620D02*
X400050D01*
X349250Y361188D02*
X361188D01*
X388112D02*
X400050D01*
X349250Y360934D02*
X361442D01*
X387858D02*
X400050D01*
X349250Y360680D02*
X361950D01*
X387350D02*
X400050D01*
X349250Y360426D02*
X362458D01*
X386842D02*
X400050D01*
X349250Y360172D02*
X362712D01*
X386588D02*
X400050D01*
X349250Y359918D02*
X363220D01*
X386080D02*
X400050D01*
X349250Y359664D02*
X363728D01*
X385572D02*
X400050D01*
X349250Y359410D02*
X364490D01*
X384810D02*
X400050D01*
X349250Y359156D02*
X364998D01*
X384302D02*
X400050D01*
X349250Y358902D02*
X365506D01*
X383794D02*
X400050D01*
X349250Y358648D02*
X366268D01*
X383032D02*
X400050D01*
X349250Y358394D02*
X367030D01*
X382270D02*
X400050D01*
X349250Y358140D02*
X368046D01*
X381254D02*
X400050D01*
X349250Y357886D02*
X369062D01*
X380238D02*
X400050D01*
X349250Y357632D02*
X370332D01*
X378968D02*
X400050D01*
X349250Y357378D02*
X372110D01*
X377190D02*
X400050D01*
X372872Y380238D02*
X374650D01*
X372364Y379984D02*
X377952D01*
X370332Y379730D02*
X377698D01*
X367538Y379476D02*
X377444D01*
X374142Y379222D02*
X377190D01*
X370078Y377444D02*
X375412D01*
X369570Y377190D02*
X375412D01*
X369824Y374904D02*
X374650D01*
X369316Y374650D02*
X374904D01*
X368554Y374396D02*
X374904D01*
X374142Y372618D02*
X374650D01*
X373380Y372364D02*
X380238D01*
X371602Y372110D02*
X380238D01*
X366014Y371856D02*
X380238D01*
X366268Y371602D02*
X379984D01*
X366268Y371348D02*
X379984D01*
X366268Y371094D02*
X379730D01*
X366268Y370840D02*
X379730D01*
X366522Y370586D02*
X379476D01*
X366522Y370332D02*
X379222D01*
X366776Y370078D02*
X378714D01*
X367030Y369824D02*
X378206D01*
X367284Y369570D02*
X377190D01*
X367538Y369316D02*
X376682D01*
X367792Y369062D02*
X375920D01*
X349250Y367538D02*
X354330D01*
X394970D02*
X400050D01*
X349250Y367284D02*
X354330D01*
X394970D02*
X400050D01*
X349250Y367030D02*
X354584D01*
X394716D02*
X400050D01*
X349250Y366776D02*
X354838D01*
X394462D02*
X400050D01*
X349250Y366522D02*
X355092D01*
X394208D02*
X400050D01*
X349250Y366268D02*
X355346D01*
X393954D02*
X400050D01*
X349250Y366014D02*
X355346D01*
X393954D02*
X400050D01*
X349250Y365760D02*
X355600D01*
X393700D02*
X400050D01*
X349250Y365506D02*
X355854D01*
X393446D02*
X400050D01*
X349250Y365252D02*
X356108D01*
X393192D02*
X400050D01*
X349250Y364998D02*
X356362D01*
X392938D02*
X400050D01*
X349250Y364744D02*
X356616D01*
X392684D02*
X400050D01*
X349250Y364490D02*
X356870D01*
X392430D02*
X400050D01*
X349250Y364236D02*
X357124D01*
X392176D02*
X400050D01*
X349250Y363982D02*
X357378D01*
X391922D02*
X400050D01*
X349250Y363728D02*
X357632D01*
X391668D02*
X400050D01*
X349250Y363474D02*
X357886D01*
X391414D02*
X400050D01*
X349250Y363220D02*
X358394D01*
X390906D02*
X400050D01*
X349250Y362966D02*
X358648D01*
X390652D02*
X400050D01*
X349250Y362712D02*
X358902D01*
X390398D02*
X400050D01*
X349250Y362458D02*
X359156D01*
X390144D02*
X400050D01*
X349250Y362204D02*
X359664D01*
X389636D02*
X400050D01*
X349250Y402336D02*
X358648D01*
X390652D02*
X400050D01*
X349250Y402082D02*
X358394D01*
X390906D02*
X400050D01*
X349250Y401828D02*
X357886D01*
X391414D02*
X400050D01*
X349250Y401574D02*
X357632D01*
X391668D02*
X400050D01*
X349250Y401320D02*
X357378D01*
X391922D02*
X400050D01*
X349250Y401066D02*
X357124D01*
X392176D02*
X400050D01*
X349250Y400812D02*
X356870D01*
X392430D02*
X400050D01*
X349250Y400558D02*
X356616D01*
X392684D02*
X400050D01*
X349250Y400304D02*
X356362D01*
X392938D02*
X400050D01*
X349250Y400050D02*
X356108D01*
X393192D02*
X400050D01*
X349250Y399796D02*
X355854D01*
X393446D02*
X400050D01*
X349250Y399542D02*
X355600D01*
X393700D02*
X400050D01*
X349250Y399288D02*
X355346D01*
X393954D02*
X400050D01*
X349250Y399034D02*
X355346D01*
X393954D02*
X400050D01*
X349250Y398780D02*
X355092D01*
X394208D02*
X400050D01*
X349250Y398526D02*
X354838D01*
X394462D02*
X400050D01*
X349250Y398272D02*
X354584D01*
X394716D02*
X400050D01*
X349250Y398018D02*
X354330D01*
X394970D02*
X400050D01*
X349250Y397764D02*
X354330D01*
X394970D02*
X400050D01*
X374396Y395732D02*
X375666D01*
X374142Y395478D02*
X375666D01*
X374142Y395224D02*
X376936D01*
X373888Y394970D02*
X378714D01*
X373888Y394716D02*
X378968D01*
X373634Y394462D02*
X379730D01*
X373634Y394208D02*
X380238D01*
X372364Y393954D02*
X380746D01*
X372364Y393700D02*
X380746D01*
X372364Y393446D02*
X381000D01*
X372364Y393192D02*
X381000D01*
X372364Y392938D02*
X381254D01*
X372618Y392684D02*
X381254D01*
X369062Y392430D02*
X381508D01*
X368808Y392176D02*
X381508D01*
X368554Y391922D02*
X377444D01*
X368300Y391668D02*
X376682D01*
X368300Y391414D02*
X376174D01*
X369062Y391160D02*
X375666D01*
X369570Y390906D02*
X375158D01*
X370078Y390652D02*
X374904D01*
X370840Y390398D02*
X374650D01*
X374396Y386588D02*
X376174D01*
X374396Y386334D02*
X376428D01*
X374396Y386080D02*
X376428D01*
X374650Y385826D02*
X376682D01*
X374650Y385572D02*
X377698D01*
X364490Y384048D02*
X374650D01*
X364236Y383794D02*
X375158D01*
X368808Y383540D02*
X375412D01*
X373126Y383286D02*
X375666D01*
X374142Y383032D02*
X375920D01*
X374650Y382778D02*
X375920D01*
X349250Y407924D02*
X372110D01*
X377190D02*
X400050D01*
X349250Y407670D02*
X370332D01*
X378968D02*
X400050D01*
X349250Y407416D02*
X369062D01*
X380238D02*
X400050D01*
X349250Y407162D02*
X368046D01*
X381254D02*
X400050D01*
X349250Y406908D02*
X367030D01*
X382270D02*
X400050D01*
X349250Y406654D02*
X366268D01*
X383032D02*
X400050D01*
X349250Y406400D02*
X365506D01*
X383794D02*
X400050D01*
X349250Y406146D02*
X364998D01*
X384302D02*
X400050D01*
X349250Y405892D02*
X364490D01*
X384810D02*
X400050D01*
X349250Y405638D02*
X363728D01*
X385572D02*
X400050D01*
X349250Y405384D02*
X363220D01*
X386080D02*
X400050D01*
X349250Y405130D02*
X362712D01*
X386588D02*
X400050D01*
X349250Y404876D02*
X362458D01*
X386842D02*
X400050D01*
X349250Y404622D02*
X361950D01*
X387350D02*
X400050D01*
X349250Y404368D02*
X361442D01*
X387858D02*
X400050D01*
X349250Y404114D02*
X361188D01*
X388112D02*
X400050D01*
X349250Y403860D02*
X360680D01*
X388620D02*
X400050D01*
X349250Y403606D02*
X360172D01*
X389128D02*
X400050D01*
X349250Y403352D02*
X359918D01*
X389382D02*
X400050D01*
X349250Y403098D02*
X359664D01*
X389636D02*
X400050D01*
X349250Y402844D02*
X359156D01*
X390144D02*
X400050D01*
X349250Y402590D02*
X358902D01*
X390398D02*
X400050D01*
X349250Y361950D02*
X359918D01*
X389382D02*
X400050D01*
D38*
X1023220Y720440D02*
D03*
X998220D02*
D03*
X973220D02*
D03*
X948220D02*
D03*
D39*
X1055220Y667440D02*
D03*
X916220D02*
D03*
D40*
X727710Y794030D02*
D03*
X753110Y829030D02*
D03*
X778510Y794030D02*
D03*
X803910Y829030D02*
D03*
D41*
X1414640Y452330D02*
D03*
X1437640D02*
D03*
X1460640D02*
D03*
D42*
X1437640Y510330D02*
D03*
D43*
Y398940D02*
D03*
Y418940D02*
D03*
X1460640Y398940D02*
D03*
Y418940D02*
D03*
X1348740Y685640D02*
D03*
Y665640D02*
D03*
X436880Y564990D02*
D03*
Y544990D02*
D03*
X1292860Y697390D02*
D03*
Y717390D02*
D03*
X1310640D02*
D03*
Y697390D02*
D03*
X1328420Y717390D02*
D03*
Y697390D02*
D03*
X1257300D02*
D03*
Y717390D02*
D03*
X1275080Y697390D02*
D03*
Y717390D02*
D03*
X1299920Y559910D02*
D03*
Y539910D02*
D03*
X1282140Y559910D02*
D03*
Y539910D02*
D03*
X1203960Y697390D02*
D03*
Y717390D02*
D03*
X500380Y645320D02*
D03*
Y665320D02*
D03*
X566940Y617372D02*
D03*
Y637372D02*
D03*
X972820Y811559D02*
D03*
Y791559D02*
D03*
Y755804D02*
D03*
Y775804D02*
D03*
X997372Y811559D02*
D03*
Y791559D02*
D03*
Y755804D02*
D03*
Y775804D02*
D03*
X1021322Y811559D02*
D03*
Y791559D02*
D03*
X1021322Y755804D02*
D03*
Y775804D02*
D03*
D44*
X1020052Y829740D02*
D03*
X1010552Y851740D02*
D03*
X1029552D02*
D03*
X984250Y829740D02*
D03*
X974750Y851740D02*
D03*
X993750D02*
D03*
X948690Y829740D02*
D03*
X939190Y851740D02*
D03*
X958190D02*
D03*
D45*
X1323381Y604030D02*
D03*
X1316881D02*
D03*
X1310381D02*
D03*
X1303881D02*
D03*
X1297381D02*
D03*
X1290881D02*
D03*
X1284380D02*
D03*
X1277880D02*
D03*
X1271380D02*
D03*
X1264880Y663430D02*
D03*
Y604030D02*
D03*
X1271380Y663430D02*
D03*
X1277880D02*
D03*
X1284380D02*
D03*
X1290880D02*
D03*
X1297380D02*
D03*
X1303880D02*
D03*
X1310380D02*
D03*
X1316880D02*
D03*
X1323380D02*
D03*
D46*
X1294130Y633730D02*
D03*
D47*
X916360Y754190D02*
D03*
Y760690D02*
D03*
Y825690D02*
D03*
Y819190D02*
D03*
Y812690D02*
D03*
Y806190D02*
D03*
Y799690D02*
D03*
Y793190D02*
D03*
Y786690D02*
D03*
Y780190D02*
D03*
Y773690D02*
D03*
Y767190D02*
D03*
X843860Y754190D02*
D03*
Y760690D02*
D03*
Y767190D02*
D03*
Y773690D02*
D03*
Y780190D02*
D03*
Y786690D02*
D03*
Y793190D02*
D03*
Y799690D02*
D03*
Y806190D02*
D03*
Y812690D02*
D03*
Y819190D02*
D03*
Y825690D02*
D03*
X1129720Y749207D02*
D03*
Y755707D02*
D03*
Y820707D02*
D03*
Y814207D02*
D03*
Y807707D02*
D03*
Y801207D02*
D03*
Y794707D02*
D03*
Y788207D02*
D03*
Y781707D02*
D03*
Y775207D02*
D03*
Y768707D02*
D03*
Y762207D02*
D03*
X1057220Y749207D02*
D03*
Y755707D02*
D03*
Y762207D02*
D03*
Y768707D02*
D03*
Y775207D02*
D03*
Y781707D02*
D03*
Y788207D02*
D03*
Y794707D02*
D03*
Y801207D02*
D03*
Y807707D02*
D03*
Y814207D02*
D03*
Y820707D02*
D03*
D48*
X464230Y609160D02*
D03*
Y604160D02*
D03*
Y599160D02*
D03*
Y594160D02*
D03*
Y589160D02*
D03*
Y584160D02*
D03*
Y579160D02*
D03*
Y574160D02*
D03*
Y569160D02*
D03*
Y564160D02*
D03*
Y559160D02*
D03*
Y554160D02*
D03*
X549230D02*
D03*
Y559160D02*
D03*
Y564160D02*
D03*
Y569160D02*
D03*
Y574160D02*
D03*
Y579160D02*
D03*
Y584160D02*
D03*
Y589160D02*
D03*
Y594160D02*
D03*
Y599160D02*
D03*
Y604160D02*
D03*
Y609160D02*
D03*
D49*
X479230Y539160D02*
D03*
X484230D02*
D03*
X489230D02*
D03*
X494230D02*
D03*
X499230D02*
D03*
X504230D02*
D03*
X509230D02*
D03*
X514230D02*
D03*
X519230D02*
D03*
X524230D02*
D03*
X529230D02*
D03*
X534230D02*
D03*
Y624160D02*
D03*
X529230D02*
D03*
X524230D02*
D03*
X519230D02*
D03*
X514230D02*
D03*
X509230D02*
D03*
X504230D02*
D03*
X499230D02*
D03*
X494230D02*
D03*
X489230D02*
D03*
X484230D02*
D03*
X479230D02*
D03*
D50*
X397670Y548640D02*
D03*
X417670D02*
D03*
X397670Y619760D02*
D03*
X417670D02*
D03*
X1317150Y549910D02*
D03*
X1337150D02*
D03*
X1158400Y768350D02*
D03*
X1178400D02*
D03*
Y748030D02*
D03*
X1158400D02*
D03*
X1220630Y716440D02*
D03*
X1240630D02*
D03*
X1220630Y698660D02*
D03*
X1240630D02*
D03*
X451442Y641350D02*
D03*
X471442D02*
D03*
X562770Y518420D02*
D03*
X582770D02*
D03*
X562570Y537920D02*
D03*
X582570D02*
D03*
X671990Y445770D02*
D03*
X691990D02*
D03*
X670720Y571879D02*
D03*
X690720D02*
D03*
X727550Y445770D02*
D03*
X707550D02*
D03*
X527388Y518420D02*
D03*
X547388D02*
D03*
X670720Y471290D02*
D03*
X690720D02*
D03*
X726280Y571879D02*
D03*
X706280D02*
D03*
X670720Y595499D02*
D03*
X690720D02*
D03*
X726280Y471290D02*
D03*
X706280D02*
D03*
X670720Y495300D02*
D03*
X690720D02*
D03*
X726280Y595499D02*
D03*
X706280D02*
D03*
X726280Y495300D02*
D03*
X706280D02*
D03*
X670720Y518119D02*
D03*
X690720D02*
D03*
X726280Y517620D02*
D03*
X706280D02*
D03*
X670720Y545069D02*
D03*
X690720D02*
D03*
X726280D02*
D03*
X706280D02*
D03*
D51*
X398170Y596200D02*
D03*
Y572200D02*
D03*
X417170D02*
D03*
Y596200D02*
D03*
D52*
X768202Y482800D02*
D03*
Y457800D02*
D03*
Y432800D02*
D03*
Y407800D02*
D03*
Y507800D02*
D03*
Y532800D02*
D03*
Y557800D02*
D03*
Y582800D02*
D03*
X1200790Y513000D02*
D03*
Y538000D02*
D03*
Y563000D02*
D03*
Y588000D02*
D03*
Y488000D02*
D03*
Y463000D02*
D03*
Y438000D02*
D03*
Y413000D02*
D03*
D53*
X821202Y614800D02*
D03*
Y375800D02*
D03*
X1147790Y381000D02*
D03*
Y620000D02*
D03*
D54*
X646010Y541968D02*
D03*
X624010Y532468D02*
D03*
Y551468D02*
D03*
X646498Y507213D02*
D03*
X624498Y497713D02*
D03*
Y516713D02*
D03*
X646200Y473710D02*
D03*
X624200Y464210D02*
D03*
Y483210D02*
D03*
X646200Y439420D02*
D03*
X624200Y429920D02*
D03*
Y448920D02*
D03*
X646200Y406280D02*
D03*
X624200Y396780D02*
D03*
Y415780D02*
D03*
X646200Y612260D02*
D03*
X624200Y602760D02*
D03*
Y621760D02*
D03*
X646200Y576580D02*
D03*
X624200Y567080D02*
D03*
Y586080D02*
D03*
D55*
X1364500Y490220D02*
D03*
X1269040Y491490D02*
D03*
D56*
X1388500Y509270D02*
D03*
Y496570D02*
D03*
Y483870D02*
D03*
Y471170D02*
D03*
X1333500D02*
D03*
Y483870D02*
D03*
Y496570D02*
D03*
Y509270D02*
D03*
X1245040Y472440D02*
D03*
Y485140D02*
D03*
Y497840D02*
D03*
Y510540D02*
D03*
X1300040D02*
D03*
Y497840D02*
D03*
Y485140D02*
D03*
Y472440D02*
D03*
D57*
X1310640Y576700D02*
D03*
X1287640D02*
D03*
D58*
X1243330Y584570D02*
D03*
Y535570D02*
D03*
D59*
X1236128Y756920D02*
D03*
D60*
X1204632Y744220D02*
D03*
Y769620D02*
D03*
D61*
X467360Y293370D02*
D03*
X506760D02*
D03*
X546160D02*
D03*
X585560D02*
D03*
X624960D02*
D03*
X664360D02*
D03*
X703760D02*
D03*
X743160D02*
D03*
X782560D02*
D03*
X821960D02*
D03*
X1141580D02*
D03*
X1180980D02*
D03*
X1220380D02*
D03*
X1259780D02*
D03*
X1299180D02*
D03*
X1338580D02*
D03*
M02*
