G04*
G04 #@! TF.GenerationSoftware,Altium Limited,Altium Designer,18.1.7 (191)*
G04*
G04 Layer_Physical_Order=2*
G04 Layer_Color=16711680*
%FSLAX44Y44*%
%MOMM*%
G71*
G01*
G75*
%ADD10C,0.2540*%
%ADD16R,1.0200X3.5000*%
%ADD19R,1.4000X1.1000*%
%ADD26R,1.1000X1.4000*%
%ADD28R,4.5000X1.3000*%
%ADD29R,3.9000X1.8000*%
%ADD30R,1.4000X1.0000*%
%ADD37R,2.0000X7.8740*%
%ADD62C,1.0160*%
%ADD63C,0.8000*%
%ADD64R,3.5000X3.0000*%
%ADD65R,0.5500X2.0000*%
%ADD66R,2.0000X0.5500*%
%ADD67R,0.5000X1.2000*%
%ADD68R,0.5000X1.6000*%
%ADD69R,5.0800X1.9000*%
G36*
X929091Y875680D02*
X955176Y874215D01*
X981188Y871776D01*
X1007091Y868365D01*
X1032848Y863989D01*
X1058423Y858653D01*
X1083781Y852364D01*
X1108885Y845131D01*
X1118240Y842053D01*
X1118037Y840783D01*
X871636D01*
X870823Y842000D01*
X869080Y843164D01*
X867024Y843573D01*
X865597Y843289D01*
X852345Y856541D01*
X851505Y857103D01*
X850514Y857300D01*
X755166D01*
X754175Y857103D01*
X753335Y856541D01*
X729453Y832659D01*
X721276D01*
Y848839D01*
X714468D01*
X714291Y850097D01*
X722160Y852364D01*
X747517Y858653D01*
X773092Y863989D01*
X798849Y868365D01*
X824752Y871776D01*
X850764Y874215D01*
X876849Y875680D01*
X902970Y876168D01*
X929091Y875680D01*
D02*
G37*
G36*
X861934Y839627D02*
X861651Y838200D01*
X862060Y836144D01*
X863224Y834400D01*
X864968Y833236D01*
X867024Y832827D01*
X869080Y833236D01*
X870823Y834400D01*
X871627Y835603D01*
X1119946D01*
X1120684Y834865D01*
X1121524Y834304D01*
X1122515Y834107D01*
X1128851D01*
X1132155Y830803D01*
X1132995Y830242D01*
X1133986Y830045D01*
X1140323D01*
X1143626Y826741D01*
X1144466Y826180D01*
X1145457Y825983D01*
X1151794D01*
X1155692Y822084D01*
X1156532Y821523D01*
X1157523Y821326D01*
X1163036D01*
X1166935Y817427D01*
X1167775Y816866D01*
X1168766Y816669D01*
X1174279D01*
X1178178Y812770D01*
X1179018Y812209D01*
X1180009Y812012D01*
X1185522D01*
X1190002Y807532D01*
X1190843Y806970D01*
X1191834Y806773D01*
X1196506D01*
X1200986Y802293D01*
X1201826Y801731D01*
X1202817Y801534D01*
X1207489D01*
X1211970Y797054D01*
X1212810Y796492D01*
X1213801Y796295D01*
X1218473D01*
X1223521Y791247D01*
X1224361Y790686D01*
X1225352Y790489D01*
X1229167D01*
X1234215Y785440D01*
X1235056Y784879D01*
X1236047Y784682D01*
X1239862D01*
X1244910Y779634D01*
X1245750Y779072D01*
X1246741Y778875D01*
X1250556D01*
X1256156Y773276D01*
X1256996Y772714D01*
X1257987Y772517D01*
X1260932D01*
X1266532Y766917D01*
X1267372Y766356D01*
X1268363Y766159D01*
X1271308D01*
X1276908Y760559D01*
X1277748Y759997D01*
X1278739Y759800D01*
X1281684D01*
X1287818Y753666D01*
X1288658Y753105D01*
X1289649Y752908D01*
X1291713D01*
X1297847Y746774D01*
X1298687Y746212D01*
X1299678Y746015D01*
X1301742D01*
X1307876Y739881D01*
X1308716Y739320D01*
X1309707Y739122D01*
X1311770D01*
X1322124Y728769D01*
X1322964Y728207D01*
X1323955Y728010D01*
X1326252D01*
X1336606Y717657D01*
X1337446Y717095D01*
X1338437Y716898D01*
X1339200D01*
X1435050Y621048D01*
Y456938D01*
X1433840Y456129D01*
X1432676Y454386D01*
X1432267Y452330D01*
X1432676Y450274D01*
X1433840Y448531D01*
X1435584Y447366D01*
X1437640Y446957D01*
X1439696Y447366D01*
X1441440Y448531D01*
X1442604Y450274D01*
X1443013Y452330D01*
X1442604Y454386D01*
X1441440Y456129D01*
X1440230Y456938D01*
Y621922D01*
X1440688Y622233D01*
X1441465Y622422D01*
X1449156Y613139D01*
X1465060Y592412D01*
X1478978Y572797D01*
X1478978Y336550D01*
X1301770D01*
Y373470D01*
X1301573Y374461D01*
X1301011Y375301D01*
X1299249Y377063D01*
X1299533Y378490D01*
X1299124Y380546D01*
X1297959Y382290D01*
X1296216Y383454D01*
X1294160Y383863D01*
X1292104Y383454D01*
X1290361Y382290D01*
X1289196Y380546D01*
X1288787Y378490D01*
X1289196Y376434D01*
X1290361Y374691D01*
X1292104Y373526D01*
X1294160Y373117D01*
X1295587Y373401D01*
X1296590Y372397D01*
Y336550D01*
X1151890D01*
Y255512D01*
X1103872D01*
Y334010D01*
X1103873D01*
X1103408Y344657D01*
X1102017Y355223D01*
X1099711Y365628D01*
X1096506Y375792D01*
X1092428Y385638D01*
X1087506Y395092D01*
X1081780Y404080D01*
X1078860Y407886D01*
X1079817Y408725D01*
X1097943Y390599D01*
X1098783Y390037D01*
X1099774Y389840D01*
X1127020D01*
Y370730D01*
X1168560D01*
Y391270D01*
X1139040D01*
X1138554Y392443D01*
X1144841Y398730D01*
X1254497D01*
X1255488Y398927D01*
X1256328Y399489D01*
X1294544Y437705D01*
X1295105Y438545D01*
X1295302Y439536D01*
Y619444D01*
X1295105Y620435D01*
X1294544Y621275D01*
X1277670Y638149D01*
Y667660D01*
X1277473Y668651D01*
X1276911Y669491D01*
X1259586Y686816D01*
Y749914D01*
X1259389Y750905D01*
X1258828Y751745D01*
X1227691Y782881D01*
X1226851Y783443D01*
X1225860Y783640D01*
X1145343D01*
X1144352Y783443D01*
X1143512Y782881D01*
X1123933Y763303D01*
X1123372Y762462D01*
X1123174Y761471D01*
Y711538D01*
X1121965Y710729D01*
X1120800Y708986D01*
X1120391Y706930D01*
X1120800Y704874D01*
X1121965Y703130D01*
X1123708Y701966D01*
X1125764Y701557D01*
X1127821Y701966D01*
X1129564Y703130D01*
X1130728Y704874D01*
X1131137Y706930D01*
X1130728Y708986D01*
X1129564Y710729D01*
X1128354Y711538D01*
Y760399D01*
X1146415Y778460D01*
X1224787D01*
X1254407Y748841D01*
Y685743D01*
X1254604Y684752D01*
X1255165Y683912D01*
X1272490Y666587D01*
Y637077D01*
X1272687Y636086D01*
X1273249Y635246D01*
X1290123Y618372D01*
Y440608D01*
X1253424Y403910D01*
X1143768D01*
X1142777Y403713D01*
X1141937Y403151D01*
X1133915Y395130D01*
X1127238D01*
X1126685Y395020D01*
X1100847D01*
X1071664Y424203D01*
Y476397D01*
X1082066Y486800D01*
X1084370D01*
X1085178Y485591D01*
X1086921Y484426D01*
X1088977Y484017D01*
X1091034Y484426D01*
X1092777Y485591D01*
X1093942Y487334D01*
X1094351Y489390D01*
X1093942Y491446D01*
X1092777Y493190D01*
X1091034Y494354D01*
X1088977Y494763D01*
X1086921Y494354D01*
X1085178Y493190D01*
X1084690Y492460D01*
X1084164Y492490D01*
X1083669Y493791D01*
X1092761Y502883D01*
X1093323Y503723D01*
X1093520Y504715D01*
Y516312D01*
X1096355Y519147D01*
X1097528Y518661D01*
Y501156D01*
X1097726Y500164D01*
X1098287Y499324D01*
X1111562Y486049D01*
X1112402Y485487D01*
X1113394Y485290D01*
X1177020D01*
Y480230D01*
X1219283D01*
X1219962Y478960D01*
X1219882Y478840D01*
X1174335D01*
X1173344Y478643D01*
X1172504Y478081D01*
X1167450Y473027D01*
X1166889Y472187D01*
X1166692Y471196D01*
Y443173D01*
X1166889Y442182D01*
X1167450Y441342D01*
X1172743Y436049D01*
X1173583Y435488D01*
X1174574Y435290D01*
X1177020D01*
Y430230D01*
X1224560D01*
Y445770D01*
X1177020D01*
Y440470D01*
X1175647D01*
X1171871Y444246D01*
Y470123D01*
X1175408Y473660D01*
X1222022D01*
X1223013Y473857D01*
X1223853Y474419D01*
X1229921Y480487D01*
X1230483Y481327D01*
X1230680Y482318D01*
Y495300D01*
X1230483Y496291D01*
X1229921Y497131D01*
X1225041Y502011D01*
X1224201Y502573D01*
X1223210Y502770D01*
X1109824D01*
X1106518Y506076D01*
Y508507D01*
X1107788Y509012D01*
X1109534Y507845D01*
X1112012Y507352D01*
X1177020D01*
Y505230D01*
X1224560D01*
Y520770D01*
X1225546Y521392D01*
X1226386Y521954D01*
X1232511Y528078D01*
X1233072Y528918D01*
X1233270Y529910D01*
Y541505D01*
X1233450Y542700D01*
X1234539Y542700D01*
X1270990D01*
Y575240D01*
X1234539D01*
X1233450Y575240D01*
X1233270Y576435D01*
Y609109D01*
X1233072Y610100D01*
X1232511Y610940D01*
X1221873Y621578D01*
Y624042D01*
X1223083Y624851D01*
X1224247Y626594D01*
X1224656Y628650D01*
X1224247Y630706D01*
X1223083Y632449D01*
X1221339Y633614D01*
X1219283Y634023D01*
X1217227Y633614D01*
X1215484Y632449D01*
X1214319Y630706D01*
X1213910Y628650D01*
X1214319Y626594D01*
X1215484Y624851D01*
X1216693Y624042D01*
Y622675D01*
X1215520Y622189D01*
X1185516Y652194D01*
Y693172D01*
X1185319Y694163D01*
X1184757Y695004D01*
X1176686Y703074D01*
X1175846Y703636D01*
X1174855Y703833D01*
X1170668D01*
X1168998Y705503D01*
X1169281Y706930D01*
X1168873Y708986D01*
X1167708Y710729D01*
X1165965Y711894D01*
X1163908Y712303D01*
X1161852Y711894D01*
X1160109Y710729D01*
X1158944Y708986D01*
X1158535Y706930D01*
X1158883Y705181D01*
X1157813Y704455D01*
X1156765Y705503D01*
X1157048Y706930D01*
X1156639Y708986D01*
X1155475Y710729D01*
X1153731Y711894D01*
X1151675Y712303D01*
X1149619Y711894D01*
X1147876Y710729D01*
X1146711Y708986D01*
X1146302Y706930D01*
X1146711Y704874D01*
X1147876Y703130D01*
X1149619Y701966D01*
X1151675Y701557D01*
X1153102Y701841D01*
X1159341Y695602D01*
X1160181Y695040D01*
X1161172Y694843D01*
X1172204D01*
X1176526Y690521D01*
Y664983D01*
X1173262Y661720D01*
X1140537D01*
X1140051Y662893D01*
X1150248Y673091D01*
X1151675Y672807D01*
X1153731Y673216D01*
X1155475Y674380D01*
X1156639Y676124D01*
X1157048Y678180D01*
X1156639Y680236D01*
X1155475Y681980D01*
X1153731Y683144D01*
X1151675Y683553D01*
X1149619Y683144D01*
X1147876Y681980D01*
X1146711Y680236D01*
X1146302Y678180D01*
X1146468Y677345D01*
X1146186Y677136D01*
X1145036Y677864D01*
X1145099Y678180D01*
X1144690Y680236D01*
X1143525Y681980D01*
X1141782Y683144D01*
X1139726Y683553D01*
X1137669Y683144D01*
X1135926Y681980D01*
X1134762Y680236D01*
X1134352Y678180D01*
X1134636Y676753D01*
X1097789Y639906D01*
X1097227Y639065D01*
X1097030Y638074D01*
Y634594D01*
X1096024Y633891D01*
X1094790Y634289D01*
Y653596D01*
X1141557Y700363D01*
X1142118Y701203D01*
X1142315Y702194D01*
Y702322D01*
X1143525Y703130D01*
X1144690Y704874D01*
X1145099Y706930D01*
X1144690Y708986D01*
X1143525Y710729D01*
X1141782Y711894D01*
X1139726Y712303D01*
X1137669Y711894D01*
X1135926Y710729D01*
X1134762Y708986D01*
X1134352Y706930D01*
X1134762Y704874D01*
X1135926Y703130D01*
X1136022Y702153D01*
X1090369Y656500D01*
X1089807Y655660D01*
X1089610Y654669D01*
Y613210D01*
X1089807Y612219D01*
X1090369Y611379D01*
X1094531Y607217D01*
X1094247Y605790D01*
X1094656Y603734D01*
X1095820Y601991D01*
X1097564Y600826D01*
X1098586Y600622D01*
Y599328D01*
X1097564Y599124D01*
X1095820Y597960D01*
X1094656Y596216D01*
X1094247Y594160D01*
X1094576Y592507D01*
X1093405Y591881D01*
X1086245Y599041D01*
Y650428D01*
X1086245Y650428D01*
Y656796D01*
X1092825Y663375D01*
X1092825Y663375D01*
X1093386Y664215D01*
X1093583Y665206D01*
Y683196D01*
X1093386Y684187D01*
X1092825Y685028D01*
X1088104Y689749D01*
X1088274Y690003D01*
X1088683Y692060D01*
X1088274Y694116D01*
X1087110Y695859D01*
X1085366Y697024D01*
X1083310Y697433D01*
X1081254Y697024D01*
X1080527Y696538D01*
X1079257Y697217D01*
Y711801D01*
X1079059Y712793D01*
X1078498Y713633D01*
X1074900Y717231D01*
Y719180D01*
X1076080D01*
Y733720D01*
X1074900D01*
Y736549D01*
X1078138Y739787D01*
X1078699Y740627D01*
X1078896Y741618D01*
Y771974D01*
X1078699Y772965D01*
X1078138Y773805D01*
X1074900Y777043D01*
Y785160D01*
X1076080D01*
Y799700D01*
X1068540D01*
Y785160D01*
X1069720D01*
Y778372D01*
X1068547Y777886D01*
X1067361Y779071D01*
X1066521Y779633D01*
X1065530Y779830D01*
X1048463D01*
X1044900Y783393D01*
Y785160D01*
X1046080D01*
Y799700D01*
X1038540D01*
Y785160D01*
X1039720D01*
Y782320D01*
X1039917Y781329D01*
X1040479Y780489D01*
X1045559Y775409D01*
X1046399Y774847D01*
X1047390Y774650D01*
X1064457D01*
X1069906Y769201D01*
Y744269D01*
X1068955Y743317D01*
X1067685Y743843D01*
Y759950D01*
X1067685Y759950D01*
X1067282Y760922D01*
X1067282Y760922D01*
X1060782Y767422D01*
X1059810Y767825D01*
X1059810Y767825D01*
X1054810D01*
X1054810Y767825D01*
X1053838Y767422D01*
X1053838Y767422D01*
X1047338Y760922D01*
X1046935Y759950D01*
X1046935Y759950D01*
Y742950D01*
X1046935Y742950D01*
X1047338Y741978D01*
X1047338Y741978D01*
X1053838Y735478D01*
X1054810Y735075D01*
X1054810Y735075D01*
X1059810D01*
X1059810Y735075D01*
X1060782Y735478D01*
X1060782Y735478D01*
X1061709Y736405D01*
X1061936Y736373D01*
X1062940Y735840D01*
Y717550D01*
X1063137Y716559D01*
X1063699Y715719D01*
X1070267Y709150D01*
Y673670D01*
X1064969Y668371D01*
X1064407Y667531D01*
X1064210Y666540D01*
Y601183D01*
X1063037Y600697D01*
X1051756Y611978D01*
Y665333D01*
X1051559Y666325D01*
X1050998Y667165D01*
X1044900Y673263D01*
Y719180D01*
X1046080D01*
Y733720D01*
X1038540D01*
Y719180D01*
X1039720D01*
Y672190D01*
X1039917Y671199D01*
X1040479Y670359D01*
X1044987Y665850D01*
X1044462Y664580D01*
X1038540D01*
Y657002D01*
X1037270Y656652D01*
X1036310Y658089D01*
X1034566Y659254D01*
X1032510Y659663D01*
X1030454Y659254D01*
X1028710Y658089D01*
X1027902Y656880D01*
X1011285D01*
X1010219Y658475D01*
X1008476Y659640D01*
X1006420Y660049D01*
X1006301Y660025D01*
X1005320Y660831D01*
Y663973D01*
X1008941Y667594D01*
X1009503Y668435D01*
X1009700Y669426D01*
Y712280D01*
X1009503Y713271D01*
X1008941Y714111D01*
X1005124Y717928D01*
X1005080Y719180D01*
X1005080D01*
Y733720D01*
X1004119D01*
X1003990Y734990D01*
X1007671Y738671D01*
X1008233Y739511D01*
X1008430Y740502D01*
Y779780D01*
X1008233Y780771D01*
X1007671Y781611D01*
X1004969Y784314D01*
X1005320Y785160D01*
X1005320D01*
Y799700D01*
X997780D01*
Y785160D01*
X998720D01*
Y784310D01*
X998917Y783319D01*
X999479Y782479D01*
X1003250Y778707D01*
Y771742D01*
X1002077Y771256D01*
X996801Y776531D01*
X995961Y777093D01*
X994970Y777290D01*
X980243D01*
X974139Y783393D01*
Y785160D01*
X975320D01*
Y799700D01*
X967780D01*
Y785160D01*
X968960D01*
Y782320D01*
X969157Y781329D01*
X969718Y780489D01*
X977339Y772869D01*
X978179Y772307D01*
X979170Y772110D01*
X993897D01*
X999440Y766567D01*
Y743153D01*
X993479Y737191D01*
X992917Y736351D01*
X992720Y735360D01*
Y715380D01*
X992917Y714389D01*
X993479Y713549D01*
X999440Y707587D01*
Y672903D01*
X993849Y667311D01*
X993287Y666471D01*
X993090Y665480D01*
Y648970D01*
X993287Y647979D01*
X993849Y647139D01*
X995874Y645113D01*
X995388Y643940D01*
X983241D01*
X979900Y647281D01*
Y666780D01*
X979703Y667771D01*
X979409Y668211D01*
X980395Y669020D01*
X983078Y666338D01*
X984050Y665935D01*
X984050Y665935D01*
X989050D01*
X989050Y665935D01*
X990022Y666338D01*
X990022Y666338D01*
X996522Y672838D01*
X996924Y673810D01*
X996924Y673810D01*
Y690810D01*
X996924Y690810D01*
X996522Y691782D01*
X996522Y691782D01*
X990022Y698282D01*
X989050Y698685D01*
X989050Y698685D01*
X984050D01*
X984050Y698685D01*
X983078Y698282D01*
X983078Y698282D01*
X976578Y691782D01*
X976175Y690810D01*
X976175Y690810D01*
Y673810D01*
X976175Y673810D01*
X976578Y672838D01*
X975480Y672273D01*
X973900Y673853D01*
Y719180D01*
X975080D01*
Y733720D01*
X967540D01*
Y719180D01*
X968720D01*
Y672780D01*
X968917Y671789D01*
X969479Y670949D01*
X974577Y665850D01*
X974376Y664580D01*
X967780D01*
Y650040D01*
X968960D01*
Y648468D01*
X967787Y647982D01*
X960244Y655524D01*
Y656112D01*
X959752Y658590D01*
X958348Y660691D01*
X956248Y662094D01*
X953770Y662587D01*
X951292Y662094D01*
X949192Y660691D01*
X947788Y658590D01*
X947470Y656988D01*
X946200Y657113D01*
Y676517D01*
X947813Y678130D01*
X955144D01*
X955952Y676920D01*
X957695Y675756D01*
X959752Y675347D01*
X961808Y675756D01*
X963551Y676920D01*
X964716Y678664D01*
X965125Y680720D01*
X964716Y682776D01*
X963551Y684520D01*
X961808Y685684D01*
X959752Y686093D01*
X957695Y685684D01*
X955952Y684520D01*
X955144Y683310D01*
X946740D01*
X945749Y683113D01*
X944909Y682551D01*
X941779Y679421D01*
X941217Y678581D01*
X941020Y677590D01*
Y650824D01*
X939989Y650452D01*
X939750Y650406D01*
X938046Y651544D01*
X935990Y651954D01*
X934563Y651670D01*
X931300Y654933D01*
Y665080D01*
X930120D01*
Y719180D01*
X931300D01*
Y733720D01*
X930120D01*
Y785160D01*
X931300D01*
Y799700D01*
X923760D01*
Y785160D01*
X924940D01*
Y733720D01*
X923760D01*
Y719180D01*
X924940D01*
Y665080D01*
X923760D01*
Y650540D01*
X928368D01*
X930901Y648007D01*
X930617Y646580D01*
X931026Y644524D01*
X932190Y642781D01*
X932357Y642670D01*
X931971Y641400D01*
X887420D01*
X886934Y642573D01*
X894901Y650540D01*
X901300D01*
Y665080D01*
X893760D01*
Y656724D01*
X892763Y655727D01*
X891590Y656213D01*
Y689807D01*
X899361Y697579D01*
X899923Y698419D01*
X900120Y699410D01*
Y719180D01*
X901300D01*
Y733720D01*
X893760D01*
Y719180D01*
X894940D01*
Y700483D01*
X888953Y694496D01*
X887780Y694982D01*
Y758387D01*
X899361Y769969D01*
X899923Y770809D01*
X900120Y771800D01*
Y785160D01*
X901300D01*
Y799700D01*
X893760D01*
Y785160D01*
X894940D01*
Y772873D01*
X883359Y761291D01*
X882797Y760451D01*
X882600Y759460D01*
Y707014D01*
X881330Y706629D01*
X880836Y707369D01*
X879093Y708534D01*
X877036Y708943D01*
X874980Y708534D01*
X873237Y707369D01*
X872429Y706159D01*
X852204D01*
Y718024D01*
X853384D01*
Y732564D01*
X852204D01*
Y785160D01*
X853384D01*
Y799700D01*
X845844D01*
Y785160D01*
X847024D01*
Y732564D01*
X845844D01*
Y718024D01*
X847024D01*
Y702310D01*
Y664580D01*
X845844D01*
Y650383D01*
X845844Y650040D01*
X845016Y649113D01*
X824212D01*
X823384Y650040D01*
Y664580D01*
X815844D01*
Y657203D01*
X811564Y652923D01*
X787540D01*
X787054Y654096D01*
X821445Y688487D01*
X822007Y689327D01*
X822204Y690318D01*
Y718024D01*
X823384D01*
Y732564D01*
X815844D01*
Y718024D01*
X817024D01*
Y691391D01*
X815014Y689381D01*
X813841Y689867D01*
Y756374D01*
X821445Y763979D01*
X822007Y764819D01*
X822204Y765810D01*
Y785160D01*
X823384D01*
Y799700D01*
X815844D01*
Y785160D01*
X817024D01*
Y766883D01*
X809420Y759278D01*
X808858Y758438D01*
X808661Y757447D01*
Y738711D01*
X807488Y738225D01*
X797285Y748428D01*
X797969Y749541D01*
X799894Y749924D01*
X801637Y751088D01*
X802802Y752832D01*
X803211Y754888D01*
X802802Y756944D01*
X801637Y758688D01*
X800912Y759172D01*
Y760442D01*
X801359Y760741D01*
X802524Y762484D01*
X802933Y764540D01*
X802524Y766596D01*
X801359Y768339D01*
X799616Y769504D01*
X797560Y769913D01*
X796133Y769629D01*
X792838Y772925D01*
Y776300D01*
X797476D01*
Y813839D01*
X784736D01*
Y776300D01*
X787658D01*
Y771852D01*
X787856Y770861D01*
X788417Y770021D01*
X792471Y765967D01*
X792187Y764540D01*
X792596Y762484D01*
X793761Y760741D01*
X794485Y760256D01*
Y758986D01*
X794038Y758688D01*
X793944Y758546D01*
X792680Y758421D01*
X787270Y763831D01*
X786430Y764393D01*
X785439Y764590D01*
X746415D01*
X742038Y768967D01*
Y776300D01*
X746676D01*
Y813839D01*
X733936D01*
Y776300D01*
X736858D01*
Y767894D01*
X737056Y766903D01*
X737617Y766063D01*
X741727Y761953D01*
X741241Y760780D01*
X737673D01*
X707951Y790501D01*
X707111Y791063D01*
X706120Y791260D01*
X662632D01*
X661641Y791063D01*
X660801Y790501D01*
X647709Y777409D01*
X647147Y776569D01*
X646950Y775578D01*
Y775130D01*
X644121D01*
X643933Y776078D01*
X643371Y776918D01*
X625978Y794311D01*
X625138Y794872D01*
X624147Y795070D01*
X579074D01*
X578772Y796340D01*
X599860Y806985D01*
X623606Y817879D01*
X647743Y827877D01*
X672238Y836965D01*
X697055Y845131D01*
X707521Y848147D01*
X708536Y847383D01*
Y811300D01*
X721276D01*
Y827480D01*
X730526D01*
X731517Y827677D01*
X732357Y828238D01*
X756239Y852120D01*
X804499D01*
X804985Y850947D01*
X802079Y848040D01*
X801517Y847200D01*
X801320Y846209D01*
Y832648D01*
X800110Y831840D01*
X798946Y830096D01*
X798537Y828040D01*
X798946Y825984D01*
X800110Y824240D01*
X801854Y823076D01*
X803910Y822667D01*
X805966Y823076D01*
X807710Y824240D01*
X808874Y825984D01*
X809283Y828040D01*
X808874Y830096D01*
X807710Y831840D01*
X806500Y832648D01*
Y845136D01*
X813484Y852120D01*
X849441D01*
X861934Y839627D01*
D02*
G37*
G36*
X690830Y778302D02*
Y763665D01*
X691027Y762674D01*
X691589Y761834D01*
X695794Y757629D01*
X696634Y757067D01*
X697625Y756870D01*
X698115D01*
X699120Y756230D01*
Y752050D01*
X691310D01*
Y753380D01*
X681167D01*
X681031Y753471D01*
X680040Y753668D01*
X671467D01*
X670830Y754093D01*
Y762590D01*
X665540D01*
Y763860D01*
X664270D01*
Y776400D01*
X660250D01*
X660130Y777620D01*
Y777836D01*
X664564Y782270D01*
X686862D01*
X690830Y778302D01*
D02*
G37*
G36*
X648335Y751417D02*
X645728Y748809D01*
X644221Y748779D01*
X643879Y749289D01*
X642136Y750454D01*
X640080Y750863D01*
X638024Y750454D01*
X636281Y749289D01*
X635764Y748516D01*
X634236D01*
X633719Y749289D01*
X631976Y750454D01*
X629920Y750863D01*
X627864Y750454D01*
X626120Y749289D01*
X624956Y747546D01*
X624547Y745490D01*
X624956Y743434D01*
X626120Y741691D01*
X627330Y740882D01*
Y736600D01*
X627527Y735609D01*
X628089Y734769D01*
X640030Y722827D01*
Y708171D01*
X638845Y707380D01*
X637681Y705636D01*
X637272Y703580D01*
X637681Y701524D01*
X638845Y699781D01*
X640589Y698616D01*
X642645Y698207D01*
X644701Y698616D01*
X646177Y699602D01*
X647164Y699349D01*
X647535Y699126D01*
X647816Y697714D01*
X648980Y695971D01*
X650044Y695260D01*
X649659Y693990D01*
X634688D01*
X634009Y695260D01*
X634426Y695884D01*
X634835Y697940D01*
X634426Y699996D01*
X633261Y701740D01*
X631518Y702904D01*
X629462Y703313D01*
X627405Y702904D01*
X626885Y702557D01*
X625474Y703141D01*
X625306Y703986D01*
X624141Y705729D01*
X623430Y706205D01*
Y741870D01*
X623233Y742861D01*
X622671Y743701D01*
X614956Y751417D01*
X615442Y752590D01*
X647849D01*
X648335Y751417D01*
D02*
G37*
G36*
X613170Y776303D02*
X612684Y775130D01*
X605520D01*
Y753380D01*
X583770D01*
Y743950D01*
X581425D01*
X581383Y743941D01*
X580113Y744949D01*
Y745330D01*
X570573D01*
X561033D01*
Y741150D01*
X545634D01*
X545148Y742323D01*
X581285Y778460D01*
X611013D01*
X613170Y776303D01*
D02*
G37*
G36*
X568876Y789540D02*
X519795Y740460D01*
X491449D01*
X491045Y741730D01*
X509436Y754779D01*
X531293Y769090D01*
X553671Y782574D01*
X568112Y790555D01*
X568876Y789540D01*
D02*
G37*
G36*
X1066310Y759950D02*
Y742950D01*
X1059810Y736450D01*
X1054810D01*
X1048310Y742950D01*
Y759950D01*
X1054810Y766450D01*
X1059810D01*
X1066310Y759950D01*
D02*
G37*
G36*
X785801Y725646D02*
Y697885D01*
X771319Y683403D01*
X708777D01*
X707786Y683206D01*
X706946Y682644D01*
X667398Y643096D01*
X541228D01*
X540742Y644269D01*
X551741Y655269D01*
X552303Y656109D01*
X552500Y657100D01*
Y663156D01*
X553070Y664190D01*
X553770Y664190D01*
X558788D01*
X559810Y663590D01*
X559810Y662920D01*
Y655320D01*
X567850D01*
X575890D01*
Y663590D01*
X573172D01*
X572150Y664190D01*
X572150Y664860D01*
Y670960D01*
X562610D01*
Y672230D01*
X561340D01*
Y680270D01*
X553770D01*
X553070Y680270D01*
X552500Y681304D01*
Y694224D01*
X553070Y694669D01*
X554340Y694049D01*
Y685460D01*
X570880D01*
Y690770D01*
X583770D01*
Y689340D01*
X604250D01*
Y680130D01*
X609540D01*
Y677590D01*
X604250D01*
Y668070D01*
X593408D01*
X592417Y667873D01*
X591577Y667311D01*
X586586Y662320D01*
X581080D01*
Y645780D01*
X594620D01*
Y662320D01*
X595654Y662890D01*
X600932D01*
Y656782D01*
X608971D01*
X617011D01*
Y663569D01*
X617131Y663649D01*
X617468Y664153D01*
X617973Y664491D01*
X619371Y665889D01*
X619933Y666729D01*
X620104Y667590D01*
X638706D01*
X638710Y666322D01*
X638710Y666320D01*
Y658702D01*
X635742D01*
Y663782D01*
X622201D01*
Y647242D01*
X635742D01*
Y653523D01*
X638710D01*
Y649782D01*
X652250D01*
Y666320D01*
X652250Y666322D01*
X652254Y667590D01*
X658706D01*
X658710Y666322D01*
X658710D01*
Y649782D01*
X672250D01*
Y666322D01*
X669564D01*
X669560Y667590D01*
X669560D01*
Y689340D01*
X691310D01*
Y697340D01*
Y706770D01*
X728573D01*
X729564Y706967D01*
X730404Y707529D01*
X731300Y708425D01*
X732570Y707899D01*
Y705590D01*
X749110D01*
Y718130D01*
X732570D01*
Y714450D01*
X731072D01*
X730081Y714252D01*
X729241Y713691D01*
X727500Y711950D01*
X691310D01*
Y714770D01*
X709850D01*
X710841Y714967D01*
X711681Y715529D01*
X730127Y733975D01*
X731300Y733488D01*
Y732130D01*
X740840D01*
X750380D01*
Y736550D01*
X774897D01*
X785801Y725646D01*
D02*
G37*
G36*
X636281Y741691D02*
X637490Y740882D01*
Y738386D01*
X637687Y737394D01*
X638249Y736554D01*
X650124Y724679D01*
Y704557D01*
X649079Y703792D01*
X648261Y704001D01*
X647890Y704224D01*
X647609Y705636D01*
X646444Y707380D01*
X645210Y708204D01*
Y723900D01*
X645013Y724891D01*
X644451Y725731D01*
X632510Y737673D01*
Y740882D01*
X633719Y741691D01*
X634236Y742464D01*
X635764D01*
X636281Y741691D01*
D02*
G37*
G36*
X509220Y697359D02*
Y684058D01*
X508010Y683250D01*
X506846Y681506D01*
X506437Y679450D01*
X506846Y677394D01*
X506201Y676073D01*
X505453Y675986D01*
X491540Y689899D01*
Y696432D01*
X492749Y697241D01*
X493914Y698984D01*
X494323Y701040D01*
X494134Y701990D01*
X494283Y702230D01*
X495235Y702967D01*
X496849Y702646D01*
X498905Y703055D01*
X500648Y704220D01*
X500778Y704413D01*
X502041Y704538D01*
X509220Y697359D01*
D02*
G37*
G36*
X562303Y725172D02*
X561456Y723905D01*
X561047Y721849D01*
X561456Y719792D01*
X562621Y718049D01*
X564364Y716884D01*
X566420Y716475D01*
X568476Y716884D01*
X570219Y718049D01*
X571384Y719792D01*
X571392Y719830D01*
X578843D01*
Y722770D01*
X583770D01*
Y711950D01*
X558260D01*
X557269Y711753D01*
X556429Y711191D01*
X544269Y699031D01*
X543707Y698191D01*
X543510Y697200D01*
Y659751D01*
X534476Y650716D01*
X502422D01*
X501431Y650519D01*
X500591Y649958D01*
X497528Y646895D01*
X480717D01*
X466297Y661315D01*
X466383Y661746D01*
X465974Y663802D01*
X464809Y665545D01*
X463066Y666710D01*
X461010Y667119D01*
X458954Y666710D01*
X457211Y665545D01*
X456046Y663802D01*
X455637Y661746D01*
X456046Y659690D01*
X457211Y657946D01*
X458954Y656782D01*
X459667Y656640D01*
X459542Y655370D01*
X442547D01*
X441556Y655173D01*
X440716Y654611D01*
X423496Y637391D01*
X422069Y637675D01*
X420013Y637266D01*
X418270Y636101D01*
X417105Y634358D01*
X416696Y632302D01*
X417105Y630245D01*
X418270Y628502D01*
X419604Y627610D01*
X419219Y626340D01*
X411910D01*
Y620070D01*
X420180D01*
Y626009D01*
X421129Y627115D01*
X422069Y626928D01*
X424125Y627337D01*
X425868Y628502D01*
X427033Y630245D01*
X427442Y632302D01*
X427158Y633728D01*
X443620Y650190D01*
X464709D01*
X474451Y640449D01*
X473965Y639275D01*
X458468D01*
X457477Y639078D01*
X456637Y638517D01*
X444865Y626745D01*
X444303Y625905D01*
X444106Y624914D01*
Y596712D01*
X436947Y589553D01*
X425164D01*
Y573013D01*
X438704D01*
Y573013D01*
X439853Y572955D01*
X440023Y571472D01*
X431821Y563270D01*
X418455D01*
Y566950D01*
X401915D01*
X401726Y568142D01*
Y592527D01*
X402370Y593530D01*
X409384D01*
Y589553D01*
X405164D01*
Y573013D01*
X418704D01*
Y589553D01*
X414563D01*
Y593530D01*
X418910D01*
Y606070D01*
X419915Y606710D01*
X424370D01*
Y603030D01*
X440910D01*
Y615570D01*
X424370D01*
Y611890D01*
X420180D01*
Y617530D01*
X410640D01*
X401100D01*
Y611260D01*
X401100D01*
X401576Y609990D01*
X397305Y605719D01*
X396743Y604879D01*
X396546Y603888D01*
Y548738D01*
X396743Y547747D01*
X397305Y546907D01*
X401915Y542297D01*
Y535410D01*
X409384D01*
Y531467D01*
X403934D01*
Y514927D01*
X417474D01*
Y531467D01*
X414563D01*
Y535410D01*
X418455D01*
Y547950D01*
X403587D01*
X401726Y549811D01*
Y553218D01*
X401915Y554410D01*
X418455D01*
Y558090D01*
X422910D01*
X423915Y557450D01*
Y544910D01*
X439135D01*
Y513154D01*
X439332Y512163D01*
X439893Y511323D01*
X440652Y510565D01*
X440166Y509392D01*
X387081D01*
X382320Y514153D01*
Y603176D01*
X399927Y620784D01*
X401100Y620297D01*
Y620070D01*
X409370D01*
Y626340D01*
X407143D01*
X406657Y627513D01*
X419650Y640506D01*
X421757D01*
X422748Y640703D01*
X423588Y641265D01*
X468491Y686168D01*
X469869Y685750D01*
X470016Y685014D01*
X471180Y683270D01*
X472390Y682462D01*
Y664912D01*
X472587Y663921D01*
X473149Y663081D01*
X482338Y653891D01*
X482716Y651994D01*
X483881Y650250D01*
X485624Y649086D01*
X487680Y648677D01*
X489736Y649086D01*
X491479Y650250D01*
X492644Y651994D01*
X493053Y654050D01*
X492644Y656106D01*
X491479Y657850D01*
X490706Y658366D01*
Y659894D01*
X491479Y660411D01*
X492644Y662154D01*
X493053Y664210D01*
X492644Y666266D01*
X491479Y668009D01*
X489736Y669174D01*
X487680Y669583D01*
X486253Y669299D01*
X484995Y670558D01*
Y687745D01*
X485004Y687769D01*
X485247Y687910D01*
X486557Y687835D01*
X487119Y686995D01*
X501575Y672539D01*
X503035Y671079D01*
X503875Y670517D01*
X504866Y670320D01*
X514519D01*
X515510Y670517D01*
X516350Y671079D01*
X523382Y678111D01*
X524510Y677887D01*
X526566Y678296D01*
X528310Y679461D01*
X529474Y681204D01*
X529883Y683260D01*
X529474Y685316D01*
X528310Y687059D01*
X526566Y688224D01*
X524510Y688633D01*
X522454Y688224D01*
X520710Y687059D01*
X519546Y685316D01*
X519137Y683260D01*
X519480Y681534D01*
X518299Y680352D01*
X516921Y680770D01*
X516774Y681506D01*
X515610Y683250D01*
X514400Y684058D01*
Y698431D01*
X514203Y699423D01*
X513641Y700263D01*
X504053Y709850D01*
X503213Y710412D01*
X502222Y710609D01*
X501457D01*
X500648Y711819D01*
X498905Y712983D01*
X497402Y713282D01*
X496928Y714605D01*
X498554Y716230D01*
X529195D01*
X530186Y716427D01*
X531026Y716989D01*
X546088Y732050D01*
X562303D01*
Y725172D01*
D02*
G37*
G36*
X995550Y690810D02*
Y673810D01*
X989050Y667310D01*
X984050D01*
X977550Y673810D01*
Y690810D01*
X984050Y697310D01*
X989050D01*
X995550Y690810D01*
D02*
G37*
G36*
X873237Y699770D02*
X874980Y698605D01*
X877036Y698196D01*
X879093Y698605D01*
X880836Y699770D01*
X881330Y700510D01*
X882600Y700125D01*
Y656341D01*
X875372Y649113D01*
X854212D01*
X853384Y650040D01*
X853384Y650383D01*
Y664580D01*
X852204D01*
Y700980D01*
X872429D01*
X873237Y699770D01*
D02*
G37*
G36*
X1038540Y651577D02*
Y650040D01*
X1039720D01*
Y630078D01*
X1038547Y629592D01*
X1021148Y646991D01*
X1020308Y647553D01*
X1019317Y647750D01*
X1000563D01*
X999446Y648867D01*
X999932Y650040D01*
X1003871D01*
X1004363Y649711D01*
X1006420Y649302D01*
X1008476Y649711D01*
X1010219Y650876D01*
X1010770Y651700D01*
X1027902D01*
X1028710Y650490D01*
X1030454Y649325D01*
X1032510Y648916D01*
X1034566Y649325D01*
X1036310Y650490D01*
X1037270Y651928D01*
X1038540Y651577D01*
D02*
G37*
G36*
X1139726Y672807D02*
X1141121Y673084D01*
X1141747Y671914D01*
X1105239Y635406D01*
X1104677Y634566D01*
X1104609Y634225D01*
X1104068Y633995D01*
X1103238Y633841D01*
X1102210Y634528D01*
Y637002D01*
X1138299Y673091D01*
X1139726Y672807D01*
D02*
G37*
G36*
X1358657Y707088D02*
X1378137Y689679D01*
X1396953Y671553D01*
X1415079Y652737D01*
X1432488Y633257D01*
X1435024Y630196D01*
X1434084Y629339D01*
X1354729Y708694D01*
X1355584Y709633D01*
X1358657Y707088D01*
D02*
G37*
G36*
X867604Y635140D02*
X859869Y627405D01*
X858520Y627673D01*
X856464Y627264D01*
X854721Y626100D01*
X853556Y624356D01*
X853147Y622300D01*
X853513Y620459D01*
X853390Y619982D01*
X852812Y619072D01*
X852511Y619027D01*
X850705Y620833D01*
Y626355D01*
X850508Y627346D01*
X849947Y628186D01*
X842992Y635140D01*
X843479Y636313D01*
X867118D01*
X867604Y635140D01*
D02*
G37*
G36*
X780068D02*
X772317Y627389D01*
X770890Y627673D01*
X768834Y627264D01*
X767091Y626100D01*
X766574Y625326D01*
X765046D01*
X764529Y626100D01*
X762786Y627264D01*
X760730Y627673D01*
X758674Y627264D01*
X756930Y626100D01*
X755766Y624356D01*
X755662Y623837D01*
X754368D01*
X754264Y624356D01*
X753100Y626100D01*
X751356Y627264D01*
X749300Y627673D01*
X747244Y627264D01*
X745500Y626100D01*
X744984Y625326D01*
X743456D01*
X742940Y626100D01*
X741196Y627264D01*
X739140Y627673D01*
X737084Y627264D01*
X735340Y626100D01*
X734824Y625326D01*
X733296D01*
X732779Y626100D01*
X731036Y627264D01*
X728980Y627673D01*
X726924Y627264D01*
X725181Y626100D01*
X724753Y625459D01*
X723483D01*
X723029Y626137D01*
X721286Y627302D01*
X720208Y627516D01*
X719790Y628894D01*
X727209Y636313D01*
X779581D01*
X780068Y635140D01*
D02*
G37*
G36*
X597678Y632933D02*
X591268Y626523D01*
X580477D01*
X579486Y626326D01*
X578646Y625765D01*
X568936Y616054D01*
X567762Y616540D01*
Y624810D01*
X559492D01*
Y617270D01*
X558223D01*
Y616000D01*
X548683D01*
Y612320D01*
X547810D01*
X546819Y612123D01*
X545979Y611562D01*
X540459Y606041D01*
X540108Y605517D01*
X538838Y605891D01*
Y614420D01*
X522298D01*
Y610740D01*
X518108D01*
Y616380D01*
X508568D01*
Y617650D01*
X507298D01*
Y625190D01*
X500972D01*
X500486Y626363D01*
X508229Y634106D01*
X597192D01*
X597678Y632933D01*
D02*
G37*
G36*
X479501Y731443D02*
X412794Y664736D01*
X410686D01*
X409695Y664539D01*
X408855Y663977D01*
X360448Y615570D01*
X359508Y616426D01*
X373452Y633257D01*
X390861Y652737D01*
X408987Y671553D01*
X427803Y689679D01*
X447283Y707088D01*
X467401Y723756D01*
X478663Y732398D01*
X479501Y731443D01*
D02*
G37*
G36*
X921479Y631140D02*
X920866Y630223D01*
X920457Y628166D01*
X920866Y626110D01*
X922030Y624367D01*
X923774Y623202D01*
X925830Y622793D01*
X926235Y622874D01*
X927492Y621829D01*
Y535174D01*
X926282Y534366D01*
X925117Y532623D01*
X924708Y530567D01*
X925117Y528511D01*
X926282Y526767D01*
X928025Y525602D01*
X930082Y525193D01*
X932138Y525602D01*
X933881Y526767D01*
X935046Y528511D01*
X935455Y530567D01*
X935046Y532623D01*
X933881Y534366D01*
X932671Y535174D01*
Y549511D01*
X933935Y549669D01*
X934496Y548828D01*
X954296Y529029D01*
X955136Y528467D01*
X956127Y528270D01*
X999458D01*
X999792Y527683D01*
X999979Y527000D01*
X998923Y525421D01*
X998514Y523364D01*
X998923Y521308D01*
X1000088Y519565D01*
X1001831Y518400D01*
X1003887Y517991D01*
X1005944Y518400D01*
X1007687Y519565D01*
X1008366Y520581D01*
X1009893D01*
X1010572Y519565D01*
X1012316Y518400D01*
X1014372Y517991D01*
X1016428Y518400D01*
X1018171Y519565D01*
X1019336Y521308D01*
X1019745Y523364D01*
X1019336Y525421D01*
X1018171Y527164D01*
X1016516Y528270D01*
X1016504Y528363D01*
X1017260Y529540D01*
X1029739D01*
X1030125Y528270D01*
X1028931Y527473D01*
X1027766Y525730D01*
X1027357Y523673D01*
X1027766Y521617D01*
X1028197Y520974D01*
X1023013Y515790D01*
X923165D01*
X889050Y549905D01*
Y559517D01*
X888853Y560508D01*
X888291Y561348D01*
X846895Y602745D01*
Y615658D01*
X848068Y616144D01*
X850529Y613683D01*
X851370Y613122D01*
X852361Y612925D01*
X866434D01*
X867425Y613122D01*
X868265Y613683D01*
X870511Y615930D01*
X871073Y616770D01*
X871270Y617761D01*
Y626092D01*
X873871Y628693D01*
X882757D01*
X883748Y628890D01*
X884589Y629452D01*
X887547Y632410D01*
X920800D01*
X921479Y631140D01*
D02*
G37*
G36*
X839176Y626243D02*
X838690Y625070D01*
X800432D01*
Y608240D01*
X799259Y607754D01*
X798494Y608519D01*
X797653Y609080D01*
X796662Y609277D01*
X765985D01*
X764258Y611005D01*
X764883Y612175D01*
X765310Y612090D01*
X773430D01*
X774421Y612287D01*
X775261Y612849D01*
X791106Y628693D01*
X836726D01*
X839176Y626243D01*
D02*
G37*
G36*
X687240Y632402D02*
Y614040D01*
X672020D01*
Y610360D01*
X667830D01*
Y616000D01*
X658290D01*
Y618540D01*
X667830D01*
Y622624D01*
X674730D01*
X675721Y622821D01*
X676561Y623382D01*
X686067Y632888D01*
X687240Y632402D01*
D02*
G37*
G36*
X1013050Y615435D02*
Y601326D01*
X1013247Y600335D01*
X1013809Y599495D01*
X1022059Y591245D01*
X1021433Y590075D01*
X1020654Y590230D01*
X1019220Y589944D01*
X1011730Y597434D01*
X1010889Y597996D01*
X1009898Y598193D01*
X997109D01*
X996301Y599403D01*
X994557Y600567D01*
X992501Y600976D01*
X990445Y600567D01*
X988702Y599403D01*
X987537Y597659D01*
X987128Y595603D01*
X987537Y593547D01*
X988702Y591804D01*
X990001Y590935D01*
X990009Y590916D01*
Y589543D01*
X990001Y589524D01*
X988702Y588656D01*
X987537Y586913D01*
X987128Y584856D01*
X987537Y582800D01*
X988702Y581057D01*
X989951Y580222D01*
Y578794D01*
X988702Y577959D01*
X987537Y576216D01*
X987128Y574160D01*
X987537Y572104D01*
X988702Y570360D01*
X989565Y569784D01*
Y568256D01*
X988702Y567679D01*
X987537Y565936D01*
X987128Y563880D01*
X987537Y561824D01*
X988702Y560080D01*
X990445Y558916D01*
X992501Y558507D01*
X994557Y558916D01*
X996301Y560080D01*
X997109Y561290D01*
X1006506D01*
X1015502Y552294D01*
X1015281Y551180D01*
X1015690Y549124D01*
X1016854Y547380D01*
X1018597Y546216D01*
X1020654Y545807D01*
X1022710Y546216D01*
X1024453Y547380D01*
X1025618Y549124D01*
X1026027Y551180D01*
X1025618Y553236D01*
X1024453Y554980D01*
X1022710Y556144D01*
X1022561Y556174D01*
Y557469D01*
X1022710Y557498D01*
X1024453Y558663D01*
X1025618Y560406D01*
X1026027Y562463D01*
X1025618Y564519D01*
X1024453Y566262D01*
X1022785Y567377D01*
X1022710Y567966D01*
Y568118D01*
X1022785Y568707D01*
X1024453Y569822D01*
X1025618Y571565D01*
X1026027Y573621D01*
X1025618Y575678D01*
X1024453Y577421D01*
X1022710Y578586D01*
X1022681Y578591D01*
Y579886D01*
X1022710Y579892D01*
X1024453Y581057D01*
X1025618Y582800D01*
X1026027Y584856D01*
X1025872Y585636D01*
X1027042Y586261D01*
X1043880Y569424D01*
Y561224D01*
X1043466Y560604D01*
X1041938D01*
X1041494Y561268D01*
X1039751Y562433D01*
X1037695Y562842D01*
X1035639Y562433D01*
X1033895Y561268D01*
X1032731Y559525D01*
X1032322Y557469D01*
X1032731Y555412D01*
X1033895Y553669D01*
X1034795Y553068D01*
X1034920Y551804D01*
X1025455Y542340D01*
X1015223D01*
X1009632Y547931D01*
X1008792Y548493D01*
X1007801Y548690D01*
X992497D01*
X974458Y566729D01*
Y595706D01*
X982823Y604071D01*
X984250Y603787D01*
X986306Y604196D01*
X988049Y605361D01*
X988640Y606244D01*
X990167D01*
X990758Y605361D01*
X992501Y604196D01*
X994557Y603787D01*
X996614Y604196D01*
X998357Y605361D01*
X999522Y607104D01*
X999931Y609160D01*
X999522Y611216D01*
X998357Y612960D01*
X996614Y614124D01*
X994557Y614533D01*
X993130Y614249D01*
X988940Y618440D01*
X989057Y619094D01*
X989405Y619710D01*
X1008775D01*
X1013050Y615435D01*
D02*
G37*
G36*
X499720Y632923D02*
X493387Y626590D01*
X492826Y625750D01*
X492629Y624758D01*
Y597782D01*
X484399Y589553D01*
X471860D01*
Y573013D01*
X485400D01*
Y583229D01*
X495265Y593094D01*
X496439Y592608D01*
Y561491D01*
X495265Y561005D01*
X492905Y563365D01*
X492065Y563927D01*
X491074Y564124D01*
X485133D01*
X483161Y566095D01*
X482321Y566657D01*
X481330Y566854D01*
X474648D01*
X473657Y566657D01*
X472817Y566095D01*
X469073Y562352D01*
X467803Y562589D01*
Y565864D01*
X451263D01*
X450527Y566829D01*
Y570966D01*
X452337Y572776D01*
X452496Y573013D01*
X465400D01*
Y589553D01*
X461136D01*
Y592650D01*
X468316D01*
Y605190D01*
X469321Y605830D01*
X473776D01*
Y602150D01*
X490316D01*
Y614690D01*
X473776D01*
Y611010D01*
X469586D01*
Y616650D01*
X460046D01*
Y617920D01*
X458776D01*
Y625460D01*
X452564D01*
X452078Y626633D01*
X459541Y634096D01*
X499234D01*
X499720Y632923D01*
D02*
G37*
G36*
X645930Y625313D02*
X642059Y621442D01*
X641497Y620602D01*
X641300Y619611D01*
Y596824D01*
X634029Y589553D01*
X622060D01*
Y573013D01*
X635600D01*
Y583799D01*
X642948Y591147D01*
X643935Y590338D01*
X643927Y590326D01*
X643730Y589335D01*
Y573231D01*
X643927Y572240D01*
X644030Y572086D01*
Y567636D01*
X643777Y567258D01*
X643580Y566267D01*
Y554162D01*
X643777Y553172D01*
X644339Y552331D01*
X645778Y550892D01*
Y545302D01*
X644508Y544916D01*
X644191Y545391D01*
X640300Y549282D01*
Y555714D01*
X639924D01*
X639538Y556984D01*
X640370Y557541D01*
X641535Y559284D01*
X641944Y561340D01*
X641535Y563396D01*
X640370Y565140D01*
X638627Y566304D01*
X636571Y566713D01*
X634515Y566304D01*
X632771Y565140D01*
X631607Y563396D01*
X631236Y561534D01*
X618300D01*
Y565215D01*
X601760D01*
Y552675D01*
X617097D01*
X619900Y549871D01*
Y543392D01*
X620097Y542401D01*
X620659Y541561D01*
X622841Y539379D01*
X623681Y538817D01*
X624672Y538620D01*
X625396D01*
X627710Y536306D01*
Y533034D01*
X626736Y532059D01*
X626175Y531219D01*
X625980Y530240D01*
X621986D01*
Y518862D01*
X617037Y513914D01*
X615526D01*
Y530240D01*
X610116D01*
Y533674D01*
X618300D01*
Y546214D01*
X601760D01*
X600717Y546762D01*
X600407Y546969D01*
Y560162D01*
X600210Y561153D01*
X599649Y561993D01*
X598381Y563261D01*
Y567802D01*
X598184Y568793D01*
X597623Y569633D01*
X596102Y571154D01*
X596034Y571199D01*
X591870Y575364D01*
Y585437D01*
X597623Y591190D01*
X598184Y592030D01*
X598381Y593022D01*
Y602227D01*
X599486Y603331D01*
X600756Y602805D01*
Y592000D01*
X604936D01*
Y589553D01*
X602060D01*
Y573013D01*
X615600D01*
Y589553D01*
X610116D01*
Y592000D01*
X617296D01*
Y603910D01*
X617296Y604540D01*
X618301Y605181D01*
X622756D01*
Y601500D01*
X639296D01*
Y614040D01*
X622756D01*
Y610360D01*
X618566D01*
Y616000D01*
X609026D01*
Y617270D01*
X607756D01*
Y624810D01*
X604934D01*
X604296Y626080D01*
X604599Y626487D01*
X645444D01*
X645930Y625313D01*
D02*
G37*
G36*
X1180336Y659809D02*
Y651121D01*
X1180533Y650130D01*
X1181095Y649290D01*
X1224280Y606105D01*
Y595770D01*
X1177020D01*
Y580230D01*
X1224280D01*
Y570770D01*
X1177020D01*
Y555230D01*
X1224280D01*
Y545770D01*
X1177020D01*
Y540470D01*
X1128652D01*
X1111637Y557485D01*
X1111637Y557485D01*
X1107829Y561294D01*
Y576385D01*
X1107631Y577376D01*
X1107070Y578217D01*
X1097342Y587945D01*
X1097967Y589115D01*
X1099620Y588787D01*
X1101676Y589196D01*
X1103419Y590360D01*
X1104584Y592104D01*
X1104993Y594160D01*
X1104709Y595587D01*
X1109660Y600537D01*
X1110221Y601377D01*
X1110418Y602369D01*
Y619605D01*
X1112711Y621898D01*
X1113273Y622738D01*
X1113470Y623729D01*
Y630924D01*
X1139086Y656540D01*
X1174335D01*
X1175326Y656737D01*
X1176167Y657299D01*
X1179163Y660295D01*
X1180336Y659809D01*
D02*
G37*
G36*
X696206Y604151D02*
Y570792D01*
X690474Y565060D01*
X689465D01*
X688474Y564862D01*
X687634Y564301D01*
X680318Y556984D01*
X669440D01*
Y544445D01*
X685980D01*
Y555322D01*
X690538Y559880D01*
X691547D01*
X692538Y560077D01*
X693378Y560639D01*
X698843Y566104D01*
X700016Y565617D01*
Y548283D01*
X690263Y538530D01*
X671360D01*
X670369Y538333D01*
X669529Y537771D01*
X663419Y531661D01*
X662857Y530821D01*
X662660Y529830D01*
Y516133D01*
X662400Y515959D01*
X661130Y516638D01*
Y530240D01*
X656800D01*
Y534944D01*
X663980D01*
Y547484D01*
X650958D01*
Y551964D01*
X650817Y552675D01*
X651318Y553591D01*
X651627Y553945D01*
X663980D01*
Y566485D01*
X649400D01*
X649210Y566717D01*
Y572931D01*
X649277Y573013D01*
X661130D01*
Y589553D01*
X658070D01*
Y592000D01*
X666560D01*
Y604540D01*
X667565Y605181D01*
X672020D01*
Y601500D01*
X687240D01*
Y594810D01*
X682321Y589891D01*
X681130Y589553D01*
Y589553D01*
X681130Y589553D01*
X667590D01*
Y573013D01*
X681130D01*
Y581375D01*
X691661Y591906D01*
X692223Y592746D01*
X692420Y593737D01*
Y606278D01*
X693593Y606764D01*
X696206Y604151D01*
D02*
G37*
G36*
X571953Y604956D02*
Y601500D01*
X588492D01*
X589230Y600536D01*
Y595558D01*
X583226Y589553D01*
X572453D01*
Y573013D01*
X585993D01*
X585993Y573013D01*
X587192Y572844D01*
X587449Y572460D01*
X589696Y570213D01*
X589070Y569042D01*
X588010Y569253D01*
X585954Y568844D01*
X584211Y567679D01*
X583402Y566470D01*
X563158D01*
X562167Y566273D01*
X561327Y565711D01*
X560830Y565215D01*
X550318D01*
Y592000D01*
X556633D01*
Y589553D01*
X552453D01*
Y573013D01*
X565993D01*
Y589553D01*
X561812D01*
Y592000D01*
X566493D01*
Y603331D01*
X567853D01*
X568844Y603528D01*
X569684Y604089D01*
X570682Y605088D01*
X571953Y604956D01*
D02*
G37*
G36*
X544861Y592626D02*
X545139Y592426D01*
Y548932D01*
X543965Y548446D01*
X540670Y551741D01*
X539968Y552210D01*
Y556180D01*
X523533D01*
X523359Y556440D01*
X518558Y561241D01*
X517968Y561635D01*
Y565680D01*
X501618D01*
Y573013D01*
X515068D01*
X515967Y572118D01*
X516144Y571229D01*
X516706Y570388D01*
X522505Y564589D01*
X523345Y564027D01*
X524337Y563830D01*
X527862D01*
X528330Y563129D01*
X530074Y561964D01*
X532130Y561555D01*
X534186Y561964D01*
X535929Y563129D01*
X537094Y564872D01*
X537503Y566928D01*
X537094Y568984D01*
X535929Y570728D01*
X534409Y571743D01*
X534539Y572802D01*
X534620Y573013D01*
X535068D01*
Y584105D01*
X543869Y592905D01*
X544861Y592626D01*
D02*
G37*
G36*
X568093Y552062D02*
Y541904D01*
X568290Y540913D01*
X568851Y540073D01*
X576519Y532406D01*
Y530240D01*
X572453D01*
Y513700D01*
X585993D01*
Y530240D01*
X581698D01*
Y533478D01*
X581501Y534469D01*
X580940Y535309D01*
X574345Y541904D01*
X574871Y543175D01*
X587608D01*
Y515139D01*
X587805Y514147D01*
X588117Y513679D01*
X587598Y512409D01*
X549796D01*
X546508Y515697D01*
Y531057D01*
X548812Y533361D01*
X549953Y533674D01*
X549953Y533674D01*
Y533674D01*
X549953Y533674D01*
X552863D01*
Y530240D01*
X552453D01*
Y513700D01*
X565993D01*
Y530240D01*
X558042D01*
Y533674D01*
X566493D01*
Y546214D01*
X551585D01*
X550318Y547481D01*
Y552675D01*
X566493D01*
Y552675D01*
X567191Y552964D01*
X568093Y552062D01*
D02*
G37*
G36*
X1060662Y557924D02*
Y547002D01*
X1060286Y545110D01*
X1060779Y542632D01*
X1062182Y540532D01*
X1064283Y539128D01*
X1066686Y538650D01*
X1067041Y538111D01*
X1067355Y537523D01*
X1066157Y536325D01*
X1065595Y535485D01*
X1065398Y534493D01*
Y519607D01*
X1065595Y518615D01*
X1066157Y517775D01*
X1069074Y514858D01*
Y513462D01*
X1065002Y509390D01*
X1063624Y509808D01*
X1063478Y510544D01*
X1062313Y512287D01*
X1060570Y513452D01*
X1058514Y513861D01*
X1058339Y513826D01*
X1057714Y514997D01*
X1060971Y518255D01*
X1061533Y519095D01*
X1061730Y520086D01*
Y534349D01*
X1061533Y535340D01*
X1060971Y536180D01*
X1056192Y540960D01*
X1055352Y541521D01*
X1054361Y541718D01*
X1046593D01*
X1045602Y541521D01*
X1044762Y540960D01*
X1042332Y538530D01*
X1030630D01*
X1030144Y539703D01*
X1040385Y549944D01*
X1040946Y550784D01*
X1041143Y551775D01*
Y553434D01*
X1041494Y553669D01*
X1041979Y554395D01*
X1043507D01*
X1043951Y553731D01*
X1045694Y552566D01*
X1047750Y552157D01*
X1049806Y552566D01*
X1051550Y553731D01*
X1052714Y555474D01*
X1053123Y557530D01*
X1052714Y559586D01*
X1051550Y561329D01*
X1049806Y562494D01*
X1049060Y562643D01*
Y567868D01*
X1050233Y568354D01*
X1060662Y557924D01*
D02*
G37*
G36*
X841715Y601672D02*
X841913Y600681D01*
X842474Y599841D01*
X883870Y558444D01*
Y551424D01*
X882600Y550802D01*
X882255Y551033D01*
X881264Y551230D01*
X855783D01*
X803656Y603357D01*
X804142Y604530D01*
X841715D01*
Y601672D01*
D02*
G37*
G36*
X943117Y624295D02*
X944326Y623487D01*
Y547983D01*
X943153Y547497D01*
X938917Y551732D01*
Y623487D01*
X940127Y624295D01*
X940879Y625420D01*
X942365D01*
X943117Y624295D01*
D02*
G37*
G36*
X951105Y624119D02*
X951889Y623766D01*
Y618601D01*
X952086Y617610D01*
X952647Y616770D01*
X954479Y614939D01*
X955319Y614377D01*
X956310Y614180D01*
X958083D01*
X958451Y613200D01*
X958509Y612910D01*
X957377Y611216D01*
X956968Y609160D01*
X957377Y607104D01*
X958542Y605361D01*
X960285Y604196D01*
X961659Y603923D01*
Y549716D01*
X961856Y548725D01*
X962417Y547884D01*
X971868Y538433D01*
X971382Y537260D01*
X958778D01*
X949506Y546532D01*
Y623487D01*
X950619Y624231D01*
X951105Y624119D01*
D02*
G37*
G36*
X1121615Y534794D02*
X1120990Y533623D01*
X1119680Y533884D01*
X1117624Y533475D01*
X1115881Y532310D01*
X1114716Y530567D01*
X1114307Y528511D01*
X1114716Y526454D01*
X1115881Y524711D01*
X1117624Y523546D01*
X1119680Y523137D01*
X1121736Y523546D01*
X1123480Y524711D01*
X1124005Y525498D01*
X1125420Y525601D01*
X1129067Y521954D01*
X1129640Y521571D01*
X1129380Y520301D01*
X1112012D01*
X1109534Y519808D01*
X1107788Y518641D01*
X1106518Y519146D01*
Y533259D01*
X1107788Y533938D01*
X1108165Y533686D01*
X1110221Y533277D01*
X1112277Y533686D01*
X1114021Y534851D01*
X1114829Y536060D01*
X1120349D01*
X1121615Y534794D01*
D02*
G37*
G36*
X1177020Y530230D02*
X1175769Y530185D01*
X1133549D01*
X1129617Y534117D01*
X1130103Y535290D01*
X1177020D01*
Y530230D01*
D02*
G37*
G36*
X738037Y599457D02*
X737482Y598217D01*
X735392Y597802D01*
X733292Y596398D01*
X731888Y594298D01*
X731396Y591820D01*
X731888Y589342D01*
X733292Y587242D01*
X736439Y584095D01*
X731861Y579517D01*
X730457Y577416D01*
X729964Y574939D01*
Y519569D01*
X729348Y518648D01*
X728856Y516170D01*
Y406400D01*
X729348Y403922D01*
X730752Y401822D01*
X732852Y400418D01*
X735330Y399926D01*
X737808Y400418D01*
X739908Y401822D01*
X741312Y403922D01*
X741804Y406400D01*
Y500702D01*
X742786Y501507D01*
X743700Y501326D01*
X744432D01*
Y500030D01*
X791972D01*
Y515570D01*
X745086D01*
X742913Y517743D01*
Y522593D01*
X743162Y523760D01*
X744183Y523760D01*
X766932D01*
Y532800D01*
Y541840D01*
X744183D01*
X743162Y541840D01*
X742913Y543007D01*
Y572257D01*
X745686Y575030D01*
X791347D01*
X814971Y551406D01*
Y518693D01*
X813701Y518307D01*
X813551Y518531D01*
X810821Y521261D01*
X809981Y521823D01*
X809910Y521837D01*
X808979Y523229D01*
X807236Y524394D01*
X805180Y524803D01*
X803124Y524394D01*
X801420Y523256D01*
X801181Y523302D01*
X800150Y523673D01*
Y554236D01*
X799953Y555227D01*
X799391Y556067D01*
X795827Y559631D01*
X794987Y560193D01*
X793996Y560390D01*
X791972D01*
Y565570D01*
X744432D01*
Y550030D01*
X791972D01*
Y554440D01*
X793242Y554891D01*
X794970Y553163D01*
Y515500D01*
X795167Y514509D01*
X795729Y513669D01*
X801131Y508266D01*
X800216Y506896D01*
X799807Y504840D01*
X800216Y502784D01*
X801380Y501040D01*
X803124Y499876D01*
X805180Y499467D01*
X807236Y499876D01*
X807860Y500293D01*
X809130Y499614D01*
Y487673D01*
X806847Y485390D01*
X791972D01*
Y490570D01*
X744432D01*
Y475030D01*
X791972D01*
Y480210D01*
X807920D01*
X808911Y480407D01*
X809751Y480969D01*
X813551Y484769D01*
X814113Y485609D01*
X814310Y486600D01*
Y491387D01*
X814877Y491577D01*
X815580Y491599D01*
X816867Y489672D01*
X841217Y465322D01*
X843318Y463918D01*
X845795Y463426D01*
X888645D01*
X888825Y463461D01*
X889424Y462341D01*
X866849Y439766D01*
X866287Y438926D01*
X866090Y437935D01*
Y427994D01*
X840736Y402640D01*
X796636D01*
X795645Y402443D01*
X794804Y401881D01*
X793242Y400319D01*
X791972Y400845D01*
X791972Y400874D01*
X791972Y400874D01*
X791972Y400962D01*
Y415570D01*
X744432D01*
Y400030D01*
X791040Y400030D01*
X791127D01*
D01*
X791157Y400030D01*
X791216Y399888D01*
X791683Y398760D01*
X772926Y380003D01*
X722959D01*
X721967Y379805D01*
X721127Y379244D01*
X719123Y377240D01*
X698303D01*
X695145Y380397D01*
Y411480D01*
X694948Y412471D01*
X694387Y413311D01*
X693714Y413984D01*
X692874Y414546D01*
X691882Y414743D01*
X688926D01*
Y418423D01*
X672386D01*
Y415679D01*
X671212Y415193D01*
X666926Y419480D01*
Y427923D01*
X650386D01*
Y415383D01*
X663697D01*
X668526Y410555D01*
Y394794D01*
X668723Y393803D01*
X669284Y392962D01*
X670913Y391334D01*
X670427Y390160D01*
X670386D01*
Y373620D01*
X669194Y373430D01*
X665117D01*
X663926Y373620D01*
Y390160D01*
X659745D01*
Y396383D01*
X666926D01*
Y408923D01*
X650386D01*
X650386Y408923D01*
Y408923D01*
X649381Y409529D01*
X648910Y410001D01*
Y451692D01*
X649156Y452860D01*
X653296D01*
Y449230D01*
X650386D01*
Y432690D01*
X663926D01*
Y449230D01*
X658475D01*
Y452860D01*
X665696D01*
Y465400D01*
X665696D01*
X665968Y466557D01*
X671156D01*
Y462360D01*
X687696D01*
Y474900D01*
X671156D01*
Y471737D01*
X666966D01*
Y476860D01*
X657426D01*
Y479400D01*
X666966D01*
Y483080D01*
X684773D01*
X689223Y478630D01*
Y457310D01*
X681143Y449230D01*
X670386D01*
Y432690D01*
X683926D01*
Y444688D01*
X693644Y454406D01*
X694205Y455246D01*
X694402Y456237D01*
Y479703D01*
X694205Y480694D01*
X693644Y481535D01*
X689461Y485717D01*
X689947Y486890D01*
X694630D01*
X695621Y487088D01*
X696461Y487649D01*
X719677Y510865D01*
X720239Y511705D01*
X720436Y512696D01*
Y514965D01*
X720239Y515956D01*
X719950Y516388D01*
Y519932D01*
X720239Y520364D01*
X720436Y521355D01*
Y613114D01*
X720239Y614105D01*
X719677Y614945D01*
X719094Y615529D01*
X719651Y616763D01*
X720588Y616907D01*
X738037Y599457D01*
D02*
G37*
G36*
X525041Y536649D02*
X525881Y536087D01*
X526872Y535890D01*
X535533D01*
X536059Y534620D01*
X532906Y531467D01*
X521528D01*
Y516247D01*
X515068D01*
Y531467D01*
X509658D01*
Y534140D01*
X517968D01*
Y541701D01*
X518223Y541912D01*
X519697Y541993D01*
X525041Y536649D01*
D02*
G37*
G36*
X475956Y536417D02*
Y530587D01*
X471776D01*
Y514844D01*
X465316D01*
Y530587D01*
X461136D01*
Y534324D01*
X467803D01*
Y542774D01*
X469073Y543300D01*
X475956Y536417D01*
D02*
G37*
G36*
X488484Y514350D02*
X488681Y513359D01*
X489242Y512519D01*
X491941Y509820D01*
X491455Y508646D01*
X475746D01*
X475024Y509823D01*
X475037Y509916D01*
X475795Y510423D01*
X479420Y514047D01*
X485316D01*
Y530587D01*
X481136D01*
Y537490D01*
X480939Y538480D01*
X480377Y539321D01*
X477047Y542651D01*
X477533Y543824D01*
X488484D01*
Y514350D01*
D02*
G37*
G36*
X541329Y530769D02*
Y514625D01*
X541526Y513634D01*
X542087Y512793D01*
X545611Y509270D01*
X545125Y508097D01*
X503309D01*
X501569Y509836D01*
X501603Y510070D01*
X502134Y511068D01*
X524860D01*
X525851Y511265D01*
X526691Y511826D01*
X529793Y514927D01*
X535068D01*
Y526305D01*
X540059Y531295D01*
X541329Y530769D01*
D02*
G37*
G36*
X703826Y543109D02*
Y527027D01*
X703537Y526595D01*
X703340Y525603D01*
Y518017D01*
X688823Y503500D01*
X670102D01*
X669616Y504673D01*
X676191Y511249D01*
X676752Y512089D01*
X676950Y513080D01*
Y513700D01*
X681130D01*
Y530240D01*
X670982D01*
X670496Y531413D01*
X672433Y533350D01*
X691335D01*
X692327Y533547D01*
X693167Y534109D01*
X702653Y543595D01*
X703826Y543109D01*
D02*
G37*
G36*
X1222199Y497040D02*
X1221577Y495770D01*
X1177020D01*
Y490470D01*
X1114466D01*
X1108577Y496359D01*
X1108609Y496584D01*
X1109142Y497590D01*
X1221772D01*
X1222199Y497040D01*
D02*
G37*
G36*
X852879Y546809D02*
X853719Y546247D01*
X854710Y546050D01*
X880191D01*
X917835Y508406D01*
X917682Y506764D01*
X898648Y487730D01*
X856821D01*
X839275Y505276D01*
Y558753D01*
X840448Y559239D01*
X852879Y546809D01*
D02*
G37*
G36*
X639652Y479895D02*
Y474900D01*
X624431D01*
Y471737D01*
X620242D01*
Y476860D01*
X610701D01*
X601161D01*
Y470590D01*
X601161D01*
X601461Y469866D01*
X597867Y466272D01*
X597305Y465431D01*
X597108Y464440D01*
Y413171D01*
X595932Y412532D01*
X595838Y412546D01*
X595327Y413311D01*
X594487Y413873D01*
X593496Y414070D01*
X591176D01*
Y418423D01*
X574636D01*
Y418161D01*
X573366Y417635D01*
X569176Y421825D01*
Y427923D01*
X552636D01*
Y415383D01*
X568293D01*
X569363Y414313D01*
Y410116D01*
X569176Y408923D01*
X568093Y408923D01*
X552636D01*
Y408923D01*
X552370Y408813D01*
X551230Y409674D01*
Y468082D01*
X551413Y469276D01*
X559683D01*
Y476816D01*
X562223D01*
Y469276D01*
X570493D01*
Y474454D01*
X571666Y474940D01*
X574683Y471924D01*
Y461046D01*
X589903D01*
Y446791D01*
X587309Y444198D01*
X586136Y444684D01*
Y450110D01*
X572596D01*
Y433570D01*
X586136D01*
Y437720D01*
X587084D01*
X588075Y437918D01*
X588915Y438479D01*
X594324Y443887D01*
X594885Y444728D01*
X595082Y445719D01*
Y480514D01*
X594885Y481506D01*
X594621Y481900D01*
X595202Y483170D01*
X601161D01*
Y479400D01*
X610701D01*
X620242D01*
Y483170D01*
X636376D01*
X639652Y479895D01*
D02*
G37*
G36*
X589903Y479442D02*
Y473586D01*
X580345D01*
X573082Y480849D01*
Y483380D01*
X572885Y484371D01*
X572324Y485211D01*
X571031Y486504D01*
X571517Y487677D01*
X581667D01*
X589903Y479442D01*
D02*
G37*
G36*
X624431Y462360D02*
X639652D01*
Y454423D01*
X634459Y449230D01*
X624931D01*
Y432690D01*
X638471D01*
Y445918D01*
X642557Y450003D01*
X643730Y449517D01*
Y415122D01*
X642510Y414070D01*
X640971D01*
Y418423D01*
X624431D01*
Y417619D01*
X623258Y417133D01*
X618971Y421420D01*
Y427923D01*
X602431D01*
X602288Y429134D01*
Y451649D01*
X602431Y452860D01*
X606612D01*
Y449230D01*
X604931D01*
Y432690D01*
X618471D01*
Y449230D01*
X611791D01*
Y452860D01*
X618971D01*
Y465400D01*
X618971D01*
X619244Y466557D01*
X624431D01*
Y462360D01*
D02*
G37*
G36*
X357799Y612353D02*
X358090Y612050D01*
Y505189D01*
X358287Y504198D01*
X358849Y503358D01*
X376286Y485921D01*
X377126Y485359D01*
X378117Y485162D01*
X401100D01*
Y479780D01*
X410640D01*
X420180D01*
Y485162D01*
X433726D01*
X442275Y476613D01*
Y454518D01*
X436987Y449230D01*
X425609D01*
Y432690D01*
X439149D01*
Y444067D01*
X446696Y451614D01*
X447257Y452454D01*
X447454Y453445D01*
Y477685D01*
X447257Y478676D01*
X446696Y479517D01*
X442969Y483243D01*
X443455Y484417D01*
X452182D01*
Y480050D01*
X461722D01*
X471262D01*
Y484417D01*
X487335D01*
X493980Y477771D01*
Y451788D01*
X489519Y447327D01*
X488346Y447813D01*
Y450110D01*
X474806D01*
Y433570D01*
X488346D01*
Y438928D01*
X488646Y439129D01*
X491455Y441938D01*
X492629Y441452D01*
Y422286D01*
X492826Y421295D01*
X493387Y420455D01*
X494607Y419235D01*
Y416392D01*
X493387Y415340D01*
X491992D01*
Y419073D01*
X475452D01*
Y418141D01*
X474278Y417655D01*
X469992Y421942D01*
Y428573D01*
X453452D01*
Y416033D01*
X468575D01*
X471186Y413422D01*
Y409755D01*
X469991Y409573D01*
Y409573D01*
X454138D01*
X452170Y411541D01*
Y445129D01*
X453536Y446495D01*
X454806Y445969D01*
Y433570D01*
X468346D01*
Y450110D01*
X462811D01*
Y453510D01*
X469992D01*
Y466050D01*
X469992D01*
X470264Y467207D01*
X475452D01*
Y463010D01*
X491992D01*
Y475550D01*
X475452D01*
Y472386D01*
X471262D01*
Y477510D01*
X461722D01*
X452182D01*
Y471240D01*
X452182Y471240D01*
X452182D01*
X451445Y470315D01*
X450350Y469221D01*
X449789Y468381D01*
X449592Y467390D01*
Y449876D01*
X447749Y448033D01*
X447187Y447193D01*
X446990Y446202D01*
Y417514D01*
X445720Y416573D01*
X445535Y416610D01*
X444149D01*
Y419953D01*
X427609D01*
X426563Y420494D01*
X422149Y424908D01*
Y429453D01*
X405609D01*
Y416913D01*
X422149D01*
X422860Y415937D01*
Y411428D01*
X422149Y410453D01*
X405609D01*
X405609Y410453D01*
Y410453D01*
X404534Y410944D01*
X402640Y412838D01*
Y453240D01*
X411060D01*
Y449230D01*
X405609D01*
Y432690D01*
X419149D01*
Y449230D01*
X416239D01*
Y453240D01*
X418910D01*
Y465780D01*
X406640D01*
X406154Y466953D01*
X407287Y468087D01*
X424370D01*
Y462740D01*
X440910D01*
Y475280D01*
X424370D01*
Y473266D01*
X420180D01*
Y477240D01*
X410640D01*
X401100D01*
Y470970D01*
X401186D01*
X401672Y469797D01*
X398219Y466343D01*
X397657Y465503D01*
X397460Y464512D01*
Y411766D01*
X397657Y410774D01*
X398219Y409934D01*
X405609Y402544D01*
Y397913D01*
X411060D01*
Y391690D01*
X405609D01*
Y375150D01*
X419149D01*
Y391690D01*
X416239D01*
Y397913D01*
X422149D01*
Y402909D01*
X423419Y403294D01*
X423619Y402995D01*
X429790Y396825D01*
Y391690D01*
X425609D01*
Y375150D01*
X439149D01*
Y391690D01*
X434969D01*
Y397897D01*
X434772Y398889D01*
X434211Y399729D01*
X428040Y405900D01*
Y407413D01*
X442945D01*
Y367671D01*
X443142Y366680D01*
X443703Y365840D01*
X453012Y356531D01*
X453852Y355970D01*
X454843Y355773D01*
X603822D01*
X604500Y354503D01*
X604062Y353846D01*
X603653Y351790D01*
X604062Y349734D01*
X605226Y347990D01*
X606970Y346826D01*
X609026Y346417D01*
X611082Y346826D01*
X612825Y347990D01*
X613634Y349200D01*
X730722D01*
X731531Y347990D01*
X733274Y346826D01*
X735330Y346417D01*
X737386Y346826D01*
X739129Y347990D01*
X740294Y349734D01*
X740703Y351790D01*
X740294Y353846D01*
X739855Y354503D01*
X740534Y355773D01*
X849435D01*
X850426Y355970D01*
X851266Y356531D01*
X859107Y364372D01*
X859669Y365213D01*
X859866Y366204D01*
Y387503D01*
X889561Y417199D01*
X890123Y418039D01*
X890320Y419030D01*
Y428971D01*
X933738Y472390D01*
X1061196D01*
X1062187Y472587D01*
X1063027Y473149D01*
X1065311Y475433D01*
X1066484Y474947D01*
Y423589D01*
X1065337Y422997D01*
X1065259Y422988D01*
X1060235Y427593D01*
X1051780Y434080D01*
X1042792Y439807D01*
X1033338Y444728D01*
X1023492Y448806D01*
X1013328Y452011D01*
X1002923Y454317D01*
X992357Y455708D01*
X981710Y456173D01*
X971063Y455708D01*
X960497Y454317D01*
X950092Y452011D01*
X939928Y448806D01*
X930082Y444728D01*
X920628Y439807D01*
X911640Y434080D01*
X903185Y427593D01*
X895328Y420392D01*
X888128Y412535D01*
X881640Y404080D01*
X875913Y395092D01*
X870993Y385638D01*
X866914Y375792D01*
X863709Y365628D01*
X861403Y355223D01*
X860012Y344657D01*
X859658Y336550D01*
X576432Y336550D01*
X574049Y338933D01*
X574333Y340360D01*
X573924Y342416D01*
X572760Y344160D01*
X571016Y345324D01*
X568960Y345733D01*
X566904Y345324D01*
X565160Y344160D01*
X563996Y342416D01*
X563587Y340360D01*
X563996Y338304D01*
X564319Y337820D01*
X563640Y336550D01*
X465942D01*
X460301Y342191D01*
X459461Y342753D01*
X458470Y342950D01*
X337348D01*
X336539Y344160D01*
X334796Y345324D01*
X332740Y345733D01*
X330684Y345324D01*
X328941Y344160D01*
X328232Y343099D01*
X326962Y343484D01*
X326962Y572797D01*
X340880Y592412D01*
X356609Y612911D01*
X356959Y612965D01*
X357799Y612353D01*
D02*
G37*
G36*
X542187Y480365D02*
Y450368D01*
X539187Y447368D01*
X538014Y447854D01*
Y450110D01*
X524474D01*
Y433570D01*
X538014D01*
Y438870D01*
X544877Y445733D01*
X546050Y445247D01*
Y415939D01*
X545249Y415355D01*
X544780Y415178D01*
X543966Y415340D01*
X540514D01*
Y418803D01*
X523974D01*
Y417956D01*
X522704Y417430D01*
X518514Y421620D01*
Y428303D01*
X501974D01*
Y415763D01*
X517046D01*
X519384Y413424D01*
Y410212D01*
X518514Y409303D01*
X501974D01*
X501974Y409303D01*
Y409303D01*
X501062Y410061D01*
X499787Y411336D01*
Y420307D01*
X499590Y421298D01*
X499028Y422139D01*
X497808Y423359D01*
Y442903D01*
X502211Y447306D01*
X502773Y448146D01*
X502970Y449137D01*
Y453240D01*
X506154D01*
Y450110D01*
X504474D01*
Y433570D01*
X518014D01*
Y450110D01*
X511334D01*
Y453240D01*
X518514D01*
Y465780D01*
X518514D01*
X518786Y466937D01*
X523974D01*
Y462740D01*
X540514D01*
Y475280D01*
X523974D01*
Y472117D01*
X519784D01*
Y477240D01*
X510244D01*
Y479780D01*
X519784D01*
Y483867D01*
X538685D01*
X542187Y480365D01*
D02*
G37*
G36*
X590906Y374244D02*
X591103Y373253D01*
X591664Y372413D01*
X594332Y369746D01*
X593846Y368573D01*
X552090D01*
X546555Y374107D01*
Y404680D01*
X547825Y405206D01*
X552210Y400822D01*
X552636Y400537D01*
Y396383D01*
X554538D01*
Y390160D01*
X551628D01*
Y373620D01*
X565168D01*
Y390160D01*
X559718D01*
Y396383D01*
X569176D01*
Y398625D01*
X570446Y399084D01*
X575808Y393721D01*
Y390160D01*
X571628D01*
Y373620D01*
X585168D01*
Y390160D01*
X580988D01*
Y394794D01*
X580791Y395785D01*
X580229Y396625D01*
X574542Y402312D01*
Y404652D01*
X574636Y405883D01*
X575812Y405883D01*
X590906D01*
Y374244D01*
D02*
G37*
G36*
X689966Y405329D02*
Y379324D01*
X690163Y378333D01*
X690724Y377493D01*
X693614Y374603D01*
X693128Y373430D01*
X685117D01*
X683926Y373620D01*
Y390160D01*
X679271D01*
X678987Y390585D01*
X673705Y395866D01*
Y405883D01*
X688925D01*
X689966Y405329D01*
D02*
G37*
G36*
X650386Y401200D02*
Y396383D01*
X654566D01*
Y390160D01*
X650386D01*
Y373620D01*
X649194Y373430D01*
X647761D01*
X645100Y376091D01*
Y404827D01*
X646273Y405313D01*
X650386Y401200D01*
D02*
G37*
G36*
X597355Y406224D02*
X597867Y405459D01*
X602431Y400894D01*
Y396383D01*
X606612D01*
Y390160D01*
X602431D01*
Y373620D01*
X602431D01*
X602354Y372383D01*
X599020D01*
X596085Y375317D01*
Y405599D01*
X597262Y406239D01*
X597355Y406224D01*
D02*
G37*
G36*
X620572Y412495D02*
Y400083D01*
X620769Y399092D01*
X621330Y398251D01*
X626612Y392970D01*
Y390160D01*
X622431D01*
Y373620D01*
X635971D01*
Y390160D01*
X631791D01*
Y394043D01*
X631594Y395034D01*
X631033Y395874D01*
X625751Y401156D01*
Y405883D01*
X639920D01*
Y375018D01*
X640117Y374027D01*
X640679Y373187D01*
X643072Y370793D01*
X642586Y369620D01*
X621480D01*
X619476Y371624D01*
X618635Y372185D01*
X617644Y372383D01*
X616049D01*
X615971Y373620D01*
X615971D01*
Y390160D01*
X611791D01*
Y396383D01*
X618971D01*
Y408923D01*
X602431D01*
X602288Y410134D01*
Y414173D01*
X602431Y415383D01*
X617683D01*
X620572Y412495D01*
D02*
G37*
G36*
X850489Y387243D02*
Y368467D01*
X846784Y364762D01*
X842924D01*
X841972Y365530D01*
Y386030D01*
X846544D01*
X847535Y386227D01*
X848375Y386789D01*
X849315Y387729D01*
X850489Y387243D01*
D02*
G37*
G36*
X800432Y382360D02*
Y365530D01*
X799480Y364762D01*
X782834D01*
X782348Y365936D01*
X799259Y382846D01*
X800432Y382360D01*
D02*
G37*
G36*
X501974Y401824D02*
Y396763D01*
X506154D01*
Y390540D01*
X501974D01*
Y374000D01*
X515514D01*
Y390540D01*
X511334D01*
Y396763D01*
X518514D01*
Y399042D01*
X519784Y399387D01*
X520143Y398850D01*
X526154Y392839D01*
Y390540D01*
X521974D01*
Y374000D01*
X535514D01*
Y390540D01*
X531334D01*
Y393911D01*
X531137Y394902D01*
X530575Y395743D01*
X524564Y401754D01*
Y406263D01*
X540514D01*
X541376Y405350D01*
Y373034D01*
X541573Y372043D01*
X542134Y371203D01*
X547402Y365936D01*
X546916Y364762D01*
X504237D01*
X495977Y373022D01*
Y406162D01*
X497150Y406648D01*
X501974Y401824D01*
D02*
G37*
G36*
X453452Y402934D02*
Y397033D01*
X457632D01*
Y390810D01*
X453452D01*
Y374270D01*
X466992D01*
Y390810D01*
X462811D01*
Y397033D01*
X469992D01*
Y403290D01*
X471262Y403415D01*
X471383Y402803D01*
X471945Y401963D01*
X477632Y396276D01*
Y390810D01*
X473452D01*
Y374270D01*
X486992D01*
Y390810D01*
X482811D01*
Y397348D01*
X482614Y398340D01*
X482053Y399180D01*
X476366Y404867D01*
Y406533D01*
X490797D01*
Y371950D01*
X490994Y370958D01*
X491556Y370118D01*
X499548Y362126D01*
X499062Y360952D01*
X455916D01*
X448125Y368744D01*
Y406601D01*
X449298Y407088D01*
X453452Y402934D01*
D02*
G37*
%LPC*%
G36*
X773346Y850109D02*
X766976D01*
Y831339D01*
X773346D01*
Y850109D01*
D02*
G37*
G36*
X764436D02*
X758066D01*
Y831339D01*
X764436D01*
Y850109D01*
D02*
G37*
G36*
X773346Y828800D02*
X766976D01*
Y810030D01*
X773346D01*
Y828800D01*
D02*
G37*
G36*
X764436D02*
X758066D01*
Y810030D01*
X764436D01*
Y828800D01*
D02*
G37*
G36*
X1054810Y833805D02*
X1053838Y833402D01*
Y833402D01*
X1047338Y826902D01*
X1046935Y825930D01*
X1046935Y825930D01*
Y808930D01*
X1046935Y808930D01*
X1047338Y807958D01*
X1047338Y807958D01*
X1053838Y801458D01*
X1054810Y801055D01*
X1054810Y801055D01*
X1059810D01*
X1059810Y801055D01*
X1060782Y801458D01*
X1060782Y801458D01*
X1067282Y807958D01*
X1067685Y808930D01*
X1067685Y808930D01*
Y825930D01*
X1067685Y825930D01*
X1067282Y826902D01*
X1067282Y826902D01*
X1060782Y833402D01*
X1059810Y833805D01*
X1059810Y833805D01*
X1054810D01*
X1054810Y833805D01*
D02*
G37*
G36*
X984050D02*
X983078Y833402D01*
Y833402D01*
X976578Y826902D01*
X976175Y825930D01*
X976175Y825930D01*
Y808930D01*
X976175Y808930D01*
X976578Y807958D01*
X976578Y807958D01*
X983078Y801458D01*
X984050Y801055D01*
X984050Y801055D01*
X989050D01*
X989050Y801055D01*
X990022Y801458D01*
X990022Y801458D01*
X996522Y807958D01*
X996924Y808930D01*
X996924Y808930D01*
Y825930D01*
X996924Y825930D01*
X996522Y826902D01*
X996522Y826902D01*
X990022Y833402D01*
X989050Y833805D01*
X989050Y833805D01*
X984050D01*
X984050Y833805D01*
D02*
G37*
G36*
X832114Y833805D02*
X831142Y833402D01*
Y833402D01*
X824642Y826902D01*
X824239Y825930D01*
X824239Y825930D01*
Y808930D01*
X824239Y808930D01*
X824642Y807958D01*
X824642Y807958D01*
X831142Y801458D01*
X832114Y801055D01*
X832114Y801055D01*
X837114D01*
X837114Y801055D01*
X838086Y801458D01*
X838086Y801458D01*
X844586Y807958D01*
X844989Y808930D01*
X844989Y808930D01*
Y825930D01*
X844989Y825930D01*
X844586Y826902D01*
X844586Y826902D01*
X838086Y833402D01*
X837114Y833805D01*
X837114Y833805D01*
X832114D01*
X832114Y833805D01*
D02*
G37*
G36*
X910030Y833805D02*
X909058Y833402D01*
Y833402D01*
X902558Y826902D01*
X902155Y825930D01*
X902155Y825930D01*
Y808930D01*
X902155Y808930D01*
X902558Y807958D01*
X902558Y807958D01*
X908760Y801756D01*
Y785160D01*
X916300D01*
Y801756D01*
X922502Y807958D01*
X922905Y808930D01*
X922905Y808930D01*
Y825930D01*
X922905Y825930D01*
X922502Y826902D01*
X922502Y826902D01*
X916002Y833402D01*
X915030Y833805D01*
X915030Y833805D01*
X910030D01*
X910030Y833805D01*
D02*
G37*
G36*
X983810Y767825D02*
X982838Y767422D01*
Y767422D01*
X976338Y760922D01*
X975935Y759950D01*
X975935Y759950D01*
Y742950D01*
X975935Y742950D01*
X976338Y741978D01*
X976338Y741978D01*
X982838Y735478D01*
X983810Y735075D01*
X983810Y735075D01*
X988810D01*
X988810Y735075D01*
X989782Y735478D01*
X989782Y735478D01*
X996282Y741978D01*
X996685Y742950D01*
X996684Y742950D01*
Y759950D01*
X996685Y759950D01*
X996282Y760922D01*
X996282Y760922D01*
X989782Y767422D01*
X988810Y767825D01*
X988810Y767825D01*
X983810D01*
X983810Y767825D01*
D02*
G37*
G36*
X910030D02*
X909058Y767422D01*
Y767422D01*
X902558Y760922D01*
X902155Y759950D01*
X902155Y759950D01*
Y742950D01*
X902155Y742950D01*
X902558Y741978D01*
X902558Y741978D01*
X909058Y735478D01*
X910030Y735075D01*
X910030Y735075D01*
X915030D01*
X915030Y735075D01*
X916002Y735478D01*
X916002Y735478D01*
X922502Y741978D01*
X922905Y742950D01*
X922905Y742950D01*
Y759950D01*
X922905Y759950D01*
X922502Y760922D01*
X922502Y760922D01*
X916002Y767422D01*
X915030Y767825D01*
X915030Y767825D01*
X910030D01*
X910030Y767825D01*
D02*
G37*
G36*
X832114Y766669D02*
X831142Y766266D01*
Y766266D01*
X824642Y759766D01*
X824239Y758794D01*
X824239Y758794D01*
Y741794D01*
X824239Y741794D01*
X824642Y740822D01*
X824642Y740822D01*
X831142Y734322D01*
X832114Y733919D01*
X832114Y733919D01*
X837114D01*
X837114Y733919D01*
X838086Y734322D01*
X838086Y734322D01*
X844586Y740822D01*
X844989Y741794D01*
X844989Y741794D01*
Y758794D01*
X844989Y758794D01*
X844586Y759766D01*
X844586Y759766D01*
X838086Y766266D01*
X837114Y766669D01*
X837114Y766669D01*
X832114D01*
X832114Y766669D01*
D02*
G37*
G36*
X910030Y699185D02*
X909058Y698782D01*
Y698782D01*
X902558Y692282D01*
X902155Y691310D01*
X902155Y691310D01*
Y674310D01*
X902155Y674310D01*
X902558Y673338D01*
X902558Y673338D01*
X909058Y666838D01*
X910030Y666435D01*
X910030Y666435D01*
X915030D01*
X915030Y666435D01*
X916002Y666838D01*
X916002Y666838D01*
X922502Y673338D01*
X922905Y674310D01*
X922905Y674310D01*
Y691310D01*
X922905Y691310D01*
X922502Y692282D01*
X922502Y692282D01*
X916002Y698782D01*
X915030Y699185D01*
X915030Y699185D01*
X910030D01*
X910030Y699185D01*
D02*
G37*
G36*
X1054810Y698685D02*
X1053838Y698282D01*
Y698282D01*
X1047338Y691782D01*
X1046935Y690810D01*
X1046935Y690810D01*
Y673810D01*
X1046935Y673810D01*
X1047338Y672838D01*
X1047338Y672838D01*
X1053838Y666338D01*
X1054810Y665935D01*
X1054810Y665935D01*
X1059810D01*
X1059810Y665935D01*
X1060782Y666338D01*
X1060782Y666338D01*
X1067282Y672838D01*
X1067685Y673810D01*
X1067685Y673810D01*
Y690810D01*
X1067685Y690810D01*
X1067282Y691782D01*
X1067282Y691782D01*
X1060782Y698282D01*
X1059810Y698685D01*
X1059810Y698685D01*
X1054810D01*
X1054810Y698685D01*
D02*
G37*
G36*
X832114Y698685D02*
X831142Y698282D01*
Y698282D01*
X824642Y691782D01*
X824239Y690810D01*
X824239Y690810D01*
Y673810D01*
X824239Y673810D01*
X824642Y672838D01*
X824642Y672838D01*
X831142Y666338D01*
X832114Y665935D01*
X832114Y665935D01*
X837114D01*
X837114Y665935D01*
X838086Y666338D01*
X838086Y666338D01*
X844586Y672838D01*
X844989Y673810D01*
X844989Y673810D01*
Y690810D01*
X844989Y690810D01*
X844586Y691782D01*
X844586Y691782D01*
X838086Y698282D01*
X837114Y698685D01*
X837114Y698685D01*
X832114D01*
X832114Y698685D01*
D02*
G37*
G36*
X1399490Y620240D02*
X1361950D01*
Y587700D01*
X1399490D01*
Y620240D01*
D02*
G37*
G36*
X1221740Y776094D02*
X1204632D01*
X1202154Y775602D01*
X1200054Y774198D01*
X1198650Y772098D01*
X1198158Y769620D01*
X1198650Y767142D01*
X1200054Y765042D01*
X1202154Y763639D01*
X1204632Y763146D01*
X1219058D01*
X1239656Y742547D01*
Y665240D01*
X1233450D01*
Y632700D01*
X1253305D01*
X1274956Y611049D01*
Y486552D01*
X1253992Y465588D01*
X1253421Y464734D01*
X1252157Y464609D01*
X1249308Y467458D01*
X1247208Y468862D01*
X1244730Y469355D01*
X1224560D01*
Y470770D01*
X1177020D01*
Y455230D01*
X1224560D01*
Y456406D01*
X1231900D01*
Y438270D01*
X1252096D01*
Y431942D01*
X1239508Y419355D01*
X1224560D01*
Y420770D01*
X1177020D01*
Y419355D01*
X1136802D01*
X1134324Y418862D01*
X1132224Y417458D01*
X1125100Y410334D01*
X1106581D01*
X1096445Y420471D01*
X1097071Y421641D01*
X1098550Y421347D01*
X1100606Y421756D01*
X1102349Y422920D01*
X1103158Y424130D01*
X1121275D01*
X1121396Y423524D01*
X1122561Y421781D01*
X1124304Y420616D01*
X1126360Y420207D01*
X1128416Y420616D01*
X1130159Y421781D01*
X1131324Y423524D01*
X1131733Y425580D01*
X1131324Y427636D01*
X1130159Y429380D01*
X1128416Y430544D01*
X1126360Y430953D01*
X1124304Y430544D01*
X1122561Y429380D01*
X1122514Y429310D01*
X1103158D01*
X1102349Y430519D01*
X1100606Y431684D01*
X1098550Y432093D01*
X1096494Y431684D01*
X1094751Y430519D01*
X1093586Y428776D01*
X1093177Y426720D01*
X1093471Y425241D01*
X1092300Y424616D01*
X1088514Y428401D01*
Y441960D01*
X1088022Y444438D01*
X1086618Y446538D01*
X1084518Y447942D01*
X1082040Y448434D01*
X1079562Y447942D01*
X1077462Y446538D01*
X1076058Y444438D01*
X1075566Y441960D01*
Y425720D01*
X1076058Y423242D01*
X1077462Y421142D01*
X1099322Y399282D01*
X1101422Y397878D01*
X1103900Y397386D01*
X1127782D01*
X1130259Y397878D01*
X1132360Y399282D01*
X1139484Y406406D01*
X1177020D01*
Y405230D01*
X1224560D01*
Y406406D01*
X1242190D01*
X1244668Y406899D01*
X1246768Y408302D01*
X1263148Y424682D01*
X1264552Y426782D01*
X1265044Y429260D01*
Y438270D01*
X1285240D01*
Y459810D01*
X1268186D01*
X1267700Y460983D01*
X1286008Y479292D01*
X1287412Y481392D01*
X1287904Y483870D01*
Y613731D01*
X1287412Y616208D01*
X1286008Y618309D01*
X1270990Y633327D01*
Y665240D01*
X1252605D01*
Y745229D01*
X1252112Y747707D01*
X1250709Y749807D01*
X1226318Y774198D01*
X1224218Y775602D01*
X1221740Y776094D01*
D02*
G37*
G36*
X1388110Y461080D02*
X1361440D01*
Y450310D01*
X1388110D01*
Y461080D01*
D02*
G37*
G36*
X1358900D02*
X1332230D01*
Y450310D01*
X1358900D01*
Y461080D01*
D02*
G37*
G36*
X1388110Y447770D02*
X1361440D01*
Y437000D01*
X1388110D01*
Y447770D01*
D02*
G37*
G36*
X1358900D02*
X1332230D01*
Y437000D01*
X1358900D01*
Y447770D01*
D02*
G37*
%LPD*%
G36*
X1066310Y825930D02*
Y808930D01*
X1059810Y802430D01*
X1054810D01*
X1048310Y808930D01*
Y825930D01*
X1054810Y832430D01*
X1059810D01*
X1066310Y825930D01*
D02*
G37*
G36*
X995550D02*
Y808930D01*
X989050Y802430D01*
X984050D01*
X977550Y808930D01*
Y825930D01*
X984050Y832430D01*
X989050D01*
X995550Y825930D01*
D02*
G37*
G36*
X843614Y825930D02*
Y808930D01*
X837114Y802430D01*
X832114D01*
X825614Y808930D01*
Y825930D01*
X832114Y832430D01*
X837114D01*
X843614Y825930D01*
D02*
G37*
G36*
X921530Y825930D02*
Y808930D01*
X915030Y802430D01*
X910030D01*
X903530Y808930D01*
Y825930D01*
X910030Y832430D01*
X915030D01*
X921530Y825930D01*
D02*
G37*
G36*
X995310Y759950D02*
Y742950D01*
X988810Y736450D01*
X983810D01*
X977310Y742950D01*
Y759950D01*
X983810Y766450D01*
X988810D01*
X995310Y759950D01*
D02*
G37*
G36*
X921530D02*
Y742950D01*
X915030Y736450D01*
X910030D01*
X903530Y742950D01*
Y759950D01*
X910030Y766450D01*
X915030D01*
X921530Y759950D01*
D02*
G37*
G36*
X843614Y758794D02*
Y741794D01*
X837114Y735294D01*
X832114D01*
X825614Y741794D01*
Y758794D01*
X832114Y765294D01*
X837114D01*
X843614Y758794D01*
D02*
G37*
G36*
X921530Y691310D02*
Y674310D01*
X915030Y667810D01*
X910030D01*
X903530Y674310D01*
Y691310D01*
X910030Y697810D01*
X915030D01*
X921530Y691310D01*
D02*
G37*
G36*
X1066310Y690810D02*
Y673810D01*
X1059810Y667310D01*
X1054810D01*
X1048310Y673810D01*
Y690810D01*
X1054810Y697310D01*
X1059810D01*
X1066310Y690810D01*
D02*
G37*
G36*
X843614Y690810D02*
Y673810D01*
X837114Y667310D01*
X832114D01*
X825614Y673810D01*
Y690810D01*
X832114Y697310D01*
X837114D01*
X843614Y690810D01*
D02*
G37*
%LPC*%
G36*
X666810Y776400D02*
Y765130D01*
X670830D01*
Y776400D01*
X666810D01*
D02*
G37*
G36*
X580113Y754640D02*
X571843D01*
Y747870D01*
X580113D01*
Y754640D01*
D02*
G37*
G36*
X569303D02*
X561033D01*
Y747870D01*
X569303D01*
Y754640D01*
D02*
G37*
G36*
X750380Y729590D02*
X742110D01*
Y723320D01*
X750380D01*
Y729590D01*
D02*
G37*
G36*
X739570D02*
X731300D01*
Y723320D01*
X739570D01*
Y729590D01*
D02*
G37*
G36*
X771110Y727630D02*
X754570D01*
Y715090D01*
X771110D01*
Y718770D01*
X773437D01*
X774694Y717514D01*
X773546Y715796D01*
X773137Y713740D01*
X773546Y711684D01*
X774710Y709940D01*
X776454Y708776D01*
X778510Y708367D01*
X780566Y708776D01*
X782309Y709940D01*
X783474Y711684D01*
X783883Y713740D01*
X783474Y715796D01*
X782309Y717540D01*
X780748Y718583D01*
X780341Y719191D01*
X776914Y722619D01*
X776531Y723191D01*
X775691Y723753D01*
X774700Y723950D01*
X771110D01*
Y727630D01*
D02*
G37*
G36*
X563880Y680270D02*
Y673500D01*
X572150D01*
Y680270D01*
X563880D01*
D02*
G37*
G36*
X617011Y654242D02*
X610242D01*
Y645972D01*
X617011D01*
Y654242D01*
D02*
G37*
G36*
X607701D02*
X600932D01*
Y645972D01*
X607701D01*
Y654242D01*
D02*
G37*
G36*
X575890Y652780D02*
X569120D01*
Y644510D01*
X575890D01*
Y652780D01*
D02*
G37*
G36*
X566580D02*
X559810D01*
Y644510D01*
X566580D01*
Y652780D01*
D02*
G37*
G36*
X437474Y531467D02*
X423934D01*
Y514927D01*
X437474D01*
Y531467D01*
D02*
G37*
G36*
X518108Y625190D02*
X509838D01*
Y618920D01*
X518108D01*
Y625190D01*
D02*
G37*
G36*
X556953Y624810D02*
X548683D01*
Y618540D01*
X556953D01*
Y624810D01*
D02*
G37*
G36*
X469586Y625460D02*
X461316D01*
Y619190D01*
X469586D01*
Y625460D01*
D02*
G37*
G36*
X618566Y624810D02*
X610296D01*
Y618540D01*
X618566D01*
Y624810D01*
D02*
G37*
G36*
X1168560Y630270D02*
X1127020D01*
Y609730D01*
X1168560D01*
Y630270D01*
D02*
G37*
G36*
X725221Y596700D02*
X724230Y596503D01*
X723390Y595941D01*
X722829Y595101D01*
X722632Y594110D01*
Y547370D01*
X722829Y546379D01*
X723390Y545539D01*
X724230Y544977D01*
X725221Y544780D01*
X726212Y544977D01*
X727053Y545539D01*
X727614Y546379D01*
X727811Y547370D01*
Y594110D01*
X727614Y595101D01*
X727053Y595941D01*
X726212Y596503D01*
X725221Y596700D01*
D02*
G37*
G36*
X769472Y541840D02*
Y534070D01*
X793242D01*
Y541840D01*
X769472D01*
D02*
G37*
G36*
X793242Y531530D02*
X769472D01*
Y523760D01*
X793242D01*
Y531530D01*
D02*
G37*
G36*
Y466840D02*
X769472D01*
Y459070D01*
X793242D01*
Y466840D01*
D02*
G37*
G36*
X766932D02*
X743162D01*
Y459070D01*
X766932D01*
Y466840D01*
D02*
G37*
G36*
X861060Y453683D02*
X859004Y453274D01*
X857261Y452109D01*
X856452Y450900D01*
X837728D01*
X836919Y452109D01*
X835176Y453274D01*
X833120Y453683D01*
X831064Y453274D01*
X829321Y452109D01*
X828156Y450366D01*
X827747Y448310D01*
X828156Y446254D01*
X829321Y444510D01*
X831064Y443346D01*
X833120Y442937D01*
X835176Y443346D01*
X836919Y444510D01*
X837728Y445720D01*
X856452D01*
X857261Y444510D01*
X859004Y443346D01*
X861060Y442937D01*
X863116Y443346D01*
X864859Y444510D01*
X866024Y446254D01*
X866433Y448310D01*
X866024Y450366D01*
X864859Y452109D01*
X863116Y453274D01*
X861060Y453683D01*
D02*
G37*
G36*
X793242Y456530D02*
X769472D01*
Y448760D01*
X793242D01*
Y456530D01*
D02*
G37*
G36*
X766932D02*
X743162D01*
Y448760D01*
X766932D01*
Y456530D01*
D02*
G37*
G36*
X791972Y440570D02*
X744432D01*
Y425030D01*
X791972D01*
Y440570D01*
D02*
G37*
G36*
X569222Y464086D02*
X552682D01*
Y451546D01*
X556038D01*
Y450110D01*
X552596D01*
Y433570D01*
X566136D01*
Y450110D01*
X561218D01*
Y451546D01*
X569222D01*
Y464086D01*
D02*
G37*
%LPD*%
D10*
X674360Y521117D02*
X677710Y524468D01*
X628567Y521781D02*
Y530228D01*
X629202Y381890D02*
Y394043D01*
X623161Y400083D02*
X629202Y394043D01*
X623161Y400083D02*
Y413567D01*
X615075Y421653D02*
X623161Y413567D01*
X610701Y421653D02*
X615075D01*
X578398Y381890D02*
Y394794D01*
X571953Y401239D02*
X578398Y394794D01*
X571953Y401239D02*
Y415386D01*
X565685Y421653D02*
X571953Y415386D01*
X560906Y421653D02*
X565685D01*
X528744Y382270D02*
Y393911D01*
X521974Y400681D02*
X528744Y393911D01*
X521974Y400681D02*
Y414497D01*
X514438Y422033D02*
X521974Y414497D01*
X510244Y422033D02*
X514438D01*
X480222Y382540D02*
Y397348D01*
X473776Y403794D02*
X480222Y397348D01*
X473776Y403794D02*
Y414495D01*
X465968Y422303D02*
X473776Y414495D01*
X461722Y422303D02*
X465968D01*
X425450Y404827D02*
Y417945D01*
X420212Y423183D02*
X425450Y417945D01*
X413879Y423183D02*
X420212D01*
X425450Y404827D02*
X432379Y397897D01*
Y383420D02*
Y397897D01*
X410185Y560680D02*
X432894D01*
X443230Y571016D01*
Y577850D01*
X478546Y522317D02*
Y537490D01*
X469978Y546057D02*
X478546Y537490D01*
X469978Y546057D02*
Y559594D01*
X459533D02*
X469978D01*
X474648Y564264D01*
X481330D01*
X526872Y538480D02*
X541020D01*
X521528Y543824D02*
X526872Y538480D01*
X521528Y543824D02*
Y554608D01*
X516726Y559410D02*
X521528Y554608D01*
X509698Y559410D02*
X516726D01*
X528298Y523197D02*
X541020Y535919D01*
Y538480D01*
X555452Y519697D02*
Y538444D01*
X554193Y539944D02*
X556953D01*
X547728Y546409D02*
X554193Y539944D01*
X556953D02*
X558223D01*
X547560Y535771D02*
Y541189D01*
X543918Y532129D02*
X547560Y535771D01*
X538839Y549910D02*
X547560Y541189D01*
X531698Y549910D02*
X538839D01*
X547728Y546409D02*
Y604260D01*
X543918Y514625D02*
Y532129D01*
X579109Y522084D02*
Y533478D01*
X570682Y541904D02*
X579109Y533478D01*
X570682Y541904D02*
Y553134D01*
X564872Y558945D02*
X570682Y553134D01*
X558223Y558945D02*
X564872D01*
X558223D02*
X563158Y563880D01*
X588010D01*
X614490Y558945D02*
X634175D01*
X610030D02*
X614490D01*
X622490Y543392D02*
Y550944D01*
X614490Y558945D02*
X622490Y550944D01*
X626469Y541210D02*
X630300Y537379D01*
X624672Y541210D02*
X626469D01*
X630300Y531961D02*
Y537379D01*
X628567Y530228D02*
X630300Y531961D01*
X622490Y543392D02*
X624672Y541210D01*
X634175Y558945D02*
X636571Y561340D01*
X677710Y550714D02*
X689465Y562470D01*
X691547D01*
X665250Y514054D02*
Y529830D01*
X671360Y535940D01*
X691335D01*
X702606Y547211D01*
X642360Y514807D02*
Y543560D01*
X636475Y549445D02*
X642360Y543560D01*
X632030Y549445D02*
X636475D01*
X491073Y514350D02*
Y546100D01*
X487079Y550094D02*
X491073Y546100D01*
X481533Y550094D02*
X487079D01*
X433920Y549445D02*
X438326D01*
X441725Y546046D01*
Y513154D02*
Y546046D01*
X432185Y551180D02*
X433920Y549445D01*
X590197Y515139D02*
Y547370D01*
X588123Y549445D02*
X590197Y547370D01*
X580223Y549445D02*
X588123D01*
X646170Y554162D02*
Y566267D01*
X445535Y367671D02*
Y414020D01*
X440959Y413683D02*
Y414020D01*
X445535D01*
X487532Y412750D02*
Y412803D01*
X493387Y371950D02*
Y412750D01*
X487532D02*
X493387D01*
X543966Y373034D02*
Y412750D01*
X536054Y412533D02*
Y412750D01*
X543966D01*
X593496Y374244D02*
Y411480D01*
X585708D02*
Y412153D01*
Y411480D02*
X593496D01*
X642510Y375018D02*
Y411480D01*
X636511D02*
Y412153D01*
Y411480D02*
X642510D01*
X692556Y379324D02*
Y411480D01*
X691882Y412153D02*
X692556Y411480D01*
X680656Y412153D02*
X691882D01*
X671116Y394794D02*
Y411627D01*
X661090Y421653D02*
X671116Y411627D01*
X658656Y421653D02*
X661090D01*
X671116Y394794D02*
X677156Y388754D01*
Y381890D02*
Y388754D01*
X1256996Y685743D02*
X1275080Y667660D01*
Y637077D02*
Y667660D01*
Y637077D02*
X1292713Y619444D01*
X642510Y375018D02*
X646688Y370840D01*
X675480Y579388D02*
X689830Y593737D01*
Y634925D02*
X716668Y661763D01*
X689830Y593737D02*
Y634925D01*
X693640Y633347D02*
X718246Y657953D01*
X693640Y610379D02*
Y633347D01*
X697450Y631769D02*
X719824Y654143D01*
X697450Y611957D02*
Y631769D01*
X701260Y630191D02*
X721402Y650333D01*
X701260Y613536D02*
Y630191D01*
X705070Y628613D02*
X722980Y646523D01*
X712690Y618270D02*
X717846Y613114D01*
X712690Y618270D02*
Y625456D01*
X726137Y638903D01*
X719230Y621927D02*
Y622337D01*
X708880Y627034D02*
X724558Y642713D01*
X708880Y616692D02*
X714036Y611536D01*
X708880Y616692D02*
Y627034D01*
X719230Y621927D02*
X745900Y595258D01*
X693640Y610379D02*
X698796Y605223D01*
X705070Y615114D02*
Y628613D01*
Y615114D02*
X710226Y609958D01*
X701260Y613536D02*
X706416Y608380D01*
X697450Y611957D02*
X702606Y606801D01*
X406400Y541474D02*
X413474D01*
X411974Y521227D02*
Y539974D01*
X432640Y609300D02*
X435474D01*
X404548D02*
X432640D01*
X399136Y548738D02*
Y603888D01*
X404548Y609300D01*
X593408Y665480D02*
X615300D01*
X613410Y666322D02*
X616142D01*
X617540Y667720D01*
X587850Y659922D02*
X593408Y665480D01*
X1038553Y551775D02*
Y557469D01*
X1004570Y654290D02*
X1032510D01*
X1174574Y437880D02*
X1201060D01*
X849614Y702310D02*
Y792430D01*
X1169281Y443173D02*
Y471196D01*
Y443173D02*
X1174574Y437880D01*
X1113394Y487880D02*
X1201060D01*
X1100118Y501156D02*
X1113394Y487880D01*
X1100118Y501156D02*
Y532915D01*
X670438Y751078D02*
X680040D01*
X569297Y725360D02*
X570573D01*
X524337Y566420D02*
X532130D01*
X1127580Y537880D02*
X1201060D01*
X858427Y622300D02*
X871220Y635093D01*
X778510Y713740D02*
Y717360D01*
X774700Y721170D02*
X778510Y717360D01*
X796636Y400050D02*
X841809D01*
X773998Y377413D02*
X796636Y400050D01*
X722959Y377413D02*
X773998D01*
X798214Y396240D02*
X843387D01*
X775576Y373603D02*
X798214Y396240D01*
X724537Y373603D02*
X775576D01*
X799792Y392430D02*
X844966D01*
X777155Y369793D02*
X799792Y392430D01*
X726115Y369793D02*
X777155D01*
X801370Y388620D02*
X846544D01*
X778733Y365983D02*
X801370Y388620D01*
X727693Y365983D02*
X778733D01*
X607526Y519697D02*
Y538444D01*
X594271Y569323D02*
X595791Y567802D01*
X594248Y569323D02*
X594271D01*
X589280Y574291D02*
X594248Y569323D01*
X1099620Y638074D02*
X1139726Y678180D01*
X595791Y562188D02*
X597817Y560162D01*
Y544775D02*
Y560162D01*
Y544775D02*
X602648Y539944D01*
X714906Y830070D02*
X730526D01*
X755166Y854710D01*
X812411D01*
X867030Y838193D02*
X1121019D01*
X867024Y838200D02*
X867030Y838193D01*
X1121019D02*
X1122515Y836697D01*
X850514Y854710D02*
X867024Y838200D01*
X812411Y854710D02*
X850514D01*
X803910Y846209D02*
X812411Y854710D01*
X803910Y828040D02*
Y846209D01*
X1125764Y761471D02*
X1145343Y781050D01*
X1125764Y706930D02*
Y761471D01*
X1292713Y439536D02*
Y619444D01*
X1254497Y401320D02*
X1292713Y439536D01*
X1143768Y401320D02*
X1254497D01*
X1256996Y685743D02*
Y749914D01*
X1225860Y781050D02*
X1256996Y749914D01*
X1145343Y781050D02*
X1225860D01*
X1134988Y392540D02*
X1143768Y401320D01*
X1127238Y392540D02*
X1134988D01*
X1127128Y392430D02*
X1127238Y392540D01*
X1099774Y392430D02*
X1127128D01*
X1069074Y423130D02*
X1099774Y392430D01*
X1069074Y423130D02*
Y477470D01*
X1080994Y489390D01*
X1174335Y476250D02*
X1222022D01*
X1169281Y471196D02*
X1174335Y476250D01*
X1080994Y489390D02*
X1088977D01*
X1046470Y560318D02*
Y570496D01*
X1015640Y601326D02*
X1046470Y570496D01*
X1026528Y539750D02*
X1038553Y551775D01*
X1014151Y539750D02*
X1026528D01*
X1012572Y535940D02*
X1043405D01*
X1010994Y532130D02*
X1050641D01*
X1006223Y542290D02*
X1012572Y535940D01*
X1004644Y538480D02*
X1010994Y532130D01*
X1037695Y557469D02*
X1038553D01*
X1219283Y620505D02*
Y628650D01*
Y620505D02*
X1230680Y609109D01*
Y529910D02*
Y609109D01*
X1182926Y651121D02*
Y693172D01*
X1169595Y701243D02*
X1174855D01*
X1163908Y706930D02*
X1169595Y701243D01*
X1182926Y651121D02*
X1226870Y607177D01*
Y531488D02*
Y607177D01*
X1174855Y701243D02*
X1182926Y693172D01*
X1222977Y527595D02*
X1226870Y531488D01*
X1224555Y523785D02*
X1230680Y529910D01*
X1132477Y527595D02*
X1222977D01*
X1121421Y538650D02*
X1132477Y527595D01*
X1130899Y523785D02*
X1224555D01*
X1126173Y528511D02*
X1130899Y523785D01*
X1119680Y528511D02*
X1126173D01*
X1110221Y538650D02*
X1121421D01*
X1009845Y584856D02*
X1021080Y573621D01*
X1161172Y697433D02*
X1173277D01*
X1151675Y706930D02*
X1161172Y697433D01*
X1173277D02*
X1179116Y691594D01*
Y663911D02*
Y691594D01*
X1174335Y659130D02*
X1179116Y663911D01*
X1138013Y659130D02*
X1174335D01*
X1110880Y631997D02*
X1138013Y659130D01*
X1110880Y623729D02*
Y631997D01*
X1107829Y620677D02*
X1110880Y623729D01*
X1107829Y602369D02*
Y620677D01*
X1099620Y594160D02*
X1107829Y602369D01*
X1092200Y613210D02*
Y654669D01*
X1139726Y702194D02*
Y706930D01*
X1092200Y654669D02*
X1139726Y702194D01*
X1092200Y613210D02*
X1099620Y605790D01*
X1107070Y633575D02*
X1151675Y678180D01*
X1107070Y625307D02*
Y633575D01*
X1099620Y617857D02*
X1107070Y625307D01*
X1099620Y629920D02*
Y638074D01*
X1066800Y598660D02*
Y666540D01*
Y598660D02*
X1093809Y571651D01*
X1072642Y598206D02*
Y656978D01*
Y598206D02*
X1097619Y573229D01*
X1079846Y596390D02*
X1101429Y574807D01*
X1083655Y597969D02*
X1105239Y576385D01*
X1090994Y665206D02*
Y683196D01*
X1083656Y657868D02*
X1090994Y665206D01*
X1083656Y650428D02*
Y657868D01*
X1083310Y667536D02*
Y669290D01*
X1076770Y671122D02*
Y674180D01*
X1072310Y666662D02*
X1076770Y671122D01*
X1072857Y672597D02*
Y710223D01*
X1066800Y666540D02*
X1072857Y672597D01*
X1072310Y657310D02*
Y666662D01*
X1079846Y596390D02*
Y664072D01*
X1076770Y674180D02*
X1083310Y680720D01*
X1024086Y513200D02*
X1032731Y521845D01*
Y523673D01*
X922092Y513200D02*
X1024086D01*
X1032382Y516108D02*
X1035775D01*
X1025664Y509390D02*
X1032382Y516108D01*
X1033960Y512298D02*
X1037353D01*
X1027122Y505460D02*
X1033960Y512298D01*
X1035538Y508488D02*
X1042792D01*
X1028700Y501650D02*
X1035538Y508488D01*
X920514Y509390D02*
X1025664D01*
X920041Y505460D02*
X1027122D01*
X921619Y501650D02*
X1028700D01*
X886460Y548832D02*
X922092Y513200D01*
X886460Y548832D02*
Y559517D01*
X844305Y601672D02*
X886460Y559517D01*
X854710Y548640D02*
X881264D01*
X1038504Y518838D02*
X1043693D01*
X1035775Y516108D02*
X1038504Y518838D01*
X1043693D02*
X1046677Y521823D01*
X881264Y548640D02*
X920514Y509390D01*
X1020654Y551180D02*
X1021080D01*
X1020278D02*
X1020654D01*
X1046593Y539128D02*
X1054361D01*
X1043405Y535940D02*
X1046593Y539128D01*
X1054361D02*
X1059140Y534349D01*
Y520086D02*
Y534349D01*
X1050641Y532130D02*
X1050901Y531870D01*
X1054082Y515028D02*
X1059140Y520086D01*
X1007579Y563880D02*
X1020278Y551180D01*
X1007801Y546100D02*
X1014151Y539750D01*
X991424Y546100D02*
X1007801D01*
X971868Y565656D02*
X991424Y546100D01*
X992501Y563880D02*
X1007579D01*
X1008610Y574160D02*
X1020308Y562463D01*
X992501Y574160D02*
X1008610D01*
X992501Y584856D02*
X1009845D01*
X1020645D02*
X1020654D01*
X1009898Y595603D02*
X1020645Y584856D01*
X992501Y595603D02*
X1009898D01*
X930082Y530567D02*
Y623915D01*
X983548Y542290D02*
X1006223D01*
X975484Y538480D02*
X1004644D01*
X1003066Y534670D02*
X1014372Y523364D01*
X957705Y534670D02*
X1003066D01*
X1003887Y523785D02*
Y528461D01*
X1001488Y530860D02*
X1003887Y528461D01*
X956127Y530860D02*
X1001488D01*
X936328Y550660D02*
X956127Y530860D01*
X1038500Y610795D02*
Y625977D01*
X1019317Y645160D02*
X1038500Y625977D01*
X999490Y645160D02*
X1019317D01*
X1034690Y609217D02*
Y624398D01*
X1017738Y641350D02*
X1034690Y624398D01*
X982168Y641350D02*
X1017738D01*
X1030880Y607639D02*
Y622820D01*
X1016160Y637540D02*
X1030880Y622820D01*
X980590Y637540D02*
X1016160D01*
X1015640Y601326D02*
Y616508D01*
X1009848Y622300D02*
X1015640Y616508D01*
X973536Y622300D02*
X1009848D01*
X1074759Y541264D02*
Y563760D01*
X1030880Y607639D02*
X1074759Y563760D01*
X1078569Y539686D02*
Y565338D01*
X1034690Y609217D02*
X1078569Y565338D01*
X1082379Y538108D02*
Y566917D01*
X1038500Y610795D02*
X1082379Y566917D01*
X964248Y549716D02*
Y607253D01*
X962341Y609160D02*
X964248Y607253D01*
Y549716D02*
X975484Y538480D01*
X968058Y603739D02*
X973480Y609160D01*
X968058Y557779D02*
Y603739D01*
Y557779D02*
X983548Y542290D01*
X971868Y596778D02*
X984250Y609160D01*
X971868Y565656D02*
Y596778D01*
X1086189Y536530D02*
Y568495D01*
X1089999Y532258D02*
Y570073D01*
X1093809Y533837D02*
Y571651D01*
X1097619Y535415D02*
Y573229D01*
Y535415D02*
X1100118Y532915D01*
X1101429Y536993D02*
Y574807D01*
Y536993D02*
X1103928Y534493D01*
X1105239Y560221D02*
Y576385D01*
Y560221D02*
X1109806Y555654D01*
X1042310Y612373D02*
X1086189Y568495D01*
X1049166Y610905D02*
X1089999Y570073D01*
X1067988Y534493D02*
X1074759Y541264D01*
X1071798Y532915D02*
X1078569Y539686D01*
X1071798Y521185D02*
Y532915D01*
X1075608Y531337D02*
X1082379Y538108D01*
X1075608Y522763D02*
Y531337D01*
X1079418Y529759D02*
X1086189Y536530D01*
X1079418Y524341D02*
Y529759D01*
X1089999Y532258D02*
X1092498Y529759D01*
Y524341D02*
Y529759D01*
X1087120Y518963D02*
X1092498Y524341D01*
X1087120Y506293D02*
Y518963D01*
X1093809Y533837D02*
X1096308Y531337D01*
Y522763D02*
Y531337D01*
X1090930Y517385D02*
X1096308Y522763D01*
X1090930Y504715D02*
Y517385D01*
X1103928Y505004D02*
Y534493D01*
Y505004D02*
X1108752Y500180D01*
X1223210D01*
X1040083Y515028D02*
X1054082D01*
X1037353Y512298D02*
X1040083Y515028D01*
X951714Y635000D02*
X954479Y632235D01*
Y618601D02*
Y632235D01*
Y618601D02*
X956310Y616770D01*
X886475Y635000D02*
X951714D01*
X986947Y616770D02*
X994557Y609160D01*
X956310Y616770D02*
X986947D01*
X925830Y628166D02*
X930082Y623915D01*
X946916Y545459D02*
Y628095D01*
X936328Y550660D02*
Y628095D01*
X941059Y638810D02*
X943610Y641360D01*
X884896Y638810D02*
X941059D01*
X848115Y619760D02*
Y626355D01*
X971550Y646580D02*
X980590Y637540D01*
X971550Y646580D02*
Y657310D01*
X977310Y646208D02*
X982168Y641350D01*
X977310Y646208D02*
Y666780D01*
X995680Y648970D02*
X999490Y645160D01*
X967670Y628166D02*
X973536Y622300D01*
X943610Y641360D02*
Y677590D01*
X946740Y680720D01*
X882757Y631283D02*
X886475Y635000D01*
X872798Y631283D02*
X882757D01*
X868680Y627165D02*
X872798Y631283D01*
X868680Y617761D02*
Y627165D01*
X866434Y615515D02*
X868680Y617761D01*
X852361Y615515D02*
X866434D01*
X848115Y619760D02*
X852361Y615515D01*
X946916Y545459D02*
X957705Y534670D01*
X1061196Y474980D02*
X1090930Y504715D01*
X1059617Y478790D02*
X1087120Y506293D01*
X1079418Y524341D02*
X1083310Y520449D01*
Y507871D02*
Y520449D01*
X1067988Y519607D02*
Y534493D01*
Y519607D02*
X1071880Y515715D01*
Y512605D02*
Y515715D01*
X1071798Y521185D02*
X1075690Y517293D01*
Y511027D02*
Y517293D01*
X1075608Y522763D02*
X1079500Y518871D01*
Y509449D02*
Y518871D01*
X1058039Y482600D02*
X1083310Y507871D01*
X1083655Y650428D02*
X1083656Y650428D01*
X1083655Y597969D02*
Y650428D01*
X1109806Y555654D02*
X1127580Y537880D01*
X1109806Y555654D02*
X1109806D01*
X1049166Y610905D02*
Y665333D01*
X1042310Y612373D02*
Y657310D01*
X962660Y628166D02*
X967670D01*
X1014372Y522129D02*
Y523364D01*
X932666Y474980D02*
X1061196D01*
X931088Y478790D02*
X1059617D01*
X929509Y482600D02*
X1058039D01*
X1056461Y486410D02*
X1079500Y509449D01*
X927931Y486410D02*
X1056461D01*
X1054883Y490220D02*
X1075690Y511027D01*
X1053305Y494030D02*
X1071880Y512605D01*
X926353Y490220D02*
X1054883D01*
X924775Y494030D02*
X1053305D01*
X971310Y672780D02*
X977310Y666780D01*
X995680Y648970D02*
Y665480D01*
X1001550Y657310D02*
X1004570Y654290D01*
X1047866Y497840D02*
X1058514Y508488D01*
X899721Y485140D02*
X920041Y505460D01*
X855749Y485140D02*
X899721D01*
X836685Y504203D02*
X855749Y485140D01*
X901299Y481330D02*
X921619Y501650D01*
X868680Y437935D02*
X924775Y494030D01*
X872490Y436357D02*
X926353Y490220D01*
X876300Y434779D02*
X927931Y486410D01*
X880110Y433201D02*
X929509Y482600D01*
X883920Y431622D02*
X931088Y478790D01*
X887730Y430044D02*
X932666Y474980D01*
X854171Y481330D02*
X901299D01*
X832875Y502625D02*
X854171Y481330D01*
X923197Y497840D02*
X1047866D01*
X902877Y477520D02*
X923197Y497840D01*
X852592Y477520D02*
X902877D01*
X829065Y501047D02*
X852592Y477520D01*
X837799Y631283D02*
X844305Y624777D01*
Y601672D02*
Y624777D01*
X833120Y448310D02*
X861060D01*
X609026Y351790D02*
X735330D01*
X730849Y358363D02*
X849435D01*
X728087Y355600D02*
X730849Y358363D01*
X615673Y355600D02*
X728087D01*
X612910Y358363D02*
X615673Y355600D01*
X729271Y362173D02*
X847857D01*
X726508Y359410D02*
X729271Y362173D01*
X617251Y359410D02*
X726508D01*
X614488Y362173D02*
X617251Y359410D01*
X724930Y363220D02*
X727693Y365983D01*
X618829Y363220D02*
X724930D01*
X616066Y365983D02*
X618829Y363220D01*
X723352Y367030D02*
X726115Y369793D01*
X620407Y367030D02*
X723352D01*
X617644Y369793D02*
X620407Y367030D01*
X721774Y370840D02*
X724537Y373603D01*
X646688Y370840D02*
X721774D01*
X720196Y374650D02*
X722959Y377413D01*
X697230Y374650D02*
X720196D01*
X692556Y379324D02*
X697230Y374650D01*
X762360Y482800D02*
X807920D01*
X858427Y622300D02*
X858520D01*
X849614Y657310D02*
Y702310D01*
X850873Y703569D01*
X877036D01*
X885190Y655268D02*
Y759460D01*
X889000Y690880D02*
X897530Y699410D01*
X889000Y653690D02*
Y690880D01*
X876445Y646523D02*
X885190Y655268D01*
X878023Y642713D02*
X889000Y653690D01*
X879601Y638903D02*
X897530Y656832D01*
Y657810D01*
X871220Y635093D02*
X881179D01*
X884896Y638810D01*
X946740Y680720D02*
X959752D01*
X880110Y422186D02*
Y433201D01*
X876300Y423764D02*
Y434779D01*
X872490Y425343D02*
Y436357D01*
X868680Y426921D02*
Y437935D01*
X887730Y419030D02*
Y430044D01*
X857276Y388576D02*
X887730Y419030D01*
X844966Y392430D02*
X876300Y423764D01*
X843387Y396240D02*
X872490Y425343D01*
X841809Y400050D02*
X868680Y426921D01*
X883920Y420608D02*
Y431622D01*
X853079Y389767D02*
X883920Y420608D01*
X846544Y388620D02*
X880110Y422186D01*
X1340273Y719488D02*
X1437640Y622121D01*
X1338437Y719488D02*
X1340273D01*
X1327325Y730600D02*
X1338437Y719488D01*
X1323955Y730600D02*
X1327325D01*
X1312843Y741712D02*
X1323955Y730600D01*
X1309707Y741712D02*
X1312843D01*
X1302814Y748605D02*
X1309707Y741712D01*
X1299678Y748605D02*
X1302814D01*
X1292785Y755497D02*
X1299678Y748605D01*
X1289649Y755497D02*
X1292785D01*
X1282757Y762390D02*
X1289649Y755497D01*
X1278739Y762390D02*
X1282757D01*
X1272381Y768748D02*
X1278739Y762390D01*
X1268363Y768748D02*
X1272381D01*
X1262005Y775107D02*
X1268363Y768748D01*
X1257987Y775107D02*
X1262005D01*
X1251629Y781465D02*
X1257987Y775107D01*
X1246741Y781465D02*
X1251629D01*
X1240935Y787272D02*
X1246741Y781465D01*
X1236047Y787272D02*
X1240935D01*
X1230240Y793078D02*
X1236047Y787272D01*
X1225352Y793078D02*
X1230240D01*
X1219546Y798885D02*
X1225352Y793078D01*
X1213801Y798885D02*
X1219546D01*
X1208562Y804124D02*
X1213801Y798885D01*
X1202817Y804124D02*
X1208562D01*
X1197578Y809363D02*
X1202817Y804124D01*
X1191834Y809363D02*
X1197578D01*
X1186595Y814602D02*
X1191834Y809363D01*
X1180009Y814602D02*
X1186595D01*
X1175352Y819259D02*
X1180009Y814602D01*
X1168766Y819259D02*
X1175352D01*
X1164109Y823915D02*
X1168766Y819259D01*
X1157523Y823915D02*
X1164109D01*
X1152866Y828572D02*
X1157523Y823915D01*
X1145457Y828572D02*
X1152866D01*
X1141395Y832635D02*
X1145457Y828572D01*
X1133986Y832635D02*
X1141395D01*
X1129924Y836697D02*
X1133986Y832635D01*
X1122515Y836697D02*
X1129924D01*
X646320Y463616D02*
X651851Y469147D01*
X646320Y408928D02*
Y463616D01*
Y408928D02*
X652595Y402653D01*
X589280Y574291D02*
Y586510D01*
X499028Y604702D02*
X500516Y606190D01*
X507068Y520077D02*
Y538824D01*
X511299Y606190D02*
X513259Y608150D01*
X500516Y606190D02*
X511299D01*
X513259Y608150D02*
X530568D01*
X706416Y526089D02*
Y608380D01*
X705930Y525603D02*
X706416Y526089D01*
X705930Y516945D02*
Y525603D01*
X689895Y500910D02*
X705930Y516945D01*
X710226Y524511D02*
Y609958D01*
X709740Y524025D02*
X710226Y524511D01*
X709740Y515367D02*
Y524025D01*
X691474Y497100D02*
X709740Y515367D01*
X714036Y522933D02*
Y611536D01*
X713550Y522447D02*
X714036Y522933D01*
X713550Y513873D02*
Y522447D01*
Y513873D02*
X713592Y513831D01*
Y513831D02*
Y513831D01*
X693052Y493290D02*
X713592Y513831D01*
X717846Y521355D02*
Y613114D01*
X717360Y520869D02*
X717846Y521355D01*
X717360Y515451D02*
Y520869D01*
Y515451D02*
X717846Y514965D01*
Y512696D02*
Y514965D01*
X725221Y547370D02*
Y594110D01*
X702606Y547211D02*
Y606801D01*
X698796Y569719D02*
Y605223D01*
X691547Y562470D02*
X698796Y569719D01*
X595791Y562188D02*
Y567802D01*
Y593022D02*
Y603299D01*
X589280Y586510D02*
X595791Y593022D01*
Y603299D02*
X600262Y607770D01*
X542290Y604210D02*
X547810Y609730D01*
X566275D01*
X527068Y579767D02*
X542290Y594989D01*
Y604210D01*
X446696Y624914D02*
X458468Y636686D01*
X498601Y644306D02*
X502422Y648126D01*
X479644Y644306D02*
X498601D01*
X462204Y661746D02*
X479644Y644306D01*
X500179Y640496D02*
X504000Y644316D01*
X478066Y640496D02*
X500179D01*
X465782Y652780D02*
X478066Y640496D01*
X431974Y580917D02*
X446696Y595639D01*
X501757Y636686D02*
X505578Y640506D01*
X458468Y636686D02*
X501757D01*
X726137Y638903D02*
X879601D01*
X627526Y579388D02*
X643890Y595752D01*
X674730Y625214D02*
X715090Y665573D01*
X649493Y625214D02*
X674730D01*
X715090Y665573D02*
X778704D01*
X1294160Y378490D02*
X1299180Y373470D01*
Y293370D02*
Y373470D01*
X557128Y381890D02*
Y401153D01*
X548640Y480096D02*
X552900Y484356D01*
X548640Y408054D02*
Y480096D01*
Y408054D02*
X554041Y402653D01*
X434798Y487752D02*
X444865Y477685D01*
Y453445D02*
Y477685D01*
X432379Y440960D02*
X444865Y453445D01*
X413649Y402683D02*
X415149Y404183D01*
X413649Y383420D02*
Y402683D01*
X406215Y470677D02*
X437149D01*
X400050Y411766D02*
Y464512D01*
X406215Y470677D01*
X400050Y411766D02*
X407633Y404183D01*
X454588Y469797D02*
X483722D01*
X452182Y448803D02*
Y467390D01*
X449580Y446202D02*
X452182Y448803D01*
Y467390D02*
X454588Y469797D01*
X449580Y410468D02*
Y446202D01*
Y410468D02*
X456745Y403303D01*
X503227Y469527D02*
X532244D01*
X495218Y422286D02*
X497197Y420307D01*
Y410263D02*
Y420307D01*
Y410263D02*
X504428Y403033D01*
X578398Y440310D02*
X587084D01*
X582740Y490267D02*
X592492Y480514D01*
X587084Y440310D02*
X592492Y445719D01*
Y480514D01*
X570493Y479776D02*
Y483380D01*
X552900Y484356D02*
Y484367D01*
X554990Y486457D01*
X567416D01*
X570493Y483380D01*
X495924Y490267D02*
X582740D01*
X629202Y440310D02*
X642242Y453350D01*
X584318Y494077D02*
X592635Y485760D01*
X497502Y494077D02*
X584318D01*
X675886Y440310D02*
X691813Y456237D01*
X585896Y497887D02*
X594213Y489570D01*
X499080Y497887D02*
X585896D01*
X587475Y501697D02*
X595791Y493380D01*
X500658Y501697D02*
X587475D01*
X589053Y505507D02*
X597370Y497190D01*
X502236Y505507D02*
X589053D01*
X590128Y509820D02*
X598948Y501000D01*
X548723Y509820D02*
X590128D01*
X543918Y514625D02*
X548723Y509820D01*
X570493Y479776D02*
X582952Y467316D01*
X620840Y702428D02*
Y741870D01*
X620342Y701930D02*
X620840Y702428D01*
X613410Y698859D02*
Y743912D01*
X609600Y695204D02*
Y725360D01*
X617059Y695210D02*
X626707D01*
X609716Y691400D02*
X654186D01*
X613410Y698859D02*
X617059Y695210D01*
X652714Y699836D02*
Y725752D01*
Y699836D02*
X652780Y699770D01*
X654186Y691400D02*
X659320Y696534D01*
Y712294D01*
X640080Y738386D02*
Y745490D01*
X647176Y746595D02*
X651901Y751320D01*
X647176Y736678D02*
Y746595D01*
X629920Y736600D02*
Y745490D01*
X609540Y753170D02*
X620840Y741870D01*
X640080Y738386D02*
X652714Y725752D01*
X629920Y736600D02*
X642620Y723900D01*
X651901Y751320D02*
X669342D01*
X664210Y718242D02*
Y744220D01*
X664179Y718211D02*
X664210Y718242D01*
X669769Y751747D02*
X670438Y751078D01*
X669342Y751320D02*
X669769Y751747D01*
X670802Y693360D02*
X680040D01*
X642620Y706120D02*
Y723900D01*
X656524Y715090D02*
X659320Y712294D01*
X660334Y716668D02*
X663130Y713872D01*
Y701032D02*
Y713872D01*
Y701032D02*
X670802Y693360D01*
X664179Y718211D02*
X666940Y715450D01*
Y702610D02*
Y715450D01*
Y702610D02*
X678790D01*
X680040Y701360D01*
X647176Y736678D02*
X656524Y727330D01*
Y715090D02*
Y727330D01*
X654050Y739972D02*
X660334Y733688D01*
Y716668D02*
Y733688D01*
X607756Y693360D02*
X609716Y691400D01*
X607962Y749360D02*
X613410Y743912D01*
X595040Y749360D02*
X607962D01*
X521822Y595852D02*
Y596149D01*
X518537Y592567D02*
X521822Y595852D01*
X461010Y661746D02*
X462204D01*
X590171Y562420D02*
X594007Y558584D01*
Y520626D02*
Y558584D01*
Y520626D02*
X603310Y511324D01*
X808990Y519430D02*
X811720Y516700D01*
X807920Y482800D02*
X811720Y486600D01*
Y516700D01*
X805180Y504840D02*
Y507880D01*
X797560Y515500D02*
X805180Y507880D01*
X642242Y453350D02*
Y480968D01*
X637449Y485760D02*
X642242Y480968D01*
X651851Y469147D02*
X679386D01*
X691813Y456237D02*
Y479703D01*
X685846Y485670D02*
X691813Y479703D01*
X642927Y485670D02*
X685846D01*
X445535Y367671D02*
X454843Y358363D01*
X378117Y487752D02*
X434798D01*
X495218Y443975D02*
X500380Y449137D01*
X495218Y422286D02*
Y443975D01*
X500380Y449137D02*
Y466680D01*
X493387Y371950D02*
X503164Y362173D01*
X480222Y440960D02*
X486815D01*
X488408Y487006D02*
X496570Y478844D01*
Y450715D02*
Y478844D01*
X486815Y440960D02*
X496570Y450715D01*
X500380Y466680D02*
X503227Y469527D01*
X442547Y652780D02*
X465782D01*
X422069Y632302D02*
X442547Y652780D01*
X486377Y664210D02*
Y665513D01*
X487680Y664210D01*
X482405Y669485D02*
X486377Y665513D01*
X447937Y572038D02*
X450506Y574607D01*
X447937Y561796D02*
Y572038D01*
Y561796D02*
X449345Y560388D01*
Y546973D02*
Y560388D01*
Y546973D02*
X455723Y540594D01*
X478546Y580037D02*
X495218Y596710D01*
Y624758D02*
X507156Y636696D01*
X495218Y596710D02*
Y624758D01*
X535548Y648126D02*
X546100Y658678D01*
X502422Y648126D02*
X535548D01*
X537126Y644316D02*
X549910Y657100D01*
X504000Y644316D02*
X537126D01*
X507156Y636696D02*
X670048D01*
X710355Y677003D01*
X505578Y640506D02*
X668470D01*
X708777Y680813D01*
X418577Y643096D02*
X421757D01*
X379730Y604249D02*
X418577Y643096D01*
X379730Y513080D02*
Y604249D01*
X416999Y646906D02*
X420179D01*
X375920Y605827D02*
X416999Y646906D01*
X375920Y511502D02*
Y605827D01*
X415420Y650716D02*
X418601D01*
X372110Y607406D02*
X415420Y650716D01*
X372110Y509924D02*
Y607406D01*
X528744Y440690D02*
X536172D01*
X413842Y654526D02*
X417023D01*
X368300Y608984D02*
X413842Y654526D01*
X368300Y508345D02*
Y608984D01*
X412264Y658336D02*
X415444D01*
X364490Y610562D02*
X412264Y658336D01*
X364490Y506767D02*
Y610562D01*
X410686Y662146D02*
X413866D01*
X360680Y612140D02*
X410686Y662146D01*
X360680Y505189D02*
Y612140D01*
X446696Y595639D02*
Y624914D01*
X646320Y573231D02*
Y589335D01*
Y573231D02*
X646620Y572931D01*
Y566717D02*
Y572931D01*
X646170Y566267D02*
X646620Y566717D01*
X514519Y672910D02*
X524510Y682901D01*
X504866Y672910D02*
X514519D01*
X524510Y682901D02*
Y683260D01*
X503406Y674370D02*
X504866Y672910D01*
X511810Y679450D02*
Y698431D01*
X488950Y688826D02*
X503406Y674370D01*
X496849Y708019D02*
X502222D01*
X511810Y698431D01*
X488950Y688826D02*
Y701040D01*
X482405Y669485D02*
Y693559D01*
X489590Y737870D02*
X520868D01*
X491168Y734060D02*
X522446D01*
X492747Y730250D02*
X524024D01*
X494325Y726440D02*
X525602D01*
X495903Y722630D02*
X527180D01*
X497481Y718820D02*
X529195D01*
X474980Y664912D02*
X485842Y654050D01*
X421757Y643096D02*
X497481Y718820D01*
X420179Y646906D02*
X495903Y722630D01*
X418601Y650716D02*
X494325Y726440D01*
X417023Y654526D02*
X492747Y730250D01*
X415444Y658336D02*
X491168Y734060D01*
X413866Y662146D02*
X489590Y737870D01*
X474980Y664912D02*
Y687070D01*
X485842Y654050D02*
X488270D01*
X646170Y554162D02*
X648368Y551964D01*
X643890Y619611D02*
X649493Y625214D01*
X643890Y595752D02*
Y619611D01*
X592635Y485760D02*
X637449D01*
X594213Y489570D02*
X639027D01*
X595791Y493380D02*
X640605D01*
X597370Y497190D02*
X642184D01*
X598948Y501000D02*
X643762D01*
X600526Y504810D02*
X645340D01*
X590197Y515139D02*
X600526Y504810D01*
X687934Y784860D02*
X693420Y779374D01*
Y763665D02*
Y779374D01*
Y763665D02*
X697625Y759460D01*
X790248Y771852D02*
Y790220D01*
Y771852D02*
X797560Y764540D01*
X745342Y762000D02*
X785439D01*
X739448Y767894D02*
X745342Y762000D01*
X739448Y767894D02*
Y790220D01*
X785439Y762000D02*
X792551Y754888D01*
X797838D01*
X783861Y758190D02*
X807441Y734610D01*
X736600Y758190D02*
X783861D01*
X782283Y754380D02*
X803631Y733032D01*
X718562Y754380D02*
X782283D01*
X780704Y750570D02*
X799821Y731453D01*
X726206Y750570D02*
X780704D01*
X779126Y746760D02*
X796011Y729875D01*
X727784Y746760D02*
X779126D01*
X777548Y742950D02*
X792201Y728297D01*
X729362Y742950D02*
X777548D01*
X775970Y739140D02*
X788391Y726719D01*
X731630Y739140D02*
X775970D01*
X708777Y680813D02*
X772392D01*
X788391Y696813D01*
X710355Y677003D02*
X773970D01*
X792201Y695234D01*
X454040Y608420D02*
X482046D01*
X452080Y606460D02*
X454040Y608420D01*
X451994Y606460D02*
X452080D01*
X450506Y604972D02*
X451994Y606460D01*
X450506Y574607D02*
Y604972D01*
X443230Y577850D02*
X444449D01*
X444127Y560218D02*
X445535Y558810D01*
Y518814D02*
Y558810D01*
Y518814D02*
X452095Y512254D01*
X441725Y513154D02*
X448823Y506057D01*
X399136Y548738D02*
X406400Y541474D01*
X411974Y539974D02*
X413474Y541474D01*
X442689Y506802D02*
X447244Y502247D01*
X386008Y506802D02*
X442689D01*
X441111Y502992D02*
X445666Y498437D01*
X384430Y502992D02*
X441111D01*
X439533Y499182D02*
X444088Y494627D01*
X382852Y499182D02*
X439533D01*
X437954Y495372D02*
X442510Y490816D01*
X381274Y495372D02*
X437954D01*
X436376Y491562D02*
X440932Y487006D01*
X379696Y491562D02*
X436376D01*
X455723Y540594D02*
X459533D01*
X444127Y560218D02*
Y577528D01*
X494883Y520520D02*
Y557724D01*
Y520520D02*
X501746Y513657D01*
X491074Y561534D02*
X494883Y557724D01*
X499028Y543826D02*
X502445Y540410D01*
X499028Y543826D02*
Y604702D01*
X458546Y539607D02*
X459533Y540594D01*
X458546Y522317D02*
Y539607D01*
X694630Y489480D02*
X717846Y512696D01*
X649240Y500910D02*
X689895D01*
X647662Y497100D02*
X691474D01*
X646084Y493290D02*
X693052D01*
X644505Y489480D02*
X694630D01*
X659726Y508530D02*
X665250Y514054D01*
X652396Y508530D02*
X659726D01*
X641729Y508620D02*
X646918D01*
X628567Y521781D02*
X641729Y508620D01*
X618110Y511324D02*
X628567Y521781D01*
X603310Y511324D02*
X618110D01*
X644737Y512430D02*
X648496D01*
X642360Y514807D02*
X644737Y512430D01*
X648496D02*
X652396Y508530D01*
X639027Y489570D02*
X642927Y485670D01*
X640605Y493380D02*
X644505Y489480D01*
X642184Y497190D02*
X646084Y493290D01*
X643762Y501000D02*
X647662Y497100D01*
X645340Y504810D02*
X649240Y500910D01*
X646918Y508620D02*
X650818Y504720D01*
X666000D02*
X674360Y513080D01*
X650818Y504720D02*
X666000D01*
X646320Y589335D02*
X648368Y591384D01*
Y541214D02*
Y551964D01*
Y591384D02*
Y605713D01*
X497877Y509866D02*
X502236Y505507D01*
X495557Y509866D02*
X497877D01*
X496298Y506057D02*
X500658Y501697D01*
X448823Y506057D02*
X496298D01*
X494720Y502247D02*
X499080Y497887D01*
X447244Y502247D02*
X494720D01*
X493142Y498437D02*
X497502Y494077D01*
X445666Y498437D02*
X493142D01*
X491564Y494627D02*
X495924Y490267D01*
X444088Y494627D02*
X491564D01*
X539757Y486457D02*
X544777Y481437D01*
X494345Y486457D02*
X539757D01*
X489986Y490816D02*
X494345Y486457D01*
X442510Y490816D02*
X489986D01*
X501746Y513657D02*
X524860D01*
X528298Y517096D01*
X491073Y514350D02*
X495557Y509866D01*
X502445Y540410D02*
X509698D01*
X484060Y561534D02*
X491074D01*
X481330Y564264D02*
X484060Y561534D01*
X518537Y572220D02*
X524337Y566420D01*
X518537Y572220D02*
Y592567D01*
X507068Y538824D02*
X508568Y540324D01*
X569703Y607770D02*
X580223D01*
X567853Y605920D02*
X569703Y607770D01*
X549389Y605920D02*
X567853D01*
X547728Y604260D02*
X549389Y605920D01*
X555452Y538444D02*
X556953Y539944D01*
X444127Y577528D02*
X444449Y577850D01*
X360680Y505189D02*
X378117Y487752D01*
X579905Y733360D02*
X595040D01*
X578625Y734640D02*
X579905Y733360D01*
X545015Y734640D02*
X578625D01*
X529195Y718820D02*
X545015Y734640D01*
X525602Y726440D02*
X580212Y781050D01*
X524024Y730250D02*
X578634Y784860D01*
X522446Y734060D02*
X577056Y788670D01*
X520868Y737870D02*
X575478Y792480D01*
X624147D02*
X641540Y775087D01*
X575478Y792480D02*
X624147D01*
X558260Y709360D02*
X595040D01*
X555648Y701360D02*
X595040D01*
X549910Y695622D02*
X555648Y701360D01*
X549910Y657100D02*
Y695622D01*
X546100Y697200D02*
X558260Y709360D01*
X546100Y658678D02*
Y697200D01*
X364490Y506767D02*
X379696Y491562D01*
X368300Y508345D02*
X381274Y495372D01*
X372110Y509924D02*
X382852Y499182D01*
X375920Y511502D02*
X384430Y502992D01*
X379730Y513080D02*
X386008Y506802D01*
X527180Y722630D02*
X543110Y738560D01*
X562520D01*
X562520Y738560D01*
X578625D01*
X581425Y741360D01*
X595040D01*
X440932Y487006D02*
X488408D01*
X617540Y763860D02*
Y775596D01*
X612086Y781050D02*
X617540Y775596D01*
X580212Y781050D02*
X612086D01*
X633540Y763860D02*
Y774880D01*
X619750Y788670D02*
X633540Y774880D01*
X577056Y788670D02*
X619750D01*
X625540Y763860D02*
Y774881D01*
X615561Y784860D02*
X625540Y774881D01*
X578634Y784860D02*
X615561D01*
X571813Y725360D02*
X595040D01*
Y693360D02*
X607756D01*
X680040Y749360D02*
Y751078D01*
X544777Y449295D02*
Y481437D01*
X536172Y440690D02*
X544777Y449295D01*
X641540Y763860D02*
Y775087D01*
X654210Y520967D02*
Y539364D01*
X790033Y631283D02*
X837799D01*
X773430Y614680D02*
X790033Y631283D01*
X839377Y635093D02*
X848115Y626355D01*
X783683Y635093D02*
X839377D01*
X770890Y622300D02*
X783683Y635093D01*
X724558Y642713D02*
X878023D01*
X722980Y646523D02*
X876445D01*
X812637Y650333D02*
X819614Y657310D01*
X721402Y650333D02*
X812637D01*
X783439Y654143D02*
X819614Y690318D01*
X719824Y654143D02*
X783439D01*
X819614Y690318D02*
Y725294D01*
X811251Y687344D02*
Y757447D01*
X781861Y657953D02*
X811251Y687344D01*
X718246Y657953D02*
X781861D01*
X807441Y688922D02*
Y734610D01*
X780282Y661763D02*
X807441Y688922D01*
X716668Y661763D02*
X780282D01*
X803631Y690500D02*
Y733032D01*
X778704Y665573D02*
X803631Y690500D01*
X799821Y692078D02*
Y731453D01*
X777126Y669383D02*
X799821Y692078D01*
X713512Y669383D02*
X777126D01*
X673205Y629076D02*
X713512Y669383D01*
X711933Y673193D02*
X775548D01*
X671627Y632886D02*
X711933Y673193D01*
X796011Y693656D02*
Y729875D01*
X775548Y673193D02*
X796011Y693656D01*
X792201Y695234D02*
Y728297D01*
X576722Y579388D02*
X591820Y594485D01*
X592341Y623933D02*
X601294Y632886D01*
X566275Y609730D02*
X580477Y623933D01*
X592341D01*
X709850Y717360D02*
X731630Y739140D01*
X680040Y717360D02*
X709850D01*
X788391Y696813D02*
Y726719D01*
X601294Y632886D02*
X671627D01*
X602872Y629076D02*
X673205D01*
X811251Y757447D02*
X819614Y765810D01*
X829065Y501047D02*
Y558120D01*
X832875Y502625D02*
Y559698D01*
X836685Y504203D02*
Y561277D01*
X796662Y606688D02*
X854710Y548640D01*
X791928Y595258D02*
X829065Y558120D01*
X745900Y595258D02*
X791928D01*
X793506Y599068D02*
X832875Y559698D01*
X752212Y599068D02*
X793506D01*
X795084Y602878D02*
X836685Y561277D01*
X758562Y602878D02*
X795084D01*
X739140Y622300D02*
X758562Y602878D01*
X728980Y622300D02*
X752212Y599068D01*
X764912Y606688D02*
X796662D01*
X749300Y622300D02*
X764912Y606688D01*
X995310Y735360D02*
X1002030Y742080D01*
X995310Y715380D02*
Y735360D01*
X1002030Y742080D02*
Y767640D01*
X995310Y715380D02*
X1002030Y708660D01*
X994970Y774700D02*
X1002030Y767640D01*
X979170Y774700D02*
X994970D01*
X1065530Y736230D02*
X1072496Y743196D01*
X1065530Y717550D02*
Y736230D01*
X1072496Y743196D02*
Y770274D01*
X1065530Y717550D02*
X1072857Y710223D01*
X1072310Y716158D02*
X1076667Y711801D01*
Y674077D02*
Y711801D01*
X1042310Y672190D02*
X1049166Y665333D01*
X1083310Y690880D02*
X1090994Y683196D01*
X847857Y362173D02*
X853079Y367394D01*
X597947Y369793D02*
X617644D01*
X551017Y365983D02*
X616066D01*
X503164Y362173D02*
X614488D01*
X454843Y358363D02*
X612910D01*
X593496Y374244D02*
X597947Y369793D01*
X543966Y373034D02*
X551017Y365983D01*
X849435Y358363D02*
X857276Y366204D01*
X591820Y618024D02*
X602872Y629076D01*
X711772Y725360D02*
X729362Y742950D01*
X680040Y725360D02*
X711772D01*
X1083310Y690880D02*
Y692060D01*
X1079846Y664072D02*
X1083310Y667536D01*
X655710Y540864D02*
Y541214D01*
X648368Y605713D02*
X650426Y607770D01*
X740840Y711860D02*
X742230D01*
X731072D02*
X740840D01*
X728573Y709360D02*
X731072Y711860D01*
X680040Y709360D02*
X728573D01*
X995680Y665480D02*
X1002030Y671830D01*
X697625Y759460D02*
X713482D01*
X718562Y754380D01*
X413879Y404183D02*
X415149D01*
X407633D02*
X413879D01*
X1098550Y426720D02*
X1125220D01*
X1126360Y425580D01*
X1437640Y452330D02*
Y622121D01*
X927530Y655040D02*
Y657810D01*
Y655040D02*
X935990Y646580D01*
X774700Y721170D02*
Y721360D01*
X762840D02*
X774700D01*
X663492Y784860D02*
X687934D01*
X654050Y739972D02*
Y741159D01*
X657540Y778908D02*
X663492Y784860D01*
X657540Y763860D02*
Y778908D01*
X607756Y693360D02*
X609600Y695204D01*
X609540Y753170D02*
Y763860D01*
X595040Y725360D02*
X609600D01*
X568960Y340360D02*
X585560Y323760D01*
Y293370D02*
Y323760D01*
X452095Y512254D02*
X473964D01*
X458546Y580037D02*
Y597420D01*
X478546Y516836D02*
Y522317D01*
X473964Y512254D02*
X478546Y516836D01*
X528298Y517096D02*
Y523197D01*
X674360Y513080D02*
Y521117D01*
Y521970D01*
X628756Y655320D02*
X629548Y656112D01*
X645710D01*
X665540Y656282D02*
X665710Y656112D01*
X665540Y656282D02*
Y678860D01*
X587850Y654050D02*
Y659922D01*
X617540Y667720D02*
Y678860D01*
X1072310Y775970D02*
X1076306Y771974D01*
X1065530Y777240D02*
X1072496Y770274D01*
X1072310Y775970D02*
Y792430D01*
X706120Y788670D02*
X736600Y758190D01*
X662632Y788670D02*
X706120D01*
X649540Y775578D02*
X662632Y788670D01*
X649540Y763860D02*
Y775578D01*
X680040Y733360D02*
X714384D01*
X680040Y741360D02*
X716995D01*
X726206Y750570D01*
X714384Y733360D02*
X727784Y746760D01*
X591820Y594485D02*
Y618024D01*
X556953Y598270D02*
X559222Y596000D01*
X555452Y579388D02*
X559222Y583158D01*
Y596000D01*
X558628Y444500D02*
Y459647D01*
Y444500D02*
X562168Y440960D01*
X675886Y440310D02*
Y440310D01*
X650426Y607770D02*
X678980D01*
X1222022Y476250D02*
X1228090Y482318D01*
Y495300D01*
X1223210Y500180D02*
X1228090Y495300D01*
X1072310Y657310D02*
X1072642Y656978D01*
X1001310Y718080D02*
Y726450D01*
Y718080D02*
X1007110Y712280D01*
Y669426D02*
Y712280D01*
X1001550Y663865D02*
X1007110Y669426D01*
X1001550Y657310D02*
Y663865D01*
X1005840Y740502D02*
Y779780D01*
X1001310Y784310D02*
X1005840Y779780D01*
X1001310Y784310D02*
Y792190D01*
Y735972D02*
X1005840Y740502D01*
X1001310Y726450D02*
Y735972D01*
Y792190D02*
X1001550Y792430D01*
X1002030Y671830D02*
Y708660D01*
X971310Y672780D02*
Y726450D01*
X1076306Y741618D02*
Y771974D01*
X1047390Y777240D02*
X1065530D01*
X1072310Y737622D02*
X1076306Y741618D01*
X1072310Y726450D02*
Y737622D01*
X1072310Y726450D02*
X1072310Y726450D01*
X1072310Y716158D02*
Y726450D01*
X1042310Y672190D02*
Y726450D01*
X849614Y792430D02*
X849614Y792430D01*
X927530Y726450D02*
Y792430D01*
Y657810D02*
Y726450D01*
X971550Y782320D02*
Y792430D01*
Y782320D02*
X979170Y774700D01*
X1042310Y782320D02*
Y792430D01*
Y782320D02*
X1047390Y777240D01*
X857276Y366204D02*
Y388576D01*
X853079Y367394D02*
Y389767D01*
X819614Y765810D02*
Y792430D01*
X897530Y771800D02*
Y792430D01*
X885190Y759460D02*
X897530Y771800D01*
Y699410D02*
Y726450D01*
X652595Y402653D02*
X658656D01*
X604335Y402653D02*
X610701D01*
X599698Y407290D02*
X604335Y402653D01*
X599698Y407290D02*
Y464440D01*
X604405Y469147D01*
X632701D01*
X554041Y402653D02*
X558628D01*
X504428Y403033D02*
X510244D01*
X456745Y403303D02*
X461722D01*
X648368Y541214D02*
X655710D01*
X602648Y539944D02*
X609026D01*
X600262Y607770D02*
X631026D01*
X677156Y381890D02*
X680656Y385390D01*
X657156Y401153D02*
X658656Y402653D01*
X657156Y381890D02*
Y401153D01*
X609202Y401153D02*
X610701Y402653D01*
X609202Y381890D02*
Y401153D01*
X557128Y401153D02*
X558628Y402653D01*
X508744Y401533D02*
X510244Y403033D01*
X508744Y382270D02*
Y401533D01*
X460222Y401803D02*
X461722Y403303D01*
X460222Y382540D02*
Y401803D01*
X655886Y458147D02*
X657386Y459647D01*
X655886Y440310D02*
Y458147D01*
X609202D02*
X610701Y459647D01*
X609202Y440310D02*
Y458147D01*
X508744Y458527D02*
X510244Y460027D01*
X508744Y440690D02*
Y458527D01*
X460222Y458796D02*
X461722Y460297D01*
X460222Y440960D02*
Y458796D01*
X413649Y459677D02*
X415149Y461176D01*
X413649Y441840D02*
Y459677D01*
X607526Y538444D02*
X609026Y539944D01*
X654210Y539364D02*
X655710Y540864D01*
X411974Y598300D02*
X413474Y599800D01*
X411974Y580917D02*
Y598300D01*
X458546Y597420D02*
X460046Y598920D01*
X507068Y597150D02*
X508568Y598650D01*
X507068Y579767D02*
Y597150D01*
X607526Y596770D02*
X609026Y598270D01*
X607526Y579388D02*
Y596770D01*
X655480D02*
X656980Y598270D01*
X655480Y579388D02*
Y596770D01*
X768202Y557800D02*
X793996D01*
X797560Y554236D01*
Y515500D02*
Y554236D01*
X805180Y519430D02*
X808990D01*
X562610Y692230D02*
X562610Y692230D01*
X332740Y340360D02*
X458470D01*
X467360Y331470D01*
Y293370D02*
Y331470D01*
X765310Y614680D02*
X773430D01*
X760730Y619260D02*
X765310Y614680D01*
X760730Y619260D02*
Y622300D01*
X680040Y749360D02*
X680140Y749460D01*
X707390D01*
X563740Y693360D02*
X595040D01*
X585560Y293370D02*
X585560Y293370D01*
D16*
X714906Y830070D02*
D03*
X740306Y795070D02*
D03*
X765706Y830070D02*
D03*
X791106Y795070D02*
D03*
D19*
X562610Y692230D02*
D03*
Y672230D02*
D03*
X570573Y726600D02*
D03*
Y746600D02*
D03*
X707390Y749460D02*
D03*
Y769460D02*
D03*
D26*
X567850Y654050D02*
D03*
X587850D02*
D03*
X461576Y441840D02*
D03*
X481576D02*
D03*
X674360Y581283D02*
D03*
X654360D02*
D03*
X657156Y440960D02*
D03*
X677156D02*
D03*
X611702Y440960D02*
D03*
X631702D02*
D03*
X559366Y441840D02*
D03*
X579366D02*
D03*
X511244D02*
D03*
X531244D02*
D03*
X508298Y581283D02*
D03*
X528298D02*
D03*
X508744Y382270D02*
D03*
X528744D02*
D03*
X412379Y383420D02*
D03*
X432379D02*
D03*
X508298Y523197D02*
D03*
X528298D02*
D03*
X458546Y522317D02*
D03*
X478546D02*
D03*
X410704Y523197D02*
D03*
X430704D02*
D03*
X558398Y381890D02*
D03*
X578398D02*
D03*
X654360Y521970D02*
D03*
X674360D02*
D03*
X608756D02*
D03*
X628756D02*
D03*
X645480Y658052D02*
D03*
X665480D02*
D03*
X559222Y521970D02*
D03*
X579222D02*
D03*
X628830Y581283D02*
D03*
X608830D02*
D03*
X412379Y440960D02*
D03*
X432379D02*
D03*
X559222Y581283D02*
D03*
X579222D02*
D03*
X458630D02*
D03*
X478630D02*
D03*
X460222Y382540D02*
D03*
X480222D02*
D03*
X657156Y381890D02*
D03*
X677156D02*
D03*
X609202Y381890D02*
D03*
X629202D02*
D03*
X411934Y581283D02*
D03*
X431934D02*
D03*
X608971Y655512D02*
D03*
X628971D02*
D03*
D28*
X1200790Y488000D02*
D03*
Y463000D02*
D03*
Y438000D02*
D03*
Y413000D02*
D03*
Y513000D02*
D03*
Y538000D02*
D03*
Y563000D02*
D03*
Y588000D02*
D03*
X768202Y507800D02*
D03*
Y532800D02*
D03*
Y557800D02*
D03*
Y582800D02*
D03*
Y482800D02*
D03*
Y457800D02*
D03*
Y432800D02*
D03*
Y407800D02*
D03*
D29*
X1147790Y620000D02*
D03*
Y381000D02*
D03*
X821202Y375800D02*
D03*
Y614800D02*
D03*
D30*
X740840Y711860D02*
D03*
Y730860D02*
D03*
X762840Y721360D02*
D03*
X432640Y469010D02*
D03*
X410640Y478510D02*
D03*
Y459510D02*
D03*
X432640Y609300D02*
D03*
X410640Y618800D02*
D03*
Y599800D02*
D03*
X582952Y467316D02*
D03*
X560952Y476816D02*
D03*
Y457816D02*
D03*
X580223Y607770D02*
D03*
X558223Y617270D02*
D03*
Y598270D02*
D03*
X483722Y469280D02*
D03*
X461722Y478780D02*
D03*
Y459780D02*
D03*
X482046Y608420D02*
D03*
X460046Y617920D02*
D03*
Y598920D02*
D03*
X632701Y468630D02*
D03*
X610701Y478130D02*
D03*
Y459130D02*
D03*
X631026Y607770D02*
D03*
X609026Y617270D02*
D03*
Y598270D02*
D03*
X680290Y607770D02*
D03*
X658290Y617270D02*
D03*
Y598270D02*
D03*
X435879Y413683D02*
D03*
X413879Y423183D02*
D03*
Y404183D02*
D03*
X432185Y551180D02*
D03*
X410185Y560680D02*
D03*
Y541680D02*
D03*
X582906Y412153D02*
D03*
X560906Y421653D02*
D03*
Y402653D02*
D03*
X580223Y549445D02*
D03*
X558223Y558945D02*
D03*
Y539944D02*
D03*
X483722Y412803D02*
D03*
X461722Y422303D02*
D03*
Y403303D02*
D03*
X481533Y550094D02*
D03*
X459533Y559594D02*
D03*
Y540594D02*
D03*
X632701Y412153D02*
D03*
X610701Y421653D02*
D03*
Y402653D02*
D03*
X632030Y549445D02*
D03*
X610030Y558945D02*
D03*
Y539944D02*
D03*
X532244Y469010D02*
D03*
X510244Y478510D02*
D03*
Y459510D02*
D03*
X530568Y608150D02*
D03*
X508568Y617650D02*
D03*
Y598650D02*
D03*
X532244Y412533D02*
D03*
X510244Y422033D02*
D03*
Y403033D02*
D03*
X679426Y468630D02*
D03*
X657426Y478130D02*
D03*
Y459130D02*
D03*
X531698Y549910D02*
D03*
X509698Y559410D02*
D03*
Y540410D02*
D03*
X680656Y412153D02*
D03*
X658656Y421653D02*
D03*
Y402653D02*
D03*
X677710Y550714D02*
D03*
X655710Y560215D02*
D03*
Y541214D02*
D03*
D37*
X821960Y293370D02*
D03*
X782560D02*
D03*
X743160D02*
D03*
X703760D02*
D03*
X664360D02*
D03*
X624960D02*
D03*
X585560D02*
D03*
X546160D02*
D03*
X506760D02*
D03*
X467360D02*
D03*
X1338580D02*
D03*
X1299180D02*
D03*
X1259780D02*
D03*
X1220380D02*
D03*
X1180980D02*
D03*
X1141580D02*
D03*
D62*
X1246131Y649030D02*
X1281430Y613731D01*
X744300Y582800D02*
Y585390D01*
X1136802Y412880D02*
X1242190D01*
X736439Y574939D02*
X744300Y582800D01*
X735330Y516170D02*
X736439Y515061D01*
Y574939D01*
X1200114Y513826D02*
X1201060Y512880D01*
X1067137Y545486D02*
Y560606D01*
X1066760Y545110D02*
X1067137Y545486D01*
X1127782Y403860D02*
X1136802Y412880D01*
X1103900Y403860D02*
X1127782D01*
X1082040Y425720D02*
X1103900Y403860D01*
X1082040Y425720D02*
Y441960D01*
X1023260Y604483D02*
Y619664D01*
X1013004Y629920D02*
X1023260Y619664D01*
X976692Y629920D02*
X1013004D01*
X1023260Y604483D02*
X1067137Y560606D01*
X1112012Y513826D02*
X1200114D01*
X953770Y652842D02*
X976692Y629920D01*
X953770Y652842D02*
Y656112D01*
X845795Y469900D02*
X888645D01*
X744300Y585390D02*
X746890Y582800D01*
X737870Y591820D02*
X744300Y585390D01*
X746890Y582800D02*
X768202D01*
X736439Y515061D02*
X743700Y507800D01*
X735330Y406400D02*
Y516170D01*
X792733Y582800D02*
X821445Y554087D01*
X768202Y582800D02*
X792733D01*
X821445Y494250D02*
Y554087D01*
Y494250D02*
X845795Y469900D01*
X1246131Y649030D02*
Y745229D01*
X1221740Y769620D02*
X1246131Y745229D01*
X743700Y507800D02*
X768202D01*
X1201060Y462880D02*
X1244730D01*
X1258570Y449040D01*
X1242190Y412880D02*
X1258570Y429260D01*
Y449040D01*
X1204632Y769620D02*
X1221740D01*
X1258570Y449040D02*
Y461010D01*
X1281430Y483870D01*
Y613731D01*
D63*
X541020Y538480D02*
D03*
X654823Y559910D02*
D03*
X636571Y561340D02*
D03*
X719230Y622337D02*
D03*
X642645Y703580D02*
D03*
X488408Y429134D02*
D03*
X541228Y429453D02*
D03*
X939190Y851740D02*
D03*
X778510Y701740D02*
D03*
X459482Y618068D02*
D03*
X778510Y713740D02*
D03*
X725221Y571500D02*
D03*
X659453Y617390D02*
D03*
X877036Y458147D02*
D03*
X598060Y574783D02*
D03*
X725221Y544780D02*
D03*
Y594110D02*
D03*
X552210Y628826D02*
D03*
X620242Y569253D02*
D03*
X624026Y597420D02*
D03*
X832875Y459780D02*
D03*
X610701Y476860D02*
D03*
X500380Y665320D02*
D03*
X451442Y641350D02*
D03*
X431800Y595630D02*
D03*
X401100Y615950D02*
D03*
X508000Y612730D02*
D03*
X570573Y746600D02*
D03*
X623760Y534670D02*
D03*
X586586Y677003D02*
D03*
X679450Y769090D02*
D03*
X707390Y769460D02*
D03*
X1057310Y708534D02*
D03*
X803910Y828040D02*
D03*
X1243330Y535570D02*
D03*
X1314450Y464513D02*
D03*
X889677Y779780D02*
D03*
X1275080Y717390D02*
D03*
X1310640D02*
D03*
X1414640Y452330D02*
D03*
X1125764Y706930D02*
D03*
X1141580Y330200D02*
D03*
X1088977Y489390D02*
D03*
X1047750Y557530D02*
D03*
X1037695Y557469D02*
D03*
X1219283Y628650D02*
D03*
X1119680Y528511D02*
D03*
X1110221Y538650D02*
D03*
X1099620Y629920D02*
D03*
Y617857D02*
D03*
Y605790D02*
D03*
Y594160D02*
D03*
X1083310Y669290D02*
D03*
X1139726Y678180D02*
D03*
X1151675D02*
D03*
X1032731Y523673D02*
D03*
X1046677Y521823D02*
D03*
X1163908Y706930D02*
D03*
X1050901Y531870D02*
D03*
X1020654Y551180D02*
D03*
Y562463D02*
D03*
Y573621D02*
D03*
Y584856D02*
D03*
X992501Y574160D02*
D03*
X930082Y530567D02*
D03*
X992501Y563880D02*
D03*
Y584856D02*
D03*
Y595603D02*
D03*
X1066783Y545622D02*
D03*
X1112012Y513826D02*
D03*
X936328Y628095D02*
D03*
X925830Y628166D02*
D03*
X994557Y609160D02*
D03*
X1151675Y706930D02*
D03*
X1139726D02*
D03*
X984250Y609160D02*
D03*
X973480D02*
D03*
X962341D02*
D03*
X962660Y628166D02*
D03*
X1006420Y654676D02*
D03*
X946916Y628095D02*
D03*
X1032510Y654290D02*
D03*
X1058514Y508488D02*
D03*
X1003887Y523364D02*
D03*
X1042792Y508488D02*
D03*
X1014372Y523364D02*
D03*
X888645Y469900D02*
D03*
X833120Y448310D02*
D03*
X735330Y351790D02*
D03*
X1109980Y781050D02*
D03*
X858520Y622300D02*
D03*
X877036Y703569D02*
D03*
X959752Y680720D02*
D03*
X861060Y448310D02*
D03*
X588010Y563880D02*
D03*
X620342Y701930D02*
D03*
X629462Y697940D02*
D03*
X652780Y699770D02*
D03*
X640080Y745490D02*
D03*
X654050Y744220D02*
D03*
X629920Y745490D02*
D03*
X664210Y744220D02*
D03*
X867024Y838200D02*
D03*
X521822Y596149D02*
D03*
X461010Y661746D02*
D03*
X805180Y504840D02*
D03*
X422069Y632302D02*
D03*
X511810Y679450D02*
D03*
X496849Y708019D02*
D03*
X488950Y701040D02*
D03*
X482405Y693559D02*
D03*
X474980Y687070D02*
D03*
X566420Y721849D02*
D03*
X487680Y664210D02*
D03*
Y654050D02*
D03*
X797560Y764540D02*
D03*
X443230Y577850D02*
D03*
X629317Y380723D02*
D03*
X1083310Y692060D02*
D03*
Y680720D02*
D03*
X532130Y566928D02*
D03*
X1085958Y527050D02*
D03*
X1098550Y426720D02*
D03*
X1126360Y425580D02*
D03*
X1294160Y378490D02*
D03*
X935990Y646580D02*
D03*
X1082040Y441960D02*
D03*
X797838Y754888D02*
D03*
X524510Y683260D02*
D03*
X568960Y340360D02*
D03*
X430530Y521970D02*
D03*
X728980Y622300D02*
D03*
X739140D02*
D03*
X749300D02*
D03*
X737870Y591820D02*
D03*
X1437640Y452330D02*
D03*
X528726Y381000D02*
D03*
X480466D02*
D03*
X433476D02*
D03*
X578256D02*
D03*
X609026Y351790D02*
D03*
X677316Y381000D02*
D03*
X735330Y406400D02*
D03*
X953770Y656112D02*
D03*
X805180Y519430D02*
D03*
X332740Y340360D02*
D03*
X1204632Y769620D02*
D03*
X1245040Y559160D02*
D03*
X760730Y622300D02*
D03*
X770890D02*
D03*
D64*
X1380720Y603970D02*
D03*
X1252220Y558970D02*
D03*
Y648970D02*
D03*
D65*
X609540Y678860D02*
D03*
X617540D02*
D03*
X625540D02*
D03*
X633540D02*
D03*
X641540D02*
D03*
X649540D02*
D03*
X657540D02*
D03*
X665540D02*
D03*
X665540Y763860D02*
D03*
X657540D02*
D03*
X649540D02*
D03*
X641540D02*
D03*
X633540D02*
D03*
X625540D02*
D03*
X617540D02*
D03*
X609540D02*
D03*
D66*
X680040Y693360D02*
D03*
Y701360D02*
D03*
Y709360D02*
D03*
Y717360D02*
D03*
Y725360D02*
D03*
Y733360D02*
D03*
Y741360D02*
D03*
Y749360D02*
D03*
X595040Y749360D02*
D03*
Y741360D02*
D03*
Y733360D02*
D03*
Y725360D02*
D03*
Y717360D02*
D03*
Y709360D02*
D03*
Y701360D02*
D03*
Y693360D02*
D03*
D67*
X1042310Y657310D02*
D03*
X1072310D02*
D03*
X1042310Y726450D02*
D03*
X1072310D02*
D03*
X1042310Y792430D02*
D03*
X1072310D02*
D03*
X897530D02*
D03*
X927530D02*
D03*
X897530Y726450D02*
D03*
X927530D02*
D03*
X897530Y657810D02*
D03*
X927530D02*
D03*
X971550Y657310D02*
D03*
X1001550D02*
D03*
X971310Y726450D02*
D03*
X1001310D02*
D03*
X971550Y792430D02*
D03*
X1001550D02*
D03*
X819614Y792430D02*
D03*
X849614D02*
D03*
X819614Y725294D02*
D03*
X849614D02*
D03*
X819614Y657310D02*
D03*
X849614D02*
D03*
D68*
X1057310Y659310D02*
D03*
X1057310Y728450D02*
D03*
X1057310Y794430D02*
D03*
X912530D02*
D03*
Y728450D02*
D03*
Y659810D02*
D03*
X986550Y659310D02*
D03*
X986310Y728450D02*
D03*
X986550Y794430D02*
D03*
X834614Y794430D02*
D03*
Y727294D02*
D03*
X834614Y659310D02*
D03*
D69*
X1360170Y449040D02*
D03*
X1258570D02*
D03*
M02*
