G04*
G04 #@! TF.GenerationSoftware,Altium Limited,Altium Designer,18.1.7 (191)*
G04*
G04 Layer_Color=8421504*
%FSLAX44Y44*%
%MOMM*%
G71*
G01*
G75*
%ADD14R,1.3000X4.5000*%
%ADD15R,1.8000X3.9000*%
%ADD16R,1.0200X3.5000*%
%ADD17R,1.0000X2.4000*%
%ADD18R,3.3000X2.4000*%
%ADD19R,1.4000X1.1000*%
%ADD20R,1.0000X1.4000*%
%ADD21R,0.4200X1.7800*%
%ADD22R,4.2000X3.0000*%
%ADD23R,1.5000X0.4000*%
%ADD24R,1.2000X0.3000*%
%ADD25R,0.3000X1.2000*%
%ADD26R,1.1000X1.4000*%
%ADD27R,1.2000X1.4000*%
%ADD28R,4.5000X1.3000*%
%ADD29R,3.9000X1.8000*%
%ADD30R,1.4000X1.0000*%
%ADD31R,3.3500X4.7000*%
%ADD32R,1.4500X0.8500*%
%ADD33R,0.5000X0.6000*%
%ADD34R,2.5000X1.4000*%
%ADD35R,1.8034X2.0066*%
%ADD36R,2.1590X1.2700*%
%ADD37R,2.0000X7.8740*%
D14*
X1023220Y720440D02*
D03*
X998220D02*
D03*
X973220D02*
D03*
X948220D02*
D03*
D15*
X1055220Y667440D02*
D03*
X916220D02*
D03*
D16*
X727710Y794030D02*
D03*
X753110Y829030D02*
D03*
X778510Y794030D02*
D03*
X803910Y829030D02*
D03*
D17*
X1414640Y452330D02*
D03*
X1437640D02*
D03*
X1460640D02*
D03*
D18*
X1437640Y510330D02*
D03*
D19*
Y398940D02*
D03*
Y418940D02*
D03*
X1460640Y398940D02*
D03*
Y418940D02*
D03*
X1348740Y685640D02*
D03*
Y665640D02*
D03*
X436880Y564990D02*
D03*
Y544990D02*
D03*
X1292860Y697390D02*
D03*
Y717390D02*
D03*
X1310640D02*
D03*
Y697390D02*
D03*
X1328420Y717390D02*
D03*
Y697390D02*
D03*
X1257300D02*
D03*
Y717390D02*
D03*
X1275080Y697390D02*
D03*
Y717390D02*
D03*
X1299920Y559910D02*
D03*
Y539910D02*
D03*
X1282140Y559910D02*
D03*
Y539910D02*
D03*
X1203960Y697390D02*
D03*
Y717390D02*
D03*
X500380Y645320D02*
D03*
Y665320D02*
D03*
X566940Y617372D02*
D03*
Y637372D02*
D03*
X972820Y811559D02*
D03*
Y791559D02*
D03*
Y755804D02*
D03*
Y775804D02*
D03*
X997372Y811559D02*
D03*
Y791559D02*
D03*
Y755804D02*
D03*
Y775804D02*
D03*
X1021322Y811559D02*
D03*
Y791559D02*
D03*
X1021322Y755804D02*
D03*
Y775804D02*
D03*
D20*
X1020052Y829740D02*
D03*
X1010552Y851740D02*
D03*
X1029552D02*
D03*
X984250Y829740D02*
D03*
X974750Y851740D02*
D03*
X993750D02*
D03*
X948690Y829740D02*
D03*
X939190Y851740D02*
D03*
X958190D02*
D03*
D21*
X1323381Y604030D02*
D03*
X1316881D02*
D03*
X1310381D02*
D03*
X1303881D02*
D03*
X1297381D02*
D03*
X1290881D02*
D03*
X1284380D02*
D03*
X1277880D02*
D03*
X1271380D02*
D03*
X1264880Y663430D02*
D03*
Y604030D02*
D03*
X1271380Y663430D02*
D03*
X1277880D02*
D03*
X1284380D02*
D03*
X1290880D02*
D03*
X1297380D02*
D03*
X1303880D02*
D03*
X1310380D02*
D03*
X1316880D02*
D03*
X1323380D02*
D03*
D22*
X1294130Y633730D02*
D03*
D23*
X916360Y754190D02*
D03*
Y760690D02*
D03*
Y825690D02*
D03*
Y819190D02*
D03*
Y812690D02*
D03*
Y806190D02*
D03*
Y799690D02*
D03*
Y793190D02*
D03*
Y786690D02*
D03*
Y780190D02*
D03*
Y773690D02*
D03*
Y767190D02*
D03*
X843860Y754190D02*
D03*
Y760690D02*
D03*
Y767190D02*
D03*
Y773690D02*
D03*
Y780190D02*
D03*
Y786690D02*
D03*
Y793190D02*
D03*
Y799690D02*
D03*
Y806190D02*
D03*
Y812690D02*
D03*
Y819190D02*
D03*
Y825690D02*
D03*
X1129720Y749207D02*
D03*
Y755707D02*
D03*
Y820707D02*
D03*
Y814207D02*
D03*
Y807707D02*
D03*
Y801207D02*
D03*
Y794707D02*
D03*
Y788207D02*
D03*
Y781707D02*
D03*
Y775207D02*
D03*
Y768707D02*
D03*
Y762207D02*
D03*
X1057220Y749207D02*
D03*
Y755707D02*
D03*
Y762207D02*
D03*
Y768707D02*
D03*
Y775207D02*
D03*
Y781707D02*
D03*
Y788207D02*
D03*
Y794707D02*
D03*
Y801207D02*
D03*
Y807707D02*
D03*
Y814207D02*
D03*
Y820707D02*
D03*
D24*
X464230Y609160D02*
D03*
Y604160D02*
D03*
Y599160D02*
D03*
Y594160D02*
D03*
Y589160D02*
D03*
Y584160D02*
D03*
Y579160D02*
D03*
Y574160D02*
D03*
Y569160D02*
D03*
Y564160D02*
D03*
Y559160D02*
D03*
Y554160D02*
D03*
X549230D02*
D03*
Y559160D02*
D03*
Y564160D02*
D03*
Y569160D02*
D03*
Y574160D02*
D03*
Y579160D02*
D03*
Y584160D02*
D03*
Y589160D02*
D03*
Y594160D02*
D03*
Y599160D02*
D03*
Y604160D02*
D03*
Y609160D02*
D03*
D25*
X479230Y539160D02*
D03*
X484230D02*
D03*
X489230D02*
D03*
X494230D02*
D03*
X499230D02*
D03*
X504230D02*
D03*
X509230D02*
D03*
X514230D02*
D03*
X519230D02*
D03*
X524230D02*
D03*
X529230D02*
D03*
X534230D02*
D03*
Y624160D02*
D03*
X529230D02*
D03*
X524230D02*
D03*
X519230D02*
D03*
X514230D02*
D03*
X509230D02*
D03*
X504230D02*
D03*
X499230D02*
D03*
X494230D02*
D03*
X489230D02*
D03*
X484230D02*
D03*
X479230D02*
D03*
D26*
X397670Y548640D02*
D03*
X417670D02*
D03*
X397670Y619760D02*
D03*
X417670D02*
D03*
X1317150Y549910D02*
D03*
X1337150D02*
D03*
X1158400Y768350D02*
D03*
X1178400D02*
D03*
Y748030D02*
D03*
X1158400D02*
D03*
X1220630Y716440D02*
D03*
X1240630D02*
D03*
X1220630Y698660D02*
D03*
X1240630D02*
D03*
X451442Y641350D02*
D03*
X471442D02*
D03*
X562770Y518420D02*
D03*
X582770D02*
D03*
X562570Y537920D02*
D03*
X582570D02*
D03*
X671990Y445770D02*
D03*
X691990D02*
D03*
X670720Y571879D02*
D03*
X690720D02*
D03*
X727550Y445770D02*
D03*
X707550D02*
D03*
X527388Y518420D02*
D03*
X547388D02*
D03*
X670720Y471290D02*
D03*
X690720D02*
D03*
X726280Y571879D02*
D03*
X706280D02*
D03*
X670720Y595499D02*
D03*
X690720D02*
D03*
X726280Y471290D02*
D03*
X706280D02*
D03*
X670720Y495300D02*
D03*
X690720D02*
D03*
X726280Y595499D02*
D03*
X706280D02*
D03*
X726280Y495300D02*
D03*
X706280D02*
D03*
X670720Y518119D02*
D03*
X690720D02*
D03*
X726280Y517620D02*
D03*
X706280D02*
D03*
X670720Y545069D02*
D03*
X690720D02*
D03*
X726280D02*
D03*
X706280D02*
D03*
D27*
X398170Y596200D02*
D03*
Y572200D02*
D03*
X417170D02*
D03*
Y596200D02*
D03*
D28*
X768202Y482800D02*
D03*
Y457800D02*
D03*
Y432800D02*
D03*
Y407800D02*
D03*
Y507800D02*
D03*
Y532800D02*
D03*
Y557800D02*
D03*
Y582800D02*
D03*
X1200790Y513000D02*
D03*
Y538000D02*
D03*
Y563000D02*
D03*
Y588000D02*
D03*
Y488000D02*
D03*
Y463000D02*
D03*
Y438000D02*
D03*
Y413000D02*
D03*
D29*
X821202Y614800D02*
D03*
Y375800D02*
D03*
X1147790Y381000D02*
D03*
Y620000D02*
D03*
D30*
X646010Y541968D02*
D03*
X624010Y532468D02*
D03*
Y551468D02*
D03*
X646498Y507213D02*
D03*
X624498Y497713D02*
D03*
Y516713D02*
D03*
X646200Y473710D02*
D03*
X624200Y464210D02*
D03*
Y483210D02*
D03*
X646200Y439420D02*
D03*
X624200Y429920D02*
D03*
Y448920D02*
D03*
X646200Y406280D02*
D03*
X624200Y396780D02*
D03*
Y415780D02*
D03*
X646200Y612260D02*
D03*
X624200Y602760D02*
D03*
Y621760D02*
D03*
X646200Y576580D02*
D03*
X624200Y567080D02*
D03*
Y586080D02*
D03*
D31*
X1364500Y490220D02*
D03*
X1269040Y491490D02*
D03*
D32*
X1388500Y509270D02*
D03*
Y496570D02*
D03*
Y483870D02*
D03*
Y471170D02*
D03*
X1333500D02*
D03*
Y483870D02*
D03*
Y496570D02*
D03*
Y509270D02*
D03*
X1245040Y472440D02*
D03*
Y485140D02*
D03*
Y497840D02*
D03*
Y510540D02*
D03*
X1300040D02*
D03*
Y497840D02*
D03*
Y485140D02*
D03*
Y472440D02*
D03*
D33*
X1310640Y576700D02*
D03*
X1287640D02*
D03*
D34*
X1243330Y584570D02*
D03*
Y535570D02*
D03*
D35*
X1236128Y756920D02*
D03*
D36*
X1204632Y744220D02*
D03*
Y769620D02*
D03*
D37*
X467360Y293370D02*
D03*
X506760D02*
D03*
X546160D02*
D03*
X585560D02*
D03*
X624960D02*
D03*
X664360D02*
D03*
X703760D02*
D03*
X743160D02*
D03*
X782560D02*
D03*
X821960D02*
D03*
X1141580D02*
D03*
X1180980D02*
D03*
X1220380D02*
D03*
X1259780D02*
D03*
X1299180D02*
D03*
X1338580D02*
D03*
M02*
