G04*
G04 #@! TF.GenerationSoftware,Altium Limited,Altium Designer,18.1.7 (191)*
G04*
G04 Layer_Color=65535*
%FSLAX44Y44*%
%MOMM*%
G71*
G01*
G75*
%ADD10C,0.2540*%
%ADD11C,0.0254*%
%ADD12C,0.2000*%
%ADD13C,0.2032*%
D10*
X1337310Y662940D02*
G03*
X1337310Y662940I-2540J0D01*
G01*
X864652Y824230D02*
G03*
X864652Y824230I-3592J0D01*
G01*
X1078012Y819247D02*
G03*
X1078012Y819247I-3592J0D01*
G01*
X484396Y605790D02*
G03*
X484396Y605790I-1796J0D01*
G01*
X387350Y596900D02*
G03*
X387350Y596900I-1270J0D01*
G01*
X1335600Y521970D02*
G03*
X1335600Y521970I-2540J0D01*
G01*
X1303020Y459740D02*
G03*
X1303020Y459740I-2540J0D01*
G01*
X909320Y647140D02*
Y723340D01*
X1061720D01*
Y647140D02*
Y723340D01*
X909320Y647140D02*
X1061720D01*
X715010Y824230D02*
X791210D01*
X816610Y798830D02*
Y824230D01*
X715010Y798830D02*
Y824230D01*
Y798830D02*
X791210D01*
X808990Y803910D02*
X811530D01*
X791210Y798830D02*
X816610D01*
Y824230D01*
X791210D02*
X816610D01*
X1431290Y408940D02*
X1443990D01*
X1454290D02*
X1466990D01*
X1007352Y835660D02*
Y842010D01*
Y835660D02*
X1012432D01*
X1032752D02*
Y842010D01*
X1027672Y835660D02*
X1032752D01*
X1342390Y675640D02*
X1355090D01*
X1261630Y615950D02*
Y651510D01*
X1326630Y615950D02*
Y651510D01*
X430530Y554990D02*
X443230D01*
X482600Y614680D02*
X539750D01*
X473710Y605790D02*
X482600Y614680D01*
X473710Y548640D02*
Y605790D01*
Y548640D02*
X539750D01*
Y614680D01*
X407670Y542290D02*
Y554990D01*
X420170Y581660D02*
Y586740D01*
X395170Y581660D02*
Y586740D01*
X406400Y568200D02*
X408940Y568200D01*
X406400Y600200D02*
X408940Y600200D01*
X407670Y613410D02*
Y626110D01*
X765302Y368300D02*
X840702Y367800D01*
X765302Y368300D02*
Y622300D01*
X840702D01*
X841502Y367800D01*
X633740Y529268D02*
X640090D01*
Y534348D01*
X633740Y554668D02*
X640090D01*
Y549588D02*
Y554668D01*
X634228Y494513D02*
X640578D01*
Y499593D01*
X634228Y519913D02*
X640578D01*
Y514833D02*
Y519913D01*
X633930Y461010D02*
X640280D01*
Y466090D01*
X633930Y486410D02*
X640280D01*
Y481330D02*
Y486410D01*
X633930Y426720D02*
X640280D01*
Y431800D01*
X633930Y452120D02*
X640280D01*
Y447040D02*
Y452120D01*
X633930Y393580D02*
X640280D01*
Y398660D01*
X633930Y418980D02*
X640280D01*
Y413900D02*
Y418980D01*
X971550Y835660D02*
Y842010D01*
Y835660D02*
X976630D01*
X996950D02*
Y842010D01*
X991870Y835660D02*
X996950D01*
X935990D02*
Y842010D01*
Y835660D02*
X941070D01*
X961390D02*
Y842010D01*
X956310Y835660D02*
X961390D01*
X633930Y599560D02*
X640280D01*
Y604640D01*
X633930Y624960D02*
X640280D01*
Y619880D02*
Y624960D01*
X633930Y563880D02*
X640280D01*
Y568960D01*
X633930Y589280D02*
X640280D01*
Y584200D02*
Y589280D01*
X1128290Y628000D02*
X1203690Y627500D01*
Y373500D02*
Y627500D01*
X1128290Y373500D02*
X1203690D01*
X1127490Y628000D02*
X1128290Y373500D01*
X1286510Y707390D02*
X1299210D01*
X1327150Y543560D02*
Y556260D01*
X1295330Y581780D02*
X1302950Y576700D01*
X1295330Y571620D02*
Y581780D01*
Y571620D02*
X1302950Y576700D01*
Y570350D02*
Y576700D01*
Y570350D02*
Y583050D01*
X1304290Y707390D02*
X1316990D01*
X1168400Y762000D02*
Y774700D01*
X1322070Y707390D02*
X1334770D01*
X1168400Y741680D02*
Y754380D01*
X1250950Y707390D02*
X1263650D01*
X1268730D02*
X1281430D01*
X1231900Y547370D02*
X1254760D01*
Y572770D01*
X1231900D02*
X1254760D01*
X1231900Y547370D02*
Y572770D01*
X1230630Y710090D02*
Y722790D01*
X1293570Y549910D02*
X1306270D01*
X1275790D02*
X1288490D01*
X1197610Y707390D02*
X1210310D01*
X1230630Y692310D02*
Y705010D01*
X1202727Y781050D02*
X1238033D01*
X1202727Y732790D02*
X1238033D01*
Y741680D01*
Y772160D02*
Y781050D01*
X461442Y635000D02*
Y647700D01*
X494030Y655320D02*
X506730D01*
X560590Y627372D02*
X573290D01*
X572770Y512070D02*
Y524770D01*
X572570Y531570D02*
Y544270D01*
X681990Y439420D02*
Y452120D01*
X680720Y565529D02*
Y578229D01*
X717550Y439420D02*
Y452120D01*
X537388Y512070D02*
Y524770D01*
X680720Y464940D02*
Y477640D01*
X716280Y565529D02*
Y578229D01*
X680720Y589149D02*
Y601849D01*
X716280Y464940D02*
Y477640D01*
X680720Y488950D02*
Y501650D01*
X716280Y589149D02*
Y601849D01*
X966470Y801559D02*
X979170D01*
X716280Y488950D02*
Y501650D01*
X680720Y511769D02*
Y524469D01*
X966470Y765804D02*
X979170D01*
X991022Y801559D02*
X1003722D01*
X716280Y511270D02*
Y523970D01*
X680720Y538719D02*
Y551419D01*
X991022Y765804D02*
X1003722D01*
X1014972Y801559D02*
X1027672D01*
X716280Y538719D02*
Y551419D01*
X1014972Y765804D02*
X1027672D01*
X483870Y401157D02*
Y394492D01*
X487202Y391160D01*
X490535Y394492D01*
Y401157D01*
X498865Y391160D02*
X495533D01*
X493867Y392826D01*
Y396158D01*
X495533Y397825D01*
X498865D01*
X500531Y396158D01*
Y394492D01*
X493867D01*
X503864Y397825D02*
Y391160D01*
Y394492D01*
X505530Y396158D01*
X507196Y397825D01*
X508862D01*
X513860Y391160D02*
X518859D01*
X520525Y392826D01*
X518859Y394492D01*
X515527D01*
X513860Y396158D01*
X515527Y397825D01*
X520525D01*
X523857Y391160D02*
X527189D01*
X525523D01*
Y397825D01*
X523857D01*
X533854Y391160D02*
X537186D01*
X538852Y392826D01*
Y396158D01*
X537186Y397825D01*
X533854D01*
X532188Y396158D01*
Y392826D01*
X533854Y391160D01*
X542184D02*
Y397825D01*
X547183D01*
X548849Y396158D01*
Y391160D01*
X562178D02*
X565510D01*
X563844D01*
Y401157D01*
X562178Y399491D01*
X570509Y391160D02*
Y392826D01*
X572175D01*
Y391160D01*
X570509D01*
X578839Y399491D02*
X580505Y401157D01*
X583838D01*
X585504Y399491D01*
Y397825D01*
X583838Y396158D01*
X582172D01*
X583838D01*
X585504Y394492D01*
Y392826D01*
X583838Y391160D01*
X580505D01*
X578839Y392826D01*
X415285Y595630D02*
X400050Y585473D01*
X415285D02*
X400050Y595630D01*
X415285Y580395D02*
Y570238D01*
Y575317D01*
X400050D01*
X1128760Y637660D02*
Y652895D01*
X1136378D01*
X1138917Y650356D01*
Y645277D01*
X1136378Y642738D01*
X1128760D01*
X1154152Y652895D02*
X1143995D01*
Y645277D01*
X1149073Y647817D01*
X1151613D01*
X1154152Y645277D01*
Y640199D01*
X1151613Y637660D01*
X1146534D01*
X1143995Y640199D01*
X969010Y610793D02*
Y626028D01*
X976628D01*
X979167Y623488D01*
Y618410D01*
X976628Y615871D01*
X969010D01*
X994402Y610793D02*
X984245D01*
X994402Y620949D01*
Y623488D01*
X991863Y626028D01*
X986784D01*
X984245Y623488D01*
X747268Y632460D02*
Y647695D01*
X754885D01*
X757425Y645156D01*
Y640078D01*
X754885Y637538D01*
X747268D01*
X762503Y632460D02*
X767581D01*
X765042D01*
Y647695D01*
X762503Y645156D01*
X861060Y797555D02*
X866138D01*
X863599D01*
Y782320D01*
X861060D01*
X866138D01*
X883913Y795016D02*
X881373Y797555D01*
X876295D01*
X873756Y795016D01*
Y784859D01*
X876295Y782320D01*
X881373D01*
X883913Y784859D01*
X899148Y797555D02*
X894069Y795016D01*
X888991Y789938D01*
Y784859D01*
X891530Y782320D01*
X896609D01*
X899148Y784859D01*
Y787398D01*
X896609Y789938D01*
X888991D01*
X1075640Y792572D02*
X1080719D01*
X1078179D01*
Y777337D01*
X1075640D01*
X1080719D01*
X1098493Y790033D02*
X1095954Y792572D01*
X1090875D01*
X1088336Y790033D01*
Y779876D01*
X1090875Y777337D01*
X1095954D01*
X1098493Y779876D01*
X1113728Y792572D02*
X1103571D01*
Y784955D01*
X1108650Y787494D01*
X1111189D01*
X1113728Y784955D01*
Y779876D01*
X1111189Y777337D01*
X1106110D01*
X1103571Y779876D01*
X490220Y582925D02*
X495298D01*
X492759D01*
Y567690D01*
X490220D01*
X495298D01*
X513073Y580386D02*
X510533Y582925D01*
X505455D01*
X502916Y580386D01*
Y570229D01*
X505455Y567690D01*
X510533D01*
X513073Y570229D01*
X528308Y567690D02*
X518151D01*
X528308Y577847D01*
Y580386D01*
X525769Y582925D01*
X520690D01*
X518151Y580386D01*
X1421130Y490215D02*
X1426208D01*
X1423669D01*
Y474980D01*
X1421130D01*
X1426208D01*
X1443983Y487676D02*
X1441443Y490215D01*
X1436365D01*
X1433826Y487676D01*
Y477519D01*
X1436365Y474980D01*
X1441443D01*
X1443983Y477519D01*
X1449061Y474980D02*
X1454139D01*
X1451600D01*
Y490215D01*
X1449061Y487676D01*
X663899Y815336D02*
X661359Y817875D01*
X656281D01*
X653742Y815336D01*
Y812797D01*
X656281Y810257D01*
X661359D01*
X663899Y807718D01*
Y805179D01*
X661359Y802640D01*
X656281D01*
X653742Y805179D01*
X668977Y817875D02*
X679134D01*
X674055D01*
Y802640D01*
X684212D02*
Y817875D01*
X689290Y812797D01*
X694369Y817875D01*
Y802640D01*
X709604Y817875D02*
X699447D01*
Y810257D01*
X704525D01*
X699447D01*
Y802640D01*
X714682D02*
X719761D01*
X717221D01*
Y817875D01*
X714682Y815336D01*
D11*
X392430Y423672D02*
X396240D01*
X392684Y423418D02*
X396494D01*
X392684Y423164D02*
X396748D01*
X392938Y422910D02*
X396748D01*
X392938Y422656D02*
X397002D01*
X393192Y422402D02*
X397002D01*
X393192Y422148D02*
X397256D01*
X393446Y421894D02*
X397002D01*
X393446Y421640D02*
X396494D01*
X393700Y421386D02*
X396240D01*
X393700Y421132D02*
X395986D01*
X393954Y420878D02*
X395478D01*
X393954Y420624D02*
X395224D01*
X394208Y420370D02*
X394716D01*
X395224Y418846D02*
X401574D01*
X395224Y418592D02*
X401320D01*
X395478Y418338D02*
X401066D01*
X395478Y418084D02*
X400812D01*
X395732Y417830D02*
X400304D01*
X395986Y417576D02*
X400050D01*
X395986Y417322D02*
X399796D01*
X396240Y417068D02*
X399288D01*
X396494Y416814D02*
X399034D01*
X396748Y416560D02*
X398780D01*
X396748Y416306D02*
X398272D01*
X397002Y416052D02*
X398018D01*
X397256Y415798D02*
X397764D01*
X389636Y432562D02*
X393446D01*
X389636Y432308D02*
X393192D01*
X389890Y432054D02*
X392684D01*
X389890Y431800D02*
X392430D01*
X389890Y431546D02*
X392176D01*
X389890Y431292D02*
X391922D01*
X390144Y431038D02*
X391922D01*
X390144Y430784D02*
X391922D01*
X390144Y430530D02*
X391922D01*
X390144Y430276D02*
X391668D01*
X390144Y430022D02*
X391922D01*
X390398Y429768D02*
X391922D01*
X390398Y429514D02*
X392176D01*
X390398Y429260D02*
X392430D01*
X390652Y429006D02*
X392684D01*
X390652Y428752D02*
X392684D01*
X390652Y428498D02*
X392938D01*
X390652Y428244D02*
X393192D01*
X390906Y427990D02*
X393446D01*
X390906Y427736D02*
X393446D01*
X390906Y427482D02*
X393700D01*
X391160Y427228D02*
X393954D01*
X391160Y426974D02*
X393954D01*
X391160Y426720D02*
X393954D01*
X391414Y426466D02*
X393700D01*
X391414Y426212D02*
X393954D01*
X391668Y425958D02*
X393954D01*
X391668Y425704D02*
X394208D01*
X391668Y425450D02*
X394462D01*
X391922Y425196D02*
X394970D01*
X391922Y424942D02*
X395478D01*
X392176Y424688D02*
X395732D01*
X392176Y424434D02*
X395732D01*
X392176Y424180D02*
X395986D01*
X392430Y423926D02*
X396240D01*
X388620Y443992D02*
X393700D01*
X395478D02*
X397256D01*
X388620Y443738D02*
X393446D01*
X394970D02*
X397510D01*
X388620Y443484D02*
X393192D01*
X394716D02*
X397764D01*
X388620Y443230D02*
X391414D01*
X394462D02*
X398272D01*
X388620Y442976D02*
X391160D01*
X394208D02*
X398526D01*
X388620Y442722D02*
X391160D01*
X393700D02*
X398780D01*
X388620Y442468D02*
X390906D01*
X393700D02*
X399034D01*
X388620Y442214D02*
X390906D01*
X393700D02*
X399288D01*
X388620Y441960D02*
X390906D01*
X393700D02*
X399796D01*
X388620Y441706D02*
X390652D01*
X393446D02*
X400050D01*
X388620Y441452D02*
X390398D01*
X393192D02*
X400304D01*
X388620Y441198D02*
X390144D01*
X392938D02*
X400558D01*
X388620Y440944D02*
X389636D01*
X391668D02*
X391922D01*
X392430D02*
X401066D01*
X388620Y440690D02*
X389382D01*
X391414D02*
X401320D01*
X388620Y440436D02*
X389128D01*
X390906D02*
X401574D01*
X388874Y438150D02*
X400050D01*
X388874Y437896D02*
X399796D01*
X388874Y437642D02*
X399542D01*
X388874Y437388D02*
X399542D01*
X388874Y437134D02*
X399542D01*
X389128Y436880D02*
X399288D01*
X389128Y436626D02*
X399034D01*
X389128Y436372D02*
X398780D01*
X389128Y436118D02*
X398272D01*
X389128Y435864D02*
X398018D01*
X389128Y435610D02*
X397764D01*
X389128Y435356D02*
X397256D01*
X389382Y435102D02*
X397002D01*
X389382Y434848D02*
X396494D01*
X389382Y434594D02*
X396240D01*
X389382Y434340D02*
X395986D01*
X389382Y434086D02*
X395478D01*
X389382Y433832D02*
X395224D01*
X389382Y433578D02*
X394970D01*
X389636Y433324D02*
X394462D01*
X389636Y433070D02*
X394208D01*
X388620Y452882D02*
X390398D01*
X388620Y452628D02*
X390398D01*
X388620Y452374D02*
X390652D01*
X388620Y452120D02*
X390906D01*
X388620Y451866D02*
X391160D01*
X388620Y451612D02*
X391414D01*
X388620Y451358D02*
X391414D01*
X388620Y451104D02*
X391414D01*
X388620Y450850D02*
X391414D01*
X388620Y450596D02*
X391414D01*
X388620Y450342D02*
X391414D01*
X388620Y450088D02*
X391160D01*
X388620Y449834D02*
X390906D01*
X388620Y449580D02*
X390652D01*
X388620Y449326D02*
X390398D01*
X388620Y449072D02*
X389890D01*
X388620Y448818D02*
X389636D01*
X388620Y448564D02*
X389382D01*
X388620Y448310D02*
X389128D01*
X388620Y445516D02*
X395732D01*
X388620Y445262D02*
X395478D01*
X388620Y445008D02*
X394970D01*
X388620Y444754D02*
X394716D01*
X388620Y444500D02*
X394462D01*
X388620Y444246D02*
X394208D01*
X395732D02*
X397002D01*
X388620Y464312D02*
X394970D01*
X388620Y464058D02*
X395224D01*
X388620Y463804D02*
X395478D01*
X388620Y463550D02*
X395732D01*
X388620Y463296D02*
X395986D01*
X388620Y463042D02*
X395986D01*
X388620Y462788D02*
X396240D01*
X388620Y462534D02*
X396494D01*
X388620Y462280D02*
X396748D01*
X388620Y462026D02*
X396748D01*
X388620Y461772D02*
X397002D01*
X388620Y461518D02*
X397002D01*
X388620Y461264D02*
X396748D01*
X388620Y461010D02*
X396494D01*
X388620Y460756D02*
X396240D01*
X388620Y460502D02*
X395986D01*
X388620Y460248D02*
X395732D01*
X388620Y459994D02*
X395478D01*
X388620Y459740D02*
X395224D01*
X388620Y459486D02*
X394716D01*
X388620Y459232D02*
X393446D01*
X393700D02*
X394462D01*
X388620Y458978D02*
X392938D01*
X388620Y458724D02*
X392684D01*
X388620Y458470D02*
X392430D01*
X388620Y458216D02*
X392430D01*
X388620Y457962D02*
X392430D01*
X388620Y457708D02*
X392176D01*
X388620Y457454D02*
X391922D01*
X388620Y457200D02*
X391668D01*
X388620Y456946D02*
X391160D01*
X388620Y456692D02*
X390906D01*
X388620Y456438D02*
X390652D01*
X388620Y456184D02*
X390144D01*
X388620Y455930D02*
X389890D01*
X388620Y455676D02*
X389636D01*
X388620Y455422D02*
X389382D01*
X388620Y455168D02*
X389382D01*
X388620Y454914D02*
X389382D01*
X388620Y454660D02*
X389382D01*
X388620Y454406D02*
X389128D01*
X388620Y454152D02*
X389382D01*
X388620Y453898D02*
X389636D01*
X388620Y453644D02*
X389636D01*
X388620Y453390D02*
X389890D01*
X388620Y471170D02*
X390906D01*
X388620Y470916D02*
X390652D01*
X388620Y470662D02*
X390398D01*
X388620Y470408D02*
X390144D01*
X388620Y470154D02*
X390144D01*
X388620Y469900D02*
X390144D01*
X388620Y469646D02*
X390398D01*
X388620Y469392D02*
X390398D01*
X388620Y469138D02*
X390652D01*
X388620Y468884D02*
X390906D01*
X388620Y468630D02*
X391668D01*
X388620Y468376D02*
X391922D01*
X388620Y468122D02*
X392176D01*
X388620Y467868D02*
X392430D01*
X388620Y467614D02*
X392684D01*
X388620Y467360D02*
X392684D01*
X388620Y467106D02*
X392938D01*
X388620Y466852D02*
X393192D01*
X388620Y466598D02*
X393446D01*
X388620Y466344D02*
X393446D01*
X388620Y466090D02*
X393700D01*
X388620Y465836D02*
X393954D01*
X388620Y465582D02*
X394208D01*
X388620Y465328D02*
X394208D01*
X388620Y465074D02*
X394462D01*
X388620Y464820D02*
X394716D01*
X388620Y464566D02*
X394970D01*
X388620Y484632D02*
X391668D01*
X388620Y484378D02*
X392938D01*
X388620Y485648D02*
X389128D01*
X388620Y485394D02*
X389636D01*
X388620Y485140D02*
X390144D01*
X388620Y484886D02*
X390906D01*
X414274Y406654D02*
X420370D01*
X402590Y418084D02*
X402844D01*
X402082Y417830D02*
X403352D01*
X402082Y441452D02*
X405892D01*
X402336Y441198D02*
X405892D01*
X402590Y440944D02*
X405892D01*
X402844Y440690D02*
X405892D01*
X404114Y440436D02*
X405892D01*
X404622Y440182D02*
X405892D01*
X404876Y439928D02*
X405892D01*
X404876Y439674D02*
X405892D01*
X405130Y439420D02*
X405892D01*
X404876Y439166D02*
X405892D01*
X404876Y438912D02*
X405892D01*
X404876Y438658D02*
X406146D01*
X404622Y438404D02*
X405892D01*
X404368Y438150D02*
X406146D01*
X437896Y412242D02*
X439674D01*
X437896Y411988D02*
X439674D01*
X437896Y411734D02*
X439674D01*
X437896Y411480D02*
X439674D01*
X437896Y411226D02*
X439674D01*
X437896Y410972D02*
X439674D01*
X437896Y410718D02*
X439674D01*
X437896Y410464D02*
X439674D01*
X437896Y410210D02*
X439674D01*
X437896Y409956D02*
X439674D01*
X437896Y409702D02*
X439674D01*
X437896Y409448D02*
X439674D01*
X437896Y409194D02*
X439674D01*
X438150Y408940D02*
X439928D01*
X438150Y408686D02*
X439928D01*
X438150Y408432D02*
X440182D01*
X438150Y408178D02*
X440436D01*
X438404Y407924D02*
X442214D01*
X438404Y407670D02*
X442214D01*
X438658Y407416D02*
X442214D01*
X438912Y407162D02*
X442214D01*
X439166Y406908D02*
X442214D01*
X439674Y406654D02*
X442214D01*
X439674Y415798D02*
X441960D01*
X439420Y415544D02*
X442214D01*
X438912Y415290D02*
X442214D01*
X438912Y415036D02*
X442214D01*
X438658Y414782D02*
X442214D01*
X438404Y414528D02*
X440690D01*
X441198D02*
X442214D01*
X438404Y414274D02*
X440436D01*
X441706D02*
X441960D01*
X438404Y414020D02*
X440182D01*
X438150Y413766D02*
X440182D01*
X438150Y413512D02*
X439928D01*
X438150Y413258D02*
X439928D01*
X438150Y413004D02*
X439674D01*
X437896Y412750D02*
X439674D01*
X422402Y424942D02*
X442214D01*
X443738Y412242D02*
X445516D01*
X443738Y411988D02*
X445516D01*
X443738Y411734D02*
X445516D01*
X443738Y411480D02*
X445516D01*
X443738Y411226D02*
X445516D01*
X443738Y410972D02*
X445516D01*
X443738Y410718D02*
X445516D01*
X443738Y410464D02*
X445516D01*
X443738Y410210D02*
X445516D01*
X443738Y409956D02*
X445516D01*
X443738Y409702D02*
X445516D01*
X443738Y409448D02*
X445516D01*
X443738Y409194D02*
X445516D01*
X443738Y408940D02*
X445516D01*
X443738Y408686D02*
X445516D01*
X443738Y408432D02*
X445516D01*
X443738Y408178D02*
X445516D01*
X443738Y407924D02*
X445516D01*
X443738Y407670D02*
X445516D01*
X443738Y407416D02*
X445516D01*
X443738Y407162D02*
X445516D01*
X443738Y406908D02*
X445516D01*
X443738Y406654D02*
X445516D01*
X443738Y406400D02*
X445262D01*
X448056Y412242D02*
X449580D01*
X452882D02*
X455930D01*
X458216D02*
X459740D01*
X448056Y411988D02*
X449580D01*
X453136D02*
X455930D01*
X458216D02*
X459740D01*
X448056Y411734D02*
X449580D01*
X453136D02*
X455676D01*
X458216D02*
X459740D01*
X448056Y411480D02*
X449580D01*
X453136D02*
X455676D01*
X458216D02*
X459740D01*
X448056Y411226D02*
X449580D01*
X453390D02*
X455676D01*
X458216D02*
X459740D01*
X448056Y410972D02*
X449580D01*
X453390D02*
X455422D01*
X458216D02*
X459740D01*
X448056Y410718D02*
X449580D01*
X453644D02*
X455422D01*
X458216D02*
X459740D01*
X448056Y410464D02*
X449580D01*
X453644D02*
X455422D01*
X458216D02*
X459740D01*
X448056Y410210D02*
X449580D01*
X453644D02*
X455422D01*
X458216D02*
X459740D01*
X448056Y409956D02*
X449580D01*
X453644D02*
X455422D01*
X458216D02*
X459740D01*
X448056Y409702D02*
X449580D01*
X453644D02*
X455422D01*
X458216D02*
X459740D01*
X448056Y409448D02*
X449580D01*
X453644D02*
X455422D01*
X458216D02*
X459740D01*
X448056Y409194D02*
X449580D01*
X453644D02*
X455422D01*
X458216D02*
X459740D01*
X448056Y408940D02*
X449580D01*
X453644D02*
X455422D01*
X458216D02*
X459740D01*
X448056Y408686D02*
X449580D01*
X453644D02*
X455422D01*
X458216D02*
X459740D01*
X448056Y408432D02*
X449580D01*
X453644D02*
X455422D01*
X458216D02*
X459740D01*
X448056Y408178D02*
X449580D01*
X453644D02*
X455422D01*
X458216D02*
X459994D01*
X448056Y407924D02*
X449580D01*
X453644D02*
X455422D01*
X458216D02*
X460248D01*
X448056Y407670D02*
X449580D01*
X453644D02*
X455422D01*
X448056Y407416D02*
X449580D01*
X453644D02*
X455422D01*
X448056Y407162D02*
X449580D01*
X453644D02*
X455422D01*
X458470D02*
X462534D01*
X448056Y406908D02*
X449580D01*
X453644D02*
X455422D01*
X458724D02*
X462280D01*
X448056Y406654D02*
X449580D01*
X453644D02*
X455422D01*
X458978D02*
X462026D01*
X453644Y406400D02*
X455168D01*
X459486D02*
X461518D01*
X443738Y415544D02*
X445262D01*
X443738Y415290D02*
X445516D01*
X443738Y415036D02*
X445516D01*
X443738Y414782D02*
X445516D01*
X443738Y414528D02*
X445516D01*
X443738Y414274D02*
X445516D01*
X443738Y414020D02*
X445516D01*
X443738Y413766D02*
X445516D01*
X443738Y413512D02*
X445516D01*
X443738Y413258D02*
X445516D01*
X443738Y413004D02*
X445516D01*
X443738Y412750D02*
X445516D01*
X446786Y415798D02*
X450850D01*
X458216D02*
X459740D01*
X446532Y415544D02*
X451104D01*
X451866D02*
X453390D01*
X455168D02*
X456946D01*
X458216D02*
X459740D01*
X446532Y415290D02*
X451104D01*
X451866D02*
X453644D01*
X455168D02*
X456946D01*
X458216D02*
X459740D01*
X446532Y415036D02*
X451104D01*
X451866D02*
X453644D01*
X455168D02*
X456692D01*
X458216D02*
X459740D01*
X446532Y414782D02*
X451104D01*
X451866D02*
X453644D01*
X455168D02*
X456692D01*
X458216D02*
X459740D01*
X446532Y414528D02*
X451104D01*
X452120D02*
X453898D01*
X454914D02*
X456692D01*
X458216D02*
X459740D01*
X448056Y414274D02*
X449580D01*
X452120D02*
X453898D01*
X454914D02*
X456692D01*
X458216D02*
X459740D01*
X448056Y414020D02*
X449580D01*
X452374D02*
X453898D01*
X454914D02*
X456438D01*
X458216D02*
X459740D01*
X448056Y413766D02*
X449580D01*
X452374D02*
X454152D01*
X454660D02*
X456438D01*
X458216D02*
X459740D01*
X448056Y413512D02*
X449580D01*
X452374D02*
X454152D01*
X454660D02*
X456438D01*
X458216D02*
X459740D01*
X448056Y413258D02*
X449580D01*
X452628D02*
X454152D01*
X454660D02*
X456184D01*
X458216D02*
X459740D01*
X448056Y413004D02*
X449580D01*
X452628D02*
X454152D01*
X454660D02*
X456184D01*
X458216D02*
X459740D01*
X448056Y412750D02*
X449580D01*
X452628D02*
X454406D01*
X454660D02*
X456184D01*
X458216D02*
X459740D01*
X445770Y438658D02*
X462534D01*
X445770Y438404D02*
X462534D01*
X442976Y491490D02*
X445516D01*
X453136Y491236D02*
X454914D01*
X452882Y490982D02*
X456692D01*
X452882Y490728D02*
X458470D01*
X452628Y490474D02*
X458978D01*
X452628Y490220D02*
X459232D01*
X452628Y489966D02*
X459232D01*
X452374Y489712D02*
X459232D01*
X452374Y489458D02*
X459232D01*
X452120Y489204D02*
X459232D01*
X452120Y488950D02*
X459232D01*
X451866Y488696D02*
X459486D01*
X451866Y488442D02*
X459486D01*
X451866Y488188D02*
X459486D01*
X451612Y487934D02*
X459486D01*
X451612Y487680D02*
X459486D01*
X451358Y487426D02*
X459486D01*
X451358Y487172D02*
X459486D01*
X464312Y410718D02*
X465836D01*
X464312Y410464D02*
X465836D01*
X464312Y410210D02*
X465836D01*
X464312Y409956D02*
X465836D01*
X464312Y409702D02*
X465836D01*
X464312Y409448D02*
X465836D01*
X464312Y409194D02*
X465836D01*
X464312Y408940D02*
X465836D01*
X464312Y408686D02*
X465836D01*
X464312Y408432D02*
X465836D01*
X464312Y408178D02*
X465836D01*
X464312Y407924D02*
X465836D01*
X464312Y407670D02*
X465836D01*
X464312Y407416D02*
X465836D01*
X464312Y407162D02*
X465836D01*
X464312Y406908D02*
X465836D01*
X464312Y406654D02*
X465836D01*
X470408Y412242D02*
X473710D01*
X470408Y411988D02*
X473710D01*
X470408Y411734D02*
X473456D01*
X470408Y411480D02*
X473456D01*
X470408Y411226D02*
X473202D01*
X470408Y410972D02*
X473456D01*
X467360Y410718D02*
X468884D01*
X470408D02*
X473456D01*
X467360Y410464D02*
X468884D01*
X470408D02*
X473710D01*
X467360Y410210D02*
X468884D01*
X470408D02*
X473710D01*
X467360Y409956D02*
X468884D01*
X470408D02*
X473710D01*
X467360Y409702D02*
X468884D01*
X470408D02*
X471932D01*
X472186D02*
X473964D01*
X467360Y409448D02*
X468884D01*
X470408D02*
X471932D01*
X472186D02*
X473964D01*
X467360Y409194D02*
X468884D01*
X470408D02*
X471932D01*
X472440D02*
X474218D01*
X467360Y408940D02*
X468884D01*
X470408D02*
X471932D01*
X472440D02*
X474218D01*
X467360Y408686D02*
X468884D01*
X470408D02*
X471932D01*
X472440D02*
X474472D01*
X467360Y408432D02*
X468884D01*
X470408D02*
X471932D01*
X472694D02*
X474472D01*
X467360Y408178D02*
X468884D01*
X470408D02*
X471932D01*
X472694D02*
X474472D01*
X467360Y407924D02*
X468884D01*
X470408D02*
X471932D01*
X472948D02*
X474726D01*
X467360Y407670D02*
X468884D01*
X470408D02*
X471932D01*
X472948D02*
X474726D01*
X467360Y407416D02*
X468884D01*
X470408D02*
X471932D01*
X472948D02*
X474980D01*
X467360Y407162D02*
X468884D01*
X470408D02*
X471932D01*
X473202D02*
X474980D01*
X467360Y406908D02*
X468884D01*
X470408D02*
X471932D01*
X473202D02*
X475234D01*
X467360Y406654D02*
X468884D01*
X470408D02*
X471932D01*
X473202D02*
X475234D01*
X470408Y406400D02*
X471932D01*
X473456D02*
X474980D01*
X464312Y412242D02*
X468884D01*
X464312Y411988D02*
X468884D01*
X464312Y411734D02*
X468884D01*
X464312Y411480D02*
X468884D01*
X464312Y411226D02*
X468884D01*
X464312Y410972D02*
X468884D01*
X464312Y415798D02*
X465836D01*
X464312Y415544D02*
X465836D01*
X464312Y415290D02*
X465836D01*
X464312Y415036D02*
X465836D01*
X464312Y414782D02*
X465836D01*
X464312Y414528D02*
X465836D01*
X464312Y414274D02*
X465836D01*
X464312Y414020D02*
X465836D01*
X464312Y413766D02*
X465836D01*
X464312Y413512D02*
X465836D01*
X464312Y413258D02*
X465836D01*
X464312Y413004D02*
X465836D01*
X464312Y412750D02*
X465836D01*
X467614Y415798D02*
X468884D01*
X470408D02*
X471932D01*
X473456D02*
X474980D01*
X467360Y415544D02*
X468884D01*
X470408D02*
X471932D01*
X473202D02*
X474980D01*
X467360Y415290D02*
X468884D01*
X470408D02*
X471932D01*
X473202D02*
X474980D01*
X467360Y415036D02*
X468884D01*
X470408D02*
X471932D01*
X473202D02*
X474980D01*
X467360Y414782D02*
X468884D01*
X470408D02*
X471932D01*
X472948D02*
X474726D01*
X467360Y414528D02*
X468884D01*
X470408D02*
X471932D01*
X472948D02*
X474726D01*
X467360Y414274D02*
X468884D01*
X470408D02*
X471932D01*
X472694D02*
X474472D01*
X467360Y414020D02*
X468884D01*
X470408D02*
X471932D01*
X472694D02*
X474472D01*
X467360Y413766D02*
X468884D01*
X470408D02*
X471932D01*
X472694D02*
X474472D01*
X467360Y413512D02*
X468884D01*
X470408D02*
X471932D01*
X472440D02*
X474218D01*
X467360Y413258D02*
X468884D01*
X470408D02*
X471932D01*
X472440D02*
X474218D01*
X467360Y413004D02*
X468884D01*
X470408D02*
X471932D01*
X472186D02*
X473964D01*
X467360Y412750D02*
X468884D01*
X470408D02*
X473964D01*
X479298Y443992D02*
X482092D01*
X479298Y443738D02*
X482092D01*
X479298Y443484D02*
X482092D01*
X479298Y443230D02*
X482092D01*
X479298Y442976D02*
X482092D01*
X479298Y442722D02*
X482092D01*
X479298Y442468D02*
X482092D01*
X479298Y442214D02*
X482092D01*
X479298Y441960D02*
X482092D01*
X479298Y441706D02*
X482092D01*
X479298Y441452D02*
X482092D01*
X479298Y441198D02*
X482092D01*
X479298Y440944D02*
X482092D01*
X479298Y440690D02*
X482092D01*
X479298Y440436D02*
X482092D01*
X479298Y440182D02*
X482092D01*
X479298Y439928D02*
X482092D01*
X479298Y439674D02*
X482092D01*
X479298Y439420D02*
X482092D01*
X479298Y439166D02*
X482092D01*
X479298Y438912D02*
X482092D01*
X479298Y438658D02*
X482092D01*
X479298Y438404D02*
X482092D01*
X479298Y438150D02*
X482092D01*
X479298Y437896D02*
X482092D01*
X479298Y437642D02*
X482092D01*
X479298Y437388D02*
X482092D01*
X479298Y437134D02*
X482092D01*
X479298Y436880D02*
X482092D01*
X479298Y436626D02*
X482092D01*
X479298Y436372D02*
X482092D01*
X479298Y436118D02*
X482092D01*
X479298Y435864D02*
X482092D01*
X479298Y435610D02*
X482092D01*
X479298Y435356D02*
X482092D01*
X479298Y435102D02*
X482092D01*
X479298Y434848D02*
X482092D01*
X479298Y434594D02*
X482092D01*
X479298Y434340D02*
X482092D01*
X479298Y434086D02*
X482092D01*
X479298Y433832D02*
X482346D01*
X479298Y433578D02*
X482600D01*
X471424Y447040D02*
X476504D01*
X473202Y446786D02*
X476250D01*
X479298Y445262D02*
X482092D01*
X479298Y445008D02*
X482092D01*
X479298Y444754D02*
X482092D01*
X479298Y444500D02*
X482092D01*
X479298Y444246D02*
X482092D01*
X473202Y477520D02*
X476250D01*
X471170Y477266D02*
X476504D01*
X466090Y487426D02*
X467868D01*
X465836Y487172D02*
X468122D01*
X465582Y486918D02*
X468630D01*
X465074Y486664D02*
X468884D01*
X464820Y486410D02*
X469138D01*
X464566Y486156D02*
X469392D01*
X464058Y485902D02*
X469900D01*
X463804Y485648D02*
X470154D01*
X463550Y485394D02*
X470408D01*
X463042Y485140D02*
X470662D01*
X495300Y412242D02*
X499364D01*
X495300Y411988D02*
X499364D01*
X495300Y411734D02*
X499364D01*
X495300Y411480D02*
X499364D01*
X495300Y411226D02*
X499364D01*
X495300Y410972D02*
X499618D01*
X495300Y410718D02*
X499872D01*
X487172Y410464D02*
X491236D01*
X495300D02*
X500126D01*
X487172Y410210D02*
X491236D01*
X495300D02*
X500380D01*
X487172Y409956D02*
X491236D01*
X487426Y409702D02*
X491490D01*
X487426Y409448D02*
X491490D01*
X487426Y409194D02*
X491490D01*
X487426Y408940D02*
X491490D01*
X487680Y408686D02*
X491744D01*
X487680Y408432D02*
X491744D01*
X487680Y408178D02*
X491744D01*
X487680Y407924D02*
X491998D01*
X487934Y407670D02*
X491998D01*
X487934Y407416D02*
X491998D01*
X487934Y407162D02*
X492252D01*
X488188Y406908D02*
X492252D01*
X488188Y406654D02*
X492252D01*
X488188Y406400D02*
X492252D01*
X486664Y412242D02*
X490728D01*
X486664Y411988D02*
X490728D01*
X486664Y411734D02*
X490728D01*
X486918Y411480D02*
X490982D01*
X486918Y411226D02*
X490982D01*
X486918Y410972D02*
X490982D01*
X486918Y410718D02*
X491236D01*
X487680Y422910D02*
X492760D01*
X495300D02*
X500380D01*
X487934Y422656D02*
X492760D01*
X495300D02*
X500126D01*
X488188Y422402D02*
X492760D01*
X495300D02*
X499872D01*
X488442Y422148D02*
X492760D01*
X495300D02*
X499618D01*
X488696Y421894D02*
X492760D01*
X495300D02*
X499364D01*
X488950Y421640D02*
X492760D01*
X495300D02*
X499364D01*
X488950Y421386D02*
X492760D01*
X495300D02*
X499364D01*
X488950Y421132D02*
X492760D01*
X495300D02*
X499364D01*
X488950Y420878D02*
X492760D01*
X495300D02*
X499364D01*
X488950Y420624D02*
X492760D01*
X495300D02*
X499364D01*
X488950Y420370D02*
X492760D01*
X495300D02*
X499364D01*
X488950Y420116D02*
X492760D01*
X495300D02*
X499364D01*
X488950Y419862D02*
X492760D01*
X495300D02*
X499364D01*
X488696Y419608D02*
X492760D01*
X495300D02*
X499364D01*
X488442Y419354D02*
X492760D01*
X495300D02*
X499364D01*
X488188Y419100D02*
X492760D01*
X495300D02*
X499364D01*
X487934Y418846D02*
X492760D01*
X495300D02*
X499364D01*
X487680Y418592D02*
X492760D01*
X495300D02*
X499364D01*
X495300Y418338D02*
X499364D01*
X495300Y418084D02*
X499364D01*
X495300Y417830D02*
X499364D01*
X495300Y417576D02*
X499364D01*
X495300Y417322D02*
X499364D01*
X495300Y417068D02*
X499364D01*
X495300Y416814D02*
X499364D01*
X495300Y416560D02*
X499364D01*
X495300Y416306D02*
X499364D01*
X495300Y416052D02*
X499364D01*
X495300Y415798D02*
X499364D01*
X495300Y415544D02*
X499364D01*
X495300Y415290D02*
X499364D01*
X495300Y415036D02*
X499364D01*
X495300Y414782D02*
X499364D01*
X495300Y414528D02*
X499364D01*
X495300Y414274D02*
X499364D01*
X495300Y414020D02*
X499364D01*
X495300Y413766D02*
X499364D01*
X495300Y413512D02*
X499364D01*
X495300Y413258D02*
X499364D01*
X495300Y413004D02*
X499364D01*
X495300Y412750D02*
X499364D01*
X489966Y432562D02*
X492760D01*
X495046D02*
X498856D01*
X489966Y432308D02*
X492760D01*
X495300D02*
X498856D01*
X489966Y432054D02*
X492760D01*
X495300D02*
X498856D01*
X489966Y431800D02*
X492760D01*
X495554D02*
X498856D01*
X489966Y431546D02*
X492760D01*
X495554D02*
X498856D01*
X489966Y431292D02*
X492760D01*
X495808D02*
X498856D01*
X489966Y431038D02*
X492760D01*
X495808D02*
X498856D01*
X489966Y430784D02*
X492760D01*
X496062D02*
X498856D01*
X485902Y414528D02*
X489966D01*
X486156Y414274D02*
X490220D01*
X486156Y414020D02*
X490220D01*
X486156Y413766D02*
X490220D01*
X486156Y413512D02*
X490474D01*
X486410Y413258D02*
X490474D01*
X486410Y413004D02*
X490474D01*
X486410Y412750D02*
X490474D01*
X489966Y443992D02*
X493522D01*
X496062D02*
X498856D01*
X489966Y443738D02*
X493522D01*
X496062D02*
X498856D01*
X489966Y443484D02*
X493776D01*
X496062D02*
X498856D01*
X489966Y443230D02*
X493776D01*
X496062D02*
X498856D01*
X489966Y442976D02*
X494030D01*
X496062D02*
X498856D01*
X489966Y442722D02*
X494030D01*
X496062D02*
X498856D01*
X489966Y442468D02*
X494284D01*
X496062D02*
X498856D01*
X489966Y442214D02*
X494284D01*
X496062D02*
X498856D01*
X489966Y441960D02*
X494284D01*
X496062D02*
X498856D01*
X489966Y441706D02*
X494538D01*
X496062D02*
X498856D01*
X489966Y441452D02*
X494538D01*
X496062D02*
X498856D01*
X489966Y441198D02*
X494792D01*
X496062D02*
X498856D01*
X489966Y440944D02*
X494792D01*
X496062D02*
X498856D01*
X489966Y440690D02*
X495046D01*
X496062D02*
X498856D01*
X489966Y440436D02*
X495046D01*
X496062D02*
X498856D01*
X489966Y440182D02*
X495300D01*
X496062D02*
X498856D01*
X489966Y439928D02*
X495300D01*
X496062D02*
X498856D01*
X489966Y439674D02*
X495300D01*
X496062D02*
X498856D01*
X489966Y439420D02*
X495554D01*
X496062D02*
X498856D01*
X489966Y439166D02*
X495554D01*
X496062D02*
X498856D01*
X489966Y438912D02*
X495808D01*
X496062D02*
X498856D01*
X489966Y438658D02*
X495808D01*
X496062D02*
X498856D01*
X489966Y438404D02*
X498856D01*
X489966Y438150D02*
X498856D01*
X489966Y437896D02*
X498856D01*
X489966Y437642D02*
X498856D01*
X489966Y437388D02*
X492760D01*
X493014D02*
X498856D01*
X489966Y437134D02*
X492760D01*
X493014D02*
X498856D01*
X489966Y436880D02*
X492760D01*
X493268D02*
X498856D01*
X489966Y436626D02*
X492760D01*
X493268D02*
X498856D01*
X489966Y436372D02*
X492760D01*
X493522D02*
X498856D01*
X489966Y436118D02*
X492760D01*
X493522D02*
X498856D01*
X489966Y435864D02*
X492760D01*
X493776D02*
X498856D01*
X489966Y435610D02*
X492760D01*
X493776D02*
X498856D01*
X489966Y435356D02*
X492760D01*
X494030D02*
X498856D01*
X489966Y435102D02*
X492760D01*
X494030D02*
X498856D01*
X489966Y434848D02*
X492760D01*
X494030D02*
X498856D01*
X489966Y434594D02*
X492760D01*
X494284D02*
X498856D01*
X489966Y434340D02*
X492760D01*
X494284D02*
X498856D01*
X489966Y434086D02*
X492760D01*
X494538D02*
X498856D01*
X489966Y433832D02*
X492760D01*
X494538D02*
X498856D01*
X489966Y433578D02*
X492760D01*
X494792D02*
X498856D01*
X489966Y433324D02*
X492760D01*
X494792D02*
X498856D01*
X489966Y433070D02*
X492760D01*
X495046D02*
X498856D01*
X489966Y445262D02*
X493014D01*
X496062D02*
X498856D01*
X489966Y445008D02*
X493014D01*
X496062D02*
X498856D01*
X489966Y444754D02*
X493268D01*
X496062D02*
X498856D01*
X489966Y444500D02*
X493268D01*
X496062D02*
X498856D01*
X489966Y444246D02*
X493268D01*
X496062D02*
X498856D01*
X485394Y443992D02*
X488188D01*
X485394Y443738D02*
X488188D01*
X485394Y443484D02*
X488188D01*
X485394Y443230D02*
X488188D01*
X485394Y442976D02*
X488188D01*
X485394Y442722D02*
X488188D01*
X485394Y442468D02*
X488188D01*
X485394Y442214D02*
X488188D01*
X485394Y441960D02*
X488188D01*
X485394Y441706D02*
X488188D01*
X485394Y441452D02*
X488188D01*
X485394Y441198D02*
X488188D01*
X485394Y440944D02*
X488188D01*
X485394Y440690D02*
X488188D01*
X485394Y440436D02*
X488188D01*
X485394Y440182D02*
X488188D01*
X485394Y439928D02*
X488188D01*
X485394Y439674D02*
X488188D01*
X485394Y439420D02*
X488188D01*
X485394Y439166D02*
X488188D01*
X485394Y438912D02*
X488188D01*
X485394Y438658D02*
X488188D01*
X485394Y438404D02*
X488188D01*
X485394Y438150D02*
X488188D01*
X485394Y437896D02*
X488188D01*
X485394Y437642D02*
X488188D01*
X485394Y437388D02*
X488188D01*
X485394Y437134D02*
X488188D01*
X485394Y436880D02*
X488188D01*
X485394Y436626D02*
X488188D01*
X485394Y436372D02*
X488188D01*
X485394Y436118D02*
X488188D01*
X485394Y435864D02*
X488188D01*
X485394Y435610D02*
X488188D01*
X485394Y435356D02*
X488188D01*
X485394Y435102D02*
X488188D01*
X485394Y434848D02*
X488188D01*
X485394Y434594D02*
X488188D01*
X485394Y434340D02*
X488188D01*
X485140Y434086D02*
X488188D01*
X484886Y433832D02*
X488188D01*
X484632Y433578D02*
X488188D01*
X485394Y445262D02*
X488188D01*
X485394Y445008D02*
X488188D01*
X485394Y444754D02*
X488188D01*
X485394Y444500D02*
X488188D01*
X485394Y444246D02*
X488188D01*
X510286Y412242D02*
X514096D01*
X518668D02*
X522732D01*
X510286Y411988D02*
X514096D01*
X518668D02*
X522732D01*
X510286Y411734D02*
X514096D01*
X518668D02*
X522732D01*
X510286Y411480D02*
X514096D01*
X518668D02*
X522732D01*
X510286Y411226D02*
X514096D01*
X518668D02*
X522732D01*
X510286Y410972D02*
X514096D01*
X518414D02*
X522732D01*
X510286Y410718D02*
X514096D01*
X518160D02*
X522732D01*
X510286Y410464D02*
X514096D01*
X517906D02*
X522732D01*
X510286Y410210D02*
X514350D01*
X517398D02*
X522732D01*
X510286Y409956D02*
X522732D01*
X510286Y409702D02*
X522732D01*
X510286Y409448D02*
X522478D01*
X510286Y409194D02*
X522224D01*
X510286Y408940D02*
X521970D01*
X510286Y408686D02*
X521716D01*
X510286Y408432D02*
X521462D01*
X510286Y408178D02*
X521208D01*
X510286Y407924D02*
X520954D01*
X510286Y407670D02*
X520700D01*
X510286Y407416D02*
X520446D01*
X510286Y407162D02*
X520192D01*
X510286Y406908D02*
X519938D01*
X510286Y406654D02*
X519684D01*
X510286Y406400D02*
X519430D01*
X503682Y412242D02*
X507746D01*
X503682Y411988D02*
X507746D01*
X503682Y411734D02*
X507746D01*
X503682Y411480D02*
X507746D01*
X503682Y411226D02*
X507746D01*
X510286Y423672D02*
X522478D01*
X510286Y423418D02*
X522732D01*
X510286Y423164D02*
X522732D01*
X510286Y422910D02*
X514350D01*
X517398D02*
X522732D01*
X510286Y422656D02*
X514096D01*
X517906D02*
X522732D01*
X510286Y422402D02*
X514096D01*
X518160D02*
X522732D01*
X510286Y422148D02*
X514096D01*
X518414D02*
X522732D01*
X510286Y421894D02*
X514096D01*
X518668D02*
X522732D01*
X510286Y421640D02*
X514096D01*
X518668D02*
X522732D01*
X510286Y421386D02*
X514096D01*
X518668D02*
X522732D01*
X510286Y421132D02*
X514096D01*
X518668D02*
X522732D01*
X510286Y420878D02*
X514096D01*
X518668D02*
X522732D01*
X510286Y420624D02*
X514096D01*
X518668D02*
X522732D01*
X510286Y420370D02*
X514096D01*
X518668D02*
X522732D01*
X510286Y420116D02*
X514096D01*
X518668D02*
X522732D01*
X510286Y419862D02*
X514096D01*
X518668D02*
X522732D01*
X510286Y419608D02*
X514096D01*
X518668D02*
X522732D01*
X510286Y419354D02*
X514096D01*
X518414D02*
X522732D01*
X510286Y419100D02*
X514096D01*
X518160D02*
X522732D01*
X510286Y418846D02*
X514096D01*
X517906D02*
X522732D01*
X510286Y418592D02*
X514350D01*
X517652D02*
X522732D01*
X510286Y418338D02*
X522732D01*
X510286Y418084D02*
X522732D01*
X510286Y417830D02*
X522478D01*
X510286Y417576D02*
X522478D01*
X510286Y417322D02*
X522224D01*
X510286Y417068D02*
X521970D01*
X510286Y416814D02*
X521716D01*
X510286Y416560D02*
X521462D01*
X510286Y416306D02*
X521462D01*
X510286Y416052D02*
X521716D01*
X510286Y415798D02*
X521970D01*
X510286Y415544D02*
X522224D01*
X510286Y415290D02*
X522478D01*
X510286Y415036D02*
X522732D01*
X510286Y414782D02*
X522732D01*
X510286Y414528D02*
X514350D01*
X517652D02*
X522732D01*
X510286Y414274D02*
X514096D01*
X517906D02*
X522732D01*
X510286Y414020D02*
X514096D01*
X518160D02*
X522732D01*
X510286Y413766D02*
X514096D01*
X518414D02*
X522732D01*
X510286Y413512D02*
X514096D01*
X518668D02*
X522732D01*
X510286Y413258D02*
X514096D01*
X518668D02*
X522732D01*
X510286Y413004D02*
X514096D01*
X518668D02*
X522732D01*
X510286Y412750D02*
X514096D01*
X518668D02*
X522732D01*
X511556Y432562D02*
X520446D01*
X511556Y432308D02*
X520446D01*
X511556Y432054D02*
X520446D01*
X511556Y431800D02*
X520446D01*
X511556Y431546D02*
X520446D01*
X511556Y431292D02*
X520446D01*
X511556Y431038D02*
X520446D01*
X511556Y430784D02*
X520446D01*
X510286Y426720D02*
X519430D01*
X510286Y426466D02*
X519684D01*
X510286Y426212D02*
X519938D01*
X510286Y425958D02*
X520192D01*
X510286Y425704D02*
X520446D01*
X510286Y425450D02*
X520700D01*
X510286Y425196D02*
X520954D01*
X510286Y424942D02*
X521208D01*
X510286Y424688D02*
X521462D01*
X510286Y424434D02*
X521716D01*
X510286Y424180D02*
X521970D01*
X510286Y423926D02*
X522224D01*
X503682Y421894D02*
X507746D01*
X503682Y421640D02*
X507746D01*
X503682Y421386D02*
X507746D01*
X503682Y421132D02*
X507746D01*
X503682Y420878D02*
X507746D01*
X503682Y420624D02*
X507746D01*
X503682Y420370D02*
X507746D01*
X503682Y420116D02*
X507746D01*
X503682Y419862D02*
X507746D01*
X503682Y419608D02*
X507746D01*
X503682Y419354D02*
X507746D01*
X503682Y419100D02*
X507746D01*
X503682Y418846D02*
X507746D01*
X503682Y418592D02*
X507746D01*
X503682Y418338D02*
X507746D01*
X503682Y418084D02*
X507746D01*
X503682Y417830D02*
X507746D01*
X503682Y417576D02*
X507746D01*
X503682Y417322D02*
X507746D01*
X503682Y417068D02*
X507746D01*
X503682Y416814D02*
X507746D01*
X503682Y416560D02*
X507746D01*
X503682Y416306D02*
X507746D01*
X503682Y416052D02*
X507746D01*
X503682Y415798D02*
X507746D01*
X503682Y415544D02*
X507746D01*
X503682Y415290D02*
X507746D01*
X503682Y415036D02*
X507746D01*
X503682Y414782D02*
X507746D01*
X503682Y414528D02*
X507746D01*
X503682Y414274D02*
X507746D01*
X503682Y414020D02*
X507746D01*
X503682Y413766D02*
X507746D01*
X503682Y413512D02*
X507746D01*
X503682Y413258D02*
X507746D01*
X503682Y413004D02*
X507746D01*
X503682Y412750D02*
X507746D01*
X511556Y443992D02*
X520446D01*
X511556Y443738D02*
X520446D01*
X511556Y443484D02*
X520446D01*
X511556Y443230D02*
X520446D01*
X511556Y442976D02*
X520446D01*
X511556Y442722D02*
X520446D01*
X511556Y442468D02*
X514350D01*
X511556Y442214D02*
X514350D01*
X511556Y441960D02*
X514350D01*
X511556Y441706D02*
X514350D01*
X511556Y441452D02*
X514350D01*
X511556Y441198D02*
X514350D01*
X511556Y440944D02*
X514350D01*
X511556Y440690D02*
X514350D01*
X511556Y440436D02*
X514350D01*
X511556Y440182D02*
X514350D01*
X511556Y439928D02*
X514350D01*
X511556Y439674D02*
X514350D01*
X511556Y439420D02*
X517144D01*
X511556Y439166D02*
X517398D01*
X511556Y438912D02*
X517144D01*
X511556Y438658D02*
X517144D01*
X511556Y438404D02*
X517144D01*
X511556Y438150D02*
X517144D01*
X511556Y437896D02*
X517144D01*
X511556Y437642D02*
X517144D01*
X511556Y437388D02*
X517144D01*
X511556Y437134D02*
X517144D01*
X511556Y436880D02*
X517398D01*
X511556Y436626D02*
X517144D01*
X511556Y436372D02*
X514350D01*
X511556Y436118D02*
X514350D01*
X511556Y435864D02*
X514350D01*
X511556Y435610D02*
X514350D01*
X511556Y435356D02*
X514350D01*
X511556Y435102D02*
X514350D01*
X511556Y434848D02*
X514350D01*
X511556Y434594D02*
X514350D01*
X511556Y434340D02*
X514350D01*
X511556Y434086D02*
X514350D01*
X511556Y433832D02*
X514350D01*
X511556Y433578D02*
X514350D01*
X511556Y433324D02*
X520446D01*
X511556Y433070D02*
X520446D01*
X511556Y445262D02*
X520446D01*
X511556Y445008D02*
X520446D01*
X511556Y444754D02*
X520446D01*
X511556Y444500D02*
X520446D01*
X511556Y444246D02*
X520446D01*
X506222Y442468D02*
X509778D01*
X506476Y442214D02*
X509778D01*
X506730Y441960D02*
X509778D01*
X506730Y441706D02*
X509778D01*
X506730Y441452D02*
X509778D01*
X506730Y441198D02*
X509778D01*
X506730Y440944D02*
X509778D01*
X506730Y440690D02*
X509778D01*
X506730Y440436D02*
X509778D01*
X506730Y440182D02*
X509778D01*
X506730Y439928D02*
X509778D01*
X506730Y439674D02*
X509778D01*
X506730Y439420D02*
X509778D01*
X506730Y439166D02*
X509778D01*
X506730Y438912D02*
X509778D01*
X506730Y438658D02*
X509778D01*
X506730Y438404D02*
X509778D01*
X506730Y438150D02*
X509778D01*
X506730Y437896D02*
X509778D01*
X506730Y437642D02*
X509778D01*
X506730Y437388D02*
X509778D01*
X506730Y437134D02*
X509778D01*
X506730Y436880D02*
X509778D01*
X506730Y436626D02*
X509778D01*
X506730Y436372D02*
X509778D01*
X506730Y436118D02*
X509778D01*
X506730Y435864D02*
X509778D01*
X506730Y435610D02*
X509778D01*
X506730Y435356D02*
X509778D01*
X506730Y435102D02*
X509778D01*
X506730Y434848D02*
X509778D01*
X506730Y434594D02*
X509778D01*
X506730Y434340D02*
X509778D01*
X506730Y434086D02*
X509778D01*
X506476Y433832D02*
X509778D01*
X506222Y433578D02*
X509778D01*
X533654Y412242D02*
X537464D01*
X533654Y411988D02*
X537464D01*
X533654Y411734D02*
X537464D01*
X533654Y411480D02*
X537464D01*
X533400Y411226D02*
X537464D01*
X533146Y410972D02*
X537464D01*
X532892Y410718D02*
X537464D01*
X532638Y410464D02*
X537464D01*
X532384Y410210D02*
X537464D01*
X527812Y406908D02*
X534924D01*
X528066Y406654D02*
X534670D01*
X528320Y406400D02*
X534416D01*
X525272Y412242D02*
X529082D01*
X525272Y411988D02*
X529082D01*
X525272Y411734D02*
X529082D01*
X525272Y411480D02*
X529082D01*
X525272Y411226D02*
X529082D01*
X525272Y410972D02*
X529336D01*
X525272Y410718D02*
X529590D01*
X525272Y410464D02*
X529844D01*
X525272Y410210D02*
X530352D01*
X525272Y409956D02*
X537464D01*
X525272Y409702D02*
X537464D01*
X525272Y409448D02*
X537464D01*
X525526Y409194D02*
X537210D01*
X525780Y408940D02*
X536956D01*
X526034Y408686D02*
X536702D01*
X526288Y408432D02*
X536448D01*
X526542Y408178D02*
X536194D01*
X526796Y407924D02*
X535940D01*
X527050Y407670D02*
X535686D01*
X527304Y407416D02*
X535432D01*
X527558Y407162D02*
X535178D01*
X532384Y422910D02*
X537464D01*
X532638Y422656D02*
X537464D01*
X532892Y422402D02*
X537464D01*
X533146Y422148D02*
X537464D01*
X533400Y421894D02*
X537464D01*
X533654Y421640D02*
X537464D01*
X533654Y421386D02*
X537464D01*
X533654Y421132D02*
X537464D01*
X533654Y420878D02*
X537464D01*
X533654Y420624D02*
X537464D01*
X533654Y420370D02*
X537464D01*
X533654Y420116D02*
X537464D01*
X533654Y419862D02*
X537464D01*
X533654Y419608D02*
X537464D01*
X533654Y419354D02*
X537464D01*
X533654Y419100D02*
X537464D01*
X533654Y418846D02*
X537464D01*
X533654Y418592D02*
X537464D01*
X533654Y418338D02*
X537464D01*
X533654Y418084D02*
X537464D01*
X533654Y417830D02*
X537464D01*
X533654Y417576D02*
X537464D01*
X533654Y417322D02*
X537464D01*
X533654Y417068D02*
X537464D01*
X533654Y416814D02*
X537464D01*
X533654Y416560D02*
X537464D01*
X533654Y416306D02*
X537464D01*
X533654Y416052D02*
X537464D01*
X533654Y415798D02*
X537464D01*
X533654Y415544D02*
X537464D01*
X533654Y415290D02*
X537464D01*
X533654Y415036D02*
X537464D01*
X533654Y414782D02*
X537464D01*
X533654Y414528D02*
X537464D01*
X533654Y414274D02*
X537464D01*
X533654Y414020D02*
X537464D01*
X533654Y413766D02*
X537464D01*
X533654Y413512D02*
X537464D01*
X533654Y413258D02*
X537464D01*
X533654Y413004D02*
X537464D01*
X533654Y412750D02*
X537464D01*
X534416Y432562D02*
X537972D01*
X539750D02*
X543306D01*
X534416Y432308D02*
X537972D01*
X539750D02*
X543306D01*
X534416Y432054D02*
X537972D01*
X540004D02*
X543306D01*
X527812Y431800D02*
X530606D01*
X534670D02*
X537972D01*
X540004D02*
X543306D01*
X527812Y431546D02*
X530860D01*
X534670D02*
X537718D01*
X540004D02*
X543306D01*
X527812Y431292D02*
X530860D01*
X534670D02*
X537718D01*
X540004D02*
X543306D01*
X527812Y431038D02*
X530860D01*
X534670D02*
X537718D01*
X540258D02*
X543306D01*
X528066Y430784D02*
X530860D01*
X534670D02*
X537718D01*
X540258D02*
X543306D01*
X528320Y426720D02*
X534416D01*
X528066Y426466D02*
X534670D01*
X527812Y426212D02*
X534924D01*
X525272Y423672D02*
X537464D01*
X525272Y423418D02*
X537464D01*
X525272Y423164D02*
X537464D01*
X525272Y422910D02*
X530352D01*
X525272Y422656D02*
X530098D01*
X525272Y422402D02*
X529590D01*
X525272Y422148D02*
X529336D01*
X525272Y421894D02*
X529082D01*
X525272Y421640D02*
X529082D01*
X525272Y421386D02*
X529082D01*
X525272Y421132D02*
X529082D01*
X525272Y420878D02*
X529082D01*
X525272Y420624D02*
X529082D01*
X525272Y420370D02*
X529082D01*
X525272Y420116D02*
X529082D01*
X525272Y419862D02*
X529082D01*
X525272Y419608D02*
X529082D01*
X525272Y419354D02*
X529082D01*
X525272Y419100D02*
X529082D01*
X525272Y418846D02*
X529082D01*
X525272Y418592D02*
X529082D01*
X525272Y418338D02*
X529082D01*
X525272Y418084D02*
X529082D01*
X525272Y417830D02*
X529082D01*
X525272Y417576D02*
X529082D01*
X525272Y417322D02*
X529082D01*
X525272Y417068D02*
X529082D01*
X525272Y416814D02*
X529082D01*
X525272Y416560D02*
X529082D01*
X525272Y416306D02*
X529082D01*
X525272Y416052D02*
X529082D01*
X525272Y415798D02*
X529082D01*
X525272Y415544D02*
X529082D01*
X525272Y415290D02*
X529082D01*
X525272Y415036D02*
X529082D01*
X525272Y414782D02*
X529082D01*
X525272Y414528D02*
X529082D01*
X525272Y414274D02*
X529082D01*
X525272Y414020D02*
X529082D01*
X525272Y413766D02*
X529082D01*
X525272Y413512D02*
X529082D01*
X525272Y413258D02*
X529082D01*
X525272Y413004D02*
X529082D01*
X525272Y412750D02*
X529082D01*
X527558Y432562D02*
X530352D01*
X527558Y432308D02*
X530606D01*
X527558Y432054D02*
X530606D01*
X527558Y425958D02*
X535178D01*
X527304Y425704D02*
X535432D01*
X527050Y425450D02*
X535686D01*
X526796Y425196D02*
X535940D01*
X526542Y424942D02*
X536194D01*
X526288Y424688D02*
X536448D01*
X526034Y424434D02*
X536702D01*
X525780Y424180D02*
X536956D01*
X525526Y423926D02*
X537210D01*
X533400Y443992D02*
X536194D01*
X538226D02*
X539750D01*
X533400Y443738D02*
X536194D01*
X537972D02*
X539750D01*
X533400Y443484D02*
X536194D01*
X537972D02*
X539750D01*
X533400Y443230D02*
X536194D01*
X537972D02*
X540004D01*
X533400Y442976D02*
X536448D01*
X537718D02*
X540004D01*
X533400Y442722D02*
X536448D01*
X537718D02*
X540004D01*
X527812Y442468D02*
X531368D01*
X533400D02*
X536448D01*
X537718D02*
X540004D01*
X528066Y442214D02*
X531368D01*
X533400D02*
X536448D01*
X537718D02*
X540258D01*
X528320Y441960D02*
X531368D01*
X533654D02*
X536448D01*
X537464D02*
X540258D01*
X528574Y441706D02*
X531368D01*
X533654D02*
X536448D01*
X537464D02*
X540258D01*
X528574Y441452D02*
X531368D01*
X533654D02*
X536448D01*
X537464D02*
X540512D01*
X528574Y441198D02*
X531368D01*
X533654D02*
X536448D01*
X537464D02*
X540512D01*
X528574Y440944D02*
X531368D01*
X533654D02*
X536448D01*
X537210D02*
X540512D01*
X528574Y440690D02*
X531368D01*
X533654D02*
X536448D01*
X537210D02*
X540512D01*
X528574Y440436D02*
X531368D01*
X533654D02*
X536702D01*
X537210D02*
X540766D01*
X528320Y440182D02*
X531368D01*
X533654D02*
X536702D01*
X537210D02*
X540766D01*
X528066Y439928D02*
X531368D01*
X533654D02*
X536702D01*
X536956D02*
X540766D01*
X527812Y439674D02*
X531368D01*
X533654D02*
X536702D01*
X536956D02*
X540766D01*
X533908Y439420D02*
X536702D01*
X536956D02*
X541020D01*
X533908Y439166D02*
X536702D01*
X533908Y438150D02*
X543814D01*
X533908Y437896D02*
X543814D01*
X533908Y437642D02*
X543814D01*
X533908Y437388D02*
X543814D01*
X533908Y437134D02*
X543814D01*
X534162Y436880D02*
X543814D01*
X534162Y436626D02*
X543814D01*
X534162Y436372D02*
X543814D01*
X534162Y436118D02*
X543814D01*
X534162Y435864D02*
X543814D01*
X534162Y435610D02*
X543560D01*
X534162Y435356D02*
X538734D01*
X538988D02*
X543560D01*
X534162Y435102D02*
X538734D01*
X538988D02*
X543560D01*
X534162Y434848D02*
X538734D01*
X539242D02*
X543560D01*
X534162Y434594D02*
X538734D01*
X539242D02*
X543560D01*
X534416Y434340D02*
X538480D01*
X539242D02*
X543560D01*
X534416Y434086D02*
X538480D01*
X539242D02*
X543560D01*
X534416Y433832D02*
X538480D01*
X539496D02*
X543560D01*
X534416Y433578D02*
X538226D01*
X539496D02*
X543560D01*
X534416Y433324D02*
X538226D01*
X539496D02*
X543560D01*
X534416Y433070D02*
X538226D01*
X539496D02*
X543306D01*
X533146Y445262D02*
X536194D01*
X538480D02*
X539496D01*
X533146Y445008D02*
X536194D01*
X538480D02*
X539496D01*
X533146Y444754D02*
X536194D01*
X538226D02*
X539496D01*
X533400Y444500D02*
X536194D01*
X538226D02*
X539496D01*
X533400Y444246D02*
X536194D01*
X538226D02*
X539750D01*
X526542Y436372D02*
X529336D01*
X526542Y436118D02*
X529590D01*
X526542Y435864D02*
X529590D01*
X526542Y435610D02*
X529590D01*
X526796Y435356D02*
X529590D01*
X526796Y435102D02*
X529844D01*
X526796Y434848D02*
X529844D01*
X526796Y434594D02*
X529844D01*
X527050Y434340D02*
X530098D01*
X527050Y434086D02*
X530098D01*
X527050Y433832D02*
X530098D01*
X527304Y433578D02*
X530098D01*
X527304Y433324D02*
X530352D01*
X527304Y433070D02*
X530352D01*
X553720Y412242D02*
X557784D01*
X553720Y411988D02*
X557784D01*
X553720Y411734D02*
X557784D01*
X553720Y411480D02*
X557784D01*
X553720Y411226D02*
X557784D01*
X553720Y410972D02*
X557784D01*
X553720Y410718D02*
X557784D01*
X553720Y410464D02*
X557784D01*
X553720Y410210D02*
X557784D01*
X553720Y409956D02*
X557784D01*
X553720Y409702D02*
X557784D01*
X553720Y409448D02*
X557784D01*
X553720Y409194D02*
X557784D01*
X553720Y408940D02*
X557784D01*
X553720Y408686D02*
X557784D01*
X553720Y408432D02*
X557784D01*
X553720Y408178D02*
X557784D01*
X553720Y407924D02*
X557784D01*
X553720Y407670D02*
X557784D01*
X553720Y407416D02*
X557784D01*
X553720Y407162D02*
X557784D01*
X553720Y406908D02*
X557784D01*
X553720Y406654D02*
X557784D01*
X553720Y406400D02*
X557784D01*
X553720Y423672D02*
X557784D01*
X553720Y423418D02*
X557784D01*
X553720Y423164D02*
X557784D01*
X553720Y422910D02*
X557784D01*
X553720Y422656D02*
X557784D01*
X553720Y422402D02*
X557784D01*
X553720Y422148D02*
X557784D01*
X553720Y421894D02*
X557784D01*
X553720Y421640D02*
X557784D01*
X553720Y421386D02*
X557784D01*
X553720Y421132D02*
X557784D01*
X553720Y420878D02*
X557784D01*
X553720Y420624D02*
X557784D01*
X553720Y420370D02*
X557784D01*
X553720Y420116D02*
X557784D01*
X553720Y419862D02*
X557784D01*
X553720Y419608D02*
X557784D01*
X553720Y419354D02*
X557784D01*
X553720Y419100D02*
X557784D01*
X553720Y418846D02*
X557784D01*
X553720Y418592D02*
X557784D01*
X553720Y418338D02*
X557784D01*
X553720Y418084D02*
X557784D01*
X553720Y417830D02*
X557784D01*
X553720Y417576D02*
X557784D01*
X553720Y417322D02*
X557784D01*
X553720Y417068D02*
X557784D01*
X553720Y416814D02*
X557784D01*
X553720Y416560D02*
X557784D01*
X553720Y416306D02*
X557784D01*
X553720Y416052D02*
X557784D01*
X553720Y415798D02*
X557784D01*
X553720Y415544D02*
X557784D01*
X553720Y415290D02*
X557784D01*
X553720Y415036D02*
X557784D01*
X553720Y414782D02*
X557784D01*
X553720Y414528D02*
X557784D01*
X553720Y414274D02*
X557784D01*
X553720Y414020D02*
X557784D01*
X553720Y413766D02*
X557784D01*
X553720Y413512D02*
X557784D01*
X553720Y413258D02*
X557784D01*
X553720Y413004D02*
X557784D01*
X553720Y412750D02*
X557784D01*
X560070Y432562D02*
X562864D01*
X560070Y432308D02*
X562864D01*
X560070Y432054D02*
X562864D01*
X560070Y431800D02*
X562864D01*
X552196Y431546D02*
X555244D01*
X560070D02*
X562864D01*
X552450Y431292D02*
X555244D01*
X560070D02*
X562864D01*
X552450Y431038D02*
X555498D01*
X560070D02*
X562864D01*
X552450Y430784D02*
X555498D01*
X560070D02*
X562864D01*
X553720Y426720D02*
X557784D01*
X553720Y426466D02*
X557784D01*
X553720Y426212D02*
X557784D01*
X553720Y425958D02*
X557784D01*
X553720Y425704D02*
X557784D01*
X553720Y425450D02*
X557784D01*
X553720Y425196D02*
X557784D01*
X553720Y424942D02*
X557784D01*
X553720Y424688D02*
X557784D01*
X553720Y424434D02*
X557784D01*
X553720Y424180D02*
X557784D01*
X553720Y423926D02*
X557784D01*
X546862Y432562D02*
X554990D01*
X546862Y432308D02*
X555244D01*
X546862Y432054D02*
X555244D01*
X546862Y431800D02*
X555244D01*
X546608Y431546D02*
X549656D01*
X546608Y431292D02*
X549656D01*
X546608Y431038D02*
X549402D01*
X546608Y430784D02*
X549402D01*
X549148Y443992D02*
X552704D01*
X549148Y443738D02*
X552958D01*
X549148Y443484D02*
X552958D01*
X548894Y443230D02*
X552958D01*
X548894Y442976D02*
X552958D01*
X548894Y442722D02*
X552958D01*
X548894Y442468D02*
X553212D01*
X560070D02*
X562864D01*
X548894Y442214D02*
X553212D01*
X560070D02*
X562864D01*
X548894Y441960D02*
X553212D01*
X560070D02*
X562864D01*
X548640Y441706D02*
X553212D01*
X560070D02*
X562864D01*
X548640Y441452D02*
X553212D01*
X560070D02*
X562864D01*
X548640Y441198D02*
X553466D01*
X560070D02*
X562864D01*
X548640Y440944D02*
X553466D01*
X560070D02*
X562864D01*
X548640Y440690D02*
X553466D01*
X560070D02*
X562864D01*
X548386Y440436D02*
X553466D01*
X560070D02*
X562864D01*
X548386Y440182D02*
X553466D01*
X560070D02*
X562864D01*
X548386Y439928D02*
X553720D01*
X560070D02*
X562864D01*
X548386Y439674D02*
X553720D01*
X560070D02*
X562864D01*
X548386Y439420D02*
X553720D01*
X560070D02*
X562864D01*
X548132Y439166D02*
X553720D01*
X560070D02*
X562864D01*
X548132Y438912D02*
X553720D01*
X560070D02*
X562864D01*
X548132Y438658D02*
X553974D01*
X560070D02*
X562864D01*
X548132Y438404D02*
X553974D01*
X560070D02*
X562864D01*
X548132Y438150D02*
X553974D01*
X560070D02*
X562864D01*
X551180Y437896D02*
X553974D01*
X560070D02*
X562864D01*
X551180Y437642D02*
X553974D01*
X560070D02*
X562864D01*
X551180Y437388D02*
X554228D01*
X560070D02*
X562864D01*
X551180Y437134D02*
X554228D01*
X560070D02*
X562864D01*
X551180Y436880D02*
X554228D01*
X560070D02*
X562864D01*
X551434Y436626D02*
X554228D01*
X560070D02*
X562864D01*
X551434Y436372D02*
X554228D01*
X560070D02*
X562864D01*
X551434Y436118D02*
X554482D01*
X560070D02*
X562864D01*
X551434Y435864D02*
X554482D01*
X560070D02*
X562864D01*
X551434Y435610D02*
X554482D01*
X560070D02*
X562864D01*
X551688Y435356D02*
X554482D01*
X560070D02*
X562864D01*
X551688Y435102D02*
X554482D01*
X560070D02*
X562864D01*
X551688Y434848D02*
X554736D01*
X560070D02*
X562864D01*
X551688Y434594D02*
X554736D01*
X560070D02*
X562864D01*
X560070Y434340D02*
X562864D01*
X560070Y434086D02*
X562864D01*
X560070Y433832D02*
X562864D01*
X560070Y433578D02*
X562864D01*
X560070Y433324D02*
X562864D01*
X560070Y433070D02*
X562864D01*
X549402Y445262D02*
X552704D01*
X549402Y445008D02*
X552704D01*
X549402Y444754D02*
X552704D01*
X549148Y444500D02*
X552704D01*
X549148Y444246D02*
X552704D01*
X547878Y437896D02*
X550926D01*
X547878Y437642D02*
X550926D01*
X547878Y437388D02*
X550672D01*
X547878Y437134D02*
X550672D01*
X547878Y436880D02*
X550672D01*
X547624Y436626D02*
X550672D01*
X547624Y436372D02*
X550672D01*
X547624Y436118D02*
X550418D01*
X547624Y435864D02*
X550418D01*
X547624Y435610D02*
X550418D01*
X547370Y435356D02*
X550418D01*
X547370Y435102D02*
X550418D01*
X547370Y434848D02*
X550418D01*
X547370Y434594D02*
X550164D01*
X547370Y434340D02*
X554736D01*
X547116Y434086D02*
X554736D01*
X547116Y433832D02*
X554736D01*
X547116Y433578D02*
X554990D01*
X547116Y433324D02*
X554990D01*
X547116Y433070D02*
X554990D01*
X568960Y412242D02*
X572770D01*
X575310D02*
X579374D01*
X568960Y411988D02*
X572770D01*
X575310D02*
X579374D01*
X568960Y411734D02*
X572770D01*
X575310D02*
X579374D01*
X568960Y411480D02*
X572770D01*
X575310D02*
X579374D01*
X568706Y411226D02*
X572770D01*
X575310D02*
X579374D01*
X568452Y410972D02*
X572770D01*
X575310D02*
X579628D01*
X575310Y410718D02*
X579882D01*
X575310Y410464D02*
X580136D01*
X575310Y410210D02*
X580390D01*
X568198Y410718D02*
X572770D01*
X567944Y410464D02*
X572770D01*
X567690Y410210D02*
X572770D01*
X575310Y422910D02*
X580390D01*
X575310Y422656D02*
X580136D01*
X575310Y422402D02*
X579882D01*
X568452Y422148D02*
X572770D01*
X575310D02*
X579628D01*
X568706Y421894D02*
X572770D01*
X575310D02*
X579374D01*
X568960Y421640D02*
X572770D01*
X575310D02*
X579374D01*
X568960Y421386D02*
X572770D01*
X575310D02*
X579374D01*
X568960Y421132D02*
X572770D01*
X575310D02*
X579374D01*
X568960Y420878D02*
X572770D01*
X575310D02*
X579374D01*
X568960Y420624D02*
X572770D01*
X575310D02*
X579374D01*
X568960Y420370D02*
X572770D01*
X575310D02*
X579374D01*
X575310Y420116D02*
X579374D01*
X575310Y419862D02*
X579374D01*
X575310Y419608D02*
X579374D01*
X575310Y419354D02*
X579628D01*
X575310Y419100D02*
X579882D01*
X575310Y418846D02*
X580136D01*
X575310Y418592D02*
X580390D01*
X568960Y412750D02*
X572770D01*
X575310D02*
X579374D01*
X578104Y432562D02*
X580898D01*
X578104Y432308D02*
X580898D01*
X578104Y432054D02*
X580898D01*
X578104Y431800D02*
X580898D01*
X578104Y431546D02*
X580898D01*
X578104Y431292D02*
X580898D01*
X578104Y431038D02*
X580898D01*
X578104Y430784D02*
X580898D01*
X567690Y422910D02*
X572770D01*
X567944Y422656D02*
X572770D01*
X568198Y422402D02*
X572770D01*
X567436Y432562D02*
X576326D01*
X567436Y432308D02*
X576326D01*
X567436Y432054D02*
X576326D01*
X567436Y431800D02*
X576326D01*
X567436Y431546D02*
X576326D01*
X567436Y431292D02*
X576326D01*
X567436Y431038D02*
X576326D01*
X567436Y430784D02*
X576326D01*
X578104Y442468D02*
X580898D01*
X578104Y442214D02*
X580898D01*
X578104Y441960D02*
X580898D01*
X578104Y441706D02*
X580898D01*
X578104Y441452D02*
X580898D01*
X578104Y441198D02*
X580898D01*
X578104Y440944D02*
X580898D01*
X578104Y440690D02*
X580898D01*
X578104Y440436D02*
X580898D01*
X578104Y440182D02*
X580898D01*
X578104Y439928D02*
X580898D01*
X578104Y439674D02*
X580898D01*
X578104Y436372D02*
X580898D01*
X578104Y436118D02*
X580898D01*
X578104Y435864D02*
X580898D01*
X578104Y435610D02*
X580898D01*
X578104Y435356D02*
X580898D01*
X578104Y435102D02*
X580898D01*
X578104Y434848D02*
X580898D01*
X578104Y434594D02*
X580898D01*
X578104Y434340D02*
X580898D01*
X578104Y434086D02*
X580898D01*
X578104Y433832D02*
X580898D01*
X578104Y433578D02*
X580898D01*
X578104Y433324D02*
X580898D01*
X578104Y433070D02*
X580898D01*
X567436Y443992D02*
X576326D01*
X567436Y443738D02*
X576326D01*
X567436Y443484D02*
X576326D01*
X567436Y443230D02*
X576326D01*
X567436Y442976D02*
X576326D01*
X567436Y442722D02*
X576326D01*
X567436Y442468D02*
X570230D01*
X567436Y442214D02*
X570230D01*
X567436Y441960D02*
X570230D01*
X567436Y441706D02*
X570230D01*
X567436Y441452D02*
X570230D01*
X567436Y441198D02*
X570230D01*
X567436Y440944D02*
X570230D01*
X567436Y440690D02*
X570230D01*
X567436Y440436D02*
X570230D01*
X567436Y440182D02*
X570230D01*
X567436Y439928D02*
X570230D01*
X567436Y439674D02*
X570230D01*
X567436Y439420D02*
X573024D01*
X567436Y439166D02*
X573024D01*
X567436Y438912D02*
X573024D01*
X567436Y438658D02*
X573024D01*
X567436Y438404D02*
X573024D01*
X567436Y438150D02*
X573024D01*
X567436Y437896D02*
X573024D01*
X567436Y437642D02*
X573024D01*
X567436Y437388D02*
X573024D01*
X567436Y437134D02*
X573024D01*
X567436Y436880D02*
X573024D01*
X567436Y436626D02*
X573024D01*
X567436Y436372D02*
X570230D01*
X567436Y436118D02*
X570230D01*
X567436Y435864D02*
X570230D01*
X567436Y435610D02*
X570230D01*
X567436Y435356D02*
X570230D01*
X567436Y435102D02*
X570230D01*
X567436Y434848D02*
X570230D01*
X567436Y434594D02*
X570230D01*
X567436Y434340D02*
X570230D01*
X567436Y434086D02*
X570230D01*
X567436Y433832D02*
X570230D01*
X567436Y433578D02*
X570230D01*
X567436Y433324D02*
X576326D01*
X567436Y433070D02*
X576326D01*
X567436Y445262D02*
X576326D01*
X567436Y445008D02*
X576326D01*
X567436Y444754D02*
X576326D01*
X567436Y444500D02*
X576326D01*
X567436Y444246D02*
X576326D01*
X389636Y432816D02*
X393954D01*
X388620Y453136D02*
X390144D01*
X437896Y412496D02*
X439674D01*
X443738D02*
X445516D01*
X448056D02*
X449580D01*
X452882D02*
X455930D01*
X458216D02*
X459740D01*
X464312D02*
X465836D01*
X467360D02*
X468884D01*
X470408D02*
X473710D01*
X495300D02*
X499364D01*
X489966Y432816D02*
X492760D01*
X495046D02*
X498856D01*
X486410Y412496D02*
X490728D01*
X510286D02*
X514096D01*
X518668D02*
X522732D01*
X511556Y432816D02*
X520446D01*
X503682Y412496D02*
X507746D01*
X533654D02*
X537464D01*
X534416Y432816D02*
X538226D01*
X539750D02*
X543306D01*
X525272Y412496D02*
X529082D01*
X527304Y432816D02*
X530352D01*
X553720Y412496D02*
X557784D01*
X560070Y432816D02*
X562864D01*
X546862D02*
X554990D01*
X568960Y412496D02*
X572770D01*
X575310D02*
X579374D01*
X578104Y432816D02*
X580898D01*
X567436D02*
X576326D01*
X397002Y420624D02*
X402336D01*
X396494Y420370D02*
X402082D01*
X396240Y420116D02*
X402082D01*
X395732Y419862D02*
X402082D01*
X395478Y419608D02*
X402082D01*
X394970Y419354D02*
X402082D01*
X394970Y419100D02*
X402082D01*
X395224Y432562D02*
X407162D01*
X394970Y432308D02*
X407162D01*
X394462Y432054D02*
X407162D01*
X394208Y431800D02*
X407162D01*
X393954Y431546D02*
X407416D01*
X393446Y431292D02*
X407416D01*
X393192Y431038D02*
X407416D01*
X392938Y430784D02*
X407670D01*
X392938Y430530D02*
X407670D01*
X392938Y430276D02*
X407924D01*
X393192Y430022D02*
X407924D01*
X393192Y429768D02*
X407924D01*
X393446Y429514D02*
X408178D01*
X393700Y429260D02*
X408178D01*
X393700Y429006D02*
X408432D01*
X393954Y428752D02*
X408432D01*
X394208Y428498D02*
X408686D01*
X394462Y428244D02*
X408686D01*
X394462Y427990D02*
X408940D01*
X394716Y427736D02*
X408940D01*
X395478Y427482D02*
X409194D01*
X395986Y427228D02*
X409448D01*
X395986Y426974D02*
X409448D01*
X396240Y426720D02*
X409702D01*
X396240Y426466D02*
X409956D01*
X396240Y426212D02*
X410210D01*
X396240Y425958D02*
X410464D01*
X395986Y425704D02*
X410972D01*
X396240Y425450D02*
X411226D01*
X396494Y425196D02*
X411480D01*
X390652Y440182D02*
X401828D01*
X390398Y439928D02*
X402336D01*
X389890Y439674D02*
X402590D01*
X389636Y439420D02*
X402590D01*
X389382Y439166D02*
X402590D01*
X388874Y438912D02*
X402590D01*
X388874Y438658D02*
X402844D01*
X388874Y438404D02*
X403098D01*
X401320Y438150D02*
X403352D01*
X398780Y443992D02*
X405638D01*
X399034Y443738D02*
X405638D01*
X399542Y443484D02*
X405638D01*
X399796Y443230D02*
X405638D01*
X400050Y442976D02*
X405638D01*
X400304Y442722D02*
X405638D01*
X400812Y442468D02*
X405638D01*
X401066Y442214D02*
X405638D01*
X401320Y441960D02*
X405638D01*
X401574Y441706D02*
X405892D01*
X401574Y437896D02*
X406146D01*
X401828Y437642D02*
X406146D01*
X401828Y437388D02*
X406146D01*
X401828Y437134D02*
X406146D01*
X401828Y436880D02*
X406146D01*
X401828Y436626D02*
X406146D01*
X401574Y436372D02*
X406146D01*
X401066Y436118D02*
X406400D01*
X399796Y435864D02*
X406400D01*
X399542Y435610D02*
X406400D01*
X399034Y435356D02*
X406400D01*
X398780Y435102D02*
X406400D01*
X398526Y434848D02*
X406400D01*
X398018Y434594D02*
X406654D01*
X397764Y434340D02*
X406654D01*
X397256Y434086D02*
X406654D01*
X397002Y433832D02*
X406654D01*
X396748Y433578D02*
X406908D01*
X396240Y433324D02*
X406908D01*
X395986Y433070D02*
X406908D01*
X391668Y452882D02*
X405638D01*
X391922Y452628D02*
X405638D01*
X391922Y452374D02*
X405638D01*
X392176Y452120D02*
X405638D01*
X392430Y451866D02*
X405638D01*
X393446Y451612D02*
X405638D01*
X393700Y451358D02*
X405638D01*
X393700Y451104D02*
X405638D01*
X393954Y450850D02*
X405638D01*
X393954Y450596D02*
X405638D01*
X393954Y450342D02*
X405638D01*
X393954Y450088D02*
X405638D01*
X393700Y449834D02*
X405638D01*
X393446Y449580D02*
X405638D01*
X391922Y449326D02*
X405638D01*
X391668Y449072D02*
X405638D01*
X391414Y448818D02*
X405638D01*
X390906Y448564D02*
X405638D01*
X390652Y448310D02*
X405638D01*
X390398Y448056D02*
X405638D01*
X389890Y447802D02*
X405638D01*
X389636Y447548D02*
X405638D01*
X389382Y447294D02*
X405638D01*
X388874Y447040D02*
X405638D01*
X388620Y446786D02*
X405638D01*
X388620Y446532D02*
X405638D01*
X388620Y446278D02*
X405638D01*
X388620Y446024D02*
X405638D01*
X388620Y445770D02*
X405638D01*
X397002Y445516D02*
X405638D01*
X397256Y445262D02*
X405638D01*
X397510Y445008D02*
X405638D01*
X397764Y444754D02*
X405638D01*
X398272Y444500D02*
X405638D01*
X398526Y444246D02*
X405638D01*
X396240Y464312D02*
X405638D01*
X396494Y464058D02*
X405638D01*
X396748Y463804D02*
X405638D01*
X397002Y463550D02*
X405638D01*
X397002Y463296D02*
X405638D01*
X397256Y463042D02*
X405638D01*
X397510Y462788D02*
X405638D01*
X397764Y462534D02*
X405638D01*
X397764Y462280D02*
X405638D01*
X398018Y462026D02*
X405638D01*
X398018Y461772D02*
X405638D01*
X398018Y461518D02*
X405638D01*
X398018Y461264D02*
X405638D01*
X398018Y461010D02*
X405638D01*
X398018Y460756D02*
X405638D01*
X397510Y460502D02*
X405638D01*
X397256Y460248D02*
X405638D01*
X397002Y459994D02*
X405638D01*
X396748Y459740D02*
X405638D01*
X396240Y459486D02*
X405638D01*
X395986Y459232D02*
X405638D01*
X395732Y458978D02*
X405638D01*
X395478Y458724D02*
X405638D01*
X394970Y458470D02*
X405638D01*
X394716Y458216D02*
X405638D01*
X394970Y457962D02*
X405638D01*
X394716Y457708D02*
X405638D01*
X394716Y457454D02*
X405638D01*
X394462Y457200D02*
X405638D01*
X392938Y456946D02*
X405638D01*
X392684Y456692D02*
X405638D01*
X392176Y456438D02*
X405638D01*
X391922Y456184D02*
X405638D01*
X391668Y455930D02*
X405638D01*
X391414Y455676D02*
X405638D01*
X390906Y455422D02*
X405638D01*
X390652Y455168D02*
X405638D01*
X390398Y454914D02*
X405638D01*
X390398Y454660D02*
X405638D01*
X390398Y454406D02*
X405638D01*
X390652Y454152D02*
X405638D01*
X390906Y453898D02*
X405638D01*
X391160Y453644D02*
X405638D01*
X391160Y453390D02*
X405638D01*
X388620Y473202D02*
X405638D01*
X388620Y472948D02*
X405638D01*
X388620Y472694D02*
X405638D01*
X388620Y472440D02*
X405638D01*
X388620Y472186D02*
X405638D01*
X388620Y471932D02*
X405638D01*
X388620Y471678D02*
X405638D01*
X388620Y471424D02*
X405638D01*
X391922Y471170D02*
X405638D01*
X392176Y470916D02*
X405638D01*
X392176Y470662D02*
X405638D01*
X392430Y470408D02*
X405638D01*
X392430Y470154D02*
X405638D01*
X392430Y469900D02*
X405638D01*
X392430Y469646D02*
X405638D01*
X392430Y469392D02*
X405638D01*
X392684Y469138D02*
X405638D01*
X392938Y468884D02*
X405638D01*
X393192Y468630D02*
X405638D01*
X393192Y468376D02*
X405638D01*
X393446Y468122D02*
X405638D01*
X393700Y467868D02*
X405638D01*
X393954Y467614D02*
X405638D01*
X393954Y467360D02*
X405638D01*
X394208Y467106D02*
X405638D01*
X394462Y466852D02*
X405638D01*
X394716Y466598D02*
X405638D01*
X394716Y466344D02*
X405638D01*
X394970Y466090D02*
X405638D01*
X395224Y465836D02*
X405638D01*
X395478Y465582D02*
X405638D01*
X395478Y465328D02*
X405638D01*
X395732Y465074D02*
X405638D01*
X395986Y464820D02*
X405638D01*
X396240Y464566D02*
X405638D01*
X401320Y486664D02*
X403606D01*
X400304Y486410D02*
X405130D01*
X396748Y484632D02*
X405638D01*
X395478Y484378D02*
X405638D01*
X388620Y484124D02*
X405638D01*
X388620Y483870D02*
X405638D01*
X388620Y483616D02*
X405638D01*
X388620Y483362D02*
X405638D01*
X388620Y483108D02*
X405638D01*
X388620Y482854D02*
X405638D01*
X388620Y482600D02*
X405638D01*
X388620Y482346D02*
X405638D01*
X388620Y482092D02*
X405638D01*
X388620Y481838D02*
X405638D01*
X388620Y481584D02*
X405638D01*
X388620Y481330D02*
X405638D01*
X388620Y481076D02*
X405638D01*
X388620Y480822D02*
X405638D01*
X388620Y480568D02*
X405638D01*
X388620Y480314D02*
X405638D01*
X388620Y480060D02*
X405638D01*
X388620Y479806D02*
X405638D01*
X388620Y479552D02*
X405638D01*
X388620Y479298D02*
X405638D01*
X388620Y479044D02*
X405638D01*
X388620Y478790D02*
X405638D01*
X388620Y478536D02*
X405638D01*
X388620Y478282D02*
X405638D01*
X388620Y478028D02*
X405638D01*
X388620Y477774D02*
X405638D01*
X388620Y477520D02*
X405638D01*
X388620Y477266D02*
X405638D01*
X388620Y477012D02*
X405638D01*
X388620Y476758D02*
X405638D01*
X388620Y476504D02*
X405638D01*
X388620Y476250D02*
X405638D01*
X388620Y475996D02*
X405638D01*
X388620Y475742D02*
X405638D01*
X388620Y475488D02*
X405638D01*
X388620Y475234D02*
X405638D01*
X388620Y474980D02*
X405638D01*
X388620Y474726D02*
X405638D01*
X388620Y474472D02*
X405638D01*
X388620Y474218D02*
X405638D01*
X388620Y473964D02*
X405638D01*
X388620Y473710D02*
X405638D01*
X399796Y486156D02*
X405638D01*
X399288Y485902D02*
X405638D01*
X399034Y485648D02*
X405638D01*
X398526Y485394D02*
X405638D01*
X398018Y485140D02*
X405638D01*
X397256Y484886D02*
X405638D01*
X412496Y406908D02*
X422402D01*
X461264Y412242D02*
X462788D01*
X461264Y411988D02*
X462788D01*
X461264Y411734D02*
X462788D01*
X461264Y411480D02*
X462788D01*
X461264Y411226D02*
X462788D01*
X461264Y410972D02*
X462788D01*
X461264Y410718D02*
X462788D01*
X461264Y410464D02*
X462788D01*
X461264Y410210D02*
X462788D01*
X461264Y409956D02*
X462788D01*
X461264Y409702D02*
X462788D01*
X461264Y409448D02*
X462788D01*
X461264Y409194D02*
X462788D01*
X461264Y408940D02*
X462788D01*
X461264Y408686D02*
X462788D01*
X461264Y408432D02*
X462788D01*
X461010Y408178D02*
X462788D01*
X461010Y407924D02*
X462788D01*
X458216Y407670D02*
X462788D01*
X458470Y407416D02*
X462788D01*
X480314Y412242D02*
X484378D01*
X480314Y411988D02*
X484378D01*
X480314Y411734D02*
X484378D01*
X480314Y411480D02*
X484378D01*
X480314Y411226D02*
X484378D01*
X480314Y410972D02*
X484378D01*
X480314Y410718D02*
X484378D01*
X480314Y410464D02*
X484378D01*
X480314Y410210D02*
X484378D01*
X480314Y409956D02*
X484378D01*
X480314Y409702D02*
X484378D01*
X480314Y409448D02*
X484378D01*
X480314Y409194D02*
X484378D01*
X480314Y408940D02*
X484378D01*
X480314Y408686D02*
X484378D01*
X480314Y408432D02*
X484378D01*
X480314Y408178D02*
X484378D01*
X480314Y407924D02*
X484378D01*
X480314Y407670D02*
X484378D01*
X480314Y407416D02*
X484378D01*
X480314Y407162D02*
X484378D01*
X480314Y406908D02*
X484378D01*
X480314Y406654D02*
X484378D01*
X480314Y406400D02*
X484378D01*
X427228Y432562D02*
X444754D01*
X426974Y432308D02*
X444500D01*
X426974Y432054D02*
X444500D01*
X426974Y431800D02*
X444500D01*
X426974Y431546D02*
X444500D01*
X426720Y431292D02*
X444246D01*
X426720Y431038D02*
X444246D01*
X426720Y430784D02*
X444246D01*
X426466Y430530D02*
X444246D01*
X426466Y430276D02*
X443992D01*
X426212Y430022D02*
X443992D01*
X426212Y429768D02*
X443992D01*
X426212Y429514D02*
X443992D01*
X461264Y415798D02*
X462788D01*
X461264Y415544D02*
X462788D01*
X461264Y415290D02*
X462788D01*
X461264Y415036D02*
X462788D01*
X461264Y414782D02*
X462788D01*
X461264Y414528D02*
X462788D01*
X461264Y414274D02*
X462788D01*
X461264Y414020D02*
X462788D01*
X461264Y413766D02*
X462788D01*
X461264Y413512D02*
X462788D01*
X461264Y413258D02*
X462788D01*
X461264Y413004D02*
X462788D01*
X461264Y412750D02*
X462788D01*
X449072Y432562D02*
X466090D01*
X449326Y432308D02*
X466344D01*
X480314Y422910D02*
X484378D01*
X480314Y422656D02*
X484378D01*
X480314Y422402D02*
X484378D01*
X480314Y422148D02*
X484378D01*
X480314Y421894D02*
X484378D01*
X480314Y421640D02*
X484378D01*
X480314Y421386D02*
X484378D01*
X480314Y421132D02*
X484378D01*
X480314Y420878D02*
X484378D01*
X480314Y420624D02*
X484378D01*
X480314Y420370D02*
X484378D01*
X480314Y420116D02*
X484378D01*
X480314Y419862D02*
X484378D01*
X480314Y419608D02*
X484378D01*
X480314Y419354D02*
X484378D01*
X480314Y419100D02*
X484378D01*
X480314Y418846D02*
X484378D01*
X480314Y418592D02*
X484378D01*
X480314Y414528D02*
X484378D01*
X480314Y414274D02*
X484378D01*
X480314Y414020D02*
X484378D01*
X480314Y413766D02*
X484378D01*
X480314Y413512D02*
X484378D01*
X480314Y413258D02*
X484378D01*
X480314Y413004D02*
X484378D01*
X480314Y412750D02*
X484378D01*
X480822Y431292D02*
X486664D01*
X481076Y431038D02*
X486410D01*
X481330Y430784D02*
X486156D01*
X454406Y423672D02*
X471678D01*
X480314D02*
X492760D01*
X454406Y423418D02*
X471678D01*
X480314D02*
X492760D01*
X454660Y423164D02*
X471932D01*
X480314D02*
X492760D01*
X454914Y422910D02*
X472186D01*
X454914Y422656D02*
X472186D01*
X455168Y422402D02*
X472440D01*
X455168Y422148D02*
X472694D01*
X455422Y421894D02*
X472694D01*
X455676Y421640D02*
X472948D01*
X455676Y421386D02*
X472948D01*
X455930Y421132D02*
X473202D01*
X455930Y420878D02*
X473456D01*
X456184Y420624D02*
X473456D01*
X456438Y420370D02*
X473710D01*
X456438Y420116D02*
X473710D01*
X456692Y419862D02*
X473964D01*
X456692Y419608D02*
X474218D01*
X456946Y419354D02*
X474218D01*
X457200Y419100D02*
X474472D01*
X457200Y418846D02*
X474726D01*
X457454Y418592D02*
X474726D01*
X457454Y418338D02*
X474980D01*
X480314D02*
X492760D01*
X457708Y418084D02*
X474980D01*
X480314D02*
X492760D01*
X480314Y417830D02*
X492760D01*
X480314Y417576D02*
X492506D01*
X480314Y417322D02*
X492252D01*
X480314Y417068D02*
X491998D01*
X480314Y416814D02*
X491744D01*
X480314Y416560D02*
X491490D01*
X480314Y416306D02*
X491236D01*
X480314Y416052D02*
X490982D01*
X480314Y415798D02*
X490728D01*
X480314Y415544D02*
X490474D01*
X480314Y415290D02*
X490220D01*
X480314Y415036D02*
X489966D01*
X480314Y414782D02*
X489966D01*
X479552Y432562D02*
X487934D01*
X479806Y432308D02*
X487680D01*
X449580Y432054D02*
X466598D01*
X480060D02*
X487426D01*
X449580Y431800D02*
X466598D01*
X480314D02*
X487172D01*
X449834Y431546D02*
X466852D01*
X480568D02*
X486918D01*
X449834Y431292D02*
X466852D01*
X450088Y431038D02*
X467106D01*
X450342Y430784D02*
X467360D01*
X450342Y430530D02*
X467360D01*
X450596Y430276D02*
X467614D01*
X450596Y430022D02*
X467868D01*
X450850Y429768D02*
X467868D01*
X450850Y429514D02*
X468122D01*
X451104Y429260D02*
X468122D01*
X451358Y429006D02*
X468376D01*
X451358Y428752D02*
X468630D01*
X451612Y428498D02*
X468630D01*
X451612Y428244D02*
X468884D01*
X451866Y427990D02*
X468884D01*
X452120Y427736D02*
X469138D01*
X452120Y427482D02*
X469392D01*
X452374Y427228D02*
X469392D01*
X452374Y426974D02*
X469646D01*
X452628Y426720D02*
X469646D01*
X480314D02*
X489712D01*
X452628Y426466D02*
X469900D01*
X480314D02*
X489966D01*
X452882Y426212D02*
X470154D01*
X480314D02*
X490220D01*
X453136Y425958D02*
X470154D01*
X480314D02*
X490474D01*
X453136Y425704D02*
X470408D01*
X480314D02*
X490728D01*
X453390Y425450D02*
X470662D01*
X480314D02*
X490982D01*
X453390Y425196D02*
X470662D01*
X480314D02*
X491236D01*
X453644Y424942D02*
X470916D01*
X480314D02*
X491490D01*
X453898Y424688D02*
X470916D01*
X480314D02*
X491744D01*
X453898Y424434D02*
X471170D01*
X480314D02*
X491998D01*
X454152Y424180D02*
X471424D01*
X480314D02*
X492252D01*
X454152Y423926D02*
X471424D01*
X480314D02*
X492506D01*
X425958Y429260D02*
X443738D01*
X425958Y429006D02*
X443738D01*
X425704Y428752D02*
X443738D01*
X425704Y428498D02*
X443484D01*
X425450Y428244D02*
X443484D01*
X425196Y427990D02*
X443484D01*
X425196Y427736D02*
X443484D01*
X424942Y427482D02*
X443230D01*
X424688Y427228D02*
X443230D01*
X424688Y426974D02*
X442976D01*
X424434Y426720D02*
X442976D01*
X424180Y426466D02*
X442976D01*
X423926Y426212D02*
X442722D01*
X423672Y425958D02*
X442722D01*
X423418Y425704D02*
X442722D01*
X423164Y425450D02*
X442468D01*
X422656Y425196D02*
X442468D01*
X421894Y424688D02*
X442214D01*
X421386Y424434D02*
X442214D01*
X420624Y424180D02*
X441960D01*
X419608Y423926D02*
X441960D01*
X428244Y438658D02*
X445516D01*
X427990Y438404D02*
X445516D01*
X427990Y438150D02*
X445516D01*
X427990Y437896D02*
X445516D01*
X427990Y437642D02*
X445516D01*
X427990Y437388D02*
X445262D01*
X427990Y437134D02*
X445262D01*
X427990Y436880D02*
X445262D01*
X427990Y436626D02*
X445262D01*
X427990Y436372D02*
X445262D01*
X427990Y436118D02*
X445262D01*
X427736Y435864D02*
X445262D01*
X427736Y435610D02*
X445262D01*
X427736Y435356D02*
X445262D01*
X427736Y435102D02*
X445008D01*
X427736Y434848D02*
X445008D01*
X427736Y434594D02*
X445008D01*
X427482Y434340D02*
X445008D01*
X427482Y434086D02*
X445008D01*
X427482Y433832D02*
X445008D01*
X427482Y433578D02*
X444754D01*
X427228Y433324D02*
X444754D01*
X427228Y433070D02*
X444754D01*
X446532Y437134D02*
X463296D01*
X446786Y436880D02*
X463550D01*
X446786Y436626D02*
X463804D01*
X447040Y436372D02*
X463804D01*
X447040Y436118D02*
X464058D01*
X447294Y435864D02*
X464058D01*
X447294Y435610D02*
X464312D01*
X447548Y435356D02*
X464566D01*
X447802Y435102D02*
X464566D01*
X447802Y434848D02*
X464820D01*
X448056Y434594D02*
X464820D01*
X448056Y434340D02*
X465074D01*
X448310Y434086D02*
X465328D01*
X448564Y433832D02*
X465328D01*
X448564Y433578D02*
X465582D01*
X448818Y433324D02*
X465836D01*
X448818Y433070D02*
X465836D01*
X446024Y438150D02*
X462788D01*
X446024Y437896D02*
X462788D01*
X446278Y437642D02*
X463042D01*
X446278Y437388D02*
X463296D01*
X479298Y433324D02*
X488188D01*
X479298Y433070D02*
X488188D01*
X428498Y443992D02*
X467106D01*
X428498Y443738D02*
X466598D01*
X428498Y443484D02*
X466090D01*
X428498Y443230D02*
X465836D01*
X428244Y442976D02*
X465328D01*
X428244Y442722D02*
X464820D01*
X428244Y442468D02*
X464312D01*
X428244Y442214D02*
X463804D01*
X428244Y441960D02*
X463296D01*
X428244Y441706D02*
X462534D01*
X428244Y441452D02*
X462026D01*
X428244Y441198D02*
X461264D01*
X428244Y440944D02*
X461010D01*
X428244Y440690D02*
X461264D01*
X428244Y440436D02*
X461264D01*
X428244Y440182D02*
X461518D01*
X428244Y439928D02*
X461772D01*
X428244Y439674D02*
X461772D01*
X428244Y439420D02*
X462026D01*
X428244Y439166D02*
X462026D01*
X428244Y438912D02*
X462280D01*
X428498Y447040D02*
X470154D01*
X428498Y446786D02*
X469900D01*
X428498Y446532D02*
X469646D01*
X428498Y446278D02*
X469392D01*
X428498Y446024D02*
X469392D01*
X428498Y445770D02*
X469138D01*
X428498Y445516D02*
X468884D01*
X428498Y445262D02*
X468630D01*
X428498Y445008D02*
X468376D01*
X428498Y444754D02*
X467868D01*
X428498Y444500D02*
X467614D01*
X428498Y444246D02*
X467360D01*
X428498Y452882D02*
X477774D01*
X428498Y452628D02*
X478028D01*
X428498Y452374D02*
X478282D01*
X428498Y452120D02*
X478536D01*
X428498Y451866D02*
X478536D01*
X428498Y451612D02*
X478536D01*
X428498Y451358D02*
X478536D01*
X428498Y451104D02*
X478282D01*
X428498Y450850D02*
X478282D01*
X428498Y450596D02*
X478028D01*
X428498Y450342D02*
X478028D01*
X428498Y450088D02*
X477774D01*
X428498Y449834D02*
X477774D01*
X428498Y449580D02*
X477774D01*
X428498Y449326D02*
X477520D01*
X428498Y449072D02*
X477520D01*
X428498Y448818D02*
X477266D01*
X428498Y448564D02*
X477266D01*
X428498Y448310D02*
X477012D01*
X428498Y448056D02*
X477012D01*
X428498Y447802D02*
X476758D01*
X428498Y447548D02*
X476758D01*
X428498Y447294D02*
X476758D01*
X428498Y464312D02*
X445770D01*
X428498Y464058D02*
X445770D01*
X428498Y463804D02*
X445770D01*
X428498Y463550D02*
X445770D01*
X428498Y463296D02*
X445770D01*
X428498Y463042D02*
X445770D01*
X428498Y462788D02*
X445770D01*
X428498Y462534D02*
X445770D01*
X428498Y462280D02*
X445770D01*
X428498Y462026D02*
X445770D01*
X428498Y461772D02*
X445770D01*
X428498Y461518D02*
X445770D01*
X428498Y461264D02*
X445770D01*
X428498Y461010D02*
X445770D01*
X428498Y460756D02*
X445770D01*
X428498Y460502D02*
X445770D01*
X428498Y460248D02*
X445770D01*
X428498Y459994D02*
X445770D01*
X428498Y459740D02*
X445770D01*
X428498Y459486D02*
X445770D01*
X428498Y459232D02*
X445770D01*
X428498Y458978D02*
X445770D01*
X428498Y458724D02*
X445770D01*
X428498Y458470D02*
X445770D01*
X428498Y458216D02*
X445770D01*
X428498Y457962D02*
X445770D01*
X428498Y457708D02*
X445770D01*
X428498Y457454D02*
X445770D01*
X428498Y457200D02*
X445770D01*
X428498Y456946D02*
X445770D01*
X428498Y456692D02*
X445770D01*
X428498Y456438D02*
X445770D01*
X428498Y456184D02*
X445770D01*
X428498Y455930D02*
X445770D01*
X428498Y455676D02*
X445770D01*
X428498Y455422D02*
X445770D01*
X428498Y455168D02*
X445770D01*
X428498Y454914D02*
X445770D01*
X428498Y454660D02*
X445770D01*
X428498Y454406D02*
X445770D01*
X428498Y454152D02*
X445770D01*
X428498Y453898D02*
X445770D01*
X428498Y453644D02*
X445770D01*
X428498Y453390D02*
X445770D01*
X428498Y472694D02*
X445770D01*
X428498Y472440D02*
X445770D01*
X428498Y472186D02*
X445770D01*
X428498Y471932D02*
X445770D01*
X428498Y471678D02*
X445770D01*
X428498Y471424D02*
X445770D01*
X428498Y471170D02*
X445770D01*
X428498Y470916D02*
X445770D01*
X428498Y470662D02*
X445770D01*
X428498Y470408D02*
X445770D01*
X428498Y470154D02*
X445770D01*
X428498Y469900D02*
X445770D01*
X428498Y469646D02*
X445770D01*
X428498Y469392D02*
X445770D01*
X428498Y469138D02*
X445770D01*
X428498Y468884D02*
X445770D01*
X428498Y468630D02*
X445770D01*
X428498Y468376D02*
X445770D01*
X428498Y468122D02*
X445770D01*
X428498Y467868D02*
X445770D01*
X428498Y467614D02*
X445770D01*
X428498Y467360D02*
X445770D01*
X428498Y467106D02*
X445770D01*
X428498Y466852D02*
X445770D01*
X428498Y466598D02*
X445770D01*
X428498Y466344D02*
X445770D01*
X428498Y466090D02*
X445770D01*
X428498Y465836D02*
X445770D01*
X428498Y465582D02*
X445770D01*
X428498Y465328D02*
X445770D01*
X428498Y465074D02*
X445770D01*
X428498Y464820D02*
X445770D01*
X428498Y464566D02*
X445770D01*
X459232Y464312D02*
X479552D01*
X459232Y464058D02*
X479552D01*
X459232Y463804D02*
X479552D01*
X459486Y463550D02*
X479552D01*
X459486Y463296D02*
X479552D01*
X459486Y463042D02*
X479552D01*
X459232Y462788D02*
X479552D01*
X459486Y462534D02*
X479552D01*
X459486Y462280D02*
X479552D01*
X459486Y462026D02*
X479552D01*
X459232Y461772D02*
X479552D01*
X459486Y461518D02*
X479552D01*
X459486Y461264D02*
X479552D01*
X459486Y461010D02*
X479552D01*
X459232Y460756D02*
X479552D01*
X459232Y460502D02*
X479552D01*
X459232Y460248D02*
X479552D01*
X459232Y459994D02*
X479552D01*
X459232Y459740D02*
X479552D01*
X459232Y459486D02*
X479552D01*
X459232Y459232D02*
X479298D01*
X458978Y458978D02*
X479044D01*
X458978Y458724D02*
X478536D01*
X458978Y458470D02*
X477520D01*
X458724Y458216D02*
X476504D01*
X458724Y457962D02*
X475488D01*
X458724Y457708D02*
X474726D01*
X458470Y457454D02*
X474726D01*
X458470Y457200D02*
X474726D01*
X458470Y456946D02*
X474726D01*
X458216Y456692D02*
X474472D01*
X458216Y456438D02*
X474472D01*
X457962Y456184D02*
X474472D01*
X457962Y455930D02*
X474472D01*
X457708Y455676D02*
X474472D01*
X457454Y455422D02*
X474218D01*
X457200Y455168D02*
X474472D01*
X456946Y454914D02*
X474980D01*
X456692Y454660D02*
X475234D01*
X456438Y454406D02*
X475488D01*
X456184Y454152D02*
X475996D01*
X455930Y453898D02*
X476250D01*
X455422Y453644D02*
X476758D01*
X454914Y453390D02*
X477012D01*
X453898Y472694D02*
X478536D01*
X454660Y472440D02*
X478282D01*
X455168Y472186D02*
X478282D01*
X455676Y471932D02*
X478028D01*
X455930Y471678D02*
X477774D01*
X456184Y471424D02*
X477520D01*
X456692Y471170D02*
X477266D01*
X456946Y470916D02*
X476758D01*
X456946Y470662D02*
X476504D01*
X457200Y470408D02*
X476250D01*
X457454Y470154D02*
X475742D01*
X457708Y469900D02*
X475488D01*
X457708Y469646D02*
X475234D01*
X457962Y469392D02*
X474980D01*
X458216Y469138D02*
X474472D01*
X458216Y468884D02*
X474472D01*
X458470Y468630D02*
X474472D01*
X458470Y468376D02*
X474472D01*
X458470Y468122D02*
X474472D01*
X458724Y467868D02*
X474726D01*
X458724Y467614D02*
X474726D01*
X458724Y467360D02*
X474726D01*
X458724Y467106D02*
X474726D01*
X458978Y466852D02*
X474726D01*
X458978Y466598D02*
X474726D01*
X458978Y466344D02*
X474980D01*
X458978Y466090D02*
X475234D01*
X458978Y465836D02*
X476250D01*
X458978Y465582D02*
X477266D01*
X459232Y465328D02*
X478028D01*
X459232Y465074D02*
X478790D01*
X459232Y464820D02*
X479298D01*
X459232Y464566D02*
X479552D01*
X428498Y473202D02*
X478536D01*
X428498Y472948D02*
X478536D01*
X440436Y491236D02*
X446024D01*
X440182Y490982D02*
X446278D01*
X440182Y490728D02*
X446532D01*
X440182Y490474D02*
X446532D01*
X439928Y490220D02*
X446786D01*
X439928Y489966D02*
X446786D01*
X439928Y489712D02*
X446786D01*
X439928Y489458D02*
X447040D01*
X439928Y489204D02*
X447040D01*
X439928Y488950D02*
X447040D01*
X439928Y488696D02*
X447294D01*
X439674Y488442D02*
X447294D01*
X439674Y488188D02*
X447294D01*
X439674Y487934D02*
X447548D01*
X439674Y487680D02*
X447548D01*
X439674Y487426D02*
X447548D01*
X439420Y487172D02*
X447802D01*
X462788Y484886D02*
X470916D01*
X428498Y484632D02*
X471424D01*
X428498Y484378D02*
X471424D01*
X428498Y484124D02*
X471424D01*
X428498Y483870D02*
X471424D01*
X428498Y483616D02*
X471424D01*
X428498Y483362D02*
X471424D01*
X428498Y483108D02*
X471424D01*
X428498Y482854D02*
X471170D01*
X428498Y482600D02*
X471170D01*
X428498Y482346D02*
X470916D01*
X428498Y482092D02*
X470916D01*
X428498Y481838D02*
X470916D01*
X428498Y481584D02*
X470662D01*
X428498Y481330D02*
X470662D01*
X428498Y481076D02*
X470408D01*
X428498Y480822D02*
X470408D01*
X428498Y480568D02*
X470154D01*
X428498Y480314D02*
X470154D01*
X428498Y480060D02*
X470154D01*
X428498Y479806D02*
X469900D01*
X428498Y479552D02*
X469900D01*
X428498Y479298D02*
X469646D01*
X428498Y479044D02*
X469646D01*
X428498Y478790D02*
X469646D01*
X428498Y478536D02*
X469900D01*
X428498Y478282D02*
X470154D01*
X428498Y478028D02*
X470154D01*
X428498Y477774D02*
X470408D01*
X428498Y477520D02*
X470662D01*
X428498Y477266D02*
X470916D01*
X428498Y486918D02*
X459486D01*
X428498Y486664D02*
X459740D01*
X428498Y486410D02*
X459740D01*
X428498Y486156D02*
X459740D01*
X428498Y485902D02*
X459740D01*
X428498Y485648D02*
X459994D01*
X428498Y485394D02*
X460756D01*
X428498Y485140D02*
X461264D01*
X428498Y484886D02*
X461772D01*
X428498Y477012D02*
X476758D01*
X428498Y476758D02*
X477012D01*
X428498Y476504D02*
X477012D01*
X428498Y476250D02*
X477266D01*
X428498Y475996D02*
X477266D01*
X428498Y475742D02*
X477266D01*
X428498Y475488D02*
X477520D01*
X428498Y475234D02*
X477520D01*
X428498Y474980D02*
X477774D01*
X428498Y474726D02*
X477774D01*
X428498Y474472D02*
X478028D01*
X428498Y474218D02*
X478028D01*
X428498Y473964D02*
X478028D01*
X428498Y473710D02*
X478282D01*
X496062Y408686D02*
X506984D01*
X496316Y408432D02*
X506730D01*
X496570Y408178D02*
X506476D01*
X496824Y407924D02*
X506222D01*
X497078Y407670D02*
X505968D01*
X497332Y407416D02*
X505714D01*
X497586Y407162D02*
X505460D01*
X497840Y406908D02*
X505206D01*
X498094Y406654D02*
X504952D01*
X498348Y406400D02*
X504698D01*
X543814Y412242D02*
X547624D01*
X543814Y411988D02*
X547624D01*
X543814Y411734D02*
X547624D01*
X543814Y411480D02*
X547624D01*
X543814Y411226D02*
X547624D01*
X543814Y410972D02*
X547624D01*
X543814Y410718D02*
X547624D01*
X543814Y410464D02*
X547624D01*
X543814Y410210D02*
X547624D01*
X543814Y409956D02*
X547624D01*
X543814Y409702D02*
X547624D01*
X543814Y409448D02*
X547624D01*
X543814Y409194D02*
X547624D01*
X543814Y408940D02*
X547624D01*
X543814Y408686D02*
X547624D01*
X543814Y408432D02*
X547624D01*
X543814Y408178D02*
X547624D01*
X543814Y407924D02*
X547624D01*
X543814Y407670D02*
X547624D01*
X543814Y407416D02*
X547624D01*
X543814Y407162D02*
X547624D01*
X543814Y406908D02*
X547624D01*
X543814Y406654D02*
X547624D01*
X543814Y406400D02*
X547624D01*
X560324Y412242D02*
X564388D01*
X560324Y411988D02*
X564388D01*
X560324Y411734D02*
X564388D01*
X560324Y411480D02*
X564388D01*
X560324Y411226D02*
X564388D01*
X560324Y410972D02*
X564642D01*
X560324Y410718D02*
X564896D01*
X560324Y410464D02*
X565150D01*
X560324Y410210D02*
X565404D01*
X503428Y410972D02*
X507746D01*
X503174Y410718D02*
X507746D01*
X502920Y410464D02*
X507746D01*
X502666Y410210D02*
X507746D01*
X495300Y409956D02*
X507746D01*
X495300Y409702D02*
X507746D01*
X495300Y409448D02*
X507746D01*
X495554Y409194D02*
X507492D01*
X495808Y408940D02*
X507238D01*
X560324Y409956D02*
X572770D01*
X560324Y409702D02*
X572770D01*
X560324Y409448D02*
X572770D01*
X560578Y409194D02*
X572516D01*
X560832Y408940D02*
X572262D01*
X561086Y408686D02*
X572008D01*
X561340Y408432D02*
X571754D01*
X561594Y408178D02*
X571500D01*
X561848Y407924D02*
X571246D01*
X562102Y407670D02*
X570992D01*
X562356Y407416D02*
X570738D01*
X562610Y407162D02*
X570484D01*
X562864Y406908D02*
X570230D01*
X563118Y406654D02*
X569976D01*
X563372Y406400D02*
X569722D01*
X498348Y426720D02*
X504698D01*
X498094Y426466D02*
X504952D01*
X497840Y426212D02*
X505206D01*
X497586Y425958D02*
X505460D01*
X497332Y425704D02*
X505714D01*
X497078Y425450D02*
X505968D01*
X496824Y425196D02*
X506222D01*
X496570Y424942D02*
X506476D01*
X496316Y424688D02*
X506730D01*
X496062Y424434D02*
X506984D01*
X522478Y432562D02*
X525272D01*
X522478Y432308D02*
X525272D01*
X522478Y432054D02*
X525272D01*
X522478Y431800D02*
X525272D01*
X522478Y431546D02*
X525272D01*
X522478Y431292D02*
X525272D01*
X522478Y431038D02*
X525272D01*
X522478Y430784D02*
X525272D01*
X543560Y422910D02*
X547624D01*
X543814Y422656D02*
X547624D01*
X543814Y422402D02*
X547624D01*
X543814Y422148D02*
X547624D01*
X543814Y421894D02*
X547624D01*
X543814Y421640D02*
X547624D01*
X543814Y421386D02*
X547624D01*
X543814Y421132D02*
X547624D01*
X543814Y420878D02*
X547624D01*
X543814Y420624D02*
X547624D01*
X543814Y420370D02*
X547624D01*
X543814Y420116D02*
X547624D01*
X543814Y419862D02*
X547624D01*
X543814Y419608D02*
X547624D01*
X543814Y419354D02*
X547624D01*
X543814Y419100D02*
X547624D01*
X543814Y418846D02*
X547624D01*
X543814Y418592D02*
X547624D01*
X543814Y418338D02*
X547624D01*
X543814Y418084D02*
X547624D01*
X543814Y417830D02*
X547624D01*
X543814Y417576D02*
X547624D01*
X543814Y417322D02*
X547624D01*
X543814Y417068D02*
X547624D01*
X543814Y416814D02*
X547624D01*
X543814Y416560D02*
X547624D01*
X543814Y416306D02*
X547624D01*
X543814Y416052D02*
X547624D01*
X543814Y415798D02*
X547624D01*
X543814Y415544D02*
X547624D01*
X543814Y415290D02*
X547624D01*
X543814Y415036D02*
X547624D01*
X543814Y414782D02*
X547624D01*
X543814Y414528D02*
X547624D01*
X543814Y414274D02*
X547624D01*
X543814Y414020D02*
X547624D01*
X543814Y413766D02*
X547624D01*
X543814Y413512D02*
X547624D01*
X543814Y413258D02*
X547624D01*
X543814Y413004D02*
X547624D01*
X543814Y412750D02*
X547624D01*
X560324Y422910D02*
X565404D01*
X560324Y422656D02*
X565150D01*
X560324Y422402D02*
X564896D01*
X560324Y422148D02*
X564642D01*
X560324Y421894D02*
X564388D01*
X560324Y421640D02*
X564388D01*
X560324Y421386D02*
X564388D01*
X560324Y421132D02*
X564388D01*
X560324Y420878D02*
X564388D01*
X560324Y420624D02*
X564388D01*
X560324Y420370D02*
X564388D01*
X560324Y420116D02*
X564388D01*
X560324Y419862D02*
X564388D01*
X560324Y419608D02*
X564388D01*
X560324Y419354D02*
X564388D01*
X560324Y419100D02*
X564388D01*
X560324Y418846D02*
X564388D01*
X560324Y418592D02*
X564388D01*
X560324Y418338D02*
X564388D01*
X560324Y418084D02*
X564388D01*
X560324Y417830D02*
X564388D01*
X560324Y417576D02*
X564388D01*
X560324Y417322D02*
X564388D01*
X560324Y417068D02*
X564388D01*
X560324Y416814D02*
X564388D01*
X560324Y416560D02*
X564388D01*
X560324Y416306D02*
X564388D01*
X560324Y416052D02*
X564388D01*
X560324Y415798D02*
X564388D01*
X560324Y415544D02*
X564388D01*
X560324Y415290D02*
X564388D01*
X560324Y415036D02*
X564388D01*
X560324Y414782D02*
X564388D01*
X560324Y414528D02*
X564388D01*
X560324Y414274D02*
X564388D01*
X560324Y414020D02*
X564388D01*
X560324Y413766D02*
X564388D01*
X560324Y413512D02*
X564388D01*
X560324Y413258D02*
X564388D01*
X560324Y413004D02*
X564388D01*
X560324Y412750D02*
X564388D01*
X495300Y423672D02*
X507746D01*
X495300Y423418D02*
X507746D01*
X495300Y423164D02*
X507746D01*
X502666Y422910D02*
X507746D01*
X502920Y422656D02*
X507746D01*
X503174Y422402D02*
X507746D01*
X503428Y422148D02*
X507746D01*
X500634Y432562D02*
X509270D01*
X500634Y432308D02*
X509016D01*
X500634Y432054D02*
X508762D01*
X500634Y431800D02*
X508508D01*
X500634Y431546D02*
X508254D01*
X500634Y431292D02*
X508000D01*
X500634Y431038D02*
X507746D01*
X500634Y430784D02*
X507492D01*
X495808Y424180D02*
X507238D01*
X540004Y423672D02*
X551180D01*
X560324D02*
X572770D01*
X540004Y423418D02*
X551180D01*
X560324D02*
X572770D01*
X540004Y423164D02*
X551180D01*
X560324D02*
X572770D01*
X540004Y426720D02*
X551180D01*
X563372D02*
X569722D01*
X540004Y426466D02*
X551180D01*
X563118D02*
X569976D01*
X540004Y426212D02*
X551180D01*
X562864D02*
X570230D01*
X540004Y425958D02*
X551180D01*
X562610D02*
X570484D01*
X540004Y425704D02*
X551180D01*
X562356D02*
X570738D01*
X540004Y425450D02*
X551180D01*
X562102D02*
X570992D01*
X540004Y425196D02*
X551180D01*
X561848D02*
X571246D01*
X540004Y424942D02*
X551180D01*
X561594D02*
X571500D01*
X540004Y424688D02*
X551180D01*
X561340D02*
X571754D01*
X540004Y424434D02*
X551180D01*
X561086D02*
X572008D01*
X540004Y424180D02*
X551180D01*
X560832D02*
X572262D01*
X495554Y423926D02*
X507492D01*
X540004D02*
X551180D01*
X560578D02*
X572516D01*
X500634Y442468D02*
X503682D01*
X500634Y442214D02*
X503682D01*
X500634Y441960D02*
X503682D01*
X500634Y441706D02*
X503682D01*
X500634Y441452D02*
X503682D01*
X500634Y441198D02*
X503682D01*
X500634Y440944D02*
X503682D01*
X500634Y440690D02*
X503682D01*
X500634Y440436D02*
X503682D01*
X500634Y440182D02*
X503682D01*
X500634Y439928D02*
X503682D01*
X500634Y439674D02*
X503682D01*
X500634Y439420D02*
X503682D01*
X500634Y439166D02*
X503682D01*
X500634Y438912D02*
X503682D01*
X500634Y438658D02*
X503682D01*
X500634Y438404D02*
X503682D01*
X500634Y438150D02*
X503682D01*
X500634Y437896D02*
X503682D01*
X500634Y437642D02*
X503682D01*
X500634Y437388D02*
X503682D01*
X500634Y437134D02*
X503682D01*
X500634Y436880D02*
X503682D01*
X500634Y436626D02*
X503682D01*
X500634Y436372D02*
X503682D01*
X500634Y436118D02*
X503682D01*
X500634Y435864D02*
X503682D01*
X500634Y435610D02*
X503682D01*
X500634Y435356D02*
X503682D01*
X500634Y435102D02*
X503682D01*
X500634Y434848D02*
X503682D01*
X500634Y434594D02*
X503682D01*
X500634Y434340D02*
X503682D01*
X500634Y434086D02*
X503682D01*
X500634Y433832D02*
X503682D01*
X500634Y433578D02*
X503682D01*
X522478Y442468D02*
X525272D01*
X522478Y442214D02*
X525272D01*
X522478Y441960D02*
X525272D01*
X522478Y441706D02*
X525272D01*
X522478Y441452D02*
X525272D01*
X522478Y441198D02*
X525272D01*
X522478Y440944D02*
X525272D01*
X522478Y440690D02*
X525272D01*
X522478Y440436D02*
X525272D01*
X522478Y440182D02*
X525272D01*
X522478Y439928D02*
X525272D01*
X522478Y439674D02*
X525272D01*
X522478Y436372D02*
X525272D01*
X522478Y436118D02*
X525272D01*
X522478Y435864D02*
X525272D01*
X522478Y435610D02*
X525272D01*
X522478Y435356D02*
X525272D01*
X522478Y435102D02*
X525272D01*
X522478Y434848D02*
X525272D01*
X522478Y434594D02*
X525272D01*
X522478Y434340D02*
X525272D01*
X522478Y434086D02*
X525272D01*
X522478Y433832D02*
X525272D01*
X522478Y433578D02*
X525272D01*
X522478Y433324D02*
X525272D01*
X522478Y433070D02*
X525272D01*
X541528Y443992D02*
X544576D01*
X541528Y443738D02*
X544576D01*
X541528Y443484D02*
X544576D01*
X541528Y443230D02*
X544322D01*
X541528Y442976D02*
X544322D01*
X541528Y442722D02*
X544322D01*
X541528Y442468D02*
X544322D01*
X541528Y442214D02*
X544322D01*
X541528Y441960D02*
X544322D01*
X541274Y441706D02*
X544322D01*
X541274Y441452D02*
X544322D01*
X541274Y441198D02*
X544322D01*
X541274Y440944D02*
X544322D01*
X541274Y440690D02*
X544068D01*
X541274Y440436D02*
X544068D01*
X541274Y440182D02*
X544068D01*
X541274Y439928D02*
X544068D01*
X541274Y439674D02*
X544068D01*
X541274Y439420D02*
X544068D01*
X536956Y439166D02*
X544068D01*
X533908Y438912D02*
X544068D01*
X533908Y438658D02*
X544068D01*
X533908Y438404D02*
X544068D01*
X541782Y445262D02*
X544576D01*
X541782Y445008D02*
X544576D01*
X541782Y444754D02*
X544576D01*
X541782Y444500D02*
X544576D01*
X557276Y443992D02*
X565404D01*
X557276Y443738D02*
X565404D01*
X557276Y443484D02*
X565404D01*
X557276Y443230D02*
X565404D01*
X557276Y442976D02*
X565404D01*
X557276Y442722D02*
X565404D01*
X557276Y445262D02*
X565404D01*
X557276Y445008D02*
X565404D01*
X557276Y444754D02*
X565404D01*
X557276Y444500D02*
X565404D01*
X541528Y444246D02*
X544576D01*
X557276D02*
X565404D01*
X500634Y443992D02*
X509016D01*
X500634Y443738D02*
X509270D01*
X500634Y443484D02*
X509524D01*
X500634Y443230D02*
X509778D01*
X500634Y442976D02*
X509778D01*
X500634Y442722D02*
X509778D01*
X500634Y433324D02*
X509778D01*
X500634Y433070D02*
X509778D01*
X500634Y445262D02*
X507746D01*
X500634Y445008D02*
X508000D01*
X500634Y444754D02*
X508254D01*
X500634Y444500D02*
X508508D01*
X522478Y443992D02*
X530606D01*
X522478Y443738D02*
X530860D01*
X522478Y443484D02*
X531114D01*
X522478Y443230D02*
X531368D01*
X522478Y442976D02*
X531368D01*
X522478Y442722D02*
X531368D01*
X522478Y439420D02*
X531368D01*
X522478Y439166D02*
X531368D01*
X522478Y438912D02*
X531368D01*
X522478Y438658D02*
X531114D01*
X522478Y438404D02*
X530860D01*
X522478Y438150D02*
X530606D01*
X522478Y437896D02*
X530352D01*
X522478Y437642D02*
X530098D01*
X522478Y437388D02*
X529844D01*
X522478Y437134D02*
X529590D01*
X522478Y436880D02*
X529336D01*
X522478Y436626D02*
X529336D01*
X522478Y445262D02*
X529336D01*
X522478Y445008D02*
X529590D01*
X522478Y444754D02*
X529844D01*
X522478Y444500D02*
X530098D01*
X500634Y444246D02*
X508762D01*
X522478D02*
X530352D01*
X583692Y412242D02*
X587756D01*
X583692Y411988D02*
X587756D01*
X583692Y411734D02*
X587756D01*
X583692Y411480D02*
X587756D01*
X583692Y411226D02*
X587756D01*
X583438Y410972D02*
X587756D01*
X583184Y410718D02*
X587756D01*
X582930Y410464D02*
X587756D01*
X582676Y410210D02*
X587756D01*
X575310Y409956D02*
X587756D01*
X575310Y409702D02*
X587756D01*
X575310Y409448D02*
X587756D01*
X575564Y409194D02*
X587502D01*
X575818Y408940D02*
X587248D01*
X576072Y408686D02*
X586994D01*
X576326Y408432D02*
X586740D01*
X576580Y408178D02*
X586486D01*
X576834Y407924D02*
X586232D01*
X577088Y407670D02*
X585978D01*
X577342Y407416D02*
X585724D01*
X577596Y407162D02*
X585470D01*
X577850Y406908D02*
X585216D01*
X578104Y406654D02*
X584962D01*
X578358Y406400D02*
X584708D01*
X575310Y423672D02*
X587756D01*
X575310Y423418D02*
X587756D01*
X575310Y423164D02*
X587756D01*
X582676Y422910D02*
X587756D01*
X582930Y422656D02*
X587756D01*
X583184Y422402D02*
X587756D01*
X583438Y422148D02*
X587756D01*
X583692Y421894D02*
X587756D01*
X583692Y421640D02*
X587756D01*
X583692Y421386D02*
X587756D01*
X583692Y421132D02*
X587756D01*
X583692Y420878D02*
X587756D01*
X583692Y420624D02*
X587756D01*
X583692Y420370D02*
X587756D01*
X575310Y418338D02*
X584708D01*
X575310Y418084D02*
X584962D01*
X575310Y417830D02*
X585216D01*
X575564Y417576D02*
X585470D01*
X575818Y417322D02*
X585724D01*
X576072Y417068D02*
X585978D01*
X576326Y416814D02*
X586232D01*
X576580Y416560D02*
X586486D01*
X576834Y416306D02*
X586740D01*
X577088Y416052D02*
X586994D01*
X577342Y415798D02*
X587248D01*
X577596Y415544D02*
X587502D01*
X577850Y415290D02*
X587756D01*
X578104Y415036D02*
X587756D01*
X578358Y414782D02*
X587756D01*
X582676Y414528D02*
X587756D01*
X582930Y414274D02*
X587756D01*
X583184Y414020D02*
X587756D01*
X583438Y413766D02*
X587756D01*
X583692Y413512D02*
X587756D01*
X583692Y413258D02*
X587756D01*
X583692Y413004D02*
X587756D01*
X583692Y412750D02*
X587756D01*
X583184Y432562D02*
X586232D01*
X583438Y432308D02*
X586232D01*
X583438Y432054D02*
X586486D01*
X583438Y431800D02*
X586486D01*
X583438Y431546D02*
X586486D01*
X583692Y431292D02*
X586740D01*
X583692Y431038D02*
X586740D01*
X583692Y430784D02*
X586740D01*
X578358Y426720D02*
X584708D01*
X578104Y426466D02*
X584962D01*
X577850Y426212D02*
X585216D01*
X577596Y425958D02*
X585470D01*
X577342Y425704D02*
X585724D01*
X577088Y425450D02*
X585978D01*
X576834Y425196D02*
X586232D01*
X576580Y424942D02*
X586486D01*
X576326Y424688D02*
X586740D01*
X576072Y424434D02*
X586994D01*
X575818Y424180D02*
X587248D01*
X575564Y423926D02*
X587502D01*
X578104Y443992D02*
X586232D01*
X578104Y443738D02*
X586486D01*
X578104Y443484D02*
X586740D01*
X578104Y443230D02*
X586994D01*
X578104Y442976D02*
X586994D01*
X578104Y442722D02*
X586994D01*
X583692Y442468D02*
X586994D01*
X583946Y442214D02*
X586994D01*
X584200Y441960D02*
X586994D01*
X584200Y441706D02*
X586994D01*
X584200Y441452D02*
X586994D01*
X584200Y441198D02*
X586994D01*
X584200Y440944D02*
X586994D01*
X584200Y440690D02*
X586994D01*
X584200Y440436D02*
X586994D01*
X584200Y440182D02*
X586994D01*
X583946Y439928D02*
X586994D01*
X583692Y439674D02*
X586994D01*
X578104Y439420D02*
X586994D01*
X578104Y439166D02*
X586994D01*
X578104Y438912D02*
X586994D01*
X578104Y438658D02*
X586740D01*
X578104Y438404D02*
X586486D01*
X578104Y438150D02*
X586232D01*
X578104Y437896D02*
X585978D01*
X578104Y437642D02*
X585724D01*
X578104Y437388D02*
X585470D01*
X578104Y437134D02*
X585216D01*
X578104Y436880D02*
X584962D01*
X578104Y436626D02*
X585216D01*
X582168Y436372D02*
X585216D01*
X582168Y436118D02*
X585216D01*
X582422Y435864D02*
X585470D01*
X582422Y435610D02*
X585470D01*
X582422Y435356D02*
X585470D01*
X582676Y435102D02*
X585470D01*
X582676Y434848D02*
X585724D01*
X582676Y434594D02*
X585724D01*
X582676Y434340D02*
X585724D01*
X582930Y434086D02*
X585724D01*
X582930Y433832D02*
X585978D01*
X582930Y433578D02*
X585978D01*
X583184Y433324D02*
X585978D01*
X583184Y433070D02*
X586232D01*
X578104Y445262D02*
X584962D01*
X578104Y445008D02*
X585216D01*
X578104Y444754D02*
X585470D01*
X578104Y444500D02*
X585724D01*
X578104Y444246D02*
X585978D01*
X395478Y432816D02*
X406908D01*
X391414Y453136D02*
X405638D01*
X388620Y473456D02*
X405638D01*
X427228Y432816D02*
X444754D01*
X428498Y453136D02*
X445770D01*
X461264Y412496D02*
X462788D01*
X449072Y432816D02*
X466090D01*
X480314Y412496D02*
X484378D01*
X479298Y432816D02*
X488188D01*
X454152Y453136D02*
X477266D01*
X428498Y473456D02*
X478282D01*
X522478Y432816D02*
X525272D01*
X543814Y412496D02*
X547624D01*
X560324D02*
X564388D01*
X500634Y432816D02*
X509524D01*
X583692Y412496D02*
X587756D01*
X583184Y432816D02*
X586232D01*
X408940Y407670D02*
X425450D01*
X409956Y407416D02*
X424688D01*
X410972Y407162D02*
X423672D01*
X400558Y412242D02*
X433832D01*
X400812Y411988D02*
X433578D01*
X401066Y411734D02*
X433324D01*
X401320Y411480D02*
X433070D01*
X401828Y411226D02*
X432562D01*
X402082Y410972D02*
X432308D01*
X402590Y410718D02*
X432054D01*
X402844Y410464D02*
X431546D01*
X403352Y410210D02*
X431038D01*
X403860Y409956D02*
X430784D01*
X404114Y409702D02*
X430276D01*
X404622Y409448D02*
X429768D01*
X405130Y409194D02*
X429260D01*
X405638Y408940D02*
X428752D01*
X406146Y408686D02*
X428244D01*
X406908Y408432D02*
X427736D01*
X407416Y408178D02*
X426974D01*
X408178Y407924D02*
X426212D01*
X398272Y414274D02*
X435864D01*
X398526Y414020D02*
X435610D01*
X398780Y413766D02*
X435356D01*
X399034Y413512D02*
X435102D01*
X399288Y413258D02*
X434848D01*
X399542Y413004D02*
X434594D01*
X399796Y412750D02*
X434340D01*
X396494Y424942D02*
X411988D01*
X396748Y424688D02*
X412496D01*
X397002Y424434D02*
X413004D01*
X397256Y424180D02*
X413766D01*
X397510Y423926D02*
X414782D01*
X397510Y423672D02*
X441706D01*
X397764Y423418D02*
X441706D01*
X398018Y423164D02*
X441452D01*
X398272Y422910D02*
X441452D01*
X398272Y422656D02*
X441198D01*
X398272Y422402D02*
X441198D01*
X398272Y422148D02*
X440944D01*
X398272Y421894D02*
X440944D01*
X398272Y421640D02*
X440690D01*
X398018Y421386D02*
X440690D01*
X397764Y421132D02*
X440436D01*
X397256Y420878D02*
X440436D01*
X403606Y420624D02*
X440182D01*
X404114Y420370D02*
X440182D01*
X404368Y420116D02*
X439928D01*
X404368Y419862D02*
X439928D01*
X404622Y419608D02*
X439674D01*
X404876Y419354D02*
X439420D01*
X404876Y419100D02*
X439420D01*
X404876Y418846D02*
X439166D01*
X404876Y418592D02*
X439166D01*
X404622Y418338D02*
X438912D01*
X404368Y418084D02*
X438658D01*
X403860Y417830D02*
X438658D01*
X401828Y417576D02*
X438404D01*
X401574Y417322D02*
X438150D01*
X401066Y417068D02*
X438150D01*
X400812Y416814D02*
X437896D01*
X400304Y416560D02*
X437642D01*
X400050Y416306D02*
X437388D01*
X399796Y416052D02*
X437388D01*
X399288Y415798D02*
X437134D01*
X399034Y415544D02*
X436880D01*
X398526Y415290D02*
X436626D01*
X398272Y415036D02*
X436626D01*
X398018Y414782D02*
X436372D01*
X398272Y414528D02*
X436118D01*
X400050Y412496D02*
X434086D01*
D12*
X1404140Y467330D02*
X1471140D01*
X1404140Y495330D02*
X1471140D01*
X1404140Y467330D02*
Y495330D01*
X1471140Y467330D02*
Y495330D01*
D13*
X852110Y831940D02*
X908110D01*
X852110Y747940D02*
X908110D01*
X1065470Y826957D02*
X1121470D01*
X1065470Y742957D02*
X1121470D01*
M02*
