G04*
G04 #@! TF.GenerationSoftware,Altium Limited,Altium Designer,18.1.7 (191)*
G04*
G04 Layer_Color=16711935*
%FSLAX44Y44*%
%MOMM*%
G71*
G01*
G75*
%ADD40R,1.2232X3.7032*%
%ADD43R,1.6032X1.3032*%
%ADD50R,1.3032X1.6032*%
%ADD52R,4.7032X1.5032*%
%ADD53R,4.1032X2.0032*%
%ADD54R,1.6032X1.2032*%
%ADD61R,2.2032X8.0772*%
%ADD70R,3.7032X3.2032*%
%ADD71R,0.7532X2.2032*%
%ADD72R,2.2032X0.7532*%
%ADD73R,0.7032X1.4032*%
%ADD74R,0.7032X1.8032*%
%ADD75R,5.2832X2.1032*%
G36*
X915163Y833439D02*
X915294Y833413D01*
X915420Y833371D01*
X915539Y833312D01*
X915650Y833238D01*
X915750Y833150D01*
X922250Y826650D01*
X922338Y826550D01*
X922412Y826439D01*
X922471Y826320D01*
X922514Y826193D01*
X922540Y826063D01*
X922548Y825930D01*
Y808930D01*
X922540Y808797D01*
X922514Y808667D01*
X922471Y808540D01*
X922412Y808421D01*
X922338Y808310D01*
X922250Y808210D01*
X915750Y801710D01*
X915650Y801622D01*
X915539Y801548D01*
X915420Y801489D01*
X915294Y801447D01*
X915163Y801421D01*
X915030Y801412D01*
X910030D01*
X909897Y801421D01*
X909766Y801447D01*
X909640Y801489D01*
X909521Y801548D01*
X909410Y801622D01*
X909310Y801710D01*
X902810Y808210D01*
X902722Y808310D01*
X902648Y808421D01*
X902589Y808540D01*
X902546Y808667D01*
X902521Y808797D01*
X902512Y808930D01*
Y825930D01*
X902521Y826063D01*
X902546Y826193D01*
X902589Y826320D01*
X902648Y826439D01*
X902722Y826550D01*
X902810Y826650D01*
X909310Y833150D01*
X909410Y833238D01*
X909521Y833312D01*
X909640Y833371D01*
X909766Y833413D01*
X909897Y833439D01*
X910030Y833448D01*
X915030D01*
X915163Y833439D01*
D02*
G37*
G36*
X837247Y833439D02*
X837377Y833413D01*
X837504Y833371D01*
X837623Y833312D01*
X837734Y833238D01*
X837834Y833150D01*
X844334Y826650D01*
X844422Y826550D01*
X844496Y826439D01*
X844555Y826320D01*
X844597Y826193D01*
X844623Y826063D01*
X844632Y825930D01*
Y808930D01*
X844623Y808797D01*
X844597Y808667D01*
X844555Y808540D01*
X844496Y808421D01*
X844422Y808310D01*
X844334Y808210D01*
X837834Y801710D01*
X837734Y801622D01*
X837623Y801548D01*
X837504Y801489D01*
X837377Y801447D01*
X837247Y801421D01*
X837114Y801412D01*
X832114D01*
X831981Y801421D01*
X831851Y801447D01*
X831724Y801489D01*
X831605Y801548D01*
X831494Y801622D01*
X831394Y801710D01*
X824894Y808210D01*
X824806Y808310D01*
X824732Y808421D01*
X824673Y808540D01*
X824631Y808667D01*
X824604Y808797D01*
X824596Y808930D01*
Y825930D01*
X824604Y826063D01*
X824631Y826193D01*
X824673Y826320D01*
X824732Y826439D01*
X824806Y826550D01*
X824894Y826650D01*
X831394Y833150D01*
X831494Y833238D01*
X831605Y833312D01*
X831724Y833371D01*
X831851Y833413D01*
X831981Y833439D01*
X832114Y833448D01*
X837114D01*
X837247Y833439D01*
D02*
G37*
G36*
X915163Y767459D02*
X915294Y767433D01*
X915420Y767391D01*
X915539Y767332D01*
X915650Y767258D01*
X915750Y767170D01*
X922250Y760670D01*
X922338Y760570D01*
X922412Y760459D01*
X922471Y760340D01*
X922514Y760213D01*
X922540Y760083D01*
X922548Y759950D01*
Y742950D01*
X922540Y742817D01*
X922514Y742686D01*
X922471Y742560D01*
X922412Y742441D01*
X922338Y742330D01*
X922250Y742230D01*
X915750Y735730D01*
X915650Y735642D01*
X915539Y735568D01*
X915420Y735509D01*
X915294Y735467D01*
X915163Y735441D01*
X915030Y735432D01*
X910030D01*
X909897Y735441D01*
X909766Y735467D01*
X909640Y735509D01*
X909521Y735568D01*
X909410Y735642D01*
X909310Y735730D01*
X902810Y742230D01*
X902722Y742330D01*
X902648Y742441D01*
X902589Y742560D01*
X902546Y742686D01*
X902521Y742817D01*
X902512Y742950D01*
Y759950D01*
X902521Y760083D01*
X902546Y760213D01*
X902589Y760340D01*
X902648Y760459D01*
X902722Y760570D01*
X902810Y760670D01*
X909310Y767170D01*
X909410Y767258D01*
X909521Y767332D01*
X909640Y767391D01*
X909766Y767433D01*
X909897Y767459D01*
X910030Y767468D01*
X915030D01*
X915163Y767459D01*
D02*
G37*
G36*
X837247Y766303D02*
X837377Y766277D01*
X837504Y766235D01*
X837623Y766176D01*
X837734Y766102D01*
X837834Y766014D01*
X844334Y759514D01*
X844422Y759414D01*
X844496Y759303D01*
X844555Y759184D01*
X844597Y759057D01*
X844623Y758927D01*
X844632Y758794D01*
Y741794D01*
X844623Y741661D01*
X844597Y741531D01*
X844555Y741404D01*
X844496Y741285D01*
X844422Y741174D01*
X844334Y741074D01*
X837834Y734574D01*
X837734Y734486D01*
X837623Y734412D01*
X837504Y734353D01*
X837377Y734311D01*
X837247Y734285D01*
X837114Y734276D01*
X832114D01*
X831981Y734285D01*
X831851Y734311D01*
X831724Y734353D01*
X831605Y734412D01*
X831494Y734486D01*
X831394Y734574D01*
X824894Y741074D01*
X824806Y741174D01*
X824732Y741285D01*
X824673Y741404D01*
X824631Y741531D01*
X824604Y741661D01*
X824596Y741794D01*
Y758794D01*
X824604Y758927D01*
X824631Y759057D01*
X824673Y759184D01*
X824732Y759303D01*
X824806Y759414D01*
X824894Y759514D01*
X831394Y766014D01*
X831494Y766102D01*
X831605Y766176D01*
X831724Y766235D01*
X831851Y766277D01*
X831981Y766303D01*
X832114Y766312D01*
X837114D01*
X837247Y766303D01*
D02*
G37*
G36*
X915163Y698820D02*
X915294Y698793D01*
X915420Y698751D01*
X915539Y698692D01*
X915650Y698618D01*
X915750Y698530D01*
X922250Y692030D01*
X922338Y691930D01*
X922412Y691819D01*
X922471Y691700D01*
X922514Y691573D01*
X922540Y691443D01*
X922548Y691310D01*
Y674310D01*
X922540Y674177D01*
X922514Y674046D01*
X922471Y673920D01*
X922412Y673801D01*
X922338Y673690D01*
X922250Y673590D01*
X915750Y667090D01*
X915650Y667002D01*
X915539Y666928D01*
X915420Y666869D01*
X915294Y666826D01*
X915163Y666801D01*
X915030Y666792D01*
X910030D01*
X909897Y666801D01*
X909766Y666826D01*
X909640Y666869D01*
X909521Y666928D01*
X909410Y667002D01*
X909310Y667090D01*
X902810Y673590D01*
X902722Y673690D01*
X902648Y673801D01*
X902589Y673920D01*
X902546Y674046D01*
X902521Y674177D01*
X902512Y674310D01*
Y691310D01*
X902521Y691443D01*
X902546Y691573D01*
X902589Y691700D01*
X902648Y691819D01*
X902722Y691930D01*
X902810Y692030D01*
X909310Y698530D01*
X909410Y698618D01*
X909521Y698692D01*
X909640Y698751D01*
X909766Y698793D01*
X909897Y698820D01*
X910030Y698828D01*
X915030D01*
X915163Y698820D01*
D02*
G37*
G36*
X837247Y698319D02*
X837377Y698294D01*
X837504Y698251D01*
X837623Y698192D01*
X837734Y698118D01*
X837834Y698030D01*
X844334Y691530D01*
X844422Y691430D01*
X844496Y691319D01*
X844555Y691200D01*
X844597Y691074D01*
X844623Y690943D01*
X844632Y690810D01*
Y673810D01*
X844623Y673677D01*
X844597Y673547D01*
X844555Y673420D01*
X844496Y673301D01*
X844422Y673190D01*
X844334Y673090D01*
X837834Y666590D01*
X837734Y666502D01*
X837623Y666428D01*
X837504Y666369D01*
X837377Y666327D01*
X837247Y666301D01*
X837114Y666292D01*
X832114D01*
X831981Y666301D01*
X831851Y666327D01*
X831724Y666369D01*
X831605Y666428D01*
X831494Y666502D01*
X831394Y666590D01*
X824894Y673090D01*
X824806Y673190D01*
X824732Y673301D01*
X824673Y673420D01*
X824631Y673547D01*
X824604Y673677D01*
X824596Y673810D01*
Y690810D01*
X824604Y690943D01*
X824631Y691074D01*
X824673Y691200D01*
X824732Y691319D01*
X824806Y691430D01*
X824894Y691530D01*
X831394Y698030D01*
X831494Y698118D01*
X831605Y698192D01*
X831724Y698251D01*
X831851Y698294D01*
X831981Y698319D01*
X832114Y698328D01*
X837114D01*
X837247Y698319D01*
D02*
G37*
G36*
X1059943Y833439D02*
X1060073Y833413D01*
X1060200Y833371D01*
X1060319Y833312D01*
X1060430Y833238D01*
X1060530Y833150D01*
X1067030Y826650D01*
X1067118Y826550D01*
X1067192Y826439D01*
X1067251Y826320D01*
X1067293Y826193D01*
X1067319Y826063D01*
X1067328Y825930D01*
Y808930D01*
X1067319Y808797D01*
X1067293Y808667D01*
X1067251Y808540D01*
X1067192Y808421D01*
X1067118Y808310D01*
X1067030Y808210D01*
X1060530Y801710D01*
X1060430Y801622D01*
X1060319Y801548D01*
X1060200Y801489D01*
X1060073Y801447D01*
X1059943Y801421D01*
X1059810Y801412D01*
X1054810D01*
X1054677Y801421D01*
X1054546Y801447D01*
X1054420Y801489D01*
X1054301Y801548D01*
X1054190Y801622D01*
X1054090Y801710D01*
X1047590Y808210D01*
X1047502Y808310D01*
X1047428Y808421D01*
X1047369Y808540D01*
X1047327Y808667D01*
X1047300Y808797D01*
X1047292Y808930D01*
Y825930D01*
X1047300Y826063D01*
X1047327Y826193D01*
X1047369Y826320D01*
X1047428Y826439D01*
X1047502Y826550D01*
X1047590Y826650D01*
X1054090Y833150D01*
X1054190Y833238D01*
X1054301Y833312D01*
X1054420Y833371D01*
X1054546Y833413D01*
X1054677Y833439D01*
X1054810Y833448D01*
X1059810D01*
X1059943Y833439D01*
D02*
G37*
G36*
X989183D02*
X989313Y833413D01*
X989439Y833371D01*
X989559Y833312D01*
X989669Y833238D01*
X989770Y833150D01*
X996270Y826650D01*
X996357Y826550D01*
X996431Y826439D01*
X996490Y826320D01*
X996533Y826193D01*
X996559Y826063D01*
X996568Y825930D01*
Y808930D01*
X996559Y808797D01*
X996533Y808667D01*
X996490Y808540D01*
X996432Y808421D01*
X996357Y808310D01*
X996270Y808210D01*
X989770Y801710D01*
X989669Y801622D01*
X989559Y801548D01*
X989439Y801489D01*
X989313Y801447D01*
X989183Y801421D01*
X989050Y801412D01*
X984050D01*
X983917Y801421D01*
X983786Y801447D01*
X983660Y801489D01*
X983541Y801548D01*
X983430Y801622D01*
X983330Y801710D01*
X976830Y808210D01*
X976742Y808310D01*
X976668Y808421D01*
X976609Y808540D01*
X976566Y808667D01*
X976540Y808797D01*
X976532Y808930D01*
Y825930D01*
X976540Y826063D01*
X976566Y826193D01*
X976609Y826320D01*
X976668Y826439D01*
X976742Y826550D01*
X976830Y826650D01*
X983330Y833150D01*
X983430Y833238D01*
X983541Y833312D01*
X983660Y833371D01*
X983786Y833413D01*
X983917Y833439D01*
X984050Y833448D01*
X989050D01*
X989183Y833439D01*
D02*
G37*
G36*
X1059943Y767459D02*
X1060073Y767433D01*
X1060200Y767391D01*
X1060319Y767332D01*
X1060430Y767258D01*
X1060530Y767170D01*
X1067030Y760670D01*
X1067118Y760570D01*
X1067192Y760459D01*
X1067251Y760340D01*
X1067293Y760213D01*
X1067319Y760083D01*
X1067328Y759950D01*
Y742950D01*
X1067319Y742817D01*
X1067293Y742686D01*
X1067251Y742560D01*
X1067192Y742441D01*
X1067118Y742330D01*
X1067030Y742230D01*
X1060530Y735730D01*
X1060430Y735642D01*
X1060319Y735568D01*
X1060200Y735509D01*
X1060073Y735467D01*
X1059943Y735441D01*
X1059810Y735432D01*
X1054810D01*
X1054677Y735441D01*
X1054547Y735467D01*
X1054420Y735509D01*
X1054301Y735568D01*
X1054190Y735642D01*
X1054090Y735730D01*
X1047590Y742230D01*
X1047502Y742330D01*
X1047428Y742441D01*
X1047369Y742560D01*
X1047327Y742686D01*
X1047300Y742817D01*
X1047292Y742950D01*
Y759950D01*
X1047300Y760083D01*
X1047327Y760213D01*
X1047369Y760340D01*
X1047428Y760459D01*
X1047502Y760570D01*
X1047590Y760670D01*
X1054090Y767170D01*
X1054190Y767258D01*
X1054301Y767332D01*
X1054420Y767391D01*
X1054547Y767433D01*
X1054677Y767459D01*
X1054810Y767468D01*
X1059810D01*
X1059943Y767459D01*
D02*
G37*
G36*
X988943D02*
X989073Y767433D01*
X989200Y767391D01*
X989319Y767332D01*
X989430Y767258D01*
X989530Y767170D01*
X996030Y760670D01*
X996118Y760570D01*
X996192Y760459D01*
X996251Y760340D01*
X996293Y760213D01*
X996319Y760083D01*
X996328Y759950D01*
Y742950D01*
X996319Y742817D01*
X996293Y742686D01*
X996251Y742560D01*
X996192Y742441D01*
X996118Y742330D01*
X996030Y742230D01*
X989530Y735730D01*
X989430Y735642D01*
X989319Y735568D01*
X989200Y735509D01*
X989073Y735467D01*
X988943Y735441D01*
X988810Y735432D01*
X983810D01*
X983677Y735441D01*
X983546Y735467D01*
X983420Y735509D01*
X983301Y735568D01*
X983190Y735642D01*
X983090Y735730D01*
X976590Y742230D01*
X976502Y742330D01*
X976428Y742441D01*
X976369Y742560D01*
X976326Y742686D01*
X976300Y742817D01*
X976292Y742950D01*
Y759950D01*
X976300Y760083D01*
X976326Y760213D01*
X976369Y760340D01*
X976428Y760459D01*
X976502Y760570D01*
X976590Y760670D01*
X983090Y767170D01*
X983190Y767258D01*
X983301Y767332D01*
X983420Y767391D01*
X983546Y767433D01*
X983677Y767459D01*
X983810Y767468D01*
X988810D01*
X988943Y767459D01*
D02*
G37*
G36*
X1059943Y698319D02*
X1060073Y698294D01*
X1060200Y698251D01*
X1060319Y698192D01*
X1060430Y698118D01*
X1060530Y698030D01*
X1067030Y691530D01*
X1067118Y691430D01*
X1067192Y691319D01*
X1067251Y691200D01*
X1067293Y691074D01*
X1067319Y690943D01*
X1067328Y690810D01*
Y673810D01*
X1067319Y673677D01*
X1067293Y673547D01*
X1067251Y673420D01*
X1067192Y673301D01*
X1067118Y673190D01*
X1067030Y673090D01*
X1060530Y666590D01*
X1060430Y666502D01*
X1060319Y666428D01*
X1060200Y666369D01*
X1060073Y666327D01*
X1059943Y666301D01*
X1059810Y666292D01*
X1054810D01*
X1054677Y666301D01*
X1054546Y666327D01*
X1054420Y666369D01*
X1054301Y666428D01*
X1054190Y666502D01*
X1054090Y666590D01*
X1047590Y673090D01*
X1047502Y673190D01*
X1047428Y673301D01*
X1047369Y673420D01*
X1047327Y673547D01*
X1047300Y673677D01*
X1047292Y673810D01*
Y690810D01*
X1047300Y690943D01*
X1047327Y691074D01*
X1047369Y691200D01*
X1047428Y691319D01*
X1047502Y691430D01*
X1047590Y691530D01*
X1054090Y698030D01*
X1054190Y698118D01*
X1054301Y698192D01*
X1054420Y698251D01*
X1054546Y698294D01*
X1054677Y698319D01*
X1054810Y698328D01*
X1059810D01*
X1059943Y698319D01*
D02*
G37*
G36*
X989183Y698319D02*
X989313Y698294D01*
X989439Y698251D01*
X989559Y698192D01*
X989669Y698118D01*
X989770Y698030D01*
X996270Y691530D01*
X996357Y691430D01*
X996431Y691319D01*
X996490Y691200D01*
X996533Y691074D01*
X996559Y690943D01*
X996568Y690810D01*
Y673810D01*
X996559Y673677D01*
X996533Y673547D01*
X996490Y673420D01*
X996432Y673301D01*
X996357Y673190D01*
X996270Y673090D01*
X989770Y666590D01*
X989669Y666502D01*
X989559Y666428D01*
X989439Y666369D01*
X989313Y666327D01*
X989183Y666301D01*
X989050Y666292D01*
X984050D01*
X983917Y666301D01*
X983786Y666327D01*
X983660Y666369D01*
X983541Y666428D01*
X983430Y666502D01*
X983330Y666590D01*
X976830Y673090D01*
X976742Y673190D01*
X976668Y673301D01*
X976609Y673420D01*
X976566Y673547D01*
X976540Y673677D01*
X976532Y673810D01*
Y690810D01*
X976540Y690943D01*
X976566Y691074D01*
X976609Y691200D01*
X976668Y691319D01*
X976742Y691430D01*
X976830Y691530D01*
X983330Y698030D01*
X983430Y698118D01*
X983541Y698192D01*
X983660Y698251D01*
X983786Y698294D01*
X983917Y698319D01*
X984050Y698328D01*
X989050D01*
X989183Y698319D01*
D02*
G37*
D40*
X714906Y830070D02*
D03*
X740306Y795070D02*
D03*
X765706Y830070D02*
D03*
X791106Y795070D02*
D03*
D43*
X562610Y692230D02*
D03*
Y672230D02*
D03*
X570573Y726600D02*
D03*
Y746600D02*
D03*
X707390Y749460D02*
D03*
Y769460D02*
D03*
D50*
X567850Y654050D02*
D03*
X587850D02*
D03*
X461576Y441840D02*
D03*
X481576D02*
D03*
X674360Y581283D02*
D03*
X654360D02*
D03*
X657156Y440960D02*
D03*
X677156D02*
D03*
X611702Y440960D02*
D03*
X631702D02*
D03*
X559366Y441840D02*
D03*
X579366D02*
D03*
X511244D02*
D03*
X531244D02*
D03*
X508298Y581283D02*
D03*
X528298D02*
D03*
X508744Y382270D02*
D03*
X528744D02*
D03*
X412379Y383420D02*
D03*
X432379D02*
D03*
X508298Y523197D02*
D03*
X528298D02*
D03*
X458546Y522317D02*
D03*
X478546D02*
D03*
X410704Y523197D02*
D03*
X430704D02*
D03*
X558398Y381890D02*
D03*
X578398D02*
D03*
X654360Y521970D02*
D03*
X674360D02*
D03*
X608756D02*
D03*
X628756D02*
D03*
X645480Y658052D02*
D03*
X665480D02*
D03*
X559222Y521970D02*
D03*
X579222D02*
D03*
X628830Y581283D02*
D03*
X608830D02*
D03*
X412379Y440960D02*
D03*
X432379D02*
D03*
X559222Y581283D02*
D03*
X579222D02*
D03*
X458630D02*
D03*
X478630D02*
D03*
X460222Y382540D02*
D03*
X480222D02*
D03*
X657156Y381890D02*
D03*
X677156D02*
D03*
X609202Y381890D02*
D03*
X629202D02*
D03*
X411934Y581283D02*
D03*
X431934D02*
D03*
X608971Y655512D02*
D03*
X628971D02*
D03*
D52*
X1200790Y488000D02*
D03*
Y463000D02*
D03*
Y438000D02*
D03*
Y413000D02*
D03*
Y513000D02*
D03*
Y538000D02*
D03*
Y563000D02*
D03*
Y588000D02*
D03*
X768202Y507800D02*
D03*
Y532800D02*
D03*
Y557800D02*
D03*
Y582800D02*
D03*
Y482800D02*
D03*
Y457800D02*
D03*
Y432800D02*
D03*
Y407800D02*
D03*
D53*
X1147790Y620000D02*
D03*
Y381000D02*
D03*
X821202Y375800D02*
D03*
Y614800D02*
D03*
D54*
X740840Y711860D02*
D03*
Y730860D02*
D03*
X762840Y721360D02*
D03*
X432640Y469010D02*
D03*
X410640Y478510D02*
D03*
Y459510D02*
D03*
X432640Y609300D02*
D03*
X410640Y618800D02*
D03*
Y599800D02*
D03*
X582952Y467316D02*
D03*
X560952Y476816D02*
D03*
Y457816D02*
D03*
X580223Y607770D02*
D03*
X558223Y617270D02*
D03*
Y598270D02*
D03*
X483722Y469280D02*
D03*
X461722Y478780D02*
D03*
Y459780D02*
D03*
X482046Y608420D02*
D03*
X460046Y617920D02*
D03*
Y598920D02*
D03*
X632701Y468630D02*
D03*
X610701Y478130D02*
D03*
Y459130D02*
D03*
X631026Y607770D02*
D03*
X609026Y617270D02*
D03*
Y598270D02*
D03*
X680290Y607770D02*
D03*
X658290Y617270D02*
D03*
Y598270D02*
D03*
X435879Y413683D02*
D03*
X413879Y423183D02*
D03*
Y404183D02*
D03*
X432185Y551180D02*
D03*
X410185Y560680D02*
D03*
Y541680D02*
D03*
X582906Y412153D02*
D03*
X560906Y421653D02*
D03*
Y402653D02*
D03*
X580223Y549445D02*
D03*
X558223Y558945D02*
D03*
Y539944D02*
D03*
X483722Y412803D02*
D03*
X461722Y422303D02*
D03*
Y403303D02*
D03*
X481533Y550094D02*
D03*
X459533Y559594D02*
D03*
Y540594D02*
D03*
X632701Y412153D02*
D03*
X610701Y421653D02*
D03*
Y402653D02*
D03*
X632030Y549445D02*
D03*
X610030Y558945D02*
D03*
Y539944D02*
D03*
X532244Y469010D02*
D03*
X510244Y478510D02*
D03*
Y459510D02*
D03*
X530568Y608150D02*
D03*
X508568Y617650D02*
D03*
Y598650D02*
D03*
X532244Y412533D02*
D03*
X510244Y422033D02*
D03*
Y403033D02*
D03*
X679426Y468630D02*
D03*
X657426Y478130D02*
D03*
Y459130D02*
D03*
X531698Y549910D02*
D03*
X509698Y559410D02*
D03*
Y540410D02*
D03*
X680656Y412153D02*
D03*
X658656Y421653D02*
D03*
Y402653D02*
D03*
X677710Y550714D02*
D03*
X655710Y560215D02*
D03*
Y541214D02*
D03*
D61*
X821960Y293370D02*
D03*
X782560D02*
D03*
X743160D02*
D03*
X703760D02*
D03*
X664360D02*
D03*
X624960D02*
D03*
X585560D02*
D03*
X546160D02*
D03*
X506760D02*
D03*
X467360D02*
D03*
X1338580D02*
D03*
X1299180D02*
D03*
X1259780D02*
D03*
X1220380D02*
D03*
X1180980D02*
D03*
X1141580D02*
D03*
D70*
X1380720Y603970D02*
D03*
X1252220Y558970D02*
D03*
Y648970D02*
D03*
D71*
X609540Y678860D02*
D03*
X617540D02*
D03*
X625540D02*
D03*
X633540D02*
D03*
X641540D02*
D03*
X649540D02*
D03*
X657540D02*
D03*
X665540D02*
D03*
X665540Y763860D02*
D03*
X657540D02*
D03*
X649540D02*
D03*
X641540D02*
D03*
X633540D02*
D03*
X625540D02*
D03*
X617540D02*
D03*
X609540D02*
D03*
D72*
X680040Y693360D02*
D03*
Y701360D02*
D03*
Y709360D02*
D03*
Y717360D02*
D03*
Y725360D02*
D03*
Y733360D02*
D03*
Y741360D02*
D03*
Y749360D02*
D03*
X595040Y749360D02*
D03*
Y741360D02*
D03*
Y733360D02*
D03*
Y725360D02*
D03*
Y717360D02*
D03*
Y709360D02*
D03*
Y701360D02*
D03*
Y693360D02*
D03*
D73*
X1042310Y657310D02*
D03*
X1072310D02*
D03*
X1042310Y726450D02*
D03*
X1072310D02*
D03*
X1042310Y792430D02*
D03*
X1072310D02*
D03*
X897530D02*
D03*
X927530D02*
D03*
X897530Y726450D02*
D03*
X927530D02*
D03*
X897530Y657810D02*
D03*
X927530D02*
D03*
X971550Y657310D02*
D03*
X1001550D02*
D03*
X971310Y726450D02*
D03*
X1001310D02*
D03*
X971550Y792430D02*
D03*
X1001550D02*
D03*
X819614Y792430D02*
D03*
X849614D02*
D03*
X819614Y725294D02*
D03*
X849614D02*
D03*
X819614Y657310D02*
D03*
X849614D02*
D03*
D74*
X1057310Y659310D02*
D03*
X1057310Y728450D02*
D03*
X1057310Y794430D02*
D03*
X912530D02*
D03*
Y728450D02*
D03*
Y659810D02*
D03*
X986550Y659310D02*
D03*
X986310Y728450D02*
D03*
X986550Y794430D02*
D03*
X834614Y794430D02*
D03*
Y727294D02*
D03*
X834614Y659310D02*
D03*
D75*
X1360170Y449040D02*
D03*
X1258570D02*
D03*
M02*
